<?xml version="1.0" encoding="UTF-8" standalone="no"?>
<!-- Created with Inkscape (http://www.inkscape.org/) -->

<svg
   width="75"
   height="75"
   viewBox="0 0 19.84375 19.84375"
   version="1.1"
   id="svg852"
   inkscape:version="1.3 (0e150ed6c4, 2023-07-21)"
   sodipodi:docname="aegis_crate_particle.svg"
   xmlns:inkscape="http://www.inkscape.org/namespaces/inkscape"
   xmlns:sodipodi="http://sodipodi.sourceforge.net/DTD/sodipodi-0.dtd"
   xmlns="http://www.w3.org/2000/svg"
   xmlns:svg="http://www.w3.org/2000/svg">
  <sodipodi:namedview
     id="namedview854"
     pagecolor="#505050"
     bordercolor="#ffffff"
     borderopacity="1"
     inkscape:pageshadow="0"
     inkscape:pageopacity="0"
     inkscape:pagecheckerboard="1"
     inkscape:document-units="px"
     showgrid="false"
     units="px"
     inkscape:zoom="0.77593293"
     inkscape:cx="-334.43612"
     inkscape:cy="164.31833"
     inkscape:window-width="1920"
     inkscape:window-height="1017"
     inkscape:window-x="-8"
     inkscape:window-y="-8"
     inkscape:window-maximized="1"
     inkscape:current-layer="layer1"
     inkscape:showpageshadow="2"
     inkscape:deskcolor="#d1d1d1" />
  <defs
     id="defs849" />
  <g
     inkscape:label="Layer 1"
     inkscape:groupmode="layer"
     id="layer1">
    <path
       id="rect935"
       style="fill:#2687d9;fill-opacity:1;stroke:#1b5e98;stroke-width:0.820302;stroke-linecap:round;stroke-miterlimit:4;stroke-dasharray:none;stroke-opacity:1"
       d="M 0.29001984,4.6403225 15.20347,19.553699 12.528699,15.78684 l 2.978384,2.321291 -2.814114,-4.257405 4.246094,3.117718 -0.52793,-1.343611 -1.717468,-3.070134 4.860125,2.648699 L 4.6403414,0.29002126 7.6629089,4.3367086 3.7238283,1.2065297 3.7011656,1.229193 5.6032988,4.5836833 2.5036944,2.4266587 2.4912298,2.4391236 4.1815114,5.4933974 3.0350198,5.1829858 4.9042987,7.5280696 Z" />
    <rect
       style="fill:#d96300;fill-opacity:1;stroke:none;stroke-width:1.5658;stroke-linecap:butt;stroke-linejoin:miter;stroke-miterlimit:4;stroke-dasharray:none;stroke-opacity:1"
       id="rect4220"
       width="33.151886"
       height="33.151886"
       x="-50.762623"
       y="-16.475567" />
    <path
       id="rect938"
       style="fill:#2687d9;fill-opacity:1;stroke-width:0;stroke-linecap:round"
       d="m -57.628428,-23.341368 v 46.985494 h 46.985498 v -46.985494 z m 7.927218,7.927218 h 31.13106 v 31.131058 h -31.13106 z" />
    <rect
       style="fill:none;fill-opacity:1;stroke:none;stroke-width:1.96165;stroke-linecap:butt;stroke-linejoin:bevel;stroke-miterlimit:4;stroke-dasharray:none;stroke-opacity:1"
       id="rect2620"
       width="33.151886"
       height="33.151886"
       x="-50.762623"
       y="-16.475567" />
    <circle
       style="fill:#808080;fill-opacity:1;stroke:#2e2e2e;stroke-width:0.980823;stroke-linecap:round;stroke-linejoin:round;stroke-opacity:1"
       id="path851"
       cx="-53.554138"
       cy="-19.26708"
       r="1.6222014" />
    <circle
       style="fill:#808080;fill-opacity:1;stroke:#2e2e2e;stroke-width:0.980823;stroke-linecap:round;stroke-linejoin:round;stroke-opacity:1"
       id="path851-3"
       cx="-14.717391"
       cy="-19.26708"
       r="1.6222014" />
    <circle
       style="fill:#808080;fill-opacity:1;stroke:#2e2e2e;stroke-width:0.980823;stroke-linecap:round;stroke-linejoin:round;stroke-opacity:1"
       id="path851-6"
       cx="-53.554138"
       cy="19.569666"
       r="1.6222014" />
    <circle
       style="fill:#808080;fill-opacity:1;stroke:#2e2e2e;stroke-width:0.980823;stroke-linecap:round;stroke-linejoin:round;stroke-opacity:1"
       id="path851-7"
       cx="-14.717391"
       cy="19.569666"
       r="1.6222014" />
    <rect
       style="fill:#002f55;fill-opacity:1;stroke:#1b5e98;stroke-width:1.96165;stroke-linecap:butt;stroke-linejoin:miter;stroke-miterlimit:4;stroke-dasharray:none;stroke-opacity:1"
       id="rect3681-5"
       width="31.131674"
       height="31.131672"
       x="-49.701519"
       y="-15.414456" />
    <rect
       style="fill:none;fill-opacity:1;stroke:#1b5e98;stroke-width:1.96165;stroke-linecap:round;stroke-linejoin:round;stroke-miterlimit:4;stroke-dasharray:none;stroke-opacity:1"
       id="rect2330"
       width="46.986267"
       height="46.986267"
       x="-57.628811"
       y="-23.341755" />
    <path
       style="fill:none;stroke:#1b5e98;stroke-width:1.96165;stroke-linecap:butt;stroke-linejoin:miter;stroke-miterlimit:4;stroke-dasharray:none;stroke-opacity:1"
       d="m -18.569844,-15.414457 h 7.8466"
       id="path5886" />
    <path
       style="fill:none;stroke:#1b5e98;stroke-width:1.96165;stroke-linecap:butt;stroke-linejoin:miter;stroke-miterlimit:4;stroke-dasharray:none;stroke-opacity:1"
       d="m -18.569844,15.717214 h 7.8466"
       id="path5886-3" />
    <path
       style="fill:none;stroke:#1b5e98;stroke-width:1.96165;stroke-linecap:butt;stroke-linejoin:miter;stroke-miterlimit:4;stroke-dasharray:none;stroke-opacity:1"
       d="m -57.54812,15.717214 h 7.846601"
       id="path5886-6" />
    <path
       style="fill:none;stroke:#1b5e98;stroke-width:1.96165;stroke-linecap:butt;stroke-linejoin:miter;stroke-miterlimit:4;stroke-dasharray:none;stroke-opacity:1"
       d="m -57.54812,-15.414457 h 7.846601"
       id="path5886-7" />
    <path
       style="fill:#002f55;fill-opacity:1;stroke:#4d4d4d;stroke-width:0.0735259;stroke-opacity:0"
       d="M -56.645206,0.13795007 V -14.45628 l 2.970032,0.0247 2.970033,0.0247 0.02368,14.56953107 0.02368,14.56952993 h -2.993714 -2.993712 z"
       id="path1" />
    <path
       style="fill:#002f55;fill-opacity:1;stroke:#4d4d4d;stroke-width:0.0735259;stroke-opacity:0"
       d="m -56.645206,-19.36473 v -2.946646 h 22.497413 22.497412 v 2.946646 2.946647 h -22.497412 -22.497413 z m 3.975634,2.020572 c 0.497914,-0.231023 0.941604,-0.71264 1.118554,-1.214168 0.268168,-0.76007 0.13348,-1.455463 -0.403384,-2.082668 -1.179617,-1.378117 -3.370126,-0.747884 -3.710715,1.067613 -0.154146,0.821665 0.41486,1.867989 1.212982,2.230507 0.494949,0.224812 1.296512,0.224235 1.782563,-0.0013 z m 39.054834,-0.126299 c 1.837727,-1.10352 1.03232,-3.905476 -1.122606,-3.905476 -1.908587,0 -2.827022,2.346431 -1.435118,3.666455 0.389006,0.368918 0.847241,0.535242 1.48603,0.539379 0.475427,0.0031 0.645972,-0.04472 1.071694,-0.300358 z"
       id="path2" />
    <path
       style="fill:#002f55;fill-opacity:1;stroke:#4d4d4d;stroke-width:0.0735259;stroke-opacity:0"
       d="M -17.543673,0.13926507 V -14.453652 h 2.946646 2.946646 V 0.13926507 14.732181 h -2.946646 -2.946646 z"
       id="path3" />
    <path
       style="fill:#002f55;fill-opacity:1;stroke:#4d4d4d;stroke-width:0.0735259;stroke-opacity:0"
       d="m -56.645206,19.690031 v -2.993419 h 22.497413 22.497412 v 2.993419 2.993419 h -22.497412 -22.497413 z m 4.00561,1.800648 c 1.02145,-0.47494 1.487881,-1.687676 1.04503,-2.717112 -0.347064,-0.806773 -1.090624,-1.329121 -1.890514,-1.328079 -1.16083,0.0016 -2.033951,0.761016 -2.190856,1.905762 -0.136735,0.997596 0.634038,2.047812 1.696743,2.311893 0.356439,0.08857 0.939677,0.01349 1.339597,-0.172464 z m 38.360632,0.157046 c 1.590977,-0.341201 2.230615,-2.276007 1.149036,-3.475646 -1.061943,-1.177859 -2.808529,-0.893392 -3.576516,0.582509 -0.183732,0.35309 -0.160034,1.295874 0.04232,1.683798 0.331999,0.636442 0.859912,1.064903 1.505826,1.22215 0.397769,0.09683 0.365905,0.0973 0.879329,-0.01281 z"
       id="path4" />
    <path
       style="fill:#001433;fill-opacity:1;stroke:#4d4d4d;stroke-width:0.0735259;stroke-opacity:0"
       d="m -58.018931,24.510964 c -0.641397,-0.278961 -0.590706,1.812581 -0.590706,-24.37320393 0,-17.25460507 0.02835,-23.73293907 0.104493,-23.88183707 0.05747,-0.112379 0.194279,-0.277055 0.304019,-0.365948 0.187867,-0.152178 1.594485,-0.161744 24.071502,-0.163702 l 23.871974,-0.0021 0.2624643,0.225758 0.262464,0.225759 0.02392,23.87750407 c 0.0217,21.65246793 0.01013,23.89857193 -0.124206,24.10358193 -0.3419663,0.521909 1.181756,0.491389 -24.3351723,0.487423 -19.858059,-0.0031 -23.599533,-0.024 -23.850757,-0.133255 z m 46.36855,-4.820933 v -2.993419 h -22.497412 -22.497413 v 2.993419 2.993419 h 22.497413 22.497412 z M -50.675368,0.23469007 c -0.02288,-7.97362007 -0.07399,-14.52990907 -0.113578,-14.56953107 -0.03959,-0.03962 -1.37344,-0.08663 -2.964118,-0.104463 l -2.892142,-0.03242 V 0.13022607 14.732181 h 3.005719 3.00572 z m 31.167264,-0.095425 V -14.453652 H -34.101021 -48.693938 V 0.13926507 14.732181 h 14.592917 14.592917 z m 7.857723,-0.0013 V -14.45628 l -2.970033,0.0247 -2.970032,0.0247 -0.02368,14.56953007 -0.02368,14.56952993 h 2.993713 2.99371 z m 0,-19.54945207 v -2.993434 h -22.497412 -22.497413 v 2.993419 2.993419 h 22.497413 22.497412 z"
       id="path5" />
    <g
       id="g5"
       transform="matrix(0.08164199,0,0,0.08164199,-48.820015,-14.532996)">
      <g
         stroke-width="2"
         fill="none"
         stroke-linecap="butt"
         id="g58">
        <path
           stroke="#808cb4"
           vector-effect="non-scaling-stroke"
           d="m 360,177.03 -82.54,-0.02 a 0.71,0.71 0 0 0 -0.71,0.71 v 4.31 a 0.95,0.95 0 0 0 0.95,0.95 l 82.3,-0.06"
           id="path1-7" />
        <path
           stroke="#808cb4"
           vector-effect="non-scaling-stroke"
           d="m 0,182.97 83.47,0.02 q 0.45,0 0.47,-0.45 l 0.21,-4.89 a 0.61,0.6 -88.6 0 0 -0.6,-0.64 L 0,177.05"
           id="path2-8" />
        <path
           stroke="#808cb4"
           vector-effect="non-scaling-stroke"
           d="m 132.06,106.59 q -2.14,2.47 -5.01,3.85"
           id="path3-6" />
        <path
           stroke="#000d3a"
           vector-effect="non-scaling-stroke"
           d="m 127.05,110.44 q -6.37,2.84 -10.59,9.04 c -1.5,2.21 -4.38,3.99 -6.08,6.22 -12.5,16.26 -19.07,35.48 -18.58,56.01 q 0.23,9.85 1.38,15.85 3.06,16 14.03,32.48 0.8,1.19 2.05,0.96"
           id="path4-2" />
        <path
           stroke="#808cb4"
           vector-effect="non-scaling-stroke"
           d="m 109.26,231 q 11.16,14.73 27,24.94"
           id="path5-0" />
        <path
           stroke="#000d3a"
           vector-effect="non-scaling-stroke"
           d="m 136.26,255.94 q 12.56,9.14 28.75,11.51 0.76,0.11 0.43,-1.14"
           id="path6" />
        <path
           stroke="#808cb4"
           vector-effect="non-scaling-stroke"
           d="m 165.44,266.31 q 17.98,2.82 35.46,-1.16"
           id="path7" />
        <path
           stroke="#03114d"
           vector-effect="non-scaling-stroke"
           d="m 200.9,265.15 q 0.99,1.39 3.38,0.68 13.57,-4.04 26.01,-12.31 0.48,-0.32 0.72,-0.73 0.59,-1.04 -0.25,-1.12"
           id="path8" />
        <path
           stroke="#808cb4"
           vector-effect="non-scaling-stroke"
           d="m 230.76,251.67 q 16.45,-11.66 26.48,-29.49"
           id="path9" />
        <path
           stroke="#000d3a"
           vector-effect="non-scaling-stroke"
           d="m 257.24,222.18 q 0.45,0.07 1.09,-0.23 a 1.6,1.57 -87.9 0 0 0.72,-0.68 c 11.72,-21.7 13.57,-47.91 4.94,-71.02 q -0.33,-0.88 -1.44,-0.98"
           id="path10" />
        <path
           stroke="#808cb4"
           vector-effect="non-scaling-stroke"
           d="M 262.55,149.27 Q 244.91,106.1 199.44,94.36"
           id="path11" />
        <path
           stroke="#000d3a"
           vector-effect="non-scaling-stroke"
           d="m 199.44,94.36 q -0.15,-0.91 -1.2,-1.14 -13.36,-2.87 -25.78,-1.58 c -2.97,0.31 -6.1,0.23 -8.89,0.83 q -17.49,3.78 -31.51,14.12"
           id="path12" />
        <path
           stroke="#808085"
           vector-effect="non-scaling-stroke"
           d="m 199.44,94.36 q -35.57,-7.05 -67.38,12.23"
           id="path13" />
        <path
           stroke="#808085"
           vector-effect="non-scaling-stroke"
           d="m 262.55,149.27 q 13.31,37.86 -5.31,72.91"
           id="path14" />
        <path
           stroke="#828498"
           vector-effect="non-scaling-stroke"
           d="m 230.76,251.67 q -13.58,9.61 -29.86,13.48"
           id="path15" />
        <path
           stroke="#808085"
           vector-effect="non-scaling-stroke"
           d="m 165.44,266.31 q -14.99,-2.88 -29.18,-10.37"
           id="path16" />
        <path
           stroke="#808085"
           vector-effect="non-scaling-stroke"
           d="M 109.26,231 C 81.52,191.35 90,140.78 127.05,110.44"
           id="path17" />
        <path
           stroke="#000d3a"
           vector-effect="non-scaling-stroke"
           d="m 153.35,277.33 c -9.87,6.19 -0.5,26.6 4.82,22.45"
           id="path18" />
        <path
           stroke="#808cb4"
           vector-effect="non-scaling-stroke"
           d="m 158.17,299.78 c 19.14,3.63 14.4,-36.54 -4.82,-22.45"
           id="path19" />
        <path
           stroke="#808085"
           vector-effect="non-scaling-stroke"
           d="m 158.17,299.78 c -9.48,-3.23 -9.02,-15.31 -4.82,-22.45"
           id="path20" />
        <path
           stroke="#808cb4"
           vector-effect="non-scaling-stroke"
           d="m 180,289.8 a 0.3,0.3 0 0 1 0.3,-0.3 h 7.4 a 0.3,0.3 0 0 0 0.3,-0.3 v -4.4 a 0.3,0.3 0 0 0 -0.3,-0.3 h -7.4 a 0.3,0.3 0 0 1 -0.3,-0.3 v -3.9 a 0.3,0.3 0 0 1 0.3,-0.3 h 8.65 a 0.3,0.3 0 0 0 0.3,-0.3 v -4.4 a 0.3,0.3 0 0 0 -0.3,-0.3 h -13.64 a 0.3,0.3 0 0 0 -0.3,0.3 l -0.03,23.92 a 0.3,0.3 0 0 0 0.3,0.3 l 4.42,-0.03 a 0.3,0.3 0 0 0 0.3,-0.3 v -9.39"
           id="path21" />
        <path
           stroke="#808cb4"
           vector-effect="non-scaling-stroke"
           d="m 198.75,287.23 a 0.39,0.38 -58 0 1 0.73,-0.17 l 5.83,12.03 a 0.73,0.7 -12.2 0 0 0.65,0.4 l 3.74,0.02 q 0.39,0.01 0.42,-0.38 c 0.72,-7.93 -0.24,-15.31 0.33,-23.63 q 0.04,-0.5 -0.46,-0.5 h -3.75 q -0.52,0 -0.51,0.51 l 0.07,12.1 a 0.36,0.36 0 0 1 -0.69,0.16 l -6.1,-12.28 q -0.24,-0.48 -0.77,-0.48 l -3.61,-0.02 q -0.63,0 -0.63,0.63 V 299 q 0,0.5 0.5,0.5 h 3.75 q 0.5,0 0.5,-0.5 v -11.77"
           id="path22" />
        <path
           stroke="#808cb4"
           vector-effect="non-scaling-stroke"
           d="m 129.65,118.32 c -32.58,27.21 -38.55,74.81 -13.31,109.4 q 0.32,0.44 0.81,0.21 l 30.64,-14.15 q 0.39,-0.18 0.55,-0.57 6.17,-14.79 13.42,-29.11 c 1.12,-2.23 2.28,-2.18 4.55,-2.26 q 9.46,-0.32 19.91,0.38 a 2.24,2.24 0 0 1 2.09,2.15 l 0.75,20.3 q 0.02,0.69 -0.66,0.83 c -7.81,1.55 -9.35,-4.26 -10.6,-10.32 a 0.67,0.66 81.4 0 0 -0.72,-0.54 l -5.14,0.44 a 0.68,0.67 85.3 0 0 -0.61,0.73 q 1.33,16.85 -10.72,28.05 a 0.66,0.66 0 0 0 0.38,1.14 c 1.97,0.2 7.87,-2.98 10.25,-3.91 a 1.36,1.36 0 0 1 1.77,0.77 q 1.3,3.33 1.25,6.95 a 2.28,2.28 0 0 0 1.7,2.23 l 10.54,2.78 a 1,1 0 0 1 0.29,1.81 l -0.28,0.18"
           id="path23" />
        <path
           stroke="#828498"
           vector-effect="non-scaling-stroke"
           d="m 186.51,235.81 c -6.63,2.61 -17.31,2.3 -24.2,2.57 a 8.26,8.25 27.5 0 0 -4.11,1.29 l -15.77,10.05 a 0.37,0.36 -49.6 0 0 0.05,0.64 l 7.71,3.43"
           id="path24" />
        <path
           stroke="#808cb4"
           vector-effect="non-scaling-stroke"
           d="m 150.19,253.79 q 5.91,2.76 12.31,3.88"
           id="path25" />
        <path
           stroke="#808085"
           vector-effect="non-scaling-stroke"
           d="m 162.5,257.67 c 28.78,7.28 58.87,-3.33 78.15,-25.35"
           id="path26" />
        <path
           stroke="#808cb4"
           vector-effect="non-scaling-stroke"
           d="m 240.65,232.32 q 5,-5.28 9,-12.25"
           id="path27" />
        <path
           stroke="#808085"
           vector-effect="non-scaling-stroke"
           d="m 249.65,220.07 c 18.31,-33.51 12.8,-74.07 -16.11,-99.6"
           id="path28" />
        <path
           stroke="#808cb4"
           vector-effect="non-scaling-stroke"
           d="m 233.54,120.47 q -1.28,-1.7 -2.89,-2.16"
           id="path29" />
        <path
           stroke="#828498"
           vector-effect="non-scaling-stroke"
           d="M 230.65,118.31 Q 208.47,99.72 180,100 q -27.76,0.27 -50.35,18.32"
           id="path30" />
        <path
           stroke="#03114d"
           vector-effect="non-scaling-stroke"
           d="m 230.65,118.31 q -19.36,-12.93 -40.99,-16.4 -5.17,-0.83 -11.24,-0.18 -0.51,0.06 -0.57,0.58 -0.58,5.06 0.73,10.72 0.2,0.87 -0.62,0.78"
           id="path31" />
        <path
           stroke="#828498"
           vector-effect="non-scaling-stroke"
           d="m 177.96,113.81 c -2.32,-2.47 -2.01,-7.92 -1.96,-11.05 a 0.32,0.32 0 0 0 -0.55,-0.23 c -7.61,7.57 -5.56,13.81 -2.08,23.33 q 2.66,7.3 3.17,14.78 0.14,2.14 1.25,0.3 3.26,-5.37 4.48,-11.46 0.16,-0.83 0.52,-0.07 c 1.88,4.05 0.27,10.97 -0.6,15.15 a 0.43,0.42 73.2 0 0 0.72,0.39 c 6.57,-6.75 10.39,-14.84 4.07,-24"
           id="path32" />
        <path
           stroke="#03114d"
           vector-effect="non-scaling-stroke"
           d="m 186.98,120.95 q 3.85,1.41 5.58,8.08"
           id="path33" />
        <path
           stroke="#828498"
           vector-effect="non-scaling-stroke"
           d="m 192.56,129.03 c -0.48,2.64 -0.21,5.6 -1.22,7.88 -1.5,3.39 -6.15,11.45 -10.66,11.53 a 1.25,1.24 -23.8 0 1 -0.88,-0.34 q -6.4,-5.82 -9,-13.85 c -1.24,-3.83 -0.82,-8.87 -1.2,-13.25 a 0.58,0.58 0 0 0 -1.11,-0.19 c -1.26,2.81 -3.09,5.88 -3.86,8.6 -2.5,8.78 1.17,13.01 6.45,19.25 q 0.5,0.6 -0.28,0.57 l -7.21,-0.25"
           id="path34" />
        <path
           stroke="#03114d"
           vector-effect="non-scaling-stroke"
           d="m 163.59,148.98 3.43,-1.23 q 0.59,-0.21 0.3,-0.76 c -1.19,-2.27 -2.96,-4.26 -3.63,-6.58 q -2.42,-8.3 1.45,-16.13 c 0.48,-0.97 1.38,-1.77 1.82,-2.93 q 0.17,-0.45 0.53,-0.76 1.65,-1.41 1.4,-3.79 -0.8,-7.61 3.84,-13.2 a 0.79,0.79 0 0 0 -0.61,-1.29 c -13.82,0.11 -29.22,7.52 -40.09,15.59 -0.71,0.52 -1.59,0.65 -2.38,0.42"
           id="path35" />
        <path
           stroke="#000d3a"
           vector-effect="non-scaling-stroke"
           d="m 233.54,120.47 q 1.75,3.41 4.75,6.17 2.64,2.42 3.89,4.22 c 2.52,3.62 5.44,7.4 7.36,11.15 12.29,23.98 13.03,52.15 -0.04,76.02 -0.44,0.79 -0.29,1.33 0.15,2.04"
           id="path36" />
        <path
           stroke="#000d3a"
           vector-effect="non-scaling-stroke"
           d="m 240.65,232.32 q -4.48,3.06 -8.47,6.71 c -10.4,9.52 -23.07,15.28 -36.77,18.32 -4.64,1.04 -9.65,1.06 -14.6,1.42 -2.58,0.2 -4.9,-0.45 -7.55,-0.56 q -1.92,-0.08 -5.31,-0.64 -2.87,-0.48 -5.45,0.1"
           id="path37" />
        <path
           stroke="#03114d"
           vector-effect="non-scaling-stroke"
           d="m 150.19,253.79 q -1.15,-2.14 -3.05,-2.97 -2.57,-1.12 -0.18,-2.6 5.12,-3.17 9.95,-6.39 c 4.66,-3.12 13.33,-2.69 18.63,-2.19"
           id="path38" />
        <path
           stroke="#808cb4"
           vector-effect="non-scaling-stroke"
           d="m 175.54,239.64 c 1.01,2.86 -2.16,4.24 -3.65,6.3 q -0.34,0.47 0.07,0.88 l 8.71,8.84"
           id="path39" />
        <path
           stroke="#000d3a"
           vector-effect="non-scaling-stroke"
           d="m 180.67,255.66 q 5.01,-3.36 8.67,-8.55 a 1.54,1.53 -42.5 0 0 0.08,-1.64 q -2.01,-3.55 -4.11,-3.16"
           id="path40" />
        <path
           stroke="#808cb4"
           vector-effect="non-scaling-stroke"
           d="m 185.31,242.31 q -0.84,-0.43 -0.17,-3.97"
           id="path41" />
        <path
           stroke="#03114d"
           vector-effect="non-scaling-stroke"
           d="m 185.14,238.34 q 1.41,-0.94 1.37,-2.53"
           id="path42" />
        <path
           stroke="#808cb4"
           vector-effect="non-scaling-stroke"
           d="m 163.59,148.98 0.74,2.1"
           id="path43" />
        <path
           stroke="#03114d"
           vector-effect="non-scaling-stroke"
           d="m 164.33,151.08 q -1.34,1.35 -0.54,2.88 1.95,3.73 3.65,7.68 0.2,0.48 -0.26,0.72 -1.69,0.89 -1.22,2.49"
           id="path44" />
        <path
           stroke="#808cb4"
           vector-effect="non-scaling-stroke"
           d="m 165.96,164.85 0.07,6.67 q 0.01,0.48 0.48,0.48 h 4.69 a 0.68,0.68 0 0 1 0.68,0.7 l -0.18,5.98 a 1.41,1.41 0 0 0 1.55,1.45 q 7.74,-0.76 15.24,1.26 0.51,0.13 0.51,-0.4 v -8.49 q 0,-0.5 0.5,-0.5 h 4.32 q 0.65,0 0.64,-0.65 l -0.15,-6.52"
           id="path45" />
        <path
           stroke="#03114d"
           vector-effect="non-scaling-stroke"
           d="m 194.31,164.83 c -2.04,-4.44 1.9,-8.05 3.25,-12.36 a 0.57,0.57 0 0 0 -0.33,-0.7 q -0.27,-0.1 -0.56,-0.07"
           id="path46" />
        <path
           stroke="#808cb4"
           vector-effect="non-scaling-stroke"
           d="m 196.67,151.7 0.79,-1.82 a 0.45,0.45 0 0 0 -0.41,-0.63 H 192 a 0.4,0.4 0 0 1 -0.25,-0.71 q 10.41,-8.69 0.81,-19.51"
           id="path47" />
        <path
           stroke="#808cb4"
           vector-effect="non-scaling-stroke"
           d="m 186.98,120.95 -9.02,-7.14"
           id="path48" />
        <path
           stroke="#828498"
           vector-effect="non-scaling-stroke"
           d="m 196.67,151.7 -5.3,10.59 a 1.27,1.27 0 0 1 -1.14,0.71 h -19.47 a 0.84,0.83 76.9 0 1 -0.75,-0.47 l -5.68,-11.45"
           id="path49" />
        <path
           stroke="#828498"
           vector-effect="non-scaling-stroke"
           d="m 194.31,164.83 -28.35,0.02"
           id="path50" />
        <path
           stroke="#828498"
           vector-effect="non-scaling-stroke"
           d="m 185.14,238.34 -9.6,1.3"
           id="path51" />
        <path
           stroke="#808085"
           vector-effect="non-scaling-stroke"
           d="m 185.31,242.31 3.63,3.55 a 0.63,0.63 0 0 1 0.02,0.88 l -8.29,8.92"
           id="path52" />
        <path
           stroke="#808085"
           vector-effect="non-scaling-stroke"
           d="m 151.92,231.64 2.87,1.81 a 0.35,0.34 0.5 0 0 0.48,-0.47 q -2.83,-4.74 -3.45,-10.26 a 0.36,0.36 0 0 0 -0.57,-0.25 q -0.12,0.09 -0.21,0.26 -0.12,0.24 -0.06,0.64 c 0.91,6.15 -5.86,8.89 -10.43,11.08 a 0.42,0.42 0 0 0 0.19,0.8 q 0.15,0 0.28,0.01 0.24,0.03 0.45,-0.09 4.44,-2.58 9.45,-3.7 0.54,-0.12 1,0.17"
           id="path53" />
        <path
           stroke="#808cb4"
           vector-effect="non-scaling-stroke"
           d="m 190.15,184.73 0.02,10.58 a 0.26,0.26 0 0 0 0.26,0.26 l 10.21,-0.02 a 3.16,3.01 89.9 0 0 3,-3.16 v -4.78 a 3.16,3.01 89.9 0 0 -3.02,-3.16 l -10.21,0.02 a 0.26,0.26 0 0 0 -0.26,0.26"
           id="path54" />
        <path
           stroke="#808cb4"
           vector-effect="non-scaling-stroke"
           d="m 186.03,208.88 16.52,1.09 a 1.28,1.28 0 0 0 1.36,-1.27 l 0.11,-10.46 A 1.23,1.22 -89.8 0 0 202.8,197 h -12.07 a 0.5,0.5 0 0 0 -0.5,0.52 l 0.34,7.7 a 1.73,1.73 0 0 1 -2.06,1.78 q -1.92,-0.36 -2.82,1.25 a 0.42,0.42 0 0 0 0.34,0.63"
           id="path55" />
        <path
           stroke="#808cb4"
           vector-effect="non-scaling-stroke"
           d="m 202.29,212.9 a 1.38,1.38 0 0 0 -1.3,-1.49 l -18.6,-1 a 1.38,1.38 0 0 0 -1.42,1.08 l -1.52,6.83 a 1.38,1.38 0 0 0 1.14,1.67 l 19.43,2.89 a 1.38,1.38 0 0 0 1.58,-1.25 l 0.69,-8.73"
           id="path56" />
        <path
           stroke="#808cb4"
           vector-effect="non-scaling-stroke"
           d="m 196.29,232.32 1.2,-6.54 a 1.25,1.25 0 0 0 -1.01,-1.45 l -13.7,-2.52 a 4.54,2.19 10.4 0 0 -4.86,1.34 l -0.86,4.68 a 4.54,2.19 10.4 0 0 4.07,2.97 l 13.7,2.52 a 1.25,1.25 0 0 0 1.46,-1"
           id="path57" />
        <path
           stroke="#808cb4"
           vector-effect="non-scaling-stroke"
           d="m 160.5035,294.73 a 7.59,4.81 90.2 0 0 4.8365,-7.5732 7.59,4.81 90.2 0 0 -4.7835,-7.6068 7.59,4.81 90.2 0 0 -4.8365,7.5732 7.59,4.81 90.2 0 0 4.7835,7.6068"
           id="path58" />
      </g>
      <path
         fill="#001969"
         d="m 0,0 h 360 v 177.03 l -82.54,-0.02 a 0.71,0.71 0 0 0 -0.71,0.71 v 4.31 a 0.95,0.95 0 0 0 0.95,0.95 L 360,182.92 V 360 H 0 V 182.97 l 83.47,0.02 q 0.45,0 0.47,-0.45 l 0.21,-4.89 a 0.61,0.6 -88.6 0 0 -0.6,-0.64 L 0,177.05 Z m 132.06,106.59 q -2.14,2.47 -5.01,3.85 -6.37,2.84 -10.59,9.04 c -1.5,2.21 -4.38,3.99 -6.08,6.22 -12.5,16.26 -19.07,35.48 -18.58,56.01 q 0.23,9.85 1.38,15.85 3.06,16 14.03,32.48 0.8,1.19 2.05,0.96 11.16,14.73 27,24.94 12.56,9.14 28.75,11.51 0.76,0.11 0.43,-1.14 17.98,2.82 35.46,-1.16 0.99,1.39 3.38,0.68 13.57,-4.04 26.01,-12.31 0.48,-0.32 0.72,-0.73 0.59,-1.04 -0.25,-1.12 16.45,-11.66 26.48,-29.49 0.45,0.07 1.09,-0.23 a 1.6,1.57 -87.9 0 0 0.72,-0.68 c 11.72,-21.7 13.57,-47.91 4.94,-71.02 q -0.33,-0.88 -1.44,-0.98 -17.64,-43.17 -63.11,-54.91 -0.15,-0.91 -1.2,-1.14 -13.36,-2.87 -25.78,-1.58 c -2.97,0.31 -6.1,0.23 -8.89,0.83 q -17.49,3.78 -31.51,14.12 z m 21.29,170.74 c -9.87,6.19 -0.5,26.6 4.82,22.45 19.14,3.63 14.4,-36.54 -4.82,-22.45 z M 180,289.8 a 0.3,0.3 0 0 1 0.3,-0.3 h 7.4 a 0.3,0.3 0 0 0 0.3,-0.3 v -4.4 a 0.3,0.3 0 0 0 -0.3,-0.3 h -7.4 a 0.3,0.3 0 0 1 -0.3,-0.3 v -3.9 a 0.3,0.3 0 0 1 0.3,-0.3 h 8.65 a 0.3,0.3 0 0 0 0.3,-0.3 v -4.4 a 0.3,0.3 0 0 0 -0.3,-0.3 h -13.64 a 0.3,0.3 0 0 0 -0.3,0.3 l -0.03,23.92 a 0.3,0.3 0 0 0 0.3,0.3 l 4.42,-0.03 a 0.3,0.3 0 0 0 0.3,-0.3 z m 18.75,-2.57 a 0.39,0.38 -58 0 1 0.73,-0.17 l 5.83,12.03 a 0.73,0.7 -12.2 0 0 0.65,0.4 l 3.74,0.02 q 0.39,0.01 0.42,-0.38 c 0.72,-7.93 -0.24,-15.31 0.33,-23.63 q 0.04,-0.5 -0.46,-0.5 h -3.75 q -0.52,0 -0.51,0.51 l 0.07,12.1 a 0.36,0.36 0 0 1 -0.69,0.16 l -6.1,-12.28 q -0.24,-0.48 -0.77,-0.48 l -3.61,-0.02 q -0.63,0 -0.63,0.63 V 299 q 0,0.5 0.5,0.5 h 3.75 q 0.5,0 0.5,-0.5 z"
         id="path59" />
      <path
         fill="#00010a"
         d="m 199.44,94.36 q -35.57,-7.05 -67.38,12.23 14.02,-10.34 31.51,-14.12 c 2.79,-0.6 5.92,-0.52 8.89,-0.83 q 12.42,-1.29 25.78,1.58 1.05,0.23 1.2,1.14 z"
         id="path60" />
      <path
         fill="#ffffff"
         d="m 199.44,94.36 q 45.47,11.74 63.11,54.91 13.31,37.86 -5.31,72.91 -10.03,17.83 -26.48,29.49 -13.58,9.61 -29.86,13.48 -17.48,3.98 -35.46,1.16 -14.99,-2.88 -29.18,-10.37 -15.84,-10.21 -27,-24.94 C 81.52,191.35 90,140.78 127.05,110.44 q 2.87,-1.38 5.01,-3.85 31.81,-19.28 67.38,-12.23 z m -69.79,23.96 c -32.58,27.21 -38.55,74.81 -13.31,109.4 q 0.32,0.44 0.81,0.21 l 30.64,-14.15 q 0.39,-0.18 0.55,-0.57 6.17,-14.79 13.42,-29.11 c 1.12,-2.23 2.28,-2.18 4.55,-2.26 q 9.46,-0.32 19.91,0.38 a 2.24,2.24 0 0 1 2.09,2.15 l 0.75,20.3 q 0.02,0.69 -0.66,0.83 c -7.81,1.55 -9.35,-4.26 -10.6,-10.32 a 0.67,0.66 81.4 0 0 -0.72,-0.54 l -5.14,0.44 a 0.68,0.67 85.3 0 0 -0.61,0.73 q 1.33,16.85 -10.72,28.05 a 0.66,0.66 0 0 0 0.38,1.14 c 1.97,0.2 7.87,-2.98 10.25,-3.91 a 1.36,1.36 0 0 1 1.77,0.77 q 1.3,3.33 1.25,6.95 a 2.28,2.28 0 0 0 1.7,2.23 l 10.54,2.78 a 1,1 0 0 1 0.29,1.81 l -0.28,0.18 c -6.63,2.61 -17.31,2.3 -24.2,2.57 a 8.26,8.25 27.5 0 0 -4.11,1.29 l -15.77,10.05 a 0.37,0.36 -49.6 0 0 0.05,0.64 l 7.71,3.43 q 5.91,2.76 12.31,3.88 c 28.78,7.28 58.87,-3.33 78.15,-25.35 q 5,-5.28 9,-12.25 c 18.31,-33.51 12.8,-74.07 -16.11,-99.6 q -1.28,-1.7 -2.89,-2.16 Q 208.47,99.72 180,100 q -27.76,0.27 -50.35,18.32 z m 22.27,113.32 2.87,1.81 a 0.35,0.34 0.5 0 0 0.48,-0.47 q -2.83,-4.74 -3.45,-10.26 a 0.36,0.36 0 0 0 -0.57,-0.25 q -0.12,0.09 -0.21,0.26 -0.12,0.24 -0.06,0.64 c 0.91,6.15 -5.86,8.89 -10.43,11.08 a 0.42,0.42 0 0 0 0.19,0.8 q 0.15,0 0.28,0.01 0.24,0.03 0.45,-0.09 4.44,-2.58 9.45,-3.7 0.54,-0.12 1,0.17 z"
         id="path61" />
      <path
         fill="#050831"
         d="m 230.65,118.31 q -19.36,-12.93 -40.99,-16.4 -5.17,-0.83 -11.24,-0.18 -0.51,0.06 -0.57,0.58 -0.58,5.06 0.73,10.72 0.2,0.87 -0.62,0.78 c -2.32,-2.47 -2.01,-7.92 -1.96,-11.05 a 0.32,0.32 0 0 0 -0.55,-0.23 c -7.61,7.57 -5.56,13.81 -2.08,23.33 q 2.66,7.3 3.17,14.78 0.14,2.14 1.25,0.3 3.26,-5.37 4.48,-11.46 0.16,-0.83 0.52,-0.07 c 1.88,4.05 0.27,10.97 -0.6,15.15 a 0.43,0.42 73.2 0 0 0.72,0.39 c 6.57,-6.75 10.39,-14.84 4.07,-24 q 3.85,1.41 5.58,8.08 c -0.48,2.64 -0.21,5.6 -1.22,7.88 -1.5,3.39 -6.15,11.45 -10.66,11.53 a 1.25,1.24 -23.8 0 1 -0.88,-0.34 q -6.4,-5.82 -9,-13.85 c -1.24,-3.83 -0.82,-8.87 -1.2,-13.25 a 0.58,0.58 0 0 0 -1.11,-0.19 c -1.26,2.81 -3.09,5.88 -3.86,8.6 -2.5,8.78 1.17,13.01 6.45,19.25 q 0.5,0.6 -0.28,0.57 l -7.21,-0.25 3.43,-1.23 q 0.59,-0.21 0.3,-0.76 c -1.19,-2.27 -2.96,-4.26 -3.63,-6.58 q -2.42,-8.3 1.45,-16.13 c 0.48,-0.97 1.38,-1.77 1.82,-2.93 q 0.17,-0.45 0.53,-0.76 1.65,-1.41 1.4,-3.79 -0.8,-7.61 3.84,-13.2 a 0.79,0.79 0 0 0 -0.61,-1.29 c -13.82,0.11 -29.22,7.52 -40.09,15.59 -0.71,0.52 -1.59,0.65 -2.38,0.42 Q 152.24,100.27 180,100 q 28.47,-0.28 50.65,18.31 z"
         id="path62" />
      <path
         fill="#001969"
         d="m 230.65,118.31 q 1.61,0.46 2.89,2.16 1.75,3.41 4.75,6.17 2.64,2.42 3.89,4.22 c 2.52,3.62 5.44,7.4 7.36,11.15 12.29,23.98 13.03,52.15 -0.04,76.02 -0.44,0.79 -0.29,1.33 0.15,2.04 q -4,6.97 -9,12.25 -4.48,3.06 -8.47,6.71 c -10.4,9.52 -23.07,15.28 -36.77,18.32 -4.64,1.04 -9.65,1.06 -14.6,1.42 -2.58,0.2 -4.9,-0.45 -7.55,-0.56 q -1.92,-0.08 -5.31,-0.64 -2.87,-0.48 -5.45,0.1 -6.4,-1.12 -12.31,-3.88 -1.15,-2.14 -3.05,-2.97 -2.57,-1.12 -0.18,-2.6 5.12,-3.17 9.95,-6.39 c 4.66,-3.12 13.33,-2.69 18.63,-2.19 1.01,2.86 -2.16,4.24 -3.65,6.3 q -0.34,0.47 0.07,0.88 l 8.71,8.84 q 5.01,-3.36 8.67,-8.55 a 1.54,1.53 -42.5 0 0 0.08,-1.64 q -2.01,-3.55 -4.11,-3.16 -0.84,-0.43 -0.17,-3.97 1.41,-0.94 1.37,-2.53 l 0.28,-0.18 a 1,1 0 0 0 -0.29,-1.81 l -10.54,-2.78 a 2.28,2.28 0 0 1 -1.7,-2.23 q 0.05,-3.62 -1.25,-6.95 a 1.36,1.36 0 0 0 -1.77,-0.77 c -2.38,0.93 -8.28,4.11 -10.25,3.91 a 0.66,0.66 0 0 1 -0.38,-1.14 q 12.05,-11.2 10.72,-28.05 a 0.68,0.67 85.3 0 1 0.61,-0.73 l 5.14,-0.44 a 0.67,0.66 81.4 0 1 0.72,0.54 c 1.25,6.06 2.79,11.87 10.6,10.32 q 0.68,-0.14 0.66,-0.83 l -0.75,-20.3 a 2.24,2.24 0 0 0 -2.09,-2.15 q -10.45,-0.7 -19.91,-0.38 c -2.27,0.08 -3.43,0.03 -4.55,2.26 q -7.25,14.32 -13.42,29.11 -0.16,0.39 -0.55,0.57 l -30.64,14.15 q -0.49,0.23 -0.81,-0.21 c -25.24,-34.59 -19.27,-82.19 13.31,-109.4 0.79,0.23 1.67,0.1 2.38,-0.42 10.87,-8.07 26.27,-15.48 40.09,-15.59 a 0.79,0.79 0 0 1 0.61,1.29 q -4.64,5.59 -3.84,13.2 0.25,2.38 -1.4,3.79 -0.36,0.31 -0.53,0.76 c -0.44,1.16 -1.34,1.96 -1.82,2.93 q -3.87,7.83 -1.45,16.13 c 0.67,2.32 2.44,4.31 3.63,6.58 q 0.29,0.55 -0.3,0.76 l -3.43,1.23 0.74,2.1 q -1.34,1.35 -0.54,2.88 1.95,3.73 3.65,7.68 0.2,0.48 -0.26,0.72 -1.69,0.89 -1.22,2.49 l 0.07,6.67 q 0.01,0.48 0.48,0.48 h 4.69 a 0.68,0.68 0 0 1 0.68,0.7 l -0.18,5.98 a 1.41,1.41 0 0 0 1.55,1.45 q 7.74,-0.76 15.24,1.26 0.51,0.13 0.51,-0.4 v -8.49 q 0,-0.5 0.5,-0.5 h 4.32 q 0.65,0 0.64,-0.65 l -0.15,-6.52 c -2.04,-4.44 1.9,-8.05 3.25,-12.36 a 0.57,0.57 0 0 0 -0.33,-0.7 q -0.27,-0.1 -0.56,-0.07 l 0.79,-1.82 a 0.45,0.45 0 0 0 -0.41,-0.63 H 192 a 0.4,0.4 0 0 1 -0.25,-0.71 q 10.41,-8.69 0.81,-19.51 -1.73,-6.67 -5.58,-8.08 l -9.02,-7.14 q 0.82,0.09 0.62,-0.78 -1.31,-5.66 -0.73,-10.72 0.06,-0.52 0.57,-0.58 6.07,-0.65 11.24,0.18 21.63,3.47 40.99,16.4 z m -40.5,66.42 0.02,10.58 a 0.26,0.26 0 0 0 0.26,0.26 l 10.21,-0.02 a 3.16,3.01 89.9 0 0 3,-3.16 v -4.78 a 3.16,3.01 89.9 0 0 -3.02,-3.16 l -10.21,0.02 a 0.26,0.26 0 0 0 -0.26,0.26 z m -4.12,24.15 16.52,1.09 a 1.28,1.28 0 0 0 1.36,-1.27 l 0.11,-10.46 A 1.23,1.22 -89.8 0 0 202.8,197 h -12.07 a 0.5,0.5 0 0 0 -0.5,0.52 l 0.34,7.7 a 1.73,1.73 0 0 1 -2.06,1.78 q -1.92,-0.36 -2.82,1.25 a 0.42,0.42 0 0 0 0.34,0.63 z m 16.26,4.02 a 1.38,1.38 0 0 0 -1.3,-1.49 l -18.6,-1 a 1.38,1.38 0 0 0 -1.42,1.08 l -1.52,6.83 a 1.38,1.38 0 0 0 1.14,1.67 l 19.43,2.89 a 1.38,1.38 0 0 0 1.58,-1.25 z m -6,19.42 1.2,-6.54 a 1.25,1.25 0 0 0 -1.01,-1.45 l -13.7,-2.52 a 4.54,2.19 10.4 0 0 -4.86,1.34 l -0.86,4.68 a 4.54,2.19 10.4 0 0 4.07,2.97 l 13.7,2.52 a 1.25,1.25 0 0 0 1.46,-1 z"
         id="path63" />
      <path
         fill="#ffffff"
         d="m 177.96,113.81 9.02,7.14 c 6.32,9.16 2.5,17.25 -4.07,24 a 0.43,0.42 73.2 0 1 -0.72,-0.39 c 0.87,-4.18 2.48,-11.1 0.6,-15.15 q -0.36,-0.76 -0.52,0.07 -1.22,6.09 -4.48,11.46 -1.11,1.84 -1.25,-0.3 -0.51,-7.48 -3.17,-14.78 c -3.48,-9.52 -5.53,-15.76 2.08,-23.33 a 0.32,0.32 0 0 1 0.55,0.23 c -0.05,3.13 -0.36,8.58 1.96,11.05 z"
         id="path64" />
      <path
         fill="#00010a"
         d="M 127.05,110.44 C 90,140.78 81.52,191.35 109.26,231 q -1.25,0.23 -2.05,-0.96 -10.97,-16.48 -14.03,-32.48 -1.15,-6 -1.38,-15.85 c -0.49,-20.53 6.08,-39.75 18.58,-56.01 1.7,-2.23 4.58,-4.01 6.08,-6.22 q 4.22,-6.2 10.59,-9.04 z"
         id="path65" />
      <path
         fill="#ffffff"
         d="m 192.56,129.03 q 9.6,10.82 -0.81,19.51 a 0.4,0.4 0 0 0 0.25,0.71 h 5.05 a 0.45,0.45 0 0 1 0.41,0.63 l -0.79,1.82 -5.3,10.59 a 1.27,1.27 0 0 1 -1.14,0.71 h -19.47 a 0.84,0.83 76.9 0 1 -0.75,-0.47 l -5.68,-11.45 -0.74,-2.1 7.21,0.25 q 0.78,0.03 0.28,-0.57 c -5.28,-6.24 -8.95,-10.47 -6.45,-19.25 0.77,-2.72 2.6,-5.79 3.86,-8.6 a 0.58,0.58 0 0 1 1.11,0.19 c 0.38,4.38 -0.04,9.42 1.2,13.25 q 2.6,8.03 9,13.85 a 1.25,1.24 -23.8 0 0 0.88,0.34 c 4.51,-0.08 9.16,-8.14 10.66,-11.53 1.01,-2.28 0.74,-5.24 1.22,-7.88 z"
         id="path66" />
      <path
         fill="#00010a"
         d="m 233.54,120.47 c 28.91,25.53 34.42,66.09 16.11,99.6 -0.44,-0.71 -0.59,-1.25 -0.15,-2.04 13.07,-23.87 12.33,-52.04 0.04,-76.02 -1.92,-3.75 -4.84,-7.53 -7.36,-11.15 q -1.25,-1.8 -3.89,-4.22 -3,-2.76 -4.75,-6.17 z"
         id="path67" />
      <path
         fill="#00010a"
         d="m 262.55,149.27 q 1.11,0.1 1.44,0.98 c 8.63,23.11 6.78,49.32 -4.94,71.02 a 1.6,1.57 -87.9 0 1 -0.72,0.68 q -0.64,0.3 -1.09,0.23 18.62,-35.05 5.31,-72.91 z"
         id="path68" />
      <path
         fill="#050831"
         d="m 164.33,151.08 5.68,11.45 a 0.84,0.83 76.9 0 0 0.75,0.47 h 19.47 a 1.27,1.27 0 0 0 1.14,-0.71 l 5.3,-10.59 q 0.29,-0.03 0.56,0.07 a 0.57,0.57 0 0 1 0.33,0.7 c -1.35,4.31 -5.29,7.92 -3.25,12.36 l -28.35,0.02 q -0.47,-1.6 1.22,-2.49 0.46,-0.24 0.26,-0.72 -1.7,-3.95 -3.65,-7.68 -0.8,-1.53 0.54,-2.88 z"
         id="path69" />
      <path
         fill="#ffffff"
         d="m 194.31,164.83 0.15,6.52 q 0.01,0.65 -0.64,0.65 h -4.32 q -0.5,0 -0.5,0.5 v 8.49 q 0,0.53 -0.51,0.4 -7.5,-2.02 -15.24,-1.26 a 1.41,1.41 0 0 1 -1.55,-1.45 l 0.18,-5.98 A 0.68,0.68 0 0 0 171.2,172 h -4.69 q -0.47,0 -0.48,-0.48 l -0.07,-6.67 z"
         id="path70" />
      <path
         fill="#ffffff"
         d="m 0,182.97 v -5.92 l 83.55,-0.04 a 0.61,0.6 -88.6 0 1 0.6,0.64 l -0.21,4.89 q -0.02,0.45 -0.47,0.45 z"
         id="path71" />
      <path
         fill="#ffffff"
         d="m 360,177.03 v 5.89 l -82.3,0.06 a 0.95,0.95 0 0 1 -0.95,-0.95 v -4.31 a 0.71,0.71 0 0 1 0.71,-0.71 z"
         id="path72" />
      <path
         fill="#ffffff"
         d="m 190.15,184.73 a 0.26,0.26 0 0 1 0.26,-0.26 l 10.21,-0.02 a 3.16,3.01 89.9 0 1 3.02,3.16 v 4.78 a 3.16,3.01 89.9 0 1 -3,3.16 l -10.21,0.02 a 0.26,0.26 0 0 1 -0.26,-0.26 z"
         id="path73" />
      <path
         fill="#ffffff"
         d="m 186.03,208.88 a 0.42,0.42 0 0 1 -0.34,-0.63 q 0.9,-1.61 2.82,-1.25 a 1.73,1.73 0 0 0 2.06,-1.78 l -0.34,-7.7 a 0.5,0.5 0 0 1 0.5,-0.52 h 12.07 a 1.23,1.22 -89.8 0 1 1.22,1.24 l -0.11,10.46 a 1.28,1.28 0 0 1 -1.36,1.27 z"
         id="path74" />
      <path
         fill="#ffffff"
         d="m 202.29,212.9 -0.69,8.73 a 1.38,1.38 0 0 1 -1.58,1.25 l -19.43,-2.89 a 1.38,1.38 0 0 1 -1.14,-1.67 l 1.52,-6.83 a 1.38,1.38 0 0 1 1.42,-1.08 l 18.6,1 a 1.38,1.38 0 0 1 1.3,1.49 z"
         id="path75" />
      <path
         fill="#ffffff"
         d="m 196.29,232.32 a 1.25,1.25 0 0 1 -1.46,1 l -13.7,-2.52 a 4.54,2.19 10.4 0 1 -4.07,-2.97 l 0.86,-4.68 a 4.54,2.19 10.4 0 1 4.86,-1.34 l 13.7,2.52 a 1.25,1.25 0 0 1 1.01,1.45 z"
         id="path76" />
      <path
         fill="#00010a"
         d="m 150.92,231.47 q -5.01,1.12 -9.45,3.7 -0.21,0.12 -0.45,0.09 -0.13,-0.01 -0.28,-0.01 a 0.42,0.42 0 0 1 -0.19,-0.8 c 4.57,-2.19 11.34,-4.93 10.43,-11.08 q -0.06,-0.4 0.06,-0.64 0.09,-0.17 0.21,-0.26 a 0.36,0.36 0 0 1 0.57,0.25 q 0.62,5.52 3.45,10.26 a 0.35,0.34 0.5 0 1 -0.48,0.47 l -2.87,-1.81 q -0.46,-0.29 -1,-0.17 z"
         id="path77" />
      <path
         fill="#00010a"
         d="m 240.65,232.32 c -19.28,22.02 -49.37,32.63 -78.15,25.35 q 2.58,-0.58 5.45,-0.1 3.39,0.56 5.31,0.64 c 2.65,0.11 4.97,0.76 7.55,0.56 4.95,-0.36 9.96,-0.38 14.6,-1.42 13.7,-3.04 26.37,-8.8 36.77,-18.32 q 3.99,-3.65 8.47,-6.71 z"
         id="path78" />
      <path
         fill="#050831"
         d="m 186.51,235.81 q 0.04,1.59 -1.37,2.53 l -9.6,1.3 c -5.3,-0.5 -13.97,-0.93 -18.63,2.19 q -4.83,3.22 -9.95,6.39 -2.39,1.48 0.18,2.6 1.9,0.83 3.05,2.97 l -7.71,-3.43 a 0.37,0.36 -49.6 0 1 -0.05,-0.64 l 15.77,-10.05 a 8.26,8.25 27.5 0 1 4.11,-1.29 c 6.89,-0.27 17.57,0.04 24.2,-2.57 z"
         id="path79" />
      <path
         fill="#ffffff"
         d="m 185.14,238.34 q -0.67,3.54 0.17,3.97 l 3.63,3.55 a 0.63,0.63 0 0 1 0.02,0.88 l -8.29,8.92 -8.71,-8.84 q -0.41,-0.41 -0.07,-0.88 c 1.49,-2.06 4.66,-3.44 3.65,-6.3 z"
         id="path80" />
      <path
         fill="#00010a"
         d="m 180.67,255.66 8.29,-8.92 a 0.63,0.63 0 0 0 -0.02,-0.88 l -3.63,-3.55 q 2.1,-0.39 4.11,3.16 a 1.54,1.53 -42.5 0 1 -0.08,1.64 q -3.66,5.19 -8.67,8.55 z"
         id="path81" />
      <path
         fill="#050831"
         d="m 230.76,251.67 q 0.84,0.08 0.25,1.12 -0.24,0.41 -0.72,0.73 -12.44,8.27 -26.01,12.31 -2.39,0.71 -3.38,-0.68 16.28,-3.87 29.86,-13.48 z"
         id="path82" />
      <path
         fill="#00010a"
         d="m 136.26,255.94 q 14.19,7.49 29.18,10.37 0.33,1.25 -0.43,1.14 -16.19,-2.37 -28.75,-11.51 z"
         id="path83" />
      <path
         fill="#ffffff"
         d="m 158.17,299.78 c -9.48,-3.23 -9.02,-15.31 -4.82,-22.45 19.22,-14.09 23.96,26.08 4.82,22.45 z m 2.3335,-5.05 a 7.59,4.81 90.2 0 0 4.8365,-7.5732 7.59,4.81 90.2 0 0 -4.7835,-7.6068 7.59,4.81 90.2 0 0 -4.8365,7.5732 7.59,4.81 90.2 0 0 4.7835,7.6068 z"
         id="path84" />
      <path
         fill="#ffffff"
         d="m 180,289.8 v 9.39 a 0.3,0.3 0 0 1 -0.3,0.3 l -4.42,0.03 a 0.3,0.3 0 0 1 -0.3,-0.3 l 0.03,-23.92 a 0.3,0.3 0 0 1 0.3,-0.3 h 13.64 a 0.3,0.3 0 0 1 0.3,0.3 v 4.4 a 0.3,0.3 0 0 1 -0.3,0.3 h -8.65 a 0.3,0.3 0 0 0 -0.3,0.3 v 3.9 a 0.3,0.3 0 0 0 0.3,0.3 h 7.4 a 0.3,0.3 0 0 1 0.3,0.3 v 4.4 a 0.3,0.3 0 0 1 -0.3,0.3 h -7.4 a 0.3,0.3 0 0 0 -0.3,0.3 z"
         id="path85" />
      <path
         fill="#ffffff"
         d="M 198.75,287.23 V 299 q 0,0.5 -0.5,0.5 h -3.75 q -0.5,0 -0.5,-0.5 v -23.38 q 0,-0.63 0.63,-0.63 l 3.61,0.02 q 0.53,0 0.77,0.48 l 6.1,12.28 a 0.36,0.36 0 0 0 0.69,-0.16 l -0.07,-12.1 Q 205.72,275 206.24,275 h 3.75 q 0.5,0 0.46,0.5 c -0.57,8.32 0.39,15.7 -0.33,23.63 q -0.03,0.39 -0.42,0.38 l -3.74,-0.02 a 0.73,0.7 -12.2 0 1 -0.65,-0.4 l -5.83,-12.03 a 0.39,0.38 -58 0 0 -0.73,0.17 z"
         id="path86" />
      <path
         fill="#00010a"
         d="m 153.35,277.33 c -4.2,7.14 -4.66,19.22 4.82,22.45 -5.32,4.15 -14.69,-16.26 -4.82,-22.45 z"
         id="path87" />
      <ellipse
         fill="#001969"
         cx="0"
         cy="0"
         transform="rotate(90.2,-62.804719,223.55531)"
         rx="7.5900002"
         ry="4.8099999"
         id="ellipse87" />
    </g>
    <path
       style="fill:#001969;fill-opacity:1;stroke:#4d4d4d;stroke-width:0.0519906;stroke-opacity:0"
       d="M -56.691408,0.10941607 V -14.517705 l 2.66237,0.05018 c 1.464303,0.0276 2.796315,0.06881 2.960026,0.09157 l 0.297656,0.0414 0.04064,2.414323 c 0.02235,1.327878 0.06251,7.8688741 0.08925,14.5355481 l 0.04861,12.1212239 h -3.049277 -3.049277 z"
       id="path88" />
    <path
       style="fill:#001969;fill-opacity:1;stroke:#001969;stroke-width:0.0519906;stroke-opacity:1"
       d="m -56.691408,-19.427788 v -3.009635 l 22.539193,0.01639 22.539193,0.01639 -22.522657,0.03336 -22.522656,0.03336 22.50612,0.01639 22.50612,0.01639 v 2.943489 2.94349 h -22.522657 -22.522656 z m 42.861805,2.073499 c 0.488066,-0.243889 0.85738,-0.600792 1.071496,-1.035485 0.227116,-0.461086 0.217255,-1.231204 -0.0223,-1.742332 -0.3521,-0.751238 -0.966322,-1.169318 -1.803797,-1.227787 -0.920941,-0.0643 -1.634413,0.33936 -2.033813,1.150655 -0.190896,0.387768 -0.220461,0.514765 -0.220085,0.945424 2.64e-4,0.396364 0.03517,0.571432 0.171328,0.861287 0.37188,0.791659 0.848913,1.131362 1.678591,1.195346 0.291994,0.02252 0.578231,0.04555 0.636087,0.05118 0.05785,0.0056 0.292979,-0.0836 0.522499,-0.198292 z m -38.762763,-0.03437 c 0.390517,-0.194603 0.823772,-0.650367 1.015629,-1.068395 0.207925,-0.453037 0.200441,-1.256452 -0.01551,-1.66463 -0.249296,-0.471212 -0.843807,-1.019051 -1.253557,-1.155148 -0.489018,-0.162426 -1.190407,-0.120272 -1.621644,0.09746 -0.948515,0.478909 -1.46408,1.616997 -1.13052,2.495573 0.220277,0.580196 0.7773,1.217446 1.223637,1.399875 0.08986,0.03673 0.455175,0.06426 0.811805,0.06119 0.546582,-0.0047 0.698946,-0.03077 0.970157,-0.165923 z"
       id="path89" />
    <path
       style="fill:#001969;fill-opacity:1;stroke:#001969;stroke-width:0.0531401;stroke-opacity:1"
       d="M -17.797088,0.15137707 V -14.433202 l 1.572159,-1.62e-4 c 0.864686,-8.9e-5 2.248531,-0.01971 3.075211,-0.04361 l 1.503053,-0.04344 V 0.10777207 14.735956 h -3.075211 -3.075212 z"
       id="path90" />
    <path
       style="fill:#001969;fill-opacity:1;stroke:#001969;stroke-width:0.0519906;stroke-opacity:1"
       d="m -56.647311,22.696084 c -0.02425,-0.02425 -0.0441,-1.393471 -0.0441,-3.042709 v -2.99861 h 22.522656 22.522657 v 3.042708 3.042709 h -22.478559 c -12.363208,0 -22.498403,-0.01984 -22.522657,-0.0441 z m 3.727233,-1.084795 c 0.365819,-0.09199 0.831659,-0.422875 1.083136,-0.769347 0.446988,-0.615836 0.541252,-1.435164 0.242751,-2.109975 -0.160413,-0.362638 -0.609054,-0.8478 -0.992371,-1.07315 -0.269823,-0.158629 -0.367408,-0.177224 -0.929846,-0.177179 -0.748216,5.8e-5 -1.090638,0.127903 -1.535921,0.573437 -0.453532,0.45379 -0.61025,0.84037 -0.61219,1.510107 -0.0015,0.498134 0.0202,0.601623 0.189777,0.907653 0.191692,0.345929 0.569679,0.746104 0.923061,0.977241 0.416563,0.272463 0.97125,0.327271 1.631603,0.161213 z m 38.838599,0.0055 c 0.375021,-0.109307 0.858206,-0.472479 1.096508,-0.824164 0.639852,-0.944287 0.507905,-2.021358 -0.34289,-2.798934 -0.472897,-0.432202 -0.874993,-0.57276 -1.518306,-0.530738 -0.556064,0.03632 -0.875022,0.18157 -1.352068,0.615703 -0.484145,0.440598 -0.639366,0.79614 -0.634527,1.453426 0.0047,0.641868 0.166032,1.055039 0.57616,1.475758 0.654772,0.671682 1.320477,0.858054 2.175123,0.608949 z"
       id="path91" />
    <path
       style="fill:#001969;fill-opacity:1;stroke:#001969;stroke-width:1.99695;stroke-opacity:1"
       d="M 29.634766,43.811248 C 20.513779,34.688971 13.179946,27.225291 13.337357,27.225291 c 0.157412,0 1.189046,0.570197 2.292521,1.267105 l 2.006319,1.267105 1.057799,-1.091372 c 1.204508,-1.242737 1.303715,-0.939226 -1.427336,-4.366714 -1.097976,-1.377966 -1.393546,-1.92875 -0.966579,-1.801183 1.495673,0.446871 2.387101,0.589706 2.387101,0.382488 0,-0.123157 -1.014907,-2.041497 -2.255349,-4.262978 -1.240443,-2.221481 -2.25535,-4.090325 -2.25535,-4.152987 0,-0.06266 1.331658,0.825053 2.95924,1.9727 1.627582,1.147647 3.049008,2.086631 3.158725,2.086631 0.109716,0 0.656554,-0.471577 1.215195,-1.047948 l 1.015711,-1.047948 -1.462446,-2.523223 c -0.804345,-1.387772 -1.408315,-2.577353 -1.342155,-2.643513 0.06616,-0.06616 1.491773,0.978036 3.168029,2.320435 1.676256,1.342399 3.524708,2.80768 4.107672,3.256181 l 1.059934,0.815456 0.963541,-0.923131 0.963541,-0.923131 17.053591,17.051316 c 9.379477,9.378224 16.993853,17.111055 16.920838,17.184074 -0.07302,0.07301 -2.836447,-1.344005 -6.140956,-3.148939 -3.304513,-1.80493 -6.043274,-3.235746 -6.086145,-3.179595 -0.04287,0.05616 1.842705,3.509289 4.190156,7.673631 2.347455,4.164342 4.217575,7.6237 4.155817,7.687465 -0.06175,0.06376 -2.611195,-1.720261 -5.665419,-3.964495 l -5.553138,-4.08043 -1.104628,1.104628 -1.104628,1.104628 2.315722,3.451529 c 1.273647,1.898341 2.238273,3.528981 2.14361,3.623642 -0.09466,0.09466 -0.767976,-0.29982 -1.496254,-0.876626 l -1.324145,-1.048741 -1.034757,1.002925 -1.034758,1.002929 z"
       id="path92"
       transform="scale(0.26458333)" />
    <path
       style="fill:#001433;fill-opacity:1;stroke:#001433;stroke-width:1.10000001;stroke-opacity:1;stroke-dasharray:none"
       d="m 28.098493,46.785677 -28.1227699,-28.124146 1.059265,-1.179262 1.0592651,-1.179263 4.5000287,2.867421 c 2.4750158,1.577082 4.5570691,2.810382 4.6267841,2.740666 0.06972,-0.06972 -0.791189,-1.250133 -1.9131224,-2.623151 C 8.186011,17.914926 7.5222407,16.889084 7.832899,17.008295 c 0.9996318,0.383594 4.478124,1.235298 4.589653,1.12377 0.05937,-0.05937 -0.966828,-2.061062 -2.280435,-4.448208 C 8.8285092,11.296711 7.7489893,9.1876307 7.7431834,8.9970128 7.7373775,8.8063948 8.0861863,8.3182827 8.5183145,7.9123195 l 0.7856874,-0.738115 3.1611741,2.2261556 c 3.73315,2.6289509 4.123483,2.8785259 3.894344,2.4900069 -1.428673,-2.422404 -4.116194,-7.3249644 -4.116194,-7.5087383 0,-0.3429752 1.430955,-1.6452685 1.792826,-1.6316273 0.165785,0.00625 1.533815,1.0082896 3.040066,2.2267557 1.506251,1.2184662 2.785754,2.1690625 2.84334,2.1124361 0.05759,-0.056627 -0.703594,-1.1959361 -1.691512,-2.5317993 -0.987917,-1.3358632 -1.796213,-2.4918446 -1.796213,-2.5688473 0,-0.077003 0.523653,-0.539415 1.163675,-1.02758297 L 18.759183,0.0733855 46.753954,28.066771 c 15.397126,15.396364 27.994774,28.144163 27.994774,28.328445 0,0.184281 -0.398713,0.789378 -0.88603,1.344662 l -0.88603,1.0096 -6.604952,-3.646632 c -3.632724,-2.005647 -6.643467,-3.610992 -6.690537,-3.567429 -0.04707,0.04356 0.772844,1.616661 1.822036,3.495776 1.720129,3.080769 5.761407,12.64927 5.466851,12.943822 -0.06575,0.06575 -2.220839,-1.429757 -4.789096,-3.323345 -7.672084,-5.656661 -8.196404,-6.023372 -7.898882,-5.52452 0.156966,0.263183 1.418986,2.177839 2.804486,4.254787 1.385503,2.076949 2.519093,3.898404 2.519093,4.047679 0,0.149276 -0.433439,0.686671 -0.963202,1.194215 l -0.963198,0.922805 -1.533796,-1.099577 -1.533792,-1.099573 1.274314,1.767466 c 0.700869,0.972104 1.618201,2.230741 2.038504,2.796972 l 0.764197,1.029506 -1.071929,0.974752 c -0.589562,0.536116 -1.144732,0.979002 -1.233715,0.984199 -0.08898,0.0052 -12.817033,-12.646421 -28.284557,-28.114704 z m 19.236242,13.984636 1.10007,-0.912272 1.136873,0.7715 c 1.409503,0.956516 2.108745,0.855741 2.244315,-0.323446 0.07637,-0.664259 -0.407835,-1.705038 -1.82008,-3.9122 -1.398336,-2.185431 -1.827362,-3.103935 -1.570023,-3.361273 0.194756,-0.194756 0.480222,-0.3541 0.634368,-0.3541 0.154147,0 2.336198,1.499218 4.849002,3.331599 5.163758,3.765503 5.881739,4.200296 6.527065,3.952661 1.067164,-0.40951 0.71319,-1.309591 -3.476148,-8.839117 -1.412461,-2.538628 -2.518697,-4.65732 -2.458305,-4.708204 0.06039,-0.05089 1.777154,0.821785 3.815024,1.939266 5.326117,2.92062 6.685162,3.306139 5.870262,1.665218 C 63.989287,49.621499 63.78367,49.04169 63.730234,48.731483 63.676799,48.421276 56.117798,40.555254 46.932458,31.251439 L 30.23184,14.33541 l -1.16096,0.956961 -1.160958,0.95696 -1.308894,-1.060189 c -2.850038,-2.308499 -5.53589,-4.325155 -6.277376,-4.713331 -0.672479,-0.35205 -0.838996,-0.327609 -1.208222,0.177338 -0.604351,0.826499 -0.573802,0.951045 0.830882,3.387436 1.182793,2.051526 1.22541,2.214446 0.702951,2.687265 -0.510744,0.462217 -0.725463,0.383203 -2.628449,-0.967231 -2.718543,-1.929186 -3.695707,-2.426427 -4.307211,-2.19177 -0.804252,0.30862 -0.61271,0.993474 1.257223,4.495159 l 1.760922,3.297548 -0.794343,0.199367 c -1.231875,0.309181 -0.99353,1.424468 0.799526,3.741233 1.195446,1.544606 1.507742,2.163178 1.24932,2.474557 -0.482576,0.58147 -0.739116,0.531335 -2.285755,-0.446697 -1.338169,-0.846205 -3.619864,-1.273014 -3.203442,-0.59923 0.11307,0.182951 0.210977,0.57364 0.217571,0.8682 0.01122,0.501137 32.848285,34.111096 33.308283,34.092267 0.116466,-0.0048 0.706788,-0.419189 1.311827,-0.92094 z"
       id="path93"
       transform="scale(0.26458333)" />
  </g>
</svg>
