<?xml version="1.0" encoding="UTF-8" standalone="no"?>
<!-- Created with Inkscape (http://www.inkscape.org/) -->

<svg
   width="75"
   height="75"
   viewBox="0 0 19.84375 19.84375"
   version="1.1"
   id="svg852"
   inkscape:version="1.3 (0e150ed6c4, 2023-07-21)"
   sodipodi:docname="flint_crate_particle.svg"
   xmlns:inkscape="http://www.inkscape.org/namespaces/inkscape"
   xmlns:sodipodi="http://sodipodi.sourceforge.net/DTD/sodipodi-0.dtd"
   xmlns="http://www.w3.org/2000/svg"
   xmlns:svg="http://www.w3.org/2000/svg">
  <sodipodi:namedview
     id="namedview854"
     pagecolor="#505050"
     bordercolor="#ffffff"
     borderopacity="1"
     inkscape:pageshadow="0"
     inkscape:pageopacity="0"
     inkscape:pagecheckerboard="1"
     inkscape:document-units="px"
     showgrid="false"
     units="px"
     inkscape:zoom="4.3893395"
     inkscape:cx="-64.360481"
     inkscape:cy="24.718981"
     inkscape:window-width="1920"
     inkscape:window-height="1017"
     inkscape:window-x="-8"
     inkscape:window-y="-8"
     inkscape:window-maximized="1"
     inkscape:current-layer="layer1"
     inkscape:showpageshadow="2"
     inkscape:deskcolor="#d1d1d1" />
  <defs
     id="defs849" />
  <g
     inkscape:label="Layer 1"
     inkscape:groupmode="layer"
     id="layer1">
    <path
       id="rect935"
       style="fill:#da6a0b;fill-opacity:1;stroke:#8e4507;stroke-width:0.820302;stroke-linecap:round;stroke-miterlimit:4;stroke-dasharray:none;stroke-opacity:1"
       d="M 0.29001984,4.6403225 15.20347,19.553699 12.528699,15.78684 l 2.978384,2.321291 -2.814114,-4.257405 4.246094,3.117718 -0.52793,-1.343611 -1.717468,-3.070134 4.860125,2.648699 L 4.6403414,0.29002126 7.6629089,4.3367086 3.7238283,1.2065297 3.7011656,1.229193 5.6032988,4.5836833 2.5036944,2.4266587 2.4912298,2.4391236 4.1815114,5.4933974 3.0350198,5.1829858 4.9042987,7.5280696 Z" />
    <g
       id="g92"
       transform="matrix(0.0489153,0,0,0.0489153,-54.063423,-19.742597)">
      <g
         stroke-width="2"
         fill="none"
         stroke-linecap="butt"
         id="g75">
        <path
           stroke="#404040"
           vector-effect="non-scaling-stroke"
           d="m 552.93,1000 q 7.65,-1.27 12.32,-1.28 81.18,-0.22 377.81,-0.32 c 11.67,-0.01 29.78,0.22 44.69,-0.04 a 0.9,0.9 0 0 0 0.65,-0.3 l 9.3,-10.44 q 0.36,-0.4 0.41,-0.93 0.41,-4.21 0.41,-8.44 Q 998.5,495.5 998.5,12.75 A 0.78,0.74 22.9 0 0 998.26,12.2 L 988.15,2.14 Q 987.76,1.76 987.22,1.76 C 718.43,2.44 449.61,1.92 180.82,1.71 173.25,1.7 163.84,2.05 154.56,2.14 106.77,2.59 58.75,2.03 11,3.78 5.9,3.96 4.67,8.02 4.18,12.24 Q 2.53,26.32 2.28,40.5 1.61,78.47 1.08,116.43 1.05,118.39 0,118.69"
           id="path1-9" />
        <path
           stroke="#404040"
           vector-effect="non-scaling-stroke"
           d="m 69.19,1000 q -2.25,-1.45 -4.76,-1.47 -20.39,-0.08 -40.78,-0.48 C 15.42,997.89 9.23,996.86 4.17,989.72 1.79,986.35 2.5,979.48 2.46,975.5 Q 1.93,928.9 1.56,882.3 a 1.59,1.53 -63.7 0 0 -0.27,-0.85 q -0.93,-1.37 -0.52,-3.08 0.02,-0.06 -0.05,-0.06 -0.03,0 -0.06,0 -0.13,0 -0.14,0.13 L 0,889.19"
           id="path2-0" />
        <path
           stroke="#404040"
           vector-effect="non-scaling-stroke"
           d="m 962.25,36.92 a 0.63,0.63 0 0 0 -0.63,-0.63 L 37.88,36.24 a 0.63,0.63 0 0 0 -0.63,0.63 v 126.75 a 0.63,0.63 0 0 0 0.63,0.63 h 923.74 a 0.63,0.63 0 0 0 0.63,-0.63 V 36.92"
           id="path3-5" />
        <path
           stroke="#1a1a1a"
           vector-effect="non-scaling-stroke"
           d="m 800.25,760.81 c 3.95,0.13 5.57,-4.23 1.95,-6.01 q -3.03,-1.48 -3.96,-2.75"
           id="path4-0" />
        <path
           stroke="#404040"
           vector-effect="non-scaling-stroke"
           d="m 798.24,752.05 q 0.02,-224.94 0.01,-449.75 c 0,-2.53 1.35,-4.54 1.33,-7.13 q -0.39,-46.67 -0.7,-92.19 -0.02,-2.15 -2.18,-2.17 -52.3,-0.49 -102.39,-1.64 c -13.56,-0.31 -36.78,-1.78 -55.13,-1.98 q -110.67,-1.2 -261.24,0.02 -34.6,0.29 -58.27,1.41 c -34.86,1.67 -69.56,1.37 -104.43,1.88 -3.45,0.05 -8.61,-0.43 -13.04,0.1 q -0.49,0.05 -0.48,0.55 0.09,4.32 0.01,8.6 c -2.65,153.3 -2.65,306.63 -1.67,459.94 0.28,43.04 0.52,86.26 1.69,129.28 q 0.01,0.52 0.53,0.52 41.23,0.03 82.47,0 c 25.34,-0.02 53.39,1.88 71.25,1.97 q 80.34,0.42 283.7,-0.24 c 20.14,-0.07 40.18,-1.72 60.32,-1.72 q 49.77,0.01 99.63,-0.01 0.61,0 0.6,-0.6 l -0.19,-36.77 q 0,-0.4 0.12,-0.77 0.1,-0.29 0.07,-0.54"
           id="path5-9" />
        <path
           stroke="#272727"
           vector-effect="non-scaling-stroke"
           d="m 798.24,752.05 q -1.16,-0.42 -1.94,0.94 a 0.62,0.62 0 0 1 -0.79,0.25 q -10.43,-4.81 -20.78,-9.78 -0.1,-0.05 -0.28,0.08 -0.45,0.32 0.03,0.58 l 25.07,13.42 q 0.39,0.21 0.44,0.65 l 0.26,2.62"
           id="path6-6" />
        <path
           stroke="#404040"
           vector-effect="non-scaling-stroke"
           d="m 163.45,201.2 a 0.47,0.47 0 0 0 -0.47,-0.47 H 39.72 a 0.47,0.47 0 0 0 -0.47,0.47 v 597.24 a 0.47,0.47 0 0 0 0.47,0.47 h 123.26 a 0.47,0.47 0 0 0 0.47,-0.47 V 201.2"
           id="path7-0" />
        <path
           stroke="#404040"
           vector-effect="non-scaling-stroke"
           d="m 837.12,201.97 c -0.51,195.28 -0.87,415.96 -0.38,585.94 0.01,2.49 -0.6,8.84 2.57,9.28 4.49,0.63 8.92,1.09 13.63,1.18 q 53.37,0.93 106.86,0.32 0.45,0 0.45,-0.46 V 201.74 a 1.01,1.01 0 0 0 -1.01,-1.01 l -121.74,0.86 a 0.39,0.38 -0.8 0 0 -0.38,0.38"
           id="path8" />
        <path
           stroke="#404040"
           vector-effect="non-scaling-stroke"
           d="M 392.28,837.31 40.51,836.97 a 1.26,1.26 0 0 0 -1.26,1.26 v 124.5 a 0.3,0.3 0 0 0 0.3,0.3 l 919.95,-0.02 a 0.76,0.75 90 0 0 0.75,-0.76 V 837.5 a 0.5,0.5 0 0 0 -0.5,-0.5 h -557.6 q -0.47,0 -0.8,0.34 l -0.62,0.63"
           id="path9" />
        <path
           stroke="#1a1a1a"
           vector-effect="non-scaling-stroke"
           d="m 400.73,837.97 -4.85,-4.41 q -0.43,-0.39 -0.79,0.08 l -2.81,3.67"
           id="path10" />
        <path
           stroke="#272727"
           vector-effect="non-scaling-stroke"
           d="m 400.73,837.97 61.16,55.9 q 0.6,0.54 -0.21,0.56 -10.48,0.27 -27.49,-0.14 c -24.54,-0.6 -42.99,-11.9 -59.24,-30.26 -5.08,-5.74 8.71,-14.31 11.86,-18.14 q 3.21,-3.91 5.47,-8.58"
           id="path11-1" />
        <path
           stroke="#272727"
           vector-effect="non-scaling-stroke"
           d="m 821,40 15.12,50.56 q 0.03,0.13 0.09,0.01 0.06,-0.11 0.01,-0.31 C 831.87,72.48 827.93,55.73 821.29,39.9 Q 820.17,37.23 821,40"
           id="path12" />
        <path
           stroke="#272727"
           vector-effect="non-scaling-stroke"
           d="m 539.3149,63.2013 a 3.03,3.03 0 0 0 -1.5006,-4.0137 L 493.5719,39.0252 a 3.03,3.03 0 0 0 -4.0137,1.5007 l -0.0331,0.0728 a 3.03,3.03 0 0 0 1.5006,4.0137 l 44.2424,20.1624 a 3.03,3.03 0 0 0 4.0137,-1.5007 l 0.0331,-0.0728"
           id="path13" />
        <path
           stroke="#272727"
           vector-effect="non-scaling-stroke"
           d="M 691.93,85.05 Q 680.79,72.45 669.6,59.89 C 659.57,48.62 641.47,30.34 625.55,43.65 q -0.47,0.4 0.06,0.72 l 66.07,40.98 q 1.13,0.7 0.25,-0.3"
           id="path14" />
        <path
           stroke="#404040"
           vector-effect="non-scaling-stroke"
           d="m 143.64,103.22 a 40.38,40.38 0 0 0 -40.38,-40.38 40.38,40.38 0 0 0 -40.38,40.38 40.38,40.38 0 0 0 40.38,40.38 40.38,40.38 0 0 0 40.38,-40.38"
           id="path15" />
        <path
           stroke="#404040"
           vector-effect="non-scaling-stroke"
           d="m 937.07,103.24 a 40.32,40.32 0 0 0 -40.32,-40.32 40.32,40.32 0 0 0 -40.32,40.32 40.32,40.32 0 0 0 40.32,40.32 40.32,40.32 0 0 0 40.32,-40.32"
           id="path16" />
        <path
           stroke="#272727"
           vector-effect="non-scaling-stroke"
           d="M 290.3,87.43 C 252.71,81.4 214.85,76.28 177.17,70.95 a 0.10307764,0.10307764 0 0 0 -0.05,0.2 q 14.59,5.41 29.38,10.35 c 3.33,1.12 8.81,2.04 13.06,2.17 q 36.06,1.07 70.71,3.96 2.69,0.22 0.03,-0.2"
           id="path17" />
        <path
           stroke="#272727"
           vector-effect="non-scaling-stroke"
           d="m 239.78,107.24 c 2.77,1.43 3.48,-0.12 5.65,-0.75 q 55.89,-16.32 111.77,-32.65 0.07,-0.02 0.05,-0.09 -0.01,-0.03 -0.02,-0.06 -0.04,-0.13 -0.17,-0.1 c -32.82,7.31 -75.95,16.21 -111.56,29.84 -1.86,0.71 -3.79,1.92 -5.67,2.69 a 0.62,0.62 0 0 0 -0.05,1.12"
           id="path18-2" />
        <path
           stroke="#272727"
           vector-effect="non-scaling-stroke"
           d="m 730.1,113.63 c 5.48,5.29 11.03,10.51 16.62,15.82 a 0.34,0.34 0 0 0 0.56,-0.31 C 744.52,114.86 718.12,98.18 706.5,90.72 q -0.66,-0.43 -0.1,0.12 l 8.43,8.23 q 0.28,0.27 0.63,0.44 0.5,0.24 0.81,0.72 0.4,0.64 -0.24,0.24 l -21.76,-13.5 a 0.16,0.16 0 0 0 -0.2,0.24 c 8.98,10.06 19.43,19.3 32.22,24.07 q 2.22,0.82 3.81,2.35"
           id="path19-0" />
        <path
           stroke="#272727"
           vector-effect="non-scaling-stroke"
           d="m 517.46,99.92 q 0.08,0.18 0.15,0.41 0.11,0.4 0.52,0.32 l 10.94,-2.03 a 0.6,0.59 -49.5 0 0 -0.09,-1.18 l -81.1,-1.88 a 0.11,0.1 57.2 0 0 -0.04,0.2 q 6.49,3.03 12.99,5.6 c 5.48,2.16 9.6,2.27 15.42,2.32 q 18.08,0.16 29.46,-0.23 c 3.88,-0.14 7.64,-2.45 11.3,-3.74 q 0.32,-0.11 0.45,0.21"
           id="path20-0" />
        <path
           stroke="#272727"
           vector-effect="non-scaling-stroke"
           d="m 349.38,131.06 c -5.68,2.96 -2.4,8.45 0.64,6.71 8.52,-4.88 15.89,-7.7 27.5,-12.28 4.36,-1.72 2.21,-6.93 -0.78,-6.04 q -11.85,3.53 -27.36,11.61"
           id="path21-2" />
        <path
           stroke="#272727"
           vector-effect="non-scaling-stroke"
           d="m 641.4092,133.4128 a 4.74,3.21 67.3 0 0 1.1321,-5.6116 4.74,3.21 67.3 0 0 -4.7905,-3.134 4.74,3.21 67.3 0 0 -1.1321,5.6116 4.74,3.21 67.3 0 0 4.7905,3.134"
           id="path22" />
        <path
           stroke="#5a5a5a"
           vector-effect="non-scaling-stroke"
           d="m 126.3,103.28 a 23.03,23.03 0 0 0 -23.03,-23.03 23.03,23.03 0 0 0 -23.03,23.03 23.03,23.03 0 0 0 23.03,23.03 23.03,23.03 0 0 0 23.03,-23.03"
           id="path23" />
        <path
           stroke="#5a5a5a"
           vector-effect="non-scaling-stroke"
           d="m 919.73,103.28 a 23.03,23.03 0 0 0 -23.03,-23.03 23.03,23.03 0 0 0 -23.03,23.03 23.03,23.03 0 0 0 23.03,23.03 23.03,23.03 0 0 0 23.03,-23.03"
           id="path24" />
        <path
           stroke="#272727"
           vector-effect="non-scaling-stroke"
           d="m 718.87,214.43 8.04,24.91 a 0.04,0.04 0 0 0 0.05,0.03 l 0.05,-0.02 a 12.92,1.17 72.1 0 0 -2.86,-12.65 l -0.13,-0.4 a 12.92,1.17 72.1 0 0 -5.08,-11.94 l -0.05,0.02 a 0.04,0.04 0 0 0 -0.02,0.05"
           id="path25-7" />
        <path
           stroke="#272727"
           vector-effect="non-scaling-stroke"
           d="m 370.57,770.81 c 1.51,-0.23 3.44,0.17 4.58,0.17 q 117.02,0.68 234.04,0.2 11.79,-0.05 23.83,-0.57 A 0.44,0.43 77.1 0 0 633.4,770 q -14.99,-33.63 -26.12,-60.01 c -18.21,-43.2 -29.53,-87.01 -36.81,-135.74 -0.56,-3.71 1.97,-4.51 5.11,-4.26 q 9.53,0.78 24.73,3.72 50.75,9.82 94.11,26.39 39.17,14.96 76.11,32.55 1.75,0.84 1.76,-1.1 c 0.69,-79.25 0.47,-158.49 0.21,-237.74 q -0.04,-12.53 -0.31,-24.88 a 0.64,0.63 -12.5 0 0 -0.89,-0.56 q -26.6,11.6 -53.45,23.27 -46.28,20.12 -95.61,30.83 -18.91,4.11 -45.17,8.42 -2.81,0.46 -4.97,0.12 a 1.09,1.08 -9 0 1 -0.78,-0.56 q -0.9,-1.69 -0.74,-2.94 8.81,-69.01 35.57,-133.16 c 8.87,-21.26 18.77,-42.46 26.74,-64.05 q 0.2,-0.54 -0.38,-0.55 c -86.93,-1.39 -174.19,-0.79 -261.66,-0.22 q -1.47,0.01 -0.95,1.39 c 7.13,18.71 16.67,38.81 25.88,60.78 17.91,42.72 29.19,85.89 35.66,131.4 0.83,5.85 0.76,8.57 -5.9,7.63 q -66.25,-9.26 -128.23,-33.99 c -21.95,-8.76 -43.57,-18.77 -65.25,-28.29 a 0.67,0.66 -77.2 0 0 -0.93,0.59 q -0.4,17.21 -0.46,34.71 -0.38,114.25 0.09,228.55 a 0.45,0.44 -12.7 0 0 0.64,0.4 q 33.22,-15.32 67.14,-29.4 c 41.8,-17.36 88,-28.3 132.82,-34.31 q 0.52,-0.07 0.57,0.45 0.27,2.75 -0.09,5.49 -9.62,73.01 -38.73,140.4 c -8.16,18.88 -16.21,37.79 -24.68,56.53 q -0.25,0.57 0.3,0.87 l 0.49,0.26 a 0.53,0.53 0 0 0 0.78,-0.46 v -1.06 a 0.68,0.67 -4.5 0 1 0.57,-0.66"
           id="path26-8" />
        <path
           stroke="#272727"
           vector-effect="non-scaling-stroke"
           d="m 292.0873,243.8498 a 0.44,0.44 0 0 0 -0.6168,-0.0823 l -0.0159,0.0121 a 0.44,0.44 0 0 0 -0.0823,0.6168 l 10.2404,13.3938 a 0.44,0.44 0 0 0 0.6168,0.0823 l 0.0159,-0.0121 a 0.44,0.44 0 0 0 0.0823,-0.6168 l -10.2404,-13.3938"
           id="path27-8" />
        <path
           stroke="#272727"
           vector-effect="non-scaling-stroke"
           d="m 299.28,288.81 0.73,-0.49 a 0.22,0.22 0 0 0 0.07,-0.3 l -0.03,-0.04 a 18.41,0.53 56.8 0 0 -10.53,-15.12 l -0.21,0.15 a 18.41,0.53 56.8 0 0 9.63,15.69 l 0.03,0.04 a 0.22,0.22 0 0 0 0.31,0.07"
           id="path28-5" />
        <path
           stroke="#272727"
           vector-effect="non-scaling-stroke"
           d="m 247.4624,295.6639 a 0.39,0.39 0 0 0 -0.0202,-0.5511 L 232.176,280.9265 a 0.39,0.39 0 0 0 -0.5512,0.0203 l -0.0272,0.0293 a 0.39,0.39 0 0 0 0.0202,0.5511 l 15.2662,14.1863 a 0.39,0.39 0 0 0 0.5512,-0.0203 l 0.0272,-0.0293"
           id="path29-0" />
        <path
           stroke="#272727"
           vector-effect="non-scaling-stroke"
           d="m 785.7815,295.339 a 3.3,0.53 104.9 0 0 1.3607,-3.0527 3.3,0.53 104.9 0 0 0.3363,-3.3253 3.3,0.53 104.9 0 0 -1.3607,3.0527 3.3,0.53 104.9 0 0 -0.3363,3.3253"
           id="path30-3" />
        <path
           stroke="#272727"
           vector-effect="non-scaling-stroke"
           d="m 700.23,292.97 -0.5,-0.75 a 0.16,0.16 0 0 0 -0.22,-0.05 l -11.82,7.76 a 7.26,0.56 -33.3 0 0 -5.76,4.46 l 0.06,0.08 a 7.26,0.56 -33.3 0 0 6.37,-3.52 l 11.82,-7.76 a 0.16,0.16 0 0 0 0.05,-0.22"
           id="path31-8" />
        <path
           stroke="#272727"
           vector-effect="non-scaling-stroke"
           d="m 624.43,340.77 q 9.58,0.66 21.57,-0.77 0.21,-0.02 0.32,-0.16 0.25,-0.33 -0.16,-0.32 -14.01,0.28 -21.73,0.69 -4.53,0.24 0,0.56"
           id="path32-8" />
        <path
           stroke="#272727"
           vector-effect="non-scaling-stroke"
           d="m 331.6098,346.5311 a 7.04,0.68 -7.5 0 0 -7.0686,0.2447 7.04,0.68 -7.5 0 0 -6.891,1.5931 7.04,0.68 -7.5 0 0 7.0686,-0.2447 7.04,0.68 -7.5 0 0 6.891,-1.5931"
           id="path33-7" />
        <path
           stroke="#272727"
           vector-effect="non-scaling-stroke"
           d="m 747.43,654.45 -0.88,0.17 a 0.21,0.21 0 0 0 -0.17,0.24 l 0.04,0.2 a 11.77,0.51 79.4 0 0 2.66,11.47 l 0.3,-0.05 a 11.77,0.51 79.4 0 0 -1.67,-11.66 l -0.03,-0.2 a 0.21,0.21 0 0 0 -0.25,-0.17"
           id="path34-9" />
        <path
           stroke="#272727"
           vector-effect="non-scaling-stroke"
           d="m 346.0655,661.1673 a 3.2,0.6 95.1 0 0 0.8821,-3.134 3.2,0.6 95.1 0 0 -0.3131,-3.2406 3.2,0.6 95.1 0 0 -0.8821,3.134 3.2,0.6 95.1 0 0 0.3131,3.2406"
           id="path35-8" />
        <path
           stroke="#272727"
           vector-effect="non-scaling-stroke"
           d="m 671.21,677.84 q 2.26,18.51 7.1,36.56 a 0.2,0.2 0 0 0 0.39,-0.04 q 0.02,-1.56 -0.27,-3.3 -2.92,-17.81 -6.55,-35.58 a 0.28,0.28 0 0 0 -0.54,-0.01 q -0.28,1.12 -0.13,2.37"
           id="path36-4" />
        <path
           stroke="#272727"
           vector-effect="non-scaling-stroke"
           d="m 264.24,703.76 c 7.33,-3.31 17.16,-7.95 22.47,-13.62 a 0.24135037,0.24135037 0 0 0 -0.31,-0.37 c -7.23,4.62 -15.66,8.36 -22.43,13.54 a 0.26239284,0.26239284 0 0 0 0.27,0.45"
           id="path37-3" />
        <path
           stroke="#272727"
           vector-effect="non-scaling-stroke"
           d="m 734.52,705.01 q -0.96,7.71 -0.31,15.48 0.16,2 0.51,0.03 1.22,-6.84 1.38,-14.77 0.01,-0.9 -0.61,-1.24 a 0.66,0.66 0 0 0 -0.97,0.5"
           id="path38-8" />
        <path
           stroke="#272727"
           vector-effect="non-scaling-stroke"
           d="m 295.76,734.59 0.46,0.81 a 0.22,0.22 0 0 0 0.3,0.09 l 0.08,-0.05 a 20.87,0.53 -29.5 0 0 17.91,-10.74 l -0.16,-0.27 a 20.87,0.53 -29.5 0 0 -18.43,9.81 l -0.08,0.05 a 0.22,0.22 0 0 0 -0.08,0.3"
           id="path39-1" />
        <path
           stroke="#272727"
           vector-effect="non-scaling-stroke"
           d="m 269.9096,791.2376 a 5.96,0.62 98.3 0 0 1.4739,-5.8081 5.96,0.62 98.3 0 0 0.2469,-5.9871 5.96,0.62 98.3 0 0 -1.4739,5.8081 5.96,0.62 98.3 0 0 -0.2469,5.9871"
           id="path40-9" />
        <path
           stroke="#272727"
           vector-effect="non-scaling-stroke"
           d="m 124.21,251.44 c -6.85,11.89 -15,23.12 -23.83,33.61 -3.59,4.27 -3.16,10.34 -2.76,15.99 q 0.03,0.51 0.27,0.06 l 26.64,-49.59 a 0.12,0.08 -66.1 0 0 -0.03,-0.15 q -0.03,-0.01 -0.06,-0.02 -0.14,-0.05 -0.23,0.1"
           id="path41-0" />
        <path
           stroke="#272727"
           vector-effect="non-scaling-stroke"
           d="m 77.52,332.67 c 4.06,5.87 9.96,12.32 15.48,17.14 3.41,2.98 6.89,-1.74 4.49,-4.05 q -9.51,-9.11 -15.47,-17.05 c -2.39,-3.19 -7.26,-0.02 -4.5,3.96"
           id="path42-3" />
        <path
           stroke="#272727"
           vector-effect="non-scaling-stroke"
           d="m 78.4138,402.9808 a 0.27,0.27 0 0 0 -0.2811,-0.2584 l -0.06,0.002 a 0.27,0.27 0 0 0 -0.2584,0.281 l 2.2319,53.2533 a 0.27,0.27 0 0 0 0.2811,0.2584 l 0.06,-0.002 a 0.27,0.27 0 0 0 0.2584,-0.281 l -2.2319,-53.2533"
           id="path43-8" />
        <path
           stroke="#272727"
           vector-effect="non-scaling-stroke"
           d="m 139.47,471.22 c 0.36,-18.72 -0.05,-34.72 -12.38,-49.51 q -0.89,-1.07 -0.54,0.28 l 12.73,49.26 a 0.1,0.1 0 0 0 0.19,-0.03"
           id="path44-0" />
        <path
           stroke="#272727"
           vector-effect="non-scaling-stroke"
           d="m 67.677,455.1575 a 0.25,0.25 0 0 0 -0.3192,-0.1522 l -0.0188,0.007 a 0.25,0.25 0 0 0 -0.1522,0.3192 l 11.4562,32.3514 a 0.25,0.25 0 0 0 0.3192,0.1522 l 0.0188,-0.007 a 0.25,0.25 0 0 0 0.1522,-0.3192 L 67.677,455.1575"
           id="path45-0" />
        <path
           stroke="#272727"
           vector-effect="non-scaling-stroke"
           d="m 82.04,492.4 q -0.08,-2.96 -0.33,-0.01 c -0.08,0.89 0.02,2.32 0.38,3.36 q 13.2,37.18 25.6,72.34 1.3,3.68 0.54,-0.15 C 103.36,543.57 93.04,519.98 82.91,497.07 q -0.8,-1.81 -0.87,-4.67"
           id="path46-6" />
        <path
           stroke="#272727"
           vector-effect="non-scaling-stroke"
           d="m 68.55,672.63 q 0.8,-26.01 -1.05,-50.53 -0.17,-2.26 -0.22,0 c -0.39,16.79 1.01,33.69 1,50.52 q 0,0.07 0.06,0.07 0.05,0 0.08,0 a 0.13,0.06 0 0 0 0.13,-0.06"
           id="path47-6" />
        <path
           stroke="#272727"
           vector-effect="non-scaling-stroke"
           d="m 122.64,654.63 q -3.91,8.46 -6.71,17.34 a 0.43,0.42 -14.8 0 1 -0.13,0.22 q -0.19,0.18 -0.06,0.34 0.24,0.31 0.39,-0.06 l 6.84,-17.7 a 0.18,0.18 0 0 0 -0.33,-0.14"
           id="path48-7" />
        <path
           stroke="#272727"
           vector-effect="non-scaling-stroke"
           d="m 113.83,678.21 -23.61,60.31 a 0.26,0.26 0 0 0 0.44,0.26 c 13.36,-15.77 17.75,-40.62 23.36,-60.02 q 0.1,-0.35 -0.05,-0.57 -0.09,-0.13 -0.14,0.02"
           id="path49-4" />
        <path
           stroke="#272727"
           vector-effect="non-scaling-stroke"
           d="m 918.84,225.08 -39.08,-14.63 a 0.34,0.33 1.8 0 0 -0.44,0.41 c 1.01,3.38 3.14,14.13 7.94,13.68 q 15.91,-1.48 31.46,0.98 a 0.23,0.23 0 0 0 0.12,-0.44"
           id="path50-6" />
        <path
           stroke="#272727"
           vector-effect="non-scaling-stroke"
           d="m 925.18,226.55 q -1.52,-0.56 -3.17,-0.57 -0.66,0 -0.08,0.32 1.44,0.77 3.07,0.99 a 0.38078866,0.38078866 0 0 0 0.18,-0.74"
           id="path51-6" />
        <path
           stroke="#272727"
           vector-effect="non-scaling-stroke"
           d="m 886.65,379.24 q -0.23,-45.27 -8.43,-89.77 -1.18,-6.43 -0.56,0.08 l 8.58,89.71 q 0.44,4.57 0.41,-0.02"
           id="path52-4" />
        <path
           stroke="#272727"
           vector-effect="non-scaling-stroke"
           d="m 915.18,332.76 -7.53,81.98 q -0.01,0.18 0.09,0.19 0.03,0.01 0.05,0.01 0.05,0 0.07,-0.08 c 5.08,-27.11 10.17,-54.07 7.84,-82.1 a 0.26,0.26 0 0 0 -0.52,0"
           id="path53-2" />
        <path
           stroke="#272727"
           vector-effect="non-scaling-stroke"
           d="m 907.0515,422.163 a 0.26,0.26 0 0 0 -0.2334,-0.2841 v 0 a 0.26,0.26 0 0 0 -0.2841,0.2334 l -2.7655,28.2047 a 0.26,0.26 0 0 0 0.2334,0.2841 v 0 a 0.26,0.26 0 0 0 0.2841,-0.2334 l 2.7655,-28.2047"
           id="path54-7" />
        <path
           stroke="#272727"
           vector-effect="non-scaling-stroke"
           d="m 928,470.47 a 2.92,2.92 0 0 0 -2.92,-2.92 h -0.16 a 2.92,2.92 0 0 0 -2.92,2.92 v 25.38 a 2.92,2.92 0 0 0 2.92,2.92 h 0.16 a 2.92,2.92 0 0 0 2.92,-2.92 v -25.38"
           id="path55-9" />
        <path
           stroke="#272727"
           vector-effect="non-scaling-stroke"
           d="m 905.28,530.81 q -9.94,13.02 -20.43,25.6 c -5.6,6.73 -9.03,13.5 -12.57,21.15 a 0.1029563,0.1029563 0 0 0 0.18,0.1 L 906.5,530 a 0.11,0.11 0 0 0 -0.15,-0.15 q -0.64,0.4 -1.07,0.96"
           id="path56-8" />
        <path
           stroke="#272727"
           vector-effect="non-scaling-stroke"
           d="m 940.19,623.17 q -5.25,22.44 -12.01,44.01 c -2.92,9.31 -3.87,16.11 -3.01,25.13 a 0.07,0.07 0 0 0 0.13,0.01 l 15.11,-69.1 a 0.11280514,0.11280514 0 0 0 -0.22,-0.05"
           id="path57-2" />
        <path
           stroke="#272727"
           vector-effect="non-scaling-stroke"
           d="m 897.93,757.25 q -1.99,3.12 -4.01,6.33 -0.51,0.83 -0.45,1.52 0.13,1.43 1.69,1.24 a 1.67,1.67 0 0 0 1.46,-1.38 l 1.31,-7.71"
           id="path58-1" />
        <path
           stroke="#272727"
           vector-effect="non-scaling-stroke"
           d="m 897.93,757.25 c 3.88,-9.23 9.91,-22.89 9.87,-32.83 q -0.07,-18.28 -0.08,-36.58 -0.01,-3.72 0.96,-7.58 c 2.01,-8 6.19,-22.97 3.34,-29.8 q -0.2,-0.48 -0.7,-0.62 -1.25,-0.35 -2.58,-0.35 -10.69,0 -21.48,0.33 -0.49,0.02 -0.44,0.5 l 11.11,106.93"
           id="path59-0" />
        <path
           stroke="#808080"
           vector-effect="non-scaling-stroke"
           d="m 449.45,552.78 c 0.05,3.17 -0.47,6.62 -0.82,9.84 q -8.17,74.91 -36.22,144.8 -4.29,10.7 -19.8,48.03 -0.29,0.69 0.46,0.69 l 216.1,0.03 a 1.11,1.11 0 0 0 1.01,-1.56 C 580.83,689.85 559.77,624.14 553.4,552.81 a 0.71,0.71 0 0 1 0.77,-0.77 c 70.21,6.49 137.59,27.67 201.47,56.96 a 1.14,1.14 0 0 0 1.61,-1.04 V 392.73 a 1.17,1.17 0 0 0 -1.65,-1.06 c -64.52,28.81 -130.32,50.27 -200.85,56.55 q -1.71,0.15 -1.55,-1.55 c 6.79,-70.7 27.94,-136.4 56.84,-200.84 a 1.22,1.22 0 0 0 -1.12,-1.72 H 394.07 a 1.69,1.68 -13.1 0 0 -1.52,2.43 q 46.84,94.9 57.02,200.44 a 1.54,1.54 0 0 1 -1.68,1.68 q -83.2,-8.31 -160.78,-40.07 -20.08,-8.22 -40.4,-17.07 a 1.05,1.05 0 0 0 -1.46,0.96 l -0.01,216.01 a 0.86,0.86 0 0 0 1.21,0.79 q 24.67,-10.83 49.67,-20.82 73.06,-29.19 152.56,-36.37 0.76,-0.07 0.77,0.69"
           id="path60-4" />
        <path
           stroke="#808080"
           vector-effect="non-scaling-stroke"
           d="m 537.49,535.77 q 0.53,-0.08 1.51,-0.02 105.83,6.4 201.91,49.88 a 0.95,0.95 0 0 0 1.34,-0.86 V 415.99 a 1.06,1.05 -12.1 0 0 -1.49,-0.96 q -97.06,43.66 -203.49,49.92 a 0.52,0.51 -89.5 0 1 -0.54,-0.55 q 6.28,-106.28 49.34,-202.78 0.28,-0.63 0.34,-0.89 a 0.81,0.76 -82.8 0 0 -0.72,-1 l -168.7,0.08 a 0.91,0.91 0 0 0 -0.83,1.28 q 43.49,96.92 49.88,203.18 0.04,0.74 -0.7,0.7 -97.29,-5.87 -187.58,-43.25 -8.04,-3.32 -15.78,-6.6 a 0.66,0.66 0 0 0 -0.92,0.58 c -0.52,13 -0.25,26.3 -0.28,39.36 q -0.16,64.79 0.31,129.19 a 1.11,1.11 0 0 0 1.56,1 q 95.51,-42.65 199.41,-49.41 2.05,-0.13 3.3,-0.08 0.67,0.03 0.63,0.7 c -4.24,70.82 -21.28,138.5 -49.86,203.36 a 1.02,1.02 0 0 0 0.93,1.43 h 168.38 a 1.54,1.54 0 0 0 1.37,-0.84 q 0.02,-0.03 -0.21,-0.56 -43.54,-96.87 -49.82,-203.21 -0.05,-0.76 0.71,-0.87"
           id="path61-1" />
        <path
           stroke="#272727"
           vector-effect="non-scaling-stroke"
           d="m 63.34,910.31 c -5.95,0.56 -2.75,6.57 -1.74,9.78 1.1,3.46 5.64,3.34 6.02,-0.84"
           id="path62-5" />
        <path
           stroke="#404040"
           vector-effect="non-scaling-stroke"
           d="m 67.62,919.25 c 7.37,10.08 15.37,16.58 27.07,18.31 q 31.05,4.56 45.68,-21.65 c 7.75,-13.88 6.74,-30.01 -1.97,-42.74 -16.1,-23.52 -47.96,-24.51 -66.73,-3.76 q -16.11,17.81 -8.33,40.9"
           id="path63-9" />
        <path
           stroke="#1a1a1a"
           vector-effect="non-scaling-stroke"
           d="m 67.62,919.25 q -0.98,-6.3 -4.28,-8.94"
           id="path64-5" />
        <path
           stroke="#404040"
           vector-effect="non-scaling-stroke"
           d="m 878.13,934.39 c 17.5,8.52 40.35,3.16 52.15,-12.18 14.36,-18.68 9.93,-45.71 -8.79,-59.55 -15.04,-11.12 -38.03,-10.69 -52.03,1.81 -22.92,20.47 -19.14,56.39 8.67,69.92"
           id="path65-1" />
        <path
           stroke="#272727"
           vector-effect="non-scaling-stroke"
           d="m 557.23,862.9 c 13.24,3.84 28.51,9.54 41.77,9.88 q 48.71,1.25 97.22,5.75 0.14,0.01 0.22,-0.1 0.1,-0.12 -0.19,-0.16 -69.38,-7.96 -139.96,-16.18 a 0.35,0.35 0 0 0 -0.26,0.63 q 0.18,0.15 0.6,0.12 0.36,-0.01 0.6,0.06"
           id="path66-2" />
        <path
           stroke="#272727"
           vector-effect="non-scaling-stroke"
           d="m 754.44,927.06 c 16.96,12.99 63.64,-25.01 77.88,-34.49 q 7.51,-5 17.28,-7.87 a 0.86,0.86 0 0 0 0.61,-0.75 l 0.38,-4.11 q 0.07,-0.8 -0.69,-0.52 l -100.08,37.77 q -0.46,0.17 -0.4,0.65 0.71,6.02 5.02,9.32"
           id="path67-3" />
        <path
           stroke="#272727"
           vector-effect="non-scaling-stroke"
           d="m 755.73,886 q -2.27,-0.07 -10.54,0.21 -25.44,0.86 -102.19,2.94 c -6.63,0.18 -13.15,0.67 -19.73,1.11 q -47.39,3.21 -89.88,6.9 -11.44,0.99 0.02,0.42 L 755.75,886.5"
           id="path68-8" />
        <path
           stroke="#404040"
           vector-effect="non-scaling-stroke"
           d="m 755.75,886.5 19.19,-0.86 a 0.18,0.18 0 0 0 0.02,-0.35 c -5.36,-0.89 -13.71,0.08 -19.23,0.71"
           id="path69-9" />
        <path
           stroke="#1a1a1a"
           vector-effect="non-scaling-stroke"
           d="M 755.75,886.5 755.73,886"
           id="path70-8" />
        <path
           stroke="#272727"
           vector-effect="non-scaling-stroke"
           d="m 222.27,889.38 c 22.84,30.41 59.14,41.5 95.16,47.24 q 23.22,3.69 47.29,7 1.7,0.24 0.1,-0.38 L 222.58,888.98 q -0.86,-0.33 -0.31,0.4"
           id="path71-8" />
        <path
           stroke="#272727"
           vector-effect="non-scaling-stroke"
           d="m 525.19,915.81 q 21.26,1.96 30.38,2.37 12.07,0.56 19.94,-1.42 63.59,-15.94 128.33,-26.37 0.62,-0.1 0.02,-0.28 c -1.5,-0.44 -2.8,0.16 -3.94,0.32 q -89.49,12.48 -179.01,24.85 -0.13,0.01 -0.15,0.14 -0.03,0.12 0.03,0.25 0.02,0.06 0.08,0.06 3.25,-0.02 4.32,0.08"
           id="path72-2" />
        <path
           stroke="#272727"
           vector-effect="non-scaling-stroke"
           d="m 190.144,916.0017 a 2.94,2.94 0 0 0 -1.6045,-3.8357 l -0.222,-0.0911 a 2.94,2.94 0 0 0 -3.8358,1.6045 l -9.6457,23.5189 a 2.94,2.94 0 0 0 1.6045,3.8357 l 0.222,0.0911 a 2.94,2.94 0 0 0 3.8358,-1.6045 l 9.6457,-23.5189"
           id="path73-6" />
        <path
           stroke="#5a5a5a"
           vector-effect="non-scaling-stroke"
           d="m 126.31,896.71 a 23.03,23.03 0 0 0 -23.03,-23.03 23.03,23.03 0 0 0 -23.03,23.03 23.03,23.03 0 0 0 23.03,23.03 23.03,23.03 0 0 0 23.03,-23.03"
           id="path74" />
        <path
           stroke="#5a5a5a"
           vector-effect="non-scaling-stroke"
           d="m 919.73,896.71 a 23.02,23.02 0 0 0 -23.02,-23.02 23.02,23.02 0 0 0 -23.02,23.02 23.02,23.02 0 0 0 23.02,23.02 23.02,23.02 0 0 0 23.02,-23.02"
           id="path75" />
      </g>
      <path
         fill="#4d4d4d"
         d="M 18.56,0 H 988.8 l 11.2,11.31 v 976.5 L 988.96,1000 H 552.93 q 7.65,-1.27 12.32,-1.28 81.18,-0.22 377.81,-0.32 c 11.67,-0.01 29.78,0.22 44.69,-0.04 a 0.9,0.9 0 0 0 0.65,-0.3 l 9.3,-10.44 q 0.36,-0.4 0.41,-0.93 0.41,-4.21 0.41,-8.44 Q 998.5,495.5 998.5,12.75 A 0.78,0.74 22.9 0 0 998.26,12.2 L 988.15,2.14 Q 987.76,1.76 987.22,1.76 C 718.43,2.44 449.61,1.92 180.82,1.71 173.25,1.7 163.84,2.05 154.56,2.14 106.77,2.59 58.75,2.03 11,3.78 5.9,3.96 4.67,8.02 4.18,12.24 Q 2.53,26.32 2.28,40.5 1.61,78.47 1.08,116.43 1.05,118.39 0,118.69 V 17.94 Q 2.11,9.32 4.42,4.93 C 5.88,2.14 15.5,0.58 18.56,0 Z"
         id="path76" />
      <path
         fill="#333333"
         d="M 552.93,1000 H 69.19 q -2.25,-1.45 -4.76,-1.47 -20.39,-0.08 -40.78,-0.48 C 15.42,997.89 9.23,996.86 4.17,989.72 1.79,986.35 2.5,979.48 2.46,975.5 Q 1.93,928.9 1.56,882.3 a 1.59,1.53 -63.7 0 0 -0.27,-0.85 q -0.93,-1.37 -0.52,-3.08 0.02,-0.06 -0.05,-0.06 -0.03,0 -0.06,0 -0.13,0 -0.14,0.13 L 0,889.19 v -770.5 q 1.05,-0.3 1.08,-2.26 Q 1.61,78.47 2.28,40.5 2.53,26.32 4.18,12.24 C 4.67,8.02 5.9,3.96 11,3.78 58.75,2.03 106.77,2.59 154.56,2.14 163.84,2.05 173.25,1.7 180.82,1.71 449.61,1.92 718.43,2.44 987.22,1.76 q 0.54,0 0.93,0.38 l 10.11,10.06 a 0.78,0.74 22.9 0 1 0.24,0.55 q 0,482.75 0.02,965.5 0,4.23 -0.41,8.44 -0.05,0.53 -0.41,0.93 l -9.3,10.44 a 0.9,0.9 0 0 1 -0.65,0.3 c -14.91,0.26 -33.02,0.03 -44.69,0.04 q -296.63,0.1 -377.81,0.32 -4.67,0.01 -12.32,1.28 z M 962.25,36.92 a 0.63,0.63 0 0 0 -0.63,-0.63 L 37.88,36.24 a 0.63,0.63 0 0 0 -0.63,0.63 v 126.75 a 0.63,0.63 0 0 0 0.63,0.63 h 923.74 a 0.63,0.63 0 0 0 0.63,-0.63 z m -162,723.89 c 3.95,0.13 5.57,-4.23 1.95,-6.01 q -3.03,-1.48 -3.96,-2.75 0.02,-224.94 0.01,-449.75 c 0,-2.53 1.35,-4.54 1.33,-7.13 q -0.39,-46.67 -0.7,-92.19 -0.02,-2.15 -2.18,-2.17 -52.3,-0.49 -102.39,-1.64 c -13.56,-0.31 -36.78,-1.78 -55.13,-1.98 q -110.67,-1.2 -261.24,0.02 -34.6,0.29 -58.27,1.41 c -34.86,1.67 -69.56,1.37 -104.43,1.88 -3.45,0.05 -8.61,-0.43 -13.04,0.1 q -0.49,0.05 -0.48,0.55 0.09,4.32 0.01,8.6 c -2.65,153.3 -2.65,306.63 -1.67,459.94 0.28,43.04 0.52,86.26 1.69,129.28 q 0.01,0.52 0.53,0.52 41.23,0.03 82.47,0 c 25.34,-0.02 53.39,1.88 71.25,1.97 q 80.34,0.42 283.7,-0.24 c 20.14,-0.07 40.18,-1.72 60.32,-1.72 q 49.77,0.01 99.63,-0.01 0.61,0 0.6,-0.6 l -0.19,-36.77 q 0,-0.4 0.12,-0.77 0.1,-0.29 0.07,-0.54 z M 163.45,201.2 a 0.47,0.47 0 0 0 -0.47,-0.47 H 39.72 a 0.47,0.47 0 0 0 -0.47,0.47 v 597.24 a 0.47,0.47 0 0 0 0.47,0.47 h 123.26 a 0.47,0.47 0 0 0 0.47,-0.47 z m 673.67,0.77 c -0.51,195.28 -0.87,415.96 -0.38,585.94 0.01,2.49 -0.6,8.84 2.57,9.28 4.49,0.63 8.92,1.09 13.63,1.18 q 53.37,0.93 106.86,0.32 0.45,0 0.45,-0.46 V 201.74 a 1.01,1.01 0 0 0 -1.01,-1.01 l -121.74,0.86 a 0.39,0.38 -0.8 0 0 -0.38,0.38 z M 392.28,837.31 40.51,836.97 a 1.26,1.26 0 0 0 -1.26,1.26 v 124.5 a 0.3,0.3 0 0 0 0.3,0.3 l 919.95,-0.02 a 0.76,0.75 90 0 0 0.75,-0.76 V 837.5 a 0.5,0.5 0 0 0 -0.5,-0.5 h -557.6 q -0.47,0 -0.8,0.34 l -0.62,0.63 -4.85,-4.41 q -0.43,-0.39 -0.79,0.08 z"
         id="path77" />
      <path
         fill="#4d4d4d"
         d="m 962.25,36.92 v 126.7 a 0.63,0.63 0 0 1 -0.63,0.63 H 37.88 a 0.63,0.63 0 0 1 -0.63,-0.63 V 36.87 a 0.63,0.63 0 0 1 0.63,-0.63 l 923.74,0.05 a 0.63,0.63 0 0 1 0.63,0.63 z M 821,40 836.12,90.56 q 0.03,0.13 0.09,0.01 0.06,-0.11 0.01,-0.31 C 831.87,72.48 827.93,55.73 821.29,39.9 Q 820.17,37.23 821,40 Z M 539.3149,63.2013 a 3.03,3.03 0 0 0 -1.5006,-4.0137 L 493.5719,39.0252 a 3.03,3.03 0 0 0 -4.0137,1.5007 l -0.0331,0.0728 a 3.03,3.03 0 0 0 1.5006,4.0137 l 44.2424,20.1624 a 3.03,3.03 0 0 0 4.0137,-1.5007 z M 691.93,85.05 Q 680.79,72.45 669.6,59.89 C 659.57,48.62 641.47,30.34 625.55,43.65 q -0.47,0.4 0.06,0.72 l 66.07,40.98 q 1.13,0.7 0.25,-0.3 z m -548.29,18.17 a 40.38,40.38 0 0 0 -40.38,-40.38 40.38,40.38 0 0 0 -40.38,40.38 40.38,40.38 0 0 0 40.38,40.38 40.38,40.38 0 0 0 40.38,-40.38 z m 793.43,0.02 a 40.32,40.32 0 0 0 -40.32,-40.32 40.32,40.32 0 0 0 -40.32,40.32 40.32,40.32 0 0 0 40.32,40.32 40.32,40.32 0 0 0 40.32,-40.32 z M 290.3,87.43 C 252.71,81.4 214.85,76.28 177.17,70.95 a 0.10307764,0.10307764 0 0 0 -0.05,0.2 q 14.59,5.41 29.38,10.35 c 3.33,1.12 8.81,2.04 13.06,2.17 q 36.06,1.07 70.71,3.96 2.69,0.22 0.03,-0.2 z m -50.52,19.81 c 2.77,1.43 3.48,-0.12 5.65,-0.75 q 55.89,-16.32 111.77,-32.65 0.07,-0.02 0.05,-0.09 -0.01,-0.03 -0.02,-0.06 -0.04,-0.13 -0.17,-0.1 c -32.82,7.31 -75.95,16.21 -111.56,29.84 -1.86,0.71 -3.79,1.92 -5.67,2.69 a 0.62,0.62 0 0 0 -0.05,1.12 z m 490.32,6.39 c 5.48,5.29 11.03,10.51 16.62,15.82 a 0.34,0.34 0 0 0 0.56,-0.31 C 744.52,114.86 718.12,98.18 706.5,90.72 q -0.66,-0.43 -0.1,0.12 l 8.43,8.23 q 0.28,0.27 0.63,0.44 0.5,0.24 0.81,0.72 0.4,0.64 -0.24,0.24 l -21.76,-13.5 a 0.16,0.16 0 0 0 -0.2,0.24 c 8.98,10.06 19.43,19.3 32.22,24.07 q 2.22,0.82 3.81,2.35 z M 517.46,99.92 q 0.08,0.18 0.15,0.41 0.11,0.4 0.52,0.32 l 10.94,-2.03 a 0.6,0.59 -49.5 0 0 -0.09,-1.18 l -81.1,-1.88 a 0.11,0.1 57.2 0 0 -0.04,0.2 q 6.49,3.03 12.99,5.6 c 5.48,2.16 9.6,2.27 15.42,2.32 q 18.08,0.16 29.46,-0.23 c 3.88,-0.14 7.64,-2.45 11.3,-3.74 q 0.32,-0.11 0.45,0.21 z m -168.08,31.14 c -5.68,2.96 -2.4,8.45 0.64,6.71 8.52,-4.88 15.89,-7.7 27.5,-12.28 4.36,-1.72 2.21,-6.93 -0.78,-6.04 q -11.85,3.53 -27.36,11.61 z m 292.0292,2.3528 a 4.74,3.21 67.3 0 0 1.1321,-5.6116 4.74,3.21 67.3 0 0 -4.7905,-3.134 4.74,3.21 67.3 0 0 -1.1321,5.6116 4.74,3.21 67.3 0 0 4.7905,3.134 z"
         id="path78" />
      <path
         fill="#000000"
         d="m 821,40 q -0.83,-2.77 0.29,-0.1 c 6.64,15.83 10.58,32.58 14.93,50.36 q 0.05,0.2 -0.01,0.31 -0.06,0.12 -0.09,-0.01 z"
         id="path79" />
      <rect
         fill="#000000"
         x="-27.34"
         y="-3.0699999"
         transform="rotate(24.5,137.69155,1210.5874)"
         width="54.68"
         height="6.1399999"
         rx="3.03"
         id="rect79" />
      <path
         fill="#000000"
         d="M 691.68,85.35 625.61,44.37 q -0.53,-0.32 -0.06,-0.72 c 15.92,-13.31 34.02,4.97 44.05,16.24 q 11.19,12.56 22.33,25.16 0.88,1 -0.25,0.3 z"
         id="path80" />
      <path
         fill="#333333"
         d="m 143.64,103.22 a 40.38,40.38 0 0 1 -40.38,40.38 40.38,40.38 0 0 1 -40.38,-40.38 40.38,40.38 0 0 1 40.38,-40.38 40.38,40.38 0 0 1 40.38,40.38 z m -17.34,0.06 a 23.03,23.03 0 0 0 -23.03,-23.03 23.03,23.03 0 0 0 -23.03,23.03 23.03,23.03 0 0 0 23.03,23.03 23.03,23.03 0 0 0 23.03,-23.03 z"
         id="path81" />
      <path
         fill="#333333"
         d="m 937.07,103.24 a 40.32,40.32 0 0 1 -40.32,40.32 40.32,40.32 0 0 1 -40.32,-40.32 40.32,40.32 0 0 1 40.32,-40.32 40.32,40.32 0 0 1 40.32,40.32 z m -17.34,0.04 a 23.03,23.03 0 0 0 -23.03,-23.03 23.03,23.03 0 0 0 -23.03,23.03 23.03,23.03 0 0 0 23.03,23.03 23.03,23.03 0 0 0 23.03,-23.03 z"
         id="path82" />
      <path
         fill="#000000"
         d="m 177.17,70.95 c 37.68,5.33 75.54,10.45 113.13,16.48 q 2.66,0.42 -0.03,0.2 -34.65,-2.89 -70.71,-3.96 C 215.31,83.54 209.83,82.62 206.5,81.5 Q 191.71,76.56 177.12,71.15 a 0.10307764,0.10307764 0 0 1 0.05,-0.2 z"
         id="path83" />
      <path
         fill="#000000"
         d="m 239.78,107.24 a 0.62,0.62 0 0 1 0.05,-1.12 c 1.88,-0.77 3.81,-1.98 5.67,-2.69 C 281.11,89.8 324.24,80.9 357.06,73.59 q 0.13,-0.03 0.17,0.1 0.01,0.03 0.02,0.06 0.02,0.07 -0.05,0.09 -55.88,16.33 -111.77,32.65 c -2.17,0.63 -2.88,2.18 -5.65,0.75 z"
         id="path84" />
      <circle
         fill="#808080"
         cx="103.27"
         cy="103.28"
         r="23.030001"
         id="circle84" />
      <circle
         fill="#808080"
         cx="896.70001"
         cy="103.28"
         r="23.030001"
         id="circle85" />
      <path
         fill="#000000"
         d="m 746.72,129.45 c -5.59,-5.31 -11.14,-10.53 -16.62,-15.82 q -1.59,-1.53 -3.81,-2.35 C 713.5,106.51 703.05,97.27 694.07,87.21 a 0.16,0.16 0 0 1 0.2,-0.24 l 21.76,13.5 q 0.64,0.4 0.24,-0.24 -0.31,-0.48 -0.81,-0.72 -0.35,-0.17 -0.63,-0.44 l -8.43,-8.23 q -0.56,-0.55 0.1,-0.12 c 11.62,7.46 38.02,24.14 40.78,38.42 a 0.34,0.34 0 0 1 -0.56,0.31 z"
         id="path85" />
      <path
         fill="#000000"
         d="m 517.01,99.71 c -3.66,1.29 -7.42,3.6 -11.3,3.74 q -11.38,0.39 -29.46,0.23 c -5.82,-0.05 -9.94,-0.16 -15.42,-2.32 q -6.5,-2.57 -12.99,-5.6 a 0.11,0.1 57.2 0 1 0.04,-0.2 l 81.1,1.88 a 0.6,0.59 -49.5 0 1 0.09,1.18 l -10.94,2.03 q -0.41,0.08 -0.52,-0.32 -0.07,-0.23 -0.15,-0.41 -0.13,-0.32 -0.45,-0.21 z"
         id="path86" />
      <path
         fill="#000000"
         d="m 350.02,137.77 c -3.04,1.74 -6.32,-3.75 -0.64,-6.71 q 15.51,-8.08 27.36,-11.61 c 2.99,-0.89 5.14,4.32 0.78,6.04 -11.61,4.58 -18.98,7.4 -27.5,12.28 z"
         id="path87" />
      <ellipse
         fill="#000000"
         cx="0"
         cy="0"
         transform="rotate(67.3,222.86321,544.93257)"
         rx="4.7399998"
         ry="3.21"
         id="ellipse87" />
      <path
         fill="#4d4d4d"
         d="m 798.24,752.05 q -1.16,-0.42 -1.94,0.94 a 0.62,0.62 0 0 1 -0.79,0.25 q -10.43,-4.81 -20.78,-9.78 -0.1,-0.05 -0.28,0.08 -0.45,0.32 0.03,0.58 l 25.07,13.42 q 0.39,0.21 0.44,0.65 l 0.26,2.62 q 0.03,0.25 -0.07,0.54 -0.12,0.37 -0.12,0.77 l 0.19,36.77 q 0.01,0.6 -0.6,0.6 -49.86,0.02 -99.63,0.01 c -20.14,0 -40.18,1.65 -60.32,1.72 q -203.36,0.66 -283.7,0.24 c -17.86,-0.09 -45.91,-1.99 -71.25,-1.97 q -41.24,0.03 -82.47,0 -0.52,0 -0.53,-0.52 c -1.17,-43.02 -1.41,-86.24 -1.69,-129.28 -0.98,-153.31 -0.98,-306.64 1.67,-459.94 q 0.08,-4.28 -0.01,-8.6 -0.01,-0.5 0.48,-0.55 c 4.43,-0.53 9.59,-0.05 13.04,-0.1 34.87,-0.51 69.57,-0.21 104.43,-1.88 q 23.67,-1.12 58.27,-1.41 150.57,-1.22 261.24,-0.02 c 18.35,0.2 41.57,1.67 55.13,1.98 q 50.09,1.15 102.39,1.64 2.16,0.02 2.18,2.17 0.31,45.52 0.7,92.19 c 0.02,2.59 -1.33,4.6 -1.33,7.13 q 0.01,224.81 -0.01,449.75 z m -79.37,-537.62 8.04,24.91 a 0.04,0.04 0 0 0 0.05,0.03 l 0.05,-0.02 a 12.92,1.17 72.1 0 0 -2.86,-12.65 l -0.13,-0.4 a 12.92,1.17 72.1 0 0 -5.08,-11.94 l -0.05,0.02 a 0.04,0.04 0 0 0 -0.02,0.05 z m -348.3,556.38 c 1.51,-0.23 3.44,0.17 4.58,0.17 q 117.02,0.68 234.04,0.2 11.79,-0.05 23.83,-0.57 A 0.44,0.43 77.1 0 0 633.4,770 q -14.99,-33.63 -26.12,-60.01 c -18.21,-43.2 -29.53,-87.01 -36.81,-135.74 -0.56,-3.71 1.97,-4.51 5.11,-4.26 q 9.53,0.78 24.73,3.72 50.75,9.82 94.11,26.39 39.17,14.96 76.11,32.55 1.75,0.84 1.76,-1.1 c 0.69,-79.25 0.47,-158.49 0.21,-237.74 q -0.04,-12.53 -0.31,-24.88 a 0.64,0.63 -12.5 0 0 -0.89,-0.56 q -26.6,11.6 -53.45,23.27 -46.28,20.12 -95.61,30.83 -18.91,4.11 -45.17,8.42 -2.81,0.46 -4.97,0.12 a 1.09,1.08 -9 0 1 -0.78,-0.56 q -0.9,-1.69 -0.74,-2.94 8.81,-69.01 35.57,-133.16 c 8.87,-21.26 18.77,-42.46 26.74,-64.05 q 0.2,-0.54 -0.38,-0.55 c -86.93,-1.39 -174.19,-0.79 -261.66,-0.22 q -1.47,0.01 -0.95,1.39 c 7.13,18.71 16.67,38.81 25.88,60.78 17.91,42.72 29.19,85.89 35.66,131.4 0.83,5.85 0.76,8.57 -5.9,7.63 q -66.25,-9.26 -128.23,-33.99 c -21.95,-8.76 -43.57,-18.77 -65.25,-28.29 a 0.67,0.66 -77.2 0 0 -0.93,0.59 q -0.4,17.21 -0.46,34.71 -0.38,114.25 0.09,228.55 a 0.45,0.44 -12.7 0 0 0.64,0.4 q 33.22,-15.32 67.14,-29.4 c 41.8,-17.36 88,-28.3 132.82,-34.31 q 0.52,-0.07 0.57,0.45 0.27,2.75 -0.09,5.49 -9.62,73.01 -38.73,140.4 c -8.16,18.88 -16.21,37.79 -24.68,56.53 q -0.25,0.57 0.3,0.87 l 0.49,0.26 a 0.53,0.53 0 0 0 0.78,-0.46 v -1.06 a 0.68,0.67 -4.5 0 1 0.57,-0.66 z M 292.0873,243.8498 a 0.44,0.44 0 0 0 -0.6168,-0.0823 l -0.0159,0.0121 a 0.44,0.44 0 0 0 -0.0823,0.6168 l 10.2404,13.3938 a 0.44,0.44 0 0 0 0.6168,0.0823 l 0.0159,-0.0121 a 0.44,0.44 0 0 0 0.0823,-0.6168 z m 7.1927,44.9602 0.73,-0.49 a 0.22,0.22 0 0 0 0.07,-0.3 l -0.03,-0.04 a 18.41,0.53 56.8 0 0 -10.53,-15.12 l -0.21,0.15 a 18.41,0.53 56.8 0 0 9.63,15.69 l 0.03,0.04 a 0.22,0.22 0 0 0 0.31,0.07 z m -51.8176,6.8539 a 0.39,0.39 0 0 0 -0.0202,-0.5511 L 232.176,280.9265 a 0.39,0.39 0 0 0 -0.5512,0.0203 l -0.0272,0.0293 a 0.39,0.39 0 0 0 0.0202,0.5511 l 15.2662,14.1863 a 0.39,0.39 0 0 0 0.5512,-0.0203 z m 538.3191,-0.3249 a 3.3,0.53 104.9 0 0 1.3607,-3.0527 3.3,0.53 104.9 0 0 0.3363,-3.3253 3.3,0.53 104.9 0 0 -1.3607,3.0527 3.3,0.53 104.9 0 0 -0.3363,3.3253 z m -85.5515,-2.369 -0.5,-0.75 a 0.16,0.16 0 0 0 -0.22,-0.05 l -11.82,7.76 a 7.26,0.56 -33.3 0 0 -5.76,4.46 l 0.06,0.08 a 7.26,0.56 -33.3 0 0 6.37,-3.52 l 11.82,-7.76 a 0.16,0.16 0 0 0 0.05,-0.22 z m -75.8,47.8 q 9.58,0.66 21.57,-0.77 0.21,-0.02 0.32,-0.16 0.25,-0.33 -0.16,-0.32 -14.01,0.28 -21.73,0.69 -4.53,0.24 0,0.56 z m -292.8202,5.7611 a 7.04,0.68 -7.5 0 0 -7.0686,0.2447 7.04,0.68 -7.5 0 0 -6.891,1.5931 7.04,0.68 -7.5 0 0 7.0686,-0.2447 7.04,0.68 -7.5 0 0 6.891,-1.5931 z M 747.43,654.45 l -0.88,0.17 a 0.21,0.21 0 0 0 -0.17,0.24 l 0.04,0.2 a 11.77,0.51 79.4 0 0 2.66,11.47 l 0.3,-0.05 a 11.77,0.51 79.4 0 0 -1.67,-11.66 l -0.03,-0.2 a 0.21,0.21 0 0 0 -0.25,-0.17 z m -401.3645,6.7173 a 3.2,0.6 95.1 0 0 0.8821,-3.134 3.2,0.6 95.1 0 0 -0.3131,-3.2406 3.2,0.6 95.1 0 0 -0.8821,3.134 3.2,0.6 95.1 0 0 0.3131,3.2406 z M 671.21,677.84 q 2.26,18.51 7.1,36.56 a 0.2,0.2 0 0 0 0.39,-0.04 q 0.02,-1.56 -0.27,-3.3 -2.92,-17.81 -6.55,-35.58 a 0.28,0.28 0 0 0 -0.54,-0.01 q -0.28,1.12 -0.13,2.37 z m -406.97,25.92 c 7.33,-3.31 17.16,-7.95 22.47,-13.62 a 0.24135037,0.24135037 0 0 0 -0.31,-0.37 c -7.23,4.62 -15.66,8.36 -22.43,13.54 a 0.26239284,0.26239284 0 0 0 0.27,0.45 z m 470.28,1.25 q -0.96,7.71 -0.31,15.48 0.16,2 0.51,0.03 1.22,-6.84 1.38,-14.77 0.01,-0.9 -0.61,-1.24 a 0.66,0.66 0 0 0 -0.97,0.5 z m -438.76,29.58 0.46,0.81 a 0.22,0.22 0 0 0 0.3,0.09 l 0.08,-0.05 a 20.87,0.53 -29.5 0 0 17.91,-10.74 l -0.16,-0.27 a 20.87,0.53 -29.5 0 0 -18.43,9.81 l -0.08,0.05 a 0.22,0.22 0 0 0 -0.08,0.3 z m -25.8504,56.6476 a 5.96,0.62 98.3 0 0 1.4739,-5.8081 5.96,0.62 98.3 0 0 0.2469,-5.9871 5.96,0.62 98.3 0 0 -1.4739,5.8081 5.96,0.62 98.3 0 0 -0.2469,5.9871 z"
         id="path88" />
      <path
         fill="#4d4d4d"
         d="m 163.45,798.44 a 0.47,0.47 0 0 1 -0.47,0.47 H 39.72 a 0.47,0.47 0 0 1 -0.47,-0.47 V 201.2 a 0.47,0.47 0 0 1 0.47,-0.47 h 123.26 a 0.47,0.47 0 0 1 0.47,0.47 z m -39.24,-547 c -6.85,11.89 -15,23.12 -23.83,33.61 -3.59,4.27 -3.16,10.34 -2.76,15.99 q 0.03,0.51 0.27,0.06 l 26.64,-49.59 a 0.12,0.08 -66.1 0 0 -0.03,-0.15 q -0.03,-0.01 -0.06,-0.02 -0.14,-0.05 -0.23,0.1 z m -46.69,81.23 c 4.06,5.87 9.96,12.32 15.48,17.14 3.41,2.98 6.89,-1.74 4.49,-4.05 q -9.51,-9.11 -15.47,-17.05 c -2.39,-3.19 -7.26,-0.02 -4.5,3.96 z m 0.8938,70.3108 a 0.27,0.27 0 0 0 -0.2811,-0.2584 l -0.06,0.002 a 0.27,0.27 0 0 0 -0.2584,0.281 l 2.2319,53.2533 a 0.27,0.27 0 0 0 0.2811,0.2584 l 0.06,-0.002 a 0.27,0.27 0 0 0 0.2584,-0.281 z M 139.47,471.22 c 0.36,-18.72 -0.05,-34.72 -12.38,-49.51 q -0.89,-1.07 -0.54,0.28 l 12.73,49.26 a 0.1,0.1 0 0 0 0.19,-0.03 z M 67.677,455.1575 a 0.25,0.25 0 0 0 -0.3192,-0.1522 l -0.0188,0.007 a 0.25,0.25 0 0 0 -0.1522,0.3192 l 11.4562,32.3514 a 0.25,0.25 0 0 0 0.3192,0.1522 l 0.0188,-0.007 a 0.25,0.25 0 0 0 0.1522,-0.3192 z M 82.04,492.4 q -0.08,-2.96 -0.33,-0.01 c -0.08,0.89 0.02,2.32 0.38,3.36 q 13.2,37.18 25.6,72.34 1.3,3.68 0.54,-0.15 C 103.36,543.57 93.04,519.98 82.91,497.07 q -0.8,-1.81 -0.87,-4.67 z M 68.55,672.63 q 0.8,-26.01 -1.05,-50.53 -0.17,-2.26 -0.22,0 c -0.39,16.79 1.01,33.69 1,50.52 q 0,0.07 0.06,0.07 0.05,0 0.08,0 a 0.13,0.06 0 0 0 0.13,-0.06 z m 54.09,-18 q -3.91,8.46 -6.71,17.34 a 0.43,0.42 -14.8 0 1 -0.13,0.22 q -0.19,0.18 -0.06,0.34 0.24,0.31 0.39,-0.06 l 6.84,-17.7 a 0.18,0.18 0 0 0 -0.33,-0.14 z m -8.81,23.58 -23.61,60.31 a 0.26,0.26 0 0 0 0.44,0.26 c 13.36,-15.77 17.75,-40.62 23.36,-60.02 q 0.1,-0.35 -0.05,-0.57 -0.09,-0.13 -0.14,0.02 z"
         id="path89" />
      <path
         fill="#4d4d4d"
         d="m 836.74,787.91 c -0.49,-169.98 -0.13,-390.66 0.38,-585.94 a 0.39,0.38 -0.8 0 1 0.38,-0.38 l 121.74,-0.86 a 1.01,1.01 0 0 1 1.01,1.01 v 596.49 q 0,0.46 -0.45,0.46 -53.49,0.61 -106.86,-0.32 c -4.71,-0.09 -9.14,-0.55 -13.63,-1.18 -3.17,-0.44 -2.56,-6.79 -2.57,-9.28 z m 82.1,-562.83 -39.08,-14.63 a 0.34,0.33 1.8 0 0 -0.44,0.41 c 1.01,3.38 3.14,14.13 7.94,13.68 q 15.91,-1.48 31.46,0.98 a 0.23,0.23 0 0 0 0.12,-0.44 z m 6.34,1.47 q -1.52,-0.56 -3.17,-0.57 -0.66,0 -0.08,0.32 1.44,0.77 3.07,0.99 a 0.38078866,0.38078866 0 0 0 0.18,-0.74 z m -38.53,152.69 q -0.23,-45.27 -8.43,-89.77 -1.18,-6.43 -0.56,0.08 l 8.58,89.71 q 0.44,4.57 0.41,-0.02 z m 28.53,-46.48 -7.53,81.98 q -0.01,0.18 0.09,0.19 0.03,0.01 0.05,0.01 0.05,0 0.07,-0.08 c 5.08,-27.11 10.17,-54.07 7.84,-82.1 a 0.26,0.26 0 0 0 -0.52,0 z m -10.894,117.6077 a 0.26,0.26 0 0 1 -0.2841,0.2334 v 0 a 0.26,0.26 0 0 1 -0.2334,-0.2841 l 2.7655,-28.2047 a 0.26,0.26 0 0 1 0.2841,-0.2334 v 0 a 0.26,0.26 0 0 1 0.2334,0.2841 z M 928,470.47 a 2.92,2.92 0 0 0 -2.92,-2.92 h -0.16 a 2.92,2.92 0 0 0 -2.92,2.92 v 25.38 a 2.92,2.92 0 0 0 2.92,2.92 h 0.16 a 2.92,2.92 0 0 0 2.92,-2.92 z m -22.72,60.34 q -9.94,13.02 -20.43,25.6 c -5.6,6.73 -9.03,13.5 -12.57,21.15 a 0.1029563,0.1029563 0 0 0 0.18,0.1 L 906.5,530 a 0.11,0.11 0 0 0 -0.15,-0.15 q -0.64,0.4 -1.07,0.96 z m 34.91,92.36 q -5.25,22.44 -12.01,44.01 c -2.92,9.31 -3.87,16.11 -3.01,25.13 a 0.07,0.07 0 0 0 0.13,0.01 l 15.11,-69.1 a 0.11280514,0.11280514 0 0 0 -0.22,-0.05 z m -42.26,134.08 q -1.99,3.12 -4.01,6.33 -0.51,0.83 -0.45,1.52 0.13,1.43 1.69,1.24 a 1.67,1.67 0 0 0 1.46,-1.38 l 1.31,-7.71 c 3.88,-9.23 9.91,-22.89 9.87,-32.83 q -0.07,-18.28 -0.08,-36.58 -0.01,-3.72 0.96,-7.58 c 2.01,-8 6.19,-22.97 3.34,-29.8 q -0.2,-0.48 -0.7,-0.62 -1.25,-0.35 -2.58,-0.35 -10.69,0 -21.48,0.33 -0.49,0.02 -0.44,0.5 z"
         id="path90" />
      <path
         fill="#000000"
         d="m 918.84,225.08 a 0.23,0.23 0 0 1 -0.12,0.44 q -15.55,-2.46 -31.46,-0.98 c -4.8,0.45 -6.93,-10.3 -7.94,-13.68 a 0.34,0.33 1.8 0 1 0.44,-0.41 z"
         id="path91-9" />
      <path
         fill="#000000"
         d="m 718.87,214.43 a 0.04,0.04 0 0 1 0.02,-0.05 l 0.05,-0.02 a 12.92,1.17 72.1 0 1 5.08,11.94 l 0.13,0.4 a 12.92,1.17 72.1 0 1 2.86,12.65 l -0.05,0.02 a 0.04,0.04 0 0 1 -0.05,-0.03 z"
         id="path92-0" />
      <path
         fill="#000000"
         d="m 925.18,226.55 a 0.38078866,0.38078866 0 0 1 -0.18,0.74 q -1.63,-0.22 -3.07,-0.99 -0.58,-0.32 0.08,-0.32 1.65,0.01 3.17,0.57 z"
         id="path93" />
      <path
         fill="#000000"
         d="m 370,771.47 v 1.06 a 0.53,0.53 0 0 1 -0.78,0.46 l -0.49,-0.26 q -0.55,-0.3 -0.3,-0.87 c 8.47,-18.74 16.52,-37.65 24.68,-56.53 q 29.11,-67.39 38.73,-140.4 0.36,-2.74 0.09,-5.49 -0.05,-0.52 -0.57,-0.45 C 386.54,575 340.34,585.94 298.54,603.3 q -33.92,14.08 -67.14,29.4 a 0.45,0.44 -12.7 0 1 -0.64,-0.4 q -0.47,-114.3 -0.09,-228.55 0.06,-17.5 0.46,-34.71 a 0.67,0.66 -77.2 0 1 0.93,-0.59 c 21.68,9.52 43.3,19.53 65.25,28.29 q 61.98,24.73 128.23,33.99 c 6.66,0.94 6.73,-1.78 5.9,-7.63 -6.47,-45.51 -17.75,-88.68 -35.66,-131.4 -9.21,-21.97 -18.75,-42.07 -25.88,-60.78 q -0.52,-1.38 0.95,-1.39 c 87.47,-0.57 174.73,-1.17 261.66,0.22 q 0.58,0.01 0.38,0.55 c -7.97,21.59 -17.87,42.79 -26.74,64.05 q -26.76,64.15 -35.57,133.16 -0.16,1.25 0.74,2.94 a 1.09,1.08 -9 0 0 0.78,0.56 q 2.16,0.34 4.97,-0.12 26.26,-4.31 45.17,-8.42 49.33,-10.71 95.61,-30.83 26.85,-11.67 53.45,-23.27 a 0.64,0.63 -12.5 0 1 0.89,0.56 q 0.27,12.35 0.31,24.88 c 0.26,79.25 0.48,158.49 -0.21,237.74 q -0.01,1.94 -1.76,1.1 -36.94,-17.59 -76.11,-32.55 -43.36,-16.57 -94.11,-26.39 -15.2,-2.94 -24.73,-3.72 c -3.14,-0.25 -5.67,0.55 -5.11,4.26 7.28,48.73 18.6,92.54 36.81,135.74 q 11.13,26.38 26.12,60.01 a 0.44,0.43 77.1 0 1 -0.38,0.61 q -12.04,0.52 -23.83,0.57 -117.02,0.48 -234.04,-0.2 c -1.14,0 -3.07,-0.4 -4.58,-0.17 a 0.68,0.67 -4.5 0 0 -0.57,0.66 z m 79.45,-218.69 c 0.05,3.17 -0.47,6.62 -0.82,9.84 q -8.17,74.91 -36.22,144.8 -4.29,10.7 -19.8,48.03 -0.29,0.69 0.46,0.69 l 216.1,0.03 a 1.11,1.11 0 0 0 1.01,-1.56 C 580.83,689.85 559.77,624.14 553.4,552.81 a 0.71,0.71 0 0 1 0.77,-0.77 c 70.21,6.49 137.59,27.67 201.47,56.96 a 1.14,1.14 0 0 0 1.61,-1.04 V 392.73 a 1.17,1.17 0 0 0 -1.65,-1.06 c -64.52,28.81 -130.32,50.27 -200.85,56.55 q -1.71,0.15 -1.55,-1.55 c 6.79,-70.7 27.94,-136.4 56.84,-200.84 a 1.22,1.22 0 0 0 -1.12,-1.72 H 394.07 a 1.69,1.68 -13.1 0 0 -1.52,2.43 q 46.84,94.9 57.02,200.44 a 1.54,1.54 0 0 1 -1.68,1.68 q -83.2,-8.31 -160.78,-40.07 -20.08,-8.22 -40.4,-17.07 a 1.05,1.05 0 0 0 -1.46,0.96 l -0.01,216.01 a 0.86,0.86 0 0 0 1.21,0.79 q 24.67,-10.83 49.67,-20.82 73.06,-29.19 152.56,-36.37 0.76,-0.07 0.77,0.69 z"
         id="path94" />
      <rect
         fill="#000000"
         x="-0.44999999"
         y="-8.8699999"
         transform="rotate(-37.4,518.93288,-313.09277)"
         width="0.89999998"
         height="17.74"
         rx="0.44"
         id="rect94" />
      <path
         fill="#ffffff"
         d="m 449.45,552.78 q -0.01,-0.76 -0.77,-0.69 -79.5,7.18 -152.56,36.37 -25,9.99 -49.67,20.82 a 0.86,0.86 0 0 1 -1.21,-0.79 l 0.01,-216.01 a 1.05,1.05 0 0 1 1.46,-0.96 q 20.32,8.85 40.4,17.07 77.58,31.76 160.78,40.07 a 1.54,1.54 0 0 0 1.68,-1.68 Q 439.39,341.44 392.55,246.54 a 1.69,1.68 -13.1 0 1 1.52,-2.43 h 214.85 a 1.22,1.22 0 0 1 1.12,1.72 c -28.9,64.44 -50.05,130.14 -56.84,200.84 q -0.16,1.7 1.55,1.55 c 70.53,-6.28 136.33,-27.74 200.85,-56.55 a 1.17,1.17 0 0 1 1.65,1.06 V 607.96 A 1.14,1.14 0 0 1 755.64,609 C 691.76,579.71 624.38,558.53 554.17,552.04 a 0.71,0.71 0 0 0 -0.77,0.77 c 6.37,71.33 27.43,137.04 56.78,201.8 a 1.11,1.11 0 0 1 -1.01,1.56 l -216.1,-0.03 q -0.75,0 -0.46,-0.69 15.51,-37.33 19.8,-48.03 28.05,-69.89 36.22,-144.8 c 0.35,-3.22 0.87,-6.67 0.82,-9.84 z m 88.04,-17.01 q 0.53,-0.08 1.51,-0.02 105.83,6.4 201.91,49.88 a 0.95,0.95 0 0 0 1.34,-0.86 V 415.99 a 1.06,1.05 -12.1 0 0 -1.49,-0.96 q -97.06,43.66 -203.49,49.92 a 0.52,0.51 -89.5 0 1 -0.54,-0.55 q 6.28,-106.28 49.34,-202.78 0.28,-0.63 0.34,-0.89 a 0.81,0.76 -82.8 0 0 -0.72,-1 l -168.7,0.08 a 0.91,0.91 0 0 0 -0.83,1.28 q 43.49,96.92 49.88,203.18 0.04,0.74 -0.7,0.7 -97.29,-5.87 -187.58,-43.25 -8.04,-3.32 -15.78,-6.6 a 0.66,0.66 0 0 0 -0.92,0.58 c -0.52,13 -0.25,26.3 -0.28,39.36 q -0.16,64.79 0.31,129.19 a 1.11,1.11 0 0 0 1.56,1 q 95.51,-42.65 199.41,-49.41 2.05,-0.13 3.3,-0.08 0.67,0.03 0.63,0.7 c -4.24,70.82 -21.28,138.5 -49.86,203.36 a 1.02,1.02 0 0 0 0.93,1.43 h 168.38 a 1.54,1.54 0 0 0 1.37,-0.84 q 0.02,-0.03 -0.21,-0.56 -43.54,-96.87 -49.82,-203.21 -0.05,-0.76 0.71,-0.87 z"
         id="path95" />
      <path
         fill="#000000"
         d="m 100.38,285.05 c 8.83,-10.49 16.98,-21.72 23.83,-33.61 q 0.09,-0.15 0.23,-0.1 0.03,0.01 0.06,0.02 a 0.12,0.08 -66.1 0 1 0.03,0.15 L 97.89,301.1 q -0.24,0.45 -0.27,-0.06 c -0.4,-5.65 -0.83,-11.72 2.76,-15.99 z"
         id="path96" />
      <path
         fill="#000000"
         d="m 537.49,535.77 q -0.76,0.11 -0.71,0.87 6.28,106.34 49.82,203.21 0.23,0.53 0.21,0.56 a 1.54,1.54 0 0 1 -1.37,0.84 H 417.06 a 1.02,1.02 0 0 1 -0.93,-1.43 c 28.58,-64.86 45.62,-132.54 49.86,-203.36 q 0.04,-0.67 -0.63,-0.7 -1.25,-0.05 -3.3,0.08 -103.9,6.76 -199.41,49.41 a 1.11,1.11 0 0 1 -1.56,-1 q -0.47,-64.4 -0.31,-129.19 c 0.03,-13.06 -0.24,-26.36 0.28,-39.36 a 0.66,0.66 0 0 1 0.92,-0.58 q 7.74,3.28 15.78,6.6 90.29,37.38 187.58,43.25 0.74,0.04 0.7,-0.7 -6.39,-106.26 -49.88,-203.18 a 0.91,0.91 0 0 1 0.83,-1.28 l 168.7,-0.08 a 0.81,0.76 -82.8 0 1 0.72,1 q -0.06,0.26 -0.34,0.89 -43.06,96.5 -49.34,202.78 a 0.52,0.51 -89.5 0 0 0.54,0.55 q 106.43,-6.26 203.49,-49.92 a 1.06,1.05 -12.1 0 1 1.49,0.96 v 168.78 a 0.95,0.95 0 0 1 -1.34,0.86 Q 644.83,542.15 539,535.75 q -0.98,-0.06 -1.51,0.02 z"
         id="path97" />
      <path
         fill="#000000"
         d="m 299.28,288.81 a 0.22,0.22 0 0 1 -0.31,-0.07 l -0.03,-0.04 a 18.41,0.53 56.8 0 1 -9.63,-15.69 l 0.21,-0.15 a 18.41,0.53 56.8 0 1 10.53,15.12 l 0.03,0.04 a 0.22,0.22 0 0 1 -0.07,0.3 z"
         id="path98" />
      <rect
         fill="#000000"
         x="-10.81"
         y="-0.41"
         transform="rotate(42.9,-247.14513,448.98098)"
         width="21.620001"
         height="0.81999999"
         rx="0.38999999"
         id="rect98" />
      <path
         fill="#000000"
         d="m 886.65,379.24 q 0.03,4.59 -0.41,0.02 l -8.58,-89.71 q -0.62,-6.51 0.56,-0.08 8.2,44.5 8.43,89.77 z"
         id="path99" />
      <ellipse
         fill="#000000"
         cx="0"
         cy="0"
         transform="rotate(104.9,281.02504,448.4219)"
         rx="3.3"
         ry="0.52999997"
         id="ellipse99" />
      <path
         fill="#000000"
         d="m 700.23,292.97 a 0.16,0.16 0 0 1 -0.05,0.22 l -11.82,7.76 a 7.26,0.56 -33.3 0 1 -6.37,3.52 l -0.06,-0.08 a 7.26,0.56 -33.3 0 1 5.76,-4.46 l 11.82,-7.76 a 0.16,0.16 0 0 1 0.22,0.05 z"
         id="path100" />
      <path
         fill="#000000"
         d="m 93,349.81 c -5.52,-4.82 -11.42,-11.27 -15.48,-17.14 -2.76,-3.98 2.11,-7.15 4.5,-3.96 q 5.96,7.94 15.47,17.05 c 2.4,2.31 -1.08,7.03 -4.49,4.05 z"
         id="path101" />
      <path
         fill="#000000"
         d="m 907.65,414.74 7.53,-81.98 a 0.26,0.26 0 0 1 0.52,0 c 2.33,28.03 -2.76,54.99 -7.84,82.1 q -0.02,0.08 -0.07,0.08 -0.02,0 -0.05,-0.01 -0.1,-0.01 -0.09,-0.19 z"
         id="path102" />
      <path
         fill="#000000"
         d="m 624.43,340.77 q -4.53,-0.32 0,-0.56 7.72,-0.41 21.73,-0.69 0.41,-0.01 0.16,0.32 -0.11,0.14 -0.32,0.16 -11.99,1.43 -21.57,0.77 z"
         id="path103" />
      <ellipse
         fill="#000000"
         cx="0"
         cy="0"
         transform="rotate(-7.5,2812.8463,-2302.7233)"
         rx="7.04"
         ry="0.68000001"
         id="ellipse103" />
      <rect
         fill="#000000"
         x="-0.30000001"
         y="-26.92"
         transform="rotate(-2.4,10294.537,-1676.3903)"
         width="0.60000002"
         height="53.84"
         rx="0.27000001"
         id="rect103" />
      <path
         fill="#000000"
         d="m 127.09,421.71 c 12.33,14.79 12.74,30.79 12.38,49.51 a 0.1,0.1 0 0 1 -0.19,0.03 l -12.73,-49.26 q -0.35,-1.35 0.54,-0.28 z"
         id="path104" />
      <rect
         fill="#000000"
         x="-0.25999999"
         y="-14.43"
         transform="rotate(5.6,-4007.0825,9474.3465)"
         width="0.51999998"
         height="28.860001"
         rx="0.25999999"
         id="rect104" />
      <rect
         fill="#000000"
         x="-0.25999999"
         y="-17.41"
         transform="rotate(-19.5,1408.3314,22.82694)"
         width="0.51999998"
         height="34.82"
         rx="0.25"
         id="rect105" />
      <rect
         fill="#000000"
         x="922"
         y="467.54999"
         width="6"
         height="31.219999"
         rx="2.9200001"
         id="rect106" />
      <path
         fill="#000000"
         d="m 82.04,492.4 q 0.07,2.86 0.87,4.67 c 10.13,22.91 20.45,46.5 25.32,70.87 q 0.76,3.83 -0.54,0.15 -12.4,-35.16 -25.6,-72.34 c -0.36,-1.04 -0.46,-2.47 -0.38,-3.36 q 0.25,-2.95 0.33,0.01 z"
         id="path106" />
      <path
         fill="#000000"
         d="m 905.28,530.81 q 0.43,-0.56 1.07,-0.96 a 0.11,0.11 0 0 1 0.15,0.15 l -34.04,47.66 a 0.1029563,0.1029563 0 0 1 -0.18,-0.1 c 3.54,-7.65 6.97,-14.42 12.57,-21.15 q 10.49,-12.58 20.43,-25.6 z"
         id="path107" />
      <path
         fill="#000000"
         d="m 68.55,672.63 a 0.13,0.06 0 0 1 -0.13,0.06 q -0.03,0 -0.08,0 -0.06,0 -0.06,-0.07 c 0.01,-16.83 -1.39,-33.73 -1,-50.52 q 0.05,-2.26 0.22,0 1.85,24.52 1.05,50.53 z"
         id="path108" />
      <path
         fill="#000000"
         d="m 940.19,623.17 a 0.11280514,0.11280514 0 0 1 0.22,0.05 l -15.11,69.1 a 0.07,0.07 0 0 1 -0.13,-0.01 c -0.86,-9.02 0.09,-15.82 3.01,-25.13 q 6.76,-21.57 12.01,-44.01 z"
         id="path109" />
      <path
         fill="#000000"
         d="M 897.93,757.25 886.82,650.32 q -0.05,-0.48 0.44,-0.5 10.79,-0.33 21.48,-0.33 1.33,0 2.58,0.35 0.5,0.14 0.7,0.62 c 2.85,6.83 -1.33,21.8 -3.34,29.8 q -0.97,3.86 -0.96,7.58 0.01,18.3 0.08,36.58 c 0.04,9.94 -5.99,23.6 -9.87,32.83 z"
         id="path110" />
      <path
         fill="#000000"
         d="m 122.64,654.63 a 0.18,0.18 0 0 1 0.33,0.14 l -6.84,17.7 q -0.15,0.37 -0.39,0.06 -0.13,-0.16 0.06,-0.34 a 0.43,0.42 -14.8 0 0 0.13,-0.22 q 2.8,-8.88 6.71,-17.34 z"
         id="path111" />
      <path
         fill="#000000"
         d="m 747.43,654.45 a 0.21,0.21 0 0 1 0.25,0.17 l 0.03,0.2 a 11.77,0.51 79.4 0 1 1.67,11.66 l -0.3,0.05 a 11.77,0.51 79.4 0 1 -2.66,-11.47 l -0.04,-0.2 a 0.21,0.21 0 0 1 0.17,-0.24 z"
         id="path112" />
      <ellipse
         fill="#000000"
         cx="0"
         cy="0"
         transform="rotate(95.1,-127.76105,487.39786)"
         rx="3.2"
         ry="0.60000002"
         id="ellipse112" />
      <path
         fill="#000000"
         d="m 671.21,677.84 q -0.15,-1.25 0.13,-2.37 a 0.28,0.28 0 0 1 0.54,0.01 q 3.63,17.77 6.55,35.58 0.29,1.74 0.27,3.3 a 0.2,0.2 0 0 1 -0.39,0.04 q -4.84,-18.05 -7.1,-36.56 z"
         id="path113" />
      <path
         fill="#000000"
         d="m 90.22,738.52 23.61,-60.31 q 0.05,-0.15 0.14,-0.02 0.15,0.22 0.05,0.57 c -5.61,19.4 -10,44.25 -23.36,60.02 a 0.26,0.26 0 0 1 -0.44,-0.26 z"
         id="path114" />
      <path
         fill="#000000"
         d="m 264.24,703.76 a 0.26239284,0.26239284 0 0 1 -0.27,-0.45 c 6.77,-5.18 15.2,-8.92 22.43,-13.54 a 0.24135037,0.24135037 0 0 1 0.31,0.37 c -5.31,5.67 -15.14,10.31 -22.47,13.62 z"
         id="path115" />
      <path
         fill="#000000"
         d="m 734.52,705.01 a 0.66,0.66 0 0 1 0.97,-0.5 q 0.62,0.34 0.61,1.24 -0.16,7.93 -1.38,14.77 -0.35,1.97 -0.51,-0.03 -0.65,-7.77 0.31,-15.48 z"
         id="path116" />
      <path
         fill="#000000"
         d="m 295.76,734.59 a 0.22,0.22 0 0 1 0.08,-0.3 l 0.08,-0.05 a 20.87,0.53 -29.5 0 1 18.43,-9.81 l 0.16,0.27 a 20.87,0.53 -29.5 0 1 -17.91,10.74 l -0.08,0.05 a 0.22,0.22 0 0 1 -0.3,-0.09 z"
         id="path117" />
      <path
         fill="#000000"
         d="m 798.24,752.05 q 0.93,1.27 3.96,2.75 c 3.62,1.78 2,6.14 -1.95,6.01 l -0.26,-2.62 q -0.05,-0.44 -0.44,-0.65 l -25.07,-13.42 q -0.48,-0.26 -0.03,-0.58 0.18,-0.13 0.28,-0.08 10.35,4.97 20.78,9.78 a 0.62,0.62 0 0 0 0.79,-0.25 q 0.78,-1.36 1.94,-0.94 z"
         id="path118" />
      <path
         fill="#000000"
         d="m 897.93,757.25 -1.31,7.71 a 1.67,1.67 0 0 1 -1.46,1.38 q -1.56,0.19 -1.69,-1.24 -0.06,-0.69 0.45,-1.52 2.02,-3.21 4.01,-6.33 z"
         id="path119" />
      <ellipse
         fill="#000000"
         cx="0"
         cy="0"
         transform="rotate(98.3,-204.15709,509.73753)"
         rx="5.96"
         ry="0.62"
         id="ellipse119" />
      <path
         fill="#000000"
         d="m 400.73,837.97 61.16,55.9 q 0.6,0.54 -0.21,0.56 -10.48,0.27 -27.49,-0.14 c -24.54,-0.6 -42.99,-11.9 -59.24,-30.26 -5.08,-5.74 8.71,-14.31 11.86,-18.14 q 3.21,-3.91 5.47,-8.58 l 2.81,-3.67 q 0.36,-0.47 0.79,-0.08 z"
         id="path120" />
      <path
         fill="#4d4d4d"
         d="m 392.28,837.31 q -2.26,4.67 -5.47,8.58 c -3.15,3.83 -16.94,12.4 -11.86,18.14 16.25,18.36 34.7,29.66 59.24,30.26 q 17.01,0.41 27.49,0.14 0.81,-0.02 0.21,-0.56 l -61.16,-55.9 0.62,-0.63 q 0.33,-0.34 0.8,-0.34 h 557.6 a 0.5,0.5 0 0 1 0.5,0.5 v 124.75 a 0.76,0.75 -90 0 1 -0.75,0.76 l -919.95,0.02 a 0.3,0.3 0 0 1 -0.3,-0.3 v -124.5 a 1.26,1.26 0 0 1 1.26,-1.26 z m -328.94,73 c -5.95,0.56 -2.75,6.57 -1.74,9.78 1.1,3.46 5.64,3.34 6.02,-0.84 7.37,10.08 15.37,16.58 27.07,18.31 q 31.05,4.56 45.68,-21.65 c 7.75,-13.88 6.74,-30.01 -1.97,-42.74 -16.1,-23.52 -47.96,-24.51 -66.73,-3.76 q -16.11,17.81 -8.33,40.9 z m 814.79,24.08 c 17.5,8.52 40.35,3.16 52.15,-12.18 14.36,-18.68 9.93,-45.71 -8.79,-59.55 -15.04,-11.12 -38.03,-10.69 -52.03,1.81 -22.92,20.47 -19.14,56.39 8.67,69.92 z M 557.23,862.9 c 13.24,3.84 28.51,9.54 41.77,9.88 q 48.71,1.25 97.22,5.75 0.14,0.01 0.22,-0.1 0.1,-0.12 -0.19,-0.16 -69.38,-7.96 -139.96,-16.18 a 0.35,0.35 0 0 0 -0.26,0.63 q 0.18,0.15 0.6,0.12 0.36,-0.01 0.6,0.06 z m 197.21,64.16 c 16.96,12.99 63.64,-25.01 77.88,-34.49 q 7.51,-5 17.28,-7.87 a 0.86,0.86 0 0 0 0.61,-0.75 l 0.38,-4.11 q 0.07,-0.8 -0.69,-0.52 l -100.08,37.77 q -0.46,0.17 -0.4,0.65 0.71,6.02 5.02,9.32 z M 755.73,886 q -2.27,-0.07 -10.54,0.21 -25.44,0.86 -102.19,2.94 c -6.63,0.18 -13.15,0.67 -19.73,1.11 q -47.39,3.21 -89.88,6.9 -11.44,0.99 0.02,0.42 l 222.34,-11.08 19.19,-0.86 a 0.18,0.18 0 0 0 0.02,-0.35 c -5.36,-0.89 -13.71,0.08 -19.23,0.71 z m -533.46,3.38 c 22.84,30.41 59.14,41.5 95.16,47.24 q 23.22,3.69 47.29,7 1.7,0.24 0.1,-0.38 L 222.58,888.98 q -0.86,-0.33 -0.31,0.4 z m 302.92,26.43 q 21.26,1.96 30.38,2.37 12.07,0.56 19.94,-1.42 63.59,-15.94 128.33,-26.37 0.62,-0.1 0.02,-0.28 c -1.5,-0.44 -2.8,0.16 -3.94,0.32 q -89.49,12.48 -179.01,24.85 -0.13,0.01 -0.15,0.14 -0.03,0.12 0.03,0.25 0.02,0.06 0.08,0.06 3.25,-0.02 4.32,0.08 z m -335.046,0.1917 a 2.94,2.94 0 0 0 -1.6045,-3.8357 l -0.222,-0.0911 a 2.94,2.94 0 0 0 -3.8358,1.6045 l -9.6457,23.5189 a 2.94,2.94 0 0 0 1.6045,3.8357 l 0.222,0.0911 a 2.94,2.94 0 0 0 3.8358,-1.6045 z"
         id="path121" />
      <path
         fill="#333333"
         d="m 67.62,919.25 q -0.98,-6.3 -4.28,-8.94 -7.78,-23.09 8.33,-40.9 c 18.77,-20.75 50.63,-19.76 66.73,3.76 8.71,12.73 9.72,28.86 1.97,42.74 q -14.63,26.21 -45.68,21.65 c -11.7,-1.73 -19.7,-8.23 -27.07,-18.31 z m 58.69,-22.54 a 23.03,23.03 0 0 0 -23.03,-23.03 23.03,23.03 0 0 0 -23.03,23.03 23.03,23.03 0 0 0 23.03,23.03 23.03,23.03 0 0 0 23.03,-23.03 z"
         id="path122" />
      <path
         fill="#333333"
         d="m 878.13,934.39 c -27.81,-13.53 -31.59,-49.45 -8.67,-69.92 14,-12.5 36.99,-12.93 52.03,-1.81 18.72,13.84 23.15,40.87 8.79,59.55 -11.8,15.34 -34.65,20.7 -52.15,12.18 z m 41.6,-37.68 a 23.02,23.02 0 0 0 -23.02,-23.02 23.02,23.02 0 0 0 -23.02,23.02 23.02,23.02 0 0 0 23.02,23.02 23.02,23.02 0 0 0 23.02,-23.02 z"
         id="path123" />
      <path
         fill="#000000"
         d="m 556.63,862.84 q -0.42,0.03 -0.6,-0.12 a 0.35,0.35 0 0 1 0.26,-0.63 q 70.58,8.22 139.96,16.18 0.29,0.04 0.19,0.16 -0.08,0.11 -0.22,0.1 -48.51,-4.5 -97.22,-5.75 c -13.26,-0.34 -28.53,-6.04 -41.77,-9.88 q -0.24,-0.07 -0.6,-0.06 z"
         id="path124" />
      <circle
         fill="#808080"
         cx="103.28"
         cy="896.71002"
         r="23.030001"
         id="circle124" />
      <circle
         fill="#808080"
         cx="896.71002"
         cy="896.71002"
         r="23.02"
         id="circle125" />
      <path
         fill="#4d4d4d"
         d="M 69.19,1000 H 17.69 Q 7.43,998.59 2.07,990.1 C 0.56,987.71 0.48,984.73 0,981.93 v -92.74 l 0.52,-10.75 q 0.01,-0.13 0.14,-0.13 0.03,0 0.06,0 0.07,0 0.05,0.06 -0.41,1.71 0.52,3.08 a 1.59,1.53 -63.7 0 1 0.27,0.85 q 0.37,46.6 0.9,93.2 c 0.04,3.98 -0.67,10.85 1.71,14.22 5.06,7.14 11.25,8.17 19.48,8.33 q 20.39,0.4 40.78,0.48 2.51,0.02 4.76,1.47 z"
         id="path125" />
      <path
         fill="#000000"
         d="m 754.44,927.06 q -4.31,-3.3 -5.02,-9.32 -0.06,-0.48 0.4,-0.65 L 849.9,879.32 q 0.76,-0.28 0.69,0.52 l -0.38,4.11 a 0.86,0.86 0 0 1 -0.61,0.75 q -9.77,2.87 -17.28,7.87 c -14.24,9.48 -60.92,47.48 -77.88,34.49 z"
         id="path126" />
      <path
         fill="#333333"
         d="m 755.75,886.5 -0.02,-0.5 c 5.52,-0.63 13.87,-1.6 19.23,-0.71 a 0.18,0.18 0 0 1 -0.02,0.35 z"
         id="path127" />
      <path
         fill="#000000"
         d="m 755.73,886 0.02,0.5 -222.34,11.08 q -11.46,0.57 -0.02,-0.42 42.49,-3.69 89.88,-6.9 c 6.58,-0.44 13.1,-0.93 19.73,-1.11 q 76.75,-2.08 102.19,-2.94 8.27,-0.28 10.54,-0.21 z"
         id="path128" />
      <path
         fill="#000000"
         d="m 317.43,936.62 c -36.02,-5.74 -72.32,-16.83 -95.16,-47.24 q -0.55,-0.73 0.31,-0.4 l 142.24,54.26 q 1.6,0.62 -0.1,0.38 -24.07,-3.31 -47.29,-7 z"
         id="path129" />
      <path
         fill="#000000"
         d="m 525.19,915.81 q -1.07,-0.1 -4.32,-0.08 -0.06,0 -0.08,-0.06 -0.06,-0.13 -0.03,-0.25 0.02,-0.13 0.15,-0.14 89.52,-12.37 179.01,-24.85 c 1.14,-0.16 2.44,-0.76 3.94,-0.32 q 0.6,0.18 -0.02,0.28 -64.74,10.43 -128.33,26.37 -7.87,1.98 -19.94,1.42 -9.12,-0.41 -30.38,-2.37 z"
         id="path130" />
      <path
         fill="#000000"
         d="m 63.34,910.31 q 3.3,2.64 4.28,8.94 c -0.38,4.18 -4.92,4.3 -6.02,0.84 -1.01,-3.21 -4.21,-9.22 1.74,-9.78 z"
         id="path131" />
      <rect
         fill="#000000"
         x="-3.0599999"
         y="-15.65"
         transform="rotate(22.3,-2259.355,926.24086)"
         width="6.1199999"
         height="31.299999"
         rx="2.9400001"
         id="rect131" />
    </g>
    <path
       style="fill:#000000;fill-opacity:1;stroke:#000000;stroke-width:1.63989;stroke-dasharray:none;stroke-opacity:1"
       d="m -34.83077,17.196991 c 0,-0.01066 0.221957,-0.557612 0.493239,-1.215429 0.576438,-1.397781 0.701701,-1.722075 0.966589,-2.502414 0.626032,-1.844238 1.03667,-3.6976021 1.266774,-5.7174231 0.02771,-0.243264 0.04117,-0.457211 0.0299,-0.475443 -0.04955,-0.08018 -1.852382,0.160528 -3.037622,0.405579 -2.067743,0.427506 -3.902765,1.045012 -6.528417,2.196886 -0.189079,0.08295 -0.356511,0.1508181 -0.37207,0.1508181 -0.01556,0 -0.02829,-2.3886931 -0.02829,-5.3082041 0,-2.919512 0.01116,-5.30820196 0.0248,-5.30820096 0.01364,2e-6 0.374551,0.149515 0.802019,0.332252 1.608957,0.687811 2.57948,1.050831 3.753775,1.40408796 1.51292,0.455124 3.011663,0.773506 4.590133,0.975096 0.57043,0.07285 0.770687,0.08226 0.798341,0.03752 0.02156,-0.034888 -0.115764,-1.20381996 -0.211393,-1.79943196 -0.419408,-2.61223204 -1.197541,-5.14367274 -2.313186,-7.52530744 -0.14764,-0.3151757 -0.259944,-0.5867871 -0.249565,-0.6035808 0.01141,-0.018457 2.111029,-0.030534 5.308585,-0.030534 4.505131,0 5.289716,0.00685 5.289716,0.046176 0,0.025397 -0.105665,0.2895668 -0.23481,0.5870442 -1.331966,3.0681182 -2.146914,5.944966 -2.476344,8.741743 -0.03635,0.308566 -0.05402,0.573096 -0.03927,0.587843 0.01474,0.01475 0.23721,0.0036 0.494361,-0.02476 2.77485,-0.306071 5.551797,-1.076221 8.66026,-2.40180896 0.420896,-0.179489 0.774361,-0.326342 0.785482,-0.326342 0.01111,0 0.02021,2.38868996 0.02021,5.30820196 0,2.941401 -0.01267,5.3082051 -0.02845,5.3082051 -0.01564,0 -0.160756,-0.06116 -0.322461,-0.1359011 -2.14054,-0.989401 -4.833491,-1.864352 -7.057425,-2.292981 -1.014386,-0.195507 -2.482281,-0.391529 -2.535256,-0.338554 -0.0605,0.0605 0.151183,1.62168 0.368509,2.717827 0.437825,2.2082841 1.214901,4.5842901 2.249837,6.8791661 0.04922,0.109138 0.102383,0.231924 0.118137,0.272852 l 0.02865,0.07441 h -5.307382 c -2.919061,0 -5.307384,-0.0087 -5.307384,-0.01939 z m 9.470425,-0.700174 c 0.0085,-0.01378 -0.09531,-0.285385 -0.230707,-0.603581 -1.046368,-2.459025 -1.728036,-5.021168 -2.045128,-7.6869111 -0.08587,-0.721865 -0.167918,-1.698729 -0.144639,-1.722008 0.008,-0.008 0.289104,0.0075 0.62468,0.03446 3.04881,0.244888 5.98917,0.967761 8.759177,2.153404 0.316439,0.135445 0.595493,0.238532 0.620117,0.229084 0.03732,-0.01431 0.04477,-0.708501 0.04477,-4.169908 0,-3.638943 -0.0061,-4.15505496 -0.04903,-4.17154096 -0.02697,-0.01035 -0.239045,0.06368 -0.471289,0.164497 -2.445234,1.06152296 -5.10036,1.77809696 -7.79752,2.10441896 -0.600186,0.07261 -1.71132,0.16694 -1.732622,0.147084 -0.01939,-0.01807 0.05912,-0.982394 0.131713,-1.617896 0.305226,-2.672034 0.973773,-5.2131794 2.044288,-7.7703258 0.129037,-0.3082364 0.234616,-0.5798476 0.234616,-0.6035807 0,-0.06141 -8.321818,-0.064285 -8.342286,-0.00288 -0.0074,0.022148 0.06742,0.2267866 0.166226,0.4547527 1.246826,2.8766762 2.042236,6.14568284 2.243236,9.2193398 l 0.02212,0.338189 -0.227914,-0.01812 c -3.425788,-0.272361 -6.178927,-0.93869 -9.330695,-2.25825696 -0.222532,-0.093169 -0.41973,-0.169398 -0.438217,-0.169398 -0.04569,0 -0.04686,8.32228396 -0.0012,8.35051796 0.01784,0.01103 0.155507,-0.03427 0.305925,-0.100664 2.527404,-1.115536 5.436497,-1.893263 8.213867,-2.195922 0.720682,-0.07854 1.44443,-0.136266 1.463923,-0.116773 0.0079,0.0079 -0.0035,0.241674 -0.0254,0.519519 -0.250137,3.1795801 -1.023636,6.2423591 -2.3629,9.3562431 -0.02834,0.0659 -0.0422,0.129154 -0.0308,0.14056 0.02991,0.02991 8.337156,0.02564 8.355659,-0.0043 z"
       id="path92" />
    <path
       style="fill:#4d4d4d;fill-opacity:1;stroke:#4d4d4d;stroke-width:4.90900006;stroke-opacity:1;stroke-dasharray:none"
       d="M 29.905551,44.082 C 15.892851,30.060885 11.919292,25.632445 16.378964,29.006926 c 0.916967,0.693837 1.457408,0.751332 2.094253,0.222798 1.262642,-1.0479 1.058212,-2.151319 -0.809895,-4.371438 -1.648232,-1.958812 -1.651359,-1.982597 -0.260681,-1.982597 1.372253,0 1.356463,-0.09055 -0.62937,-3.609252 -1.120315,-1.985088 -1.928939,-3.717249 -1.796942,-3.849245 0.131996,-0.131997 1.295526,0.477259 2.585622,1.353902 2.725794,1.852225 3.264017,1.932424 4.332059,0.645512 0.632898,-0.762596 0.52212,-1.377109 -0.565484,-3.136891 -0.743915,-1.203679 -1.352572,-2.384926 -1.352572,-2.624993 0,-0.240066 1.798298,1.018587 3.996219,2.797007 3.535582,2.860773 4.11429,3.12664 5.020526,2.306507 0.91342,-0.826633 2.834646,0.88436 17.747147,15.805139 9.197562,9.202668 16.464371,16.732123 16.148465,16.732123 -0.315906,0 -3.049635,-1.349265 -6.074952,-2.998367 l -5.500576,-2.998366 1.635245,2.83727 c 4.223652,7.328342 6.457745,11.628973 6.183491,11.903227 -0.165072,0.165072 -2.528188,-1.327001 -5.251369,-3.315718 -4.057039,-2.962822 -5.121794,-3.4743 -5.89562,-2.832082 -1.317539,1.09346 -1.209537,1.619333 0.988775,4.814471 2.121656,3.083721 2.471575,4.148771 0.947496,2.883898 -0.728868,-0.604908 -1.37489,-0.640682 -2.479658,-0.137316 C 46.054283,60.084411 44.796772,58.982161 29.905551,44.082 Z"
       id="path1"
       transform="scale(0.26458333)" />
    <path
       style="fill:#333333;fill-opacity:1;stroke:#333333;stroke-width:0.68200013;stroke-dasharray:none;stroke-opacity:1"
       d="M 28.098493,46.785677 -0.02427691,18.661531 1.0349881,17.492608 2.0942532,16.323686 6.5973789,19.17767 c 2.4767189,1.569692 4.5587721,2.798338 4.6267841,2.730326 0.06801,-0.06801 -0.794286,-1.247036 -1.9162193,-2.620053 -1.1219326,-1.373017 -1.785703,-2.398859 -1.4750447,-2.279648 1.0901652,0.418335 4.483061,1.230362 4.610085,1.103338 0.07061,-0.07061 -0.96034,-2.08657 -2.290991,-4.47992 C 8.8213418,11.238362 7.7326272,9.1384768 7.7326272,8.9653004 c 0,-0.173176 0.3511005,-0.6447075 0.7802233,-1.0478477 L 9.2930739,7.1844709 12.459712,9.4160146 c 1.741652,1.2273494 3.371907,2.3527564 3.622791,2.5009044 0.42704,0.25217 -0.129798,-0.838332 -2.762369,-5.4097766 -0.592244,-1.0284288 -1.076808,-1.9818163 -1.076808,-2.1186387 0,-0.3098183 1.405316,-1.6498649 1.730225,-1.6498649 0.131354,0 1.608124,1.0901097 3.28171,2.4224665 1.673587,1.3323564 3.042885,2.3387041 3.042885,2.2363283 0,-0.1023758 -0.86992,-1.3289129 -1.933156,-2.725638 -1.063237,-1.3967251 -1.933157,-2.6033447 -1.933157,-2.681377 0,-0.078032 0.523654,-0.541287 1.163675,-1.02945496 L 18.759183,0.0733855 46.753954,28.066772 c 15.397127,15.396363 27.994775,28.124999 27.994775,28.28586 0,0.160861 -0.361097,0.765901 -0.80244,1.344527 l -0.802438,1.052053 -6.68754,-3.653883 c -3.678146,-2.009639 -6.73332,-3.608105 -6.789272,-3.552153 -0.05596,0.05595 0.749997,1.602932 1.791002,3.437727 1.681099,2.962984 5.806952,12.69919 5.508099,12.998043 -0.06359,0.06359 -2.216912,-1.433687 -4.785169,-3.327275 -7.672084,-5.656662 -8.196404,-6.023372 -7.898882,-5.524521 0.156966,0.263183 1.418985,2.17784 2.804485,4.254788 1.385503,2.076948 2.519094,3.898404 2.519094,4.047679 0,0.149275 -0.428481,0.681921 -0.952183,1.183656 -0.908732,0.870623 -0.98592,0.888176 -1.691512,0.384698 -2.425181,-1.730501 -2.399476,-1.733191 -1.074175,0.112384 0.699877,0.974634 1.616396,2.235338 2.0367,2.80157 l 0.764196,1.029506 -1.071929,0.974752 c -0.589561,0.536116 -1.144732,0.979002 -1.233715,0.984199 -0.08898,0.0052 -12.817032,-12.646422 -28.284557,-28.114705 z m 24.214386,15.213052 c 1.001494,-0.787778 1.15903,-2.630881 0.35737,-4.181122 -0.270359,-0.522819 -0.420336,-0.950578 -0.33328,-0.950578 0.08706,0 1.381643,0.797427 2.876863,1.77206 3.05489,1.991277 4.337952,2.237691 5.579293,1.071514 1.168333,-1.097592 0.964488,-2.428055 -0.942549,-6.151904 -0.928537,-1.813144 -1.737872,-3.404837 -1.798522,-3.537101 -0.06065,-0.13226 0.807805,0.193844 1.929893,0.724683 2.543587,1.203313 3.598868,1.229082 4.633094,0.113135 1.028939,-1.110245 0.997338,-1.986632 -0.127634,-3.539607 C 63.259115,45.624198 41.483228,23.581925 36.423625,18.912717 32.267535,15.077305 30.282004,13.842413 28.84942,14.201969 28.173416,14.371635 27.469459,13.982044 24.796509,11.958967 23.017364,10.612385 21.184546,9.4159756 20.72358,9.3002807 19.521808,8.9986551 18.273281,9.5391284 17.776251,10.576145 c -0.419366,0.874979 -0.37312,1.215388 0.437281,3.218764 0.216843,0.536054 0.145462,0.529415 -0.853076,-0.07934 -2.245834,-1.369173 -4.794937,-0.432153 -4.794937,1.762563 0,0.565523 0.51673,2.061105 1.148288,3.323516 1.075862,2.150522 1.116506,2.340668 0.644386,3.014714 -0.627315,0.895617 -0.63126,1.451907 -0.01863,2.626575 0.602064,1.154407 0.601048,1.16897 -0.08253,1.182811 -1.202581,0.02435 -1.882155,0.755656 -1.970735,2.120751 -0.07676,1.182869 0.09786,1.5496 1.61079,3.383025 2.585331,3.132997 27.241783,27.71036 29.41264,29.318295 1.698156,1.257809 2.109126,1.417326 3.737482,1.450718 1.00624,0.02064 2.104982,0.19746 2.441651,0.392944 0.934604,0.542675 1.887534,0.443891 2.82402,-0.292748 z"
       id="path2"
       transform="scale(0.26458333)" />
  </g>
</svg>
