<?xml version="1.0" encoding="UTF-8" standalone="no"?>
<!DOCTYPE svg PUBLIC "-//W3C//DTD SVG 1.1//EN" "http://www.w3.org/Graphics/SVG/1.1/DTD/svg11.dtd">
<svg xmlns="http://www.w3.org/2000/svg" version="1.1" viewBox="0.00 0.00 350.00 350.00">
<g stroke-width="2.00" fill="none" stroke-linecap="butt">
<path stroke="#989898" vector-effect="non-scaling-stroke" d="
  M 228.8734 109.4301
  A 0.43 0.43 0.0 0 0 228.2720 109.3402
  L 224.9601 111.7909
  A 0.43 0.43 0.0 0 0 224.8702 112.3923
  L 229.4266 118.5499
  A 0.43 0.43 0.0 0 0 230.0280 118.6398
  L 233.3399 116.1891
  A 0.43 0.43 0.0 0 0 233.4298 115.5877
  L 228.8734 109.4301"
/>
<path stroke="#989898" vector-effect="non-scaling-stroke" d="
  M 166.37 155.04
  L 171.49 161.95
  A 0.29 0.29 0.0 0 0 171.89 162.01
  L 218.79 127.31
  A 7.25 0.56 -36.5 0 0 224.29 122.55
  L 219.49 116.07
  A 7.25 0.56 -36.5 0 0 213.33 119.93
  L 166.43 154.63
  A 0.29 0.29 0.0 0 0 166.37 155.04"
/>
<path stroke="#989898" vector-effect="non-scaling-stroke" d="
  M 118.56 197.69
  L 124.96 202.97
  Q 125.39 203.33 125.79 202.92
  Q 144.40 183.78 165.43 167.33
  Q 165.89 166.97 165.55 166.50
  L 159.94 158.85
  Q 159.63 158.42 159.20 158.74
  Q 141.03 171.93 122.70 184.91
  C 119.24 187.37 118.68 193.53 118.28 196.89
  Q 118.22 197.41 118.56 197.69"
/>
<path stroke="#989898" vector-effect="non-scaling-stroke" d="
  M 94.51 232.24
  C 89.45 239.14 84.00 240.53 75.88 239.75
  Q 75.36 239.70 74.96 240.04
  Q 48.50 262.61 23.09 286.35
  A 0.44 0.43 39.3 0 0 23.16 287.04
  C 33.46 293.28 40.67 302.00 46.89 312.22
  Q 47.52 313.26 48.24 312.27
  Q 85.22 261.56 120.57 209.70
  Q 120.90 209.22 120.45 208.85
  L 115.13 204.59
  Q 114.71 204.26 114.41 204.70
  Q 107.78 214.16 94.51 232.24"
/>
<path stroke="#989898" vector-effect="non-scaling-stroke" d="
  M 154.5748 170.6783
  A 2.02 2.02 0.0 0 0 151.7525 170.2363
  L 142.0890 177.2831
  A 2.02 2.02 0.0 0 0 141.6470 180.1054
  L 141.9652 180.5417
  A 2.02 2.02 0.0 0 0 144.7875 180.9837
  L 154.4510 173.9369
  A 2.02 2.02 0.0 0 0 154.8930 171.1146
  L 154.5748 170.6783"
/>
<path stroke="#989898" vector-effect="non-scaling-stroke" d="
  M 131.69 187.70
  A 2.17 2.17 0.0 0 0 129.52 185.53
  A 2.17 2.17 0.0 0 0 127.35 187.70
  A 2.17 2.17 0.0 0 0 129.52 189.87
  A 2.17 2.17 0.0 0 0 131.69 187.70"
/>
<path stroke="#989898" vector-effect="non-scaling-stroke" d="
  M 133.82 191.76
  A 1.47 1.47 0.0 0 0 132.35 190.29
  A 1.47 1.47 0.0 0 0 130.88 191.76
  A 1.47 1.47 0.0 0 0 132.35 193.23
  A 1.47 1.47 0.0 0 0 133.82 191.76"
/>
<path stroke="#989898" vector-effect="non-scaling-stroke" d="
  M 127.10 198.13
  A 1.51 1.51 0.0 0 0 125.59 196.62
  A 1.51 1.51 0.0 0 0 124.08 198.13
  A 1.51 1.51 0.0 0 0 125.59 199.64
  A 1.51 1.51 0.0 0 0 127.10 198.13"
/>
</g>
<path fill="#313131" d="
  M 138.66 221.13
  C 137.67 223.41 137.68 225.64 136.31 227.68
  Q 131.14 235.35 125.96 243.00
  C 122.23 248.49 115.35 244.46 113.69 239.75
  C 112.76 237.10 114.16 235.36 115.96 232.58
  Q 121.15 224.54 126.43 216.58
  A 0.69 0.68 -55.3 0 0 126.27 215.65
  Q 125.63 215.19 125.04 216.05
  C 100.92 251.42 76.58 287.30 50.47 321.23
  A 4.06 4.06 0.0 0 1 43.79 320.88
  C 36.55 309.06 29.64 299.09 17.29 292.04
  C 13.29 289.76 12.49 286.29 16.00 282.99
  Q 41.29 259.24 67.67 236.67
  C 69.91 234.75 71.96 232.68 75.11 232.62
  C 81.65 232.49 84.30 233.63 88.73 227.75
  Q 99.88 212.96 110.34 197.66
  Q 110.60 197.28 110.66 196.82
  L 111.65 189.69
  A 1.08 1.08 0.0 0 0 110.61 188.46
  L 104.88 188.30
  Q 104.43 188.28 104.62 187.87
  C 105.47 186.03 110.05 185.62 112.80 185.14
  A 1.15 1.14 10.4 0 0 113.59 184.60
  C 114.59 182.92 115.58 181.35 117.20 180.16
  Q 134.03 167.85 150.98 155.69
  Q 151.60 155.25 151.15 154.62
  L 149.92 152.91
  A 0.54 0.54 0.0 0 1 150.04 152.16
  L 158.71 145.85
  Q 159.23 145.47 159.58 146.02
  L 160.52 147.50
  A 0.42 0.42 0.0 0 0 161.13 147.61
  L 164.09 145.30
  Q 164.49 144.99 164.29 144.52
  C 163.68 143.13 164.00 141.96 165.28 141.11
  Q 170.80 137.41 175.68 132.88
  Q 176.05 132.53 176.55 132.50
  Q 176.78 132.49 177.00 132.48
  Q 177.24 132.47 177.45 132.36
  Q 182.98 129.53 188.48 126.63
  C 197.43 121.90 204.47 114.98 213.04 110.03
  Q 214.35 109.27 213.83 107.64
  A 0.68 0.68 0.0 0 1 214.08 106.88
  L 217.74 104.26
  A 0.61 0.60 42.4 0 1 218.40 104.23
  L 219.26 104.74
  Q 219.75 105.04 220.22 104.70
  L 303.90 43.90
  Q 304.29 43.62 304.08 43.19
  L 303.64 42.26
  A 0.77 0.76 -31.4 0 1 303.87 41.31
  L 307.41 38.65
  Q 307.88 38.30 308.36 38.63
  L 309.48 39.40
  A 0.64 0.63 -46.7 0 0 310.23 39.37
  L 313.14 37.06
  A 0.62 0.62 0.0 0 0 313.23 36.17
  L 312.15 34.91
  Q 311.74 34.43 312.25 34.06
  L 318.17 29.75
  Q 318.51 29.50 318.93 29.55
  L 322.53 29.95
  A 1.40 1.37 29.6 0 0 323.47 29.70
  L 326.44 27.51
  A 0.61 0.61 0.0 0 1 327.29 27.64
  L 331.66 33.65
  Q 331.96 34.07 331.54 34.37
  L 328.79 36.35
  Q 328.36 36.65 328.52 37.15
  L 328.72 37.79
  Q 328.98 38.62 329.73 38.18
  L 330.37 37.80
  Q 330.94 37.46 331.34 37.99
  L 335.76 44.05
  A 0.80 0.79 -36.1 0 1 335.58 45.16
  L 321.67 55.23
  Q 321.21 55.57 321.53 56.05
  L 322.62 57.70
  Q 322.93 58.16 322.61 58.61
  Q 320.99 60.89 318.32 61.75
  Q 317.74 61.94 317.38 61.45
  L 316.20 59.82
  Q 315.91 59.42 315.50 59.71
  L 243.11 112.32
  A 0.54 0.54 0.0 0 1 242.36 112.20
  L 237.70 105.81
  Q 237.31 105.27 237.85 104.88
  L 309.94 52.48
  A 0.88 0.87 -34.7 0 0 310.16 51.30
  Q 309.84 50.82 309.23 50.79
  Q 308.87 50.76 308.47 51.06
  Q 271.67 77.84 234.93 104.49
  A 0.49 0.48 54.0 0 0 234.83 105.16
  L 243.36 116.89
  A 0.72 0.71 53.5 0 1 243.22 117.88
  Q 238.76 121.31 234.55 124.30
  Q 233.91 124.75 234.42 125.56
  A 0.74 0.72 -46.5 0 1 234.43 126.34
  Q 232.40 129.75 228.75 129.22
  Q 228.15 129.14 227.66 129.50
  C 200.20 150.19 171.81 170.13 146.21 193.10
  A 1.09 1.09 0.0 0 0 146.14 194.65
  C 155.47 204.76 149.87 214.79 139.30 220.43
  A 1.44 1.38 88.7 0 0 138.66 221.13
  Z
  M 326.0238 39.2778
  A 0.74 0.74 0.0 0 0 324.9913 39.1069
  L 315.1528 46.1506
  A 0.74 0.74 0.0 0 0 314.9819 47.1831
  L 315.2962 47.6222
  A 0.74 0.74 0.0 0 0 316.3287 47.7931
  L 326.1672 40.7494
  A 0.74 0.74 0.0 0 0 326.3381 39.7169
  L 326.0238 39.2778
  Z
  M 228.8734 109.4301
  A 0.43 0.43 0.0 0 0 228.2720 109.3402
  L 224.9601 111.7909
  A 0.43 0.43 0.0 0 0 224.8702 112.3923
  L 229.4266 118.5499
  A 0.43 0.43 0.0 0 0 230.0280 118.6398
  L 233.3399 116.1891
  A 0.43 0.43 0.0 0 0 233.4298 115.5877
  L 228.8734 109.4301
  Z
  M 166.37 155.04
  L 171.49 161.95
  A 0.29 0.29 0.0 0 0 171.89 162.01
  L 218.79 127.31
  A 7.25 0.56 -36.5 0 0 224.29 122.55
  L 219.49 116.07
  A 7.25 0.56 -36.5 0 0 213.33 119.93
  L 166.43 154.63
  A 0.29 0.29 0.0 0 0 166.37 155.04
  Z
  M 118.56 197.69
  L 124.96 202.97
  Q 125.39 203.33 125.79 202.92
  Q 144.40 183.78 165.43 167.33
  Q 165.89 166.97 165.55 166.50
  L 159.94 158.85
  Q 159.63 158.42 159.20 158.74
  Q 141.03 171.93 122.70 184.91
  C 119.24 187.37 118.68 193.53 118.28 196.89
  Q 118.22 197.41 118.56 197.69
  Z
  M 142.45 209.82
  A 0.62 0.62 0.0 0 1 142.52 211.05
  Q 136.45 212.20 132.86 207.39
  A 0.58 0.58 0.0 0 0 132.01 207.31
  C 130.25 208.95 129.01 210.94 127.38 212.67
  Q 126.90 213.18 127.05 213.85
  A 0.45 0.44 -28.6 0 0 127.80 214.07
  L 129.20 212.68
  A 0.53 0.53 0.0 0 1 130.03 212.78
  C 135.95 222.87 154.77 207.87 141.10 198.50
  Q 140.67 198.21 140.30 198.58
  L 135.68 203.19
  A 1.53 1.52 -35.0 0 0 135.37 204.89
  Q 137.46 209.47 142.45 209.82
  Z
  M 94.51 232.24
  C 89.45 239.14 84.00 240.53 75.88 239.75
  Q 75.36 239.70 74.96 240.04
  Q 48.50 262.61 23.09 286.35
  A 0.44 0.43 39.3 0 0 23.16 287.04
  C 33.46 293.28 40.67 302.00 46.89 312.22
  Q 47.52 313.26 48.24 312.27
  Q 85.22 261.56 120.57 209.70
  Q 120.90 209.22 120.45 208.85
  L 115.13 204.59
  Q 114.71 204.26 114.41 204.70
  Q 107.78 214.16 94.51 232.24
  Z
  M 134.0834 224.2389
  A 3.31 3.31 0.0 0 0 133.2062 219.6408
  L 133.0904 219.5621
  A 3.31 3.31 0.0 0 0 128.4923 220.4392
  L 117.5766 236.5011
  A 3.31 3.31 0.0 0 0 118.4538 241.0992
  L 118.5696 241.1779
  A 3.31 3.31 0.0 0 0 123.1677 240.3008
  L 134.0834 224.2389
  Z"
/>
<rect fill="#ffffff" x="-2.49" y="-4.26" transform="translate(229.15,113.99) rotate(-36.5)" width="4.98" height="8.52" rx="0.43"/>
<path fill="#ffffff" d="
  M 166.37 155.04
  A 0.29 0.29 0.0 0 1 166.43 154.63
  L 213.33 119.93
  A 7.25 0.56 -36.5 0 1 219.49 116.07
  L 224.29 122.55
  A 7.25 0.56 -36.5 0 1 218.79 127.31
  L 171.89 162.01
  A 0.29 0.29 0.0 0 1 171.49 161.95
  L 166.37 155.04
  Z"
/>
<path fill="#ffffff" d="
  M 124.96 202.97
  L 118.56 197.69
  Q 118.22 197.41 118.28 196.89
  C 118.68 193.53 119.24 187.37 122.70 184.91
  Q 141.03 171.93 159.20 158.74
  Q 159.63 158.42 159.94 158.85
  L 165.55 166.50
  Q 165.89 166.97 165.43 167.33
  Q 144.40 183.78 125.79 202.92
  Q 125.39 203.33 124.96 202.97
  Z
  M 154.5748 170.6783
  A 2.02 2.02 0.0 0 0 151.7525 170.2363
  L 142.0890 177.2831
  A 2.02 2.02 0.0 0 0 141.6470 180.1054
  L 141.9652 180.5417
  A 2.02 2.02 0.0 0 0 144.7875 180.9837
  L 154.4510 173.9369
  A 2.02 2.02 0.0 0 0 154.8930 171.1146
  L 154.5748 170.6783
  Z
  M 131.69 187.70
  A 2.17 2.17 0.0 0 0 129.52 185.53
  A 2.17 2.17 0.0 0 0 127.35 187.70
  A 2.17 2.17 0.0 0 0 129.52 189.87
  A 2.17 2.17 0.0 0 0 131.69 187.70
  Z
  M 133.82 191.76
  A 1.47 1.47 0.0 0 0 132.35 190.29
  A 1.47 1.47 0.0 0 0 130.88 191.76
  A 1.47 1.47 0.0 0 0 132.35 193.23
  A 1.47 1.47 0.0 0 0 133.82 191.76
  Z
  M 127.10 198.13
  A 1.51 1.51 0.0 0 0 125.59 196.62
  A 1.51 1.51 0.0 0 0 124.08 198.13
  A 1.51 1.51 0.0 0 0 125.59 199.64
  A 1.51 1.51 0.0 0 0 127.10 198.13
  Z"
/>
<rect fill="#313131" x="-8.00" y="-2.29" transform="translate(148.27,175.61) rotate(-36.1)" width="16.00" height="4.58" rx="2.02"/>
<circle fill="#313131" cx="129.52" cy="187.70" r="2.17"/>
<circle fill="#313131" cx="132.35" cy="191.76" r="1.47"/>
<circle fill="#313131" cx="125.59" cy="198.13" r="1.51"/>
<path fill="#ffffff" d="
  M 75.88 239.75
  C 84.00 240.53 89.45 239.14 94.51 232.24
  Q 107.78 214.16 114.41 204.70
  Q 114.71 204.26 115.13 204.59
  L 120.45 208.85
  Q 120.90 209.22 120.57 209.70
  Q 85.22 261.56 48.24 312.27
  Q 47.52 313.26 46.89 312.22
  C 40.67 302.00 33.46 293.28 23.16 287.04
  A 0.44 0.43 39.3 0 1 23.09 286.35
  Q 48.50 262.61 74.96 240.04
  Q 75.36 239.70 75.88 239.75
  Z"
/>
</svg>
