<?xml version="1.0" encoding="UTF-8" standalone="no"?>
<svg
   version="1.1"
   viewBox="0 0 200 25"
   fill="none"
   stroke="none"
   stroke-linecap="square"
   stroke-miterlimit="10"
   id="svg237"
   width="200"
   height="25"
   sodipodi:docname="saf_200_world.svg"
   inkscape:version="1.3 (0e150ed6c4, 2023-07-21)"
   xmlns:inkscape="http://www.inkscape.org/namespaces/inkscape"
   xmlns:sodipodi="http://sodipodi.sourceforge.net/DTD/sodipodi-0.dtd"
   xmlns="http://www.w3.org/2000/svg"
   xmlns:svg="http://www.w3.org/2000/svg">
  <defs
     id="defs1" />
  <sodipodi:namedview
     id="namedview1"
     pagecolor="#ffffff"
     bordercolor="#000000"
     borderopacity="0.25"
     inkscape:showpageshadow="2"
     inkscape:pageopacity="0.0"
     inkscape:pagecheckerboard="0"
     inkscape:deskcolor="#d1d1d1"
     inkscape:zoom="79.365665"
     inkscape:cx="181.94896"
     inkscape:cy="11.157218"
     inkscape:window-width="1920"
     inkscape:window-height="1017"
     inkscape:window-x="-8"
     inkscape:window-y="-8"
     inkscape:window-maximized="1"
     inkscape:current-layer="svg237" />
  <path
     fill="#000000"
     fill-opacity="0"
     d="M 200,-1.6000001e-7 V 25 H -2.56e-6 V -1.6000001e-7 Z"
     fill-rule="evenodd"
     id="path5"
     style="stroke-width:0.260417"
     clip-path="url(#clipPath226)" />
  <path
     fill="#353940"
     d="m 91.4321,16.539698 h -2.468833 v 3.535105 h -2.468831 v 2.468832 H 91.4321 Z"
     fill-rule="evenodd"
     id="path7"
     style="stroke-width:0.260417"
     clip-path="url(#clipPath224)" />
  <path
     stroke="#000000"
     stroke-width="2.08333"
     stroke-linejoin="round"
     stroke-linecap="butt"
     d="m 91.4321,16.539698 h -2.468833 v 3.535105 h -2.468831 v 2.468832 H 91.4321 Z"
     fill-rule="evenodd"
     id="path9"
     clip-path="url(#clipPath222)"
     style="stroke:#151619;stroke-opacity:1" />
  <path
     fill="#434343"
     d="m 74.42142,19.961013 h -3.001969 l -3.001966,-3.00197 v -3.248031 h 6.003935 z"
     fill-rule="evenodd"
     id="path47"
     style="stroke-width:0.260417"
     clip-path="url(#clipPath184)" />
  <path
     stroke="#000000"
     stroke-width="2.08333"
     stroke-linejoin="round"
     stroke-linecap="butt"
     d="m 74.42142,19.961013 h -3.001969 l -3.001966,-3.00197 v -3.248031 h 6.003935 z"
     fill-rule="evenodd"
     id="path49"
     clip-path="url(#clipPath182)"
     style="stroke:#151619;stroke-opacity:1" />
  <path
     fill="#353940"
     d="M 91.4321,8.460302 H 88.963267 V 4.9251968 H 86.494436 V 2.4563647 H 91.4321 Z"
     fill-rule="evenodd"
     id="path51"
     style="stroke-width:0.260417"
     clip-path="url(#clipPath180)" />
  <path
     stroke="#000000"
     stroke-width="2.08333"
     stroke-linejoin="round"
     stroke-linecap="butt"
     d="M 91.4321,8.460302 H 88.963267 V 4.9251968 H 86.494436 V 2.4563647 H 91.4321 Z"
     fill-rule="evenodd"
     id="path53"
     clip-path="url(#clipPath178)"
     style="stroke:#151619;stroke-opacity:1" />
  <path
     fill="#454a54"
     d="m 116.37203,3.8769684 v 3.0019682 h -2.67389 V 3.8769684 Z"
     fill-rule="evenodd"
     id="path55"
     style="stroke-width:0.260417"
     clip-path="url(#clipPath176)" />
  <path
     stroke="#000000"
     stroke-width="2.08333"
     stroke-linejoin="round"
     stroke-linecap="butt"
     d="m 116.37203,3.8769684 v 3.0019682 h -2.67389 V 3.8769684 Z"
     fill-rule="evenodd"
     id="path57"
     clip-path="url(#clipPath174)"
     style="stroke:#151619;stroke-opacity:1" />
  <path
     fill="#000000"
     fill-opacity="0"
     d="m 129.10413,12.055556 v 12.5"
     fill-rule="evenodd"
     id="path59"
     style="stroke-width:0.260417"
     clip-path="url(#clipPath172)" />
  <path
     stroke="#000000"
     stroke-width="2.08333"
     stroke-linejoin="round"
     stroke-linecap="butt"
     d="m 129.10413,12.055556 v 12.5"
     fill-rule="evenodd"
     id="path61"
     clip-path="url(#clipPath170)"
     style="stroke:#151619;stroke-opacity:1" />
  <path
     fill="#454a54"
     d="M 135.21523,6.3769682 V 18.876968 H 73.543642 V 6.3769682 Z"
     fill-rule="evenodd"
     id="path63"
     style="stroke-width:0.260417"
     clip-path="url(#clipPath168)" />
  <path
     stroke="#000000"
     stroke-width="2.08333"
     stroke-linejoin="round"
     stroke-linecap="butt"
     d="M 135.21523,6.3769682 V 18.876968 H 73.543642 V 6.3769682 Z"
     fill-rule="evenodd"
     id="path65"
     clip-path="url(#clipPath166)"
     style="stroke:#151619;stroke-opacity:1" />
  <path
     fill="#666666"
     d="m 116.37203,13.128938 v 3.248031 H 106.0948 v -3.248031 z"
     fill-rule="evenodd"
     id="path67"
     style="stroke-width:0.260417"
     clip-path="url(#clipPath164)" />
  <path
     stroke="#000000"
     stroke-width="2.08333"
     stroke-linejoin="round"
     stroke-linecap="butt"
     d="m 116.37203,13.128938 v 3.248031 H 106.0948 v -3.248031 z"
     fill-rule="evenodd"
     id="path69"
     clip-path="url(#clipPath162)"
     style="stroke:#151619;stroke-opacity:1" />
  <path
     fill="#454a54"
     d="m 124.93712,15.628937 v 3.248031 h -10.27723 v -3.248031 z"
     fill-rule="evenodd"
     id="path71"
     style="stroke-width:0.260417"
     clip-path="url(#clipPath160)" />
  <path
     stroke="#000000"
     stroke-width="2.08333"
     stroke-linejoin="round"
     stroke-linecap="butt"
     d="m 124.93712,15.628937 v 3.248031 h -10.27723 v -3.248031 z"
     fill-rule="evenodd"
     id="path73"
     clip-path="url(#clipPath158)"
     style="stroke:#151619;stroke-opacity:1" />
  <path
     fill="#454a54"
     d="m 119.46757,14.710302 v 0 c 1.10529,0 2.00131,1.090645 2.00131,2.436023 v 0 c 0,1.345378 -0.89602,2.436024 -2.00131,2.436024 v 0 c -1.1053,0 -2.00131,-1.090646 -2.00131,-2.436024 v 0 c 0,-1.345378 0.89601,-2.436023 2.00131,-2.436023 z"
     fill-rule="evenodd"
     id="path75"
     style="stroke-width:0.260417"
     clip-path="url(#clipPath156)" />
  <path
     stroke="#000000"
     stroke-width="2.08333"
     stroke-linejoin="round"
     stroke-linecap="butt"
     d="m 119.46757,14.710302 v 0 c 1.10529,0 2.00131,1.090645 2.00131,2.436023 v 0 c 0,1.345378 -0.89602,2.436024 -2.00131,2.436024 v 0 c -1.1053,0 -2.00131,-1.090646 -2.00131,-2.436024 v 0 c 0,-1.345378 0.89601,-2.436023 2.00131,-2.436023 z"
     fill-rule="evenodd"
     id="path77"
     clip-path="url(#clipPath154)"
     style="stroke:#151619;stroke-opacity:1" />
  <path
     fill="#353940"
     d="m 135.21523,9.625 v 6.003937 H 73.543642 V 9.625 Z"
     fill-rule="evenodd"
     id="path83"
     style="stroke-width:0.260417"
     clip-path="url(#clipPath148)" />
  <path
     stroke="#000000"
     stroke-width="2.08333"
     stroke-linejoin="round"
     stroke-linecap="butt"
     d="m 135.21523,9.625 v 6.003937 H 73.543642 V 9.625 Z"
     fill-rule="evenodd"
     id="path85"
     clip-path="url(#clipPath146)"
     style="stroke:#151619;stroke-opacity:1" />
  <path
     fill="#3a3e47"
     d="m 94.102796,9.625 v 6.003937 H 83.825564 V 9.625 Z"
     fill-rule="evenodd"
     id="path87"
     style="stroke-width:0.260417"
     clip-path="url(#clipPath144)" />
  <path
     stroke="#000000"
     stroke-width="2.08333"
     stroke-linejoin="round"
     stroke-linecap="butt"
     d="m 94.102796,9.625 v 6.003937 H 83.825564 V 9.625 Z"
     fill-rule="evenodd"
     id="path89"
     clip-path="url(#clipPath142)"
     style="stroke:#151619;stroke-opacity:1" />
  <path
     fill="#454a54"
     d="M 70.407142,8.8786085 V 16.375328 H 6.7506434 V 8.8786085 Z"
     fill-rule="evenodd"
     id="path91"
     style="stroke-width:0.260417"
     clip-path="url(#clipPath140)" />
  <path
     stroke="#000000"
     stroke-width="2.08333"
     stroke-linejoin="round"
     stroke-linecap="butt"
     d="M 70.407142,8.8786085 V 16.375328 H 6.7506434 V 8.8786085 Z"
     fill-rule="evenodd"
     id="path93"
     clip-path="url(#clipPath138)"
     style="stroke:#151619;stroke-opacity:1" />
  <path
     fill="#353940"
     d="M 137.20307,9.0016406 V 16.49836 h -6.16798 V 9.0016406 Z"
     fill-rule="evenodd"
     id="path95"
     style="stroke-width:0.260417"
     clip-path="url(#clipPath136)" />
  <path
     stroke="#000000"
     stroke-width="2.08333"
     stroke-linejoin="round"
     stroke-linecap="butt"
     d="M 137.20307,9.0016406 V 16.49836 h -6.16798 V 9.0016406 Z"
     fill-rule="evenodd"
     id="path97"
     clip-path="url(#clipPath134)"
     style="stroke:#151619;stroke-opacity:1" />
  <path
     fill="#454a54"
     d="m 88.965446,10.190945 v 0 c 1.105292,0 2.00131,1.090645 2.00131,2.436024 v 0 c 0,1.345378 -0.896018,2.436023 -2.00131,2.436023 v 0 c -1.105299,0 -2.001317,-1.090645 -2.001317,-2.436023 v 0 c 0,-1.345379 0.896018,-2.436024 2.001317,-2.436024 z"
     fill-rule="evenodd"
     id="path99"
     style="stroke-width:0.260417"
     clip-path="url(#clipPath132)" />
  <path
     stroke="#000000"
     stroke-width="2.08333"
     stroke-linejoin="round"
     stroke-linecap="butt"
     d="m 88.965446,10.190945 v 0 c 1.105292,0 2.00131,1.090645 2.00131,2.436024 v 0 c 0,1.345378 -0.896018,2.436023 -2.00131,2.436023 v 0 c -1.105299,0 -2.001317,-1.090645 -2.001317,-2.436023 v 0 c 0,-1.345379 0.896018,-2.436024 2.001317,-2.436024 z"
     fill-rule="evenodd"
     id="path101"
     clip-path="url(#clipPath130)"
     style="stroke:#151619;stroke-opacity:1" />
  <path
     fill="#3a3e47"
     d="M 73.943686,8.8786085 V 16.375328 H 10.287188 V 8.8786085 Z"
     fill-rule="evenodd"
     id="path103"
     style="stroke-width:0.260417"
     clip-path="url(#clipPath128)" />
  <path
     stroke="#000000"
     stroke-width="2.08333"
     stroke-linejoin="round"
     stroke-linecap="butt"
     d="M 73.943686,8.8786085 V 16.375328 H 10.287188 V 8.8786085 Z"
     fill-rule="evenodd"
     id="path105"
     clip-path="url(#clipPath126)"
     style="stroke:#151619;stroke-opacity:1" />
  <path
     fill="#454a54"
     d="M 70.407142,9.0016406 V 16.49836 H 38.574787 V 9.0016406 Z"
     fill-rule="evenodd"
     id="path135"
     style="stroke-width:0.260417"
     clip-path="url(#clipPath96)" />
  <path
     stroke="#000000"
     stroke-width="2.08333"
     stroke-linejoin="round"
     stroke-linecap="butt"
     d="M 70.407142,9.0016406 V 16.49836 H 38.574787 V 9.0016406 Z"
     fill-rule="evenodd"
     id="path137"
     clip-path="url(#clipPath94)"
     style="stroke:#151619;stroke-opacity:1" />
  <path
     fill="#3a3e47"
     d="M 73.943686,9.0016406 V 16.49836 H 42.111331 V 9.0016406 Z"
     fill-rule="evenodd"
     id="path139"
     style="stroke-width:0.260417"
     clip-path="url(#clipPath92)" />
  <path
     stroke="#000000"
     stroke-width="2.08333"
     stroke-linejoin="round"
     stroke-linecap="butt"
     d="M 73.943686,9.0016406 V 16.49836 H 42.111331 V 9.0016406 Z"
     fill-rule="evenodd"
     id="path141"
     clip-path="url(#clipPath90)"
     style="stroke-width:2.083;stroke-dasharray:none;stroke:#151619;stroke-opacity:1" />
  <path
     fill="#434343"
     d="M 107.00026,15.628937 V 9.6249997 h 3.60893 v 6.0039373 z"
     fill-rule="evenodd"
     id="path143"
     style="stroke-width:0.260417"
     clip-path="url(#clipPath88)" />
  <path
     stroke="#000000"
     stroke-width="2.08333"
     stroke-linejoin="round"
     stroke-linecap="butt"
     d="M 107.00026,15.628937 V 9.6249997 h 3.60893 v 6.0039373 z"
     fill-rule="evenodd"
     id="path145"
     clip-path="url(#clipPath86)"
     style="stroke:#151619;stroke-opacity:1" />
  <path
     fill="#353940"
     d="M 114.52931,15.628937 V 9.6249997 h 3.60892 v 6.0039373 z"
     fill-rule="evenodd"
     id="path147"
     style="stroke-width:0.260417"
     clip-path="url(#clipPath84)" />
  <path
     stroke="#000000"
     stroke-width="2.08333"
     stroke-linejoin="round"
     stroke-linecap="butt"
     d="M 114.52931,15.628937 V 9.6249997 h 3.60892 v 6.0039373 z"
     fill-rule="evenodd"
     id="path149"
     clip-path="url(#clipPath82)"
     style="stroke:#151619;stroke-opacity:1" />
  <path
     fill="#353940"
     d="M 122.05836,15.628937 V 9.6249997 h 3.60892 v 6.0039373 z"
     fill-rule="evenodd"
     id="path151"
     style="stroke-width:0.260417"
     clip-path="url(#clipPath80)" />
  <path
     stroke="#000000"
     stroke-width="2.08333"
     stroke-linejoin="round"
     stroke-linecap="butt"
     d="M 122.05836,15.628937 V 9.6249997 h 3.60892 v 6.0039373 z"
     fill-rule="evenodd"
     id="path153"
     clip-path="url(#clipPath78)"
     style="stroke:#151619;stroke-opacity:1" />
  <path
     fill="#353940"
     d="M 99.471217,15.628937 V 9.6249997 h 3.608923 v 6.0039373 z"
     fill-rule="evenodd"
     id="path155"
     style="stroke-width:0.260417"
     clip-path="url(#clipPath76)" />
  <path
     stroke="#000000"
     stroke-width="2.08333"
     stroke-linejoin="round"
     stroke-linecap="butt"
     d="M 99.471217,15.628937 V 9.6249997 h 3.608923 v 6.0039373 z"
     fill-rule="evenodd"
     id="path157"
     clip-path="url(#clipPath74)"
     style="stroke:#151619;stroke-opacity:1" />
  <path
     fill="#3a3e47"
     d="m 118.43341,9.7916666 v 1.9520994 h -3.60892 V 9.7916666 Z"
     fill-rule="evenodd"
     id="path191"
     style="stroke-width:0.260417"
     clip-path="url(#clipPath40)" />
  <path
     stroke="#000000"
     stroke-width="1.04167"
     stroke-linejoin="round"
     stroke-linecap="butt"
     d="m 118.43341,9.7916666 v 1.9520994 h -3.60892 V 9.7916666 Z"
     fill-rule="evenodd"
     id="path193"
     clip-path="url(#clipPath38)"
     style="stroke:#151619;stroke-opacity:1" />
  <path
     fill="#353940"
     d="m 110.90437,9.7916666 v 1.9520994 h -3.60893 V 9.7916666 Z"
     fill-rule="evenodd"
     id="path195"
     style="stroke-width:0.260417"
     clip-path="url(#clipPath36)" />
  <path
     stroke="#000000"
     stroke-width="1.04167"
     stroke-linejoin="round"
     stroke-linecap="butt"
     d="m 110.90437,9.7916666 v 1.9520994 h -3.60893 V 9.7916666 Z"
     fill-rule="evenodd"
     id="path197"
     clip-path="url(#clipPath34)"
     style="stroke:#151619;stroke-opacity:1" />
  <path
     fill="#3a3e47"
     d="M 103.37532,9.7916666 V 11.743766 H 99.766395 V 9.7916666 Z"
     fill-rule="evenodd"
     id="path199"
     style="stroke-width:0.260417"
     clip-path="url(#clipPath32)" />
  <path
     stroke="#000000"
     stroke-width="1.04167"
     stroke-linejoin="round"
     stroke-linecap="butt"
     d="M 103.37532,9.7916666 V 11.743766 H 99.766395 V 9.7916666 Z"
     fill-rule="evenodd"
     id="path201"
     clip-path="url(#clipPath30)"
     style="stroke:#151619;stroke-opacity:1" />
  <path
     fill="#3a3e47"
     d="m 125.96246,9.7916666 v 1.9520994 h -3.60892 V 9.7916666 Z"
     fill-rule="evenodd"
     id="path203"
     style="stroke-width:0.260417"
     clip-path="url(#clipPath28)" />
  <path
     stroke="#000000"
     stroke-width="1.04167"
     stroke-linejoin="round"
     stroke-linecap="butt"
     d="m 125.96246,9.7916666 v 1.9520994 h -3.60892 V 9.7916666 Z"
     fill-rule="evenodd"
     id="path205"
     clip-path="url(#clipPath26)"
     style="stroke:#151619;stroke-opacity:1" />
  <path
     fill="#3a3e47"
     d="M 118.43341,13.843501 V 15.7956 h -3.60892 v -1.952099 z"
     fill-rule="evenodd"
     id="path207"
     style="stroke-width:0.260417"
     clip-path="url(#clipPath24)" />
  <path
     stroke="#000000"
     stroke-width="1.04167"
     stroke-linejoin="round"
     stroke-linecap="butt"
     d="M 118.43341,13.843501 V 15.7956 h -3.60892 v -1.952099 z"
     fill-rule="evenodd"
     id="path209"
     clip-path="url(#clipPath22)"
     style="stroke:#151619;stroke-opacity:1" />
  <path
     fill="#3a3e47"
     d="M 110.90437,13.843501 V 15.7956 h -3.60893 v -1.952099 z"
     fill-rule="evenodd"
     id="path211"
     style="stroke-width:0.260417"
     clip-path="url(#clipPath20)" />
  <path
     stroke="#000000"
     stroke-width="1.04167"
     stroke-linejoin="round"
     stroke-linecap="butt"
     d="M 110.90437,13.843501 V 15.7956 h -3.60893 v -1.952099 z"
     fill-rule="evenodd"
     id="path213"
     clip-path="url(#clipPath18)"
     style="stroke:#151619;stroke-opacity:1" />
  <path
     fill="#3a3e47"
     d="M 103.37532,13.843501 V 15.7956 h -3.608925 v -1.952099 z"
     fill-rule="evenodd"
     id="path215"
     style="stroke-width:0.260417"
     clip-path="url(#clipPath16)" />
  <path
     stroke="#000000"
     stroke-width="1.04167"
     stroke-linejoin="round"
     stroke-linecap="butt"
     d="M 103.37532,13.843501 V 15.7956 h -3.608925 v -1.952099 z"
     fill-rule="evenodd"
     id="path217"
     clip-path="url(#clipPath14)"
     style="stroke:#151619;stroke-opacity:1" />
  <path
     fill="#3a3e47"
     d="M 125.96246,13.843501 V 15.7956 h -3.60892 v -1.952099 z"
     fill-rule="evenodd"
     id="path219"
     style="stroke-width:0.260417"
     clip-path="url(#clipPath12)" />
  <path
     stroke="#000000"
     stroke-width="1.04167"
     stroke-linejoin="round"
     stroke-linecap="butt"
     d="M 125.96246,13.843501 V 15.7956 h -3.60892 v -1.952099 z"
     fill-rule="evenodd"
     id="path221"
     clip-path="url(#clipPath10)"
     style="stroke:#151619;stroke-opacity:1" />
  <path
     fill="#454a54"
     d="m 50.429139,10.752789 v 3.748359 h -6.25 v -3.748359 z"
     fill-rule="evenodd"
     id="path223"
     style="stroke-width:0.260417"
     clip-path="url(#clipPath8)" />
  <path
     stroke="#000000"
     stroke-width="2.08333"
     stroke-linejoin="round"
     stroke-linecap="butt"
     d="m 50.429139,10.752789 v 3.748359 h -6.25 v -3.748359 z"
     fill-rule="evenodd"
     id="path225"
     clip-path="url(#clipPath6)"
     style="stroke:#151619;stroke-opacity:1" />
  <path
     fill="#454a54"
     d="M 74.705363,5.960302 V 8.9622705 H 72.031475 V 5.960302 Z"
     fill-rule="evenodd"
     id="path227"
     style="stroke-width:0.260417"
     clip-path="url(#clipPath4)" />
  <path
     stroke="#000000"
     stroke-width="2.08333"
     stroke-linejoin="round"
     stroke-linecap="butt"
     d="M 74.705363,5.960302 V 8.9622705 H 72.031475 V 5.960302 Z"
     fill-rule="evenodd"
     id="path229"
     clip-path="url(#clipPath3)"
     style="stroke:#151619;stroke-opacity:1" />
  <path
     fill="#3a3e47"
     d="M 73.305899,8.8786085 V 16.375328 H 68.532282 V 8.8786085 Z"
     fill-rule="evenodd"
     id="path231"
     style="stroke-width:0.260417"
     clip-path="url(#clipPath2)" />
  <path
     stroke="#000000"
     stroke-width="2.08333"
     stroke-linejoin="round"
     stroke-linecap="butt"
     d="M 73.305899,8.8786085 V 16.375328 H 68.532282 V 8.8786085 Z"
     fill-rule="evenodd"
     id="path233"
     clip-path="url(#clipPath1)"
     style="stroke:#151619;stroke-opacity:1" />
  <rect
     style="fill:#464646;stroke:#171717;stroke-width:2.05882px;stroke-opacity:1"
     x="10.281582"
     y="-182.2791"
     width="4.9294119"
     height="41.576469"
     id="rect8"
     transform="rotate(90)" />
  <rect
     style="fill:#333333;stroke:#171717;stroke-width:2.05882px;stroke-opacity:1"
     x="9.2774639"
     y="-151.12497"
     width="6.9376469"
     height="12.652942"
     id="rect10"
     transform="rotate(90)" />
  <rect
     style="fill:#464646;stroke:#171717;stroke-width:2.05882px;stroke-opacity:1"
     x="9.3127575"
     width="6.8670588"
     height="15.035294"
     id="rect80"
     y="-194.50497"
     transform="rotate(90)" />
  <g
     id="g2"
     transform="matrix(0,1.1764706,-1.1764706,0,194.50497,1.2927585)">
    <rect
       style="fill:#171717;fill-opacity:1;stroke:#171717;stroke-opacity:1"
       x="7.375"
       y="1.098"
       width="1.0470001"
       height="5.6750002"
       id="rect82" />
    <rect
       style="fill:#171717;fill-opacity:1;stroke:#171717;stroke-opacity:1"
       x="11.049"
       y="1.146"
       width="1.0470001"
       height="5.6750002"
       id="rect84" />
  </g>
  <g
     id="g4"
     transform="matrix(0,1.1764706,-1.1764706,0,194.50497,1.2104055)">
    <g
       id="g3">
      <rect
         style="fill:#333333;stroke:#171717;stroke-width:1.75px;stroke-opacity:1"
         x="5.4689999"
         y="31.374001"
         width="4.3260002"
         height="3.5280001"
         id="rect86" />
      <rect
         style="fill:#333333;stroke:#171717;stroke-width:1.75px;stroke-opacity:1"
         x="9.816"
         y="31.379"
         width="4.3260002"
         height="3.5280001"
         id="rect88" />
    </g>
  </g>
  <path
     style="fill:#353940;fill-opacity:1;stroke:#474c57;stroke-width:0.0207056;stroke-opacity:0"
     d="m 139.52245,12.740556 v -2.423379 h 5.27441 5.27442 v 2.423379 2.423378 h -5.27442 -5.27441 z"
     id="path1" />
  <path
     style="fill:#353940;fill-opacity:1;stroke:#474c57;stroke-width:0.0292822;stroke-opacity:0"
     d="M 154.47486,10.180725 V 8.6939358 h 1.03319 1.03319 v 1.4867892 1.486789 h -1.03319 -1.03319 z"
     id="path2" />
  <path
     style="fill:#353940;fill-opacity:1;stroke:#474c57;stroke-width:0.0292822;stroke-opacity:0"
     d="m 154.47486,15.321487 v -1.486789 h 1.03319 1.03319 v 1.486789 1.486789 h -1.03319 -1.03319 z"
     id="path3" />
  <path
     style="fill:#353940;fill-opacity:1;stroke:#474c57;stroke-width:0.0292822;stroke-opacity:0"
     d="m 158.65803,12.725906 v -1.411189 h 9.87833 9.87832 v 1.411189 1.41119 h -9.87832 -9.87833 z"
     id="path4" />
  <path
     style="fill:#353940;fill-opacity:1;stroke:#474c57;stroke-width:0.00517641;stroke-opacity:0"
     d="m 152.15609,12.749465 v -1.429971 h 0.12474 0.12473 v 1.429971 1.429972 h -0.12473 -0.12474 z"
     id="path6" />
  <path
     style="fill:#353940;fill-opacity:1;stroke:#474c57;stroke-width:0.0292822;stroke-opacity:0"
     d="m 180.53147,12.751106 v -2.393982 h 2.69638 2.69638 v 0.730794 0.730795 h 3.75477 3.75477 v 0.932393 0.932393 h -3.77997 -3.77997 v 0.730795 0.730794 h -2.67118 -2.67118 z"
     id="path8" />
  <path
     style="fill:#171717;fill-opacity:1;stroke:#474c57;stroke-width:0.0292822;stroke-opacity:0"
     d="M 152.40848,17.539071 V 16.20348 h -0.1512 -0.1512 v 0.503997 0.503996 l -6.99295,3.58e-4 c -3.84612,1.97e-4 -7.14604,0.01482 -7.33315,0.03249 l -0.34019,0.03213 V 12.751106 8.2257631 l 0.34019,0.03213 c 0.18711,0.017671 3.48703,0.032291 7.33315,0.032488 l 6.99295,3.583e-4 V 8.7947357 9.298732 h 0.1764 0.17639 V 7.9631412 6.6275511 h 3.07438 3.07438 v 1.3355901 1.3355902 h 9.92873 9.92872 V 8.7947351 8.2907388 h 8.51754 8.51754 v 4.4351672 4.435167 h -8.51754 -8.51754 V 16.682277 16.20348 h -9.92872 -9.92873 v 1.335591 1.33559 h -3.09958 -3.09957 z m 4.18316,-2.217584 v -1.537189 h -1.08359 -1.08359 v 1.537189 1.537189 h 1.08359 1.08359 z m -6.45115,-2.570381 v -2.444382 h -5.34236 -5.34236 v 2.444382 2.444382 h 5.34236 5.34236 z m 35.78374,1.713587 v -0.730794 h 3.77997 3.77997 v -0.982793 -0.982793 h -3.75477 -3.75477 v -0.730794 -0.730795 h -2.74678 -2.74678 v 2.444382 2.444382 h 2.72158 2.72158 z m -33.50525,-1.486789 c 0.006,-0.665275 0.0114,-1.31732 0.0126,-1.448989 0.002,-0.232865 -0.002,-0.239398 -0.14909,-0.239398 h -0.1512 l -0.0134,1.448989 -0.0134,1.448989 h 0.15197 0.15198 z m 26.0461,-0.251998 v -1.461589 h -9.92872 -9.92873 v 1.461589 1.461589 h 9.92873 9.92872 z M 156.59164,10.180725 V 8.6435362 h -1.08359 -1.08359 v 1.5035888 c 0,0.826974 0.0151,1.518709 0.0336,1.537189 0.0185,0.01848 0.5061,0.0336 1.08359,0.0336 h 1.04999 z"
     id="path10" />
  <path
     style="fill:#171717;fill-opacity:1;stroke:#474c57;stroke-width:0.0292822;stroke-opacity:0"
     d="M 152.40848,17.539071 V 16.20348 h -0.1512 -0.1512 v 0.503997 0.503996 l -6.99295,3.58e-4 c -3.84612,1.97e-4 -7.14604,0.01482 -7.33315,0.03249 l -0.34019,0.03213 V 12.751106 8.2257631 l 0.34019,0.03213 c 0.18711,0.017671 3.48703,0.032291 7.33315,0.032488 l 6.99295,3.583e-4 V 8.7947357 9.298732 h 0.1764 0.17639 V 7.9631412 6.6275511 h 3.07438 3.07438 v 1.3355901 1.3355902 h 9.92873 9.92872 V 8.7947351 8.2907388 h 8.51754 8.51754 v 4.4351672 4.435167 h -8.51754 -8.51754 V 16.682277 16.20348 h -9.92872 -9.92873 v 1.335591 1.33559 h -3.09958 -3.09957 z m 4.18316,-2.217584 v -1.537189 h -1.08359 -1.08359 v 1.537189 1.537189 h 1.08359 1.08359 z m -6.45115,-2.570381 v -2.444382 h -5.34236 -5.34236 v 2.444382 2.444382 h 5.34236 5.34236 z m 35.78374,1.713587 v -0.730794 h 3.77997 3.77997 v -0.982793 -0.982793 h -3.75477 -3.75477 v -0.730794 -0.730795 h -2.74678 -2.74678 v 2.444382 2.444382 h 2.72158 2.72158 z m -33.50545,-1.511989 c 0.006,-0.679135 0.0113,-1.33118 0.0126,-1.448989 0.002,-0.204907 -0.004,-0.214198 -0.1489,-0.214198 h -0.1512 l -0.0134,1.448989 -0.0134,1.448989 h 0.15197 0.15198 z m 26.0463,-0.226798 v -1.461589 h -9.92872 -9.92873 v 1.461589 1.461589 h 9.92873 9.92872 z M 156.59164,10.180725 V 8.6435362 h -1.08622 -1.08622 l 0.009,1.3733898 c 0.005,0.755365 0.0203,1.447099 0.0344,1.537189 l 0.0257,0.163799 h 1.0518 1.05179 z"
     id="path11" />
</svg>
