<?xml version="1.0" encoding="UTF-8" standalone="no"?>
<svg
   version="1.1"
   width="228.69505"
   height="22.026863"
   style="clip-rule:evenodd;fill-rule:evenodd;image-rendering:optimizeQuality;shape-rendering:geometricPrecision;text-rendering:geometricPrecision"
   id="svg66"
   xml:space="preserve"
   sodipodi:docname="mosin_world - Copy.svg"
   inkscape:version="1.3 (0e150ed6c4, 2023-07-21)"
   xmlns:inkscape="http://www.inkscape.org/namespaces/inkscape"
   xmlns:sodipodi="http://sodipodi.sourceforge.net/DTD/sodipodi-0.dtd"
   xmlns="http://www.w3.org/2000/svg"
   xmlns:svg="http://www.w3.org/2000/svg"><sodipodi:namedview
     id="namedview1"
     pagecolor="#ffffff"
     bordercolor="#000000"
     borderopacity="0.25"
     inkscape:showpageshadow="2"
     inkscape:pageopacity="0.0"
     inkscape:pagecheckerboard="0"
     inkscape:deskcolor="#d1d1d1"
     inkscape:zoom="2.1689818"
     inkscape:cx="51.867655"
     inkscape:cy="-4.8409812"
     inkscape:window-width="1920"
     inkscape:window-height="1017"
     inkscape:window-x="-8"
     inkscape:window-y="-8"
     inkscape:window-maximized="1"
     inkscape:current-layer="svg66" /><defs
     id="defs70" /><g
     id="g4" /><g
     id="g20"
     transform="matrix(0,0.14231603,-0.14231603,0,241.72418,-108.87182)" /><g
     id="g16"
     transform="translate(0.23051561,-27.231008)"><rect
       style="fill:#3e3b38;fill-opacity:1;stroke:#080707;stroke-width:3.50001;stroke-linecap:round;stroke-linejoin:round;stroke-dasharray:none;stroke-opacity:1"
       id="rect16"
       width="17.237471"
       height="4.7168527"
       x="209.70758"
       y="35.215698" /><rect
       style="fill:#793a1d;fill-opacity:1;stroke:none;stroke-width:3.50001;stroke-linecap:round;stroke-linejoin:round;stroke-dasharray:none;stroke-opacity:1"
       id="rect15"
       width="86.121323"
       height="7.6537609"
       x="124.96656"
       y="33.747246" /><rect
       style="fill:#79391d;fill-opacity:1;stroke:#251109;stroke-width:3.5;stroke-linecap:round;stroke-linejoin:round;stroke-dasharray:none;stroke-opacity:1"
       id="rect2"
       width="19.924244"
       height="8.1312447"
       x="43.264477"
       y="33.508503" /><path
       id="rect1"
       style="fill:#79391d;stroke:#251109;stroke-width:3.5;stroke-linecap:round;stroke-linejoin:round"
       d="M 4.1136158,32.208382 H 43.264476 V 42.939869 H 4.1136158 A 2.3636085,2.3636085 0 0 1 1.7500073,40.576261 V 34.57199 a 2.3636085,2.3636085 0 0 1 2.3636085,-2.363608 z" /><rect
       style="fill:#716d69;fill-opacity:1;stroke:#181716;stroke-width:3.5;stroke-linecap:round;stroke-linejoin:round;stroke-dasharray:none;stroke-opacity:1"
       id="rect3"
       width="5.6704764"
       height="8.1312447"
       x="63.188713"
       y="33.508503" /><path
       style="fill:none;fill-opacity:1;stroke:#44403d;stroke-width:2.5;stroke-linecap:butt;stroke-linejoin:round;stroke-dasharray:none;stroke-opacity:1"
       d="m 195.81496,35.284437 v 4.579377"
       id="path15" /><path
       style="fill:none;fill-opacity:1;stroke:#44403d;stroke-width:2.5;stroke-linecap:butt;stroke-linejoin:round;stroke-dasharray:none;stroke-opacity:1"
       d="m 135.38703,35.284437 v 4.579377"
       id="path12" /><path
       style="fill:none;fill-opacity:1;stroke:#524e4b;stroke-width:2.5;stroke-linecap:butt;stroke-linejoin:round;stroke-dasharray:none;stroke-opacity:1"
       d="m 131.54827,35.284437 v 4.579377"
       id="path13" /><rect
       style="fill:#544e4e;fill-opacity:1;stroke:none;stroke-width:3.49999;stroke-linecap:round;stroke-linejoin:round;stroke-dasharray:none;stroke-opacity:1"
       id="rect11"
       width="60.653576"
       height="10.731603"
       x="68.184006"
       y="32.208324" /><rect
       style="fill:#716d69;fill-opacity:1;stroke:#181616;stroke-width:1.5;stroke-linecap:round;stroke-linejoin:round;stroke-dasharray:none;stroke-opacity:1"
       id="rect5"
       width="15.508925"
       height="5.7844334"
       x="78.380463"
       y="37.466892" /><path
       d="m 119.72492,36.265679 -6.89633,-1.319546 -0.14203,-2.62689 h -9.10255 v 10.509765 h 8.8799 l 0.23885,-2.404234 7.02219,-1.319545 z"
       style="fill:#4d4946;fill-opacity:1;stroke:#181616;stroke-width:1.49999;stroke-linecap:round;stroke-linejoin:round"
       id="path8" /><rect
       style="fill:none;fill-opacity:1;stroke:#181616;stroke-width:3.49999;stroke-linecap:round;stroke-linejoin:round;stroke-dasharray:none;stroke-opacity:1"
       id="rect4"
       width="60.653576"
       height="10.731603"
       x="68.184006"
       y="32.208324" /></g><rect
     style="fill:#3e3b38;fill-opacity:1;stroke:#080707;stroke-width:1.24153;stroke-opacity:1"
     id="rect6"
     width="70.013329"
     height="7.0936708"
     x="156.6049"
     y="6.8039374"
     rx="2.0142415"
     ry="0.8352043" /><g
     id="g865"
     transform="matrix(0,1.4723877,-1.4723877,0,272.34106,1.2769826)"
     style="clip-rule:evenodd;fill-rule:evenodd;image-rendering:optimizeQuality;shape-rendering:geometricPrecision;text-rendering:geometricPrecision"><path
       d="M 8.30202,93.15 H 3.87003 c -0.55229,0 -1,0.4477 -1,1 v 48.311 c 0,0.552 0.44771,1 1,1 h 4.43199 c 0.55229,0 1,-0.448 1,-1 V 94.15 c 0,-0.5523 -0.44771,-1 -1,-1 z"
       fill="#242424"
       stroke="#171717"
       stroke-width="1.75"
       id="path12-0" /><path
       d="m 2.91503,141.067 c 0.094,-0.035 0.331,-0.001 0.331,-0.001 l 5.666,-0.014 c 0,0 0.23801,-0.046 0.31101,-0.002 0.114,0.07 0.14599,0.28 0.14599,0.28 l 0.84297,4.428 0.085,5.861 c 0,0.246 -0.193,0.447 -0.43196,0.447 H 2.34403 c -0.239,0 -0.432,-0.201 -0.432,-0.447 l -0.06199,-5.84 0.94099,-4.469 c 0,0 0.073,-0.224 0.124,-0.243 z"
       fill="#242424"
       stroke="#171717"
       stroke-width="1.75"
       id="path14" /><path
       d="m 9.11201,105.46 c -0.113,0.07 -0.39801,0.002 -0.39801,0.002 l -5.60299,0.029 c 0,0 -0.286,0.091 -0.373,0.002 -0.137,-0.139 0.012,-0.586 0.012,-0.586 l -1.705,-18.173 -0.045,-8.512 c 0,-0.496 0.23199,-0.899 0.51899,-0.899 l 8.77,-0.062 c 0.287,0 0.519,0.403 0.519,0.899 l 0.016,8.35 -1.664,18.461 c 0,0 0.01301,0.451 -0.04799,0.489 z"
       fill="#242424"
       stroke="#171717"
       stroke-width="1.75"
       id="path16" /><path
       d="m 5.95804,120.989 c 2.30247,0 4.16896,-1.867 4.16896,-4.169 0,-2.302 -1.86649,-4.169 -4.16896,-4.169 -2.30248,0 -4.16901,1.867 -4.16901,4.169 0,2.302 1.86653,4.169 4.16901,4.169 z"
       fill="#242424"
       stroke="#000000"
       stroke-width="1.75"
       id="path18" /><path
       d="M 9.68102,104.401 H 2.47601 c -0.55228,0 -1,0.448 -1,1 v 3.211 c 0,0.552 0.44772,1 1,1 h 7.20501 c 0.55228,0 0.99998,-0.448 0.99998,-1 v -3.211 c 0,-0.552 -0.4477,-1 -0.99998,-1 z"
       fill="#464646"
       stroke="#171717"
       stroke-width="1.75"
       id="path20" /><path
       d="m 8.91702,125.488 h -5.656 c -0.55229,0 -1,0.448 -1,1 v 3.211 c 0,0.552 0.44771,1 1,1 h 5.656 c 0.55229,0 1,-0.448 1,-1 v -3.211 c 0,-0.552 -0.44771,-1 -1,-1 z"
       fill="#464646"
       stroke="#171717"
       stroke-width="1.75"
       id="path22" /><path
       d="m 5.95101,119.525 c 1.47184,0 2.665,-1.193 2.665,-2.665 0,-1.472 -1.19316,-2.665 -2.665,-2.665 -1.47184,0 -2.665,1.193 -2.665,2.665 0,1.472 1.19316,2.665 2.665,2.665 z"
       fill="#5c5c5c"
       stroke="#171717"
       stroke-width="0.875"
       id="path24" /></g></svg>
