<?xml version="1.0" encoding="UTF-8" standalone="no"?>
<!-- Created with Inkscape (http://www.inkscape.org/) -->

<svg
   width="72"
   height="49.846001"
   viewBox="0 0 19.05 13.188422"
   version="1.1"
   id="svg5"
   inkscape:version="1.3 (0e150ed6c4, 2023-07-21)"
   sodipodi:docname="12g.svg"
   inkscape:export-filename="..\..\..\..\..\..\suroi\client\public\img\buildings\e.svg"
   inkscape:export-xdpi="1500.0001"
   inkscape:export-ydpi="1500.0001"
   xml:space="preserve"
   xmlns:inkscape="http://www.inkscape.org/namespaces/inkscape"
   xmlns:sodipodi="http://sodipodi.sourceforge.net/DTD/sodipodi-0.dtd"
   xmlns="http://www.w3.org/2000/svg"
   xmlns:svg="http://www.w3.org/2000/svg"><sodipodi:namedview
     id="namedview7"
     pagecolor="#505050"
     bordercolor="#ffffff"
     borderopacity="1"
     inkscape:pageshadow="0"
     inkscape:pageopacity="0"
     inkscape:pagecheckerboard="1"
     inkscape:document-units="px"
     showgrid="false"
     units="px"
     inkscape:zoom="9.2144845"
     inkscape:cx="-2.4418078"
     inkscape:cy="25.449063"
     inkscape:window-width="1920"
     inkscape:window-height="1017"
     inkscape:window-x="-8"
     inkscape:window-y="-8"
     inkscape:window-maximized="1"
     inkscape:current-layer="layer1"
     inkscape:showpageshadow="2"
     inkscape:deskcolor="#d1d1d1" /><defs
     id="defs2" /><g
     inkscape:label="Layer 1"
     inkscape:groupmode="layer"
     id="layer1"><rect
       style="fill:#cc2424;fill-opacity:1;stroke:#7a1616;stroke-width:0.711811;stroke-linecap:round;stroke-linejoin:round;stroke-miterlimit:10;stroke-opacity:1"
       id="rect846"
       width="18.338188"
       height="12.47665"
       x="0.35590601"
       y="0.35590601"
       ry="1.0990384"
       rx="1.0990384"
       inkscape:export-filename="/home/desktopgeek/Downloads/Ammo emojis/12g_ammo.png"
       inkscape:export-xdpi="945.23077"
       inkscape:export-ydpi="945.23077" /><rect
       style="font-size:7.96888px;line-height:1.25;font-family:Jura;-inkscape-font-specification:Jura;letter-spacing:0px;word-spacing:0px;fill:#5600b1;fill-opacity:1;stroke:#5600b1;stroke-width:0.0527106;stroke-opacity:1"
       id="rect11"
       width="14.821744"
       height="6.6596327"
       x="3.8577142"
       y="-9.5427666"
       rx="0.52794892"
       ry="0.37207031"
       transform="translate(-1.9491609,12.547723)" /><circle
       style="fill:none;fill-opacity:1;stroke:#7a1616;stroke-width:0.366346;stroke-linecap:round;stroke-linejoin:round;stroke-miterlimit:4;stroke-dasharray:none;stroke-opacity:1"
       id="path9697"
       cx="16.851923"
       cy="2.1980765"
       r="0.7326923" /><circle
       style="fill:none;fill-opacity:1;stroke:#7a1616;stroke-width:0.366346;stroke-linecap:round;stroke-linejoin:round;stroke-miterlimit:4;stroke-dasharray:none;stroke-opacity:1"
       id="path9697-6"
       cx="16.851923"
       cy="10.990384"
       r="0.7326923" /><circle
       style="fill:none;fill-opacity:1;stroke:#7a1616;stroke-width:0.366346;stroke-linecap:round;stroke-linejoin:round;stroke-miterlimit:4;stroke-dasharray:none;stroke-opacity:1"
       id="path9697-7"
       cx="2.1980765"
       cy="10.990384"
       r="0.7326923" /><circle
       style="fill:none;fill-opacity:1;stroke:#7a1616;stroke-width:0.366346;stroke-linecap:round;stroke-linejoin:round;stroke-miterlimit:4;stroke-dasharray:none;stroke-opacity:1"
       id="path9697-5"
       cx="2.1980765"
       cy="2.1980765"
       r="0.7326923" /><path
       style="fill:#1e0036;fill-opacity:1;stroke:#171717;stroke-width:0.153477;stroke-opacity:0"
       d="M 3.9513517,49.586338 C 2.477681,49.18989 1.0418727,47.861986 0.36918912,46.273385 0.08726823,45.607604 0.07525745,44.85384 0.0356007,25.33828 -0.01007039,2.862991 -0.05918113,4.024438 1.0048089,2.4169332 1.6315273,1.47007 2.4705738,0.82195923 3.6324487,0.3872461 4.4671317,0.07495114 4.5797687,0.07400697 36.268586,0.11367342 l 31.798566,0.0398038 0.962047,0.52168467 c 1.151025,0.62416081 1.922912,1.43845701 2.470445,2.60617961 l 0.404438,0.8625437 0.04112,20.4021028 c 0.04565,22.649971 0.104156,21.27255 -0.973345,22.915903 -0.598974,0.913527 -1.794985,1.784957 -2.910616,2.120713 -0.62819,0.189056 -5.231445,0.21927 -32.056853,0.210399 C 11.07499,49.784758 4.5321034,49.742572 3.9513517,49.586338 Z M 67.613069,46.905763 C 68.37,46.561936 68.999441,45.842639 69.211476,45.079171 69.434821,44.274987 69.430677,5.5902293 69.207162,4.7853005 68.989571,4.0017105 68.092767,3.0343091 67.398018,2.8337376 67.013388,2.7226965 57.125419,2.6864894 35.659323,2.7175189 L 4.479312,2.7625901 3.8895361,3.2392939 C 3.5651596,3.5014809 3.1616309,3.9504018 2.992806,4.2368959 2.6900806,4.7506174 2.6858515,5.033745 2.6858515,24.786573 c 0,11.015828 0.051778,20.213384 0.1150631,20.439012 0.1728048,0.616099 0.8698721,1.36359 1.5668371,1.680178 0.5952047,0.270364 1.8725183,0.281745 31.6226583,0.281745 29.75014,0 31.027455,-0.01138 31.622659,-0.281745 z"
       id="path1"
       transform="scale(0.26458334)" /><path
       style="fill:#5600b1;fill-opacity:1;stroke:#5600b1;stroke-width:0.108525;stroke-opacity:1"
       d="M 6.2944378,47.05009 C 4.853768,46.99464 4.5480552,46.9514 4.1647247,46.748868 3.6928633,46.49956 3.2628025,46.051218 2.9533598,45.486008 2.7796493,45.168719 2.7673821,43.832761 2.7673821,25.232014 c 0,-10.952865 0.039501,-20.1454797 0.08778,-20.4280335 C 2.9232813,4.4053067 3.062879,4.1590152 3.4784522,3.7043118 3.7729833,3.3820479 4.1817716,3.0387471 4.3868707,2.9414213 4.7293724,2.7788935 7.3110568,2.7667962 36.049705,2.7930548 l 31.289927,0.02859 0.463102,0.2652159 c 0.564233,0.3231347 1.175397,1.0831858 1.350989,1.680111 0.204495,0.6951781 0.19568,39.6429043 -0.0091,40.3476673 -0.170145,0.585466 -0.706096,1.261509 -1.28253,1.617765 -0.358455,0.221537 -0.588833,0.252607 -2.412808,0.32541 -2.367208,0.09449 -56.6835406,0.08739 -59.1548152,-0.0077 z m 3.5387328,-2.42263 c 0.7188674,-0.36712 1.4963914,-1.235524 1.7264924,-1.928292 0.657131,-1.978435 -0.43834,-3.993244 -2.451597,-4.509017 -0.7930265,-0.203163 -1.4241828,-0.140857 -2.2216939,0.21932 -1.2347789,0.55766 -1.9021387,1.532553 -1.9809399,2.893797 -0.062907,1.086679 0.1563388,1.756421 0.8146834,2.488659 0.8005355,0.890388 1.5422035,1.201707 2.744818,1.15215 0.6168306,-0.02542 0.9481672,-0.102091 1.368237,-0.316617 z m 55.0695124,0.147154 c 0.841199,-0.31963 1.450038,-0.881527 1.861791,-1.718245 0.311878,-0.633763 0.357328,-0.83304 0.352061,-1.54364 -0.0073,-0.981867 -0.252406,-1.602347 -0.918516,-2.324992 -1.315438,-1.427081 -3.563484,-1.47578 -4.919454,-0.106571 -0.229778,0.232022 -0.546528,0.666038 -0.703888,0.964482 -0.243581,0.461964 -0.286338,0.679745 -0.287633,1.465084 -0.0013,0.792943 0.04124,1.009534 0.303014,1.542619 0.771879,1.571855 2.690505,2.33762 4.312625,1.721263 z M 54.37092,35.42536 c 2.445963,-0.151809 6.380359,-0.50786 6.512187,-0.589334 0.06922,-0.04278 0.107825,-2.123696 0.107825,-5.81205 v -5.745409 h -4.720828 -4.720829 v 1.79066 1.790659 h 1.953447 1.953446 v 2.163846 2.163845 l -0.461231,0.06021 c -0.253676,0.03311 -1.755388,0.07273 -3.337137,0.08804 -3.178807,0.03077 -3.388828,-0.0029 -3.750555,-0.600781 -0.200925,-0.332116 -0.2106,-0.594883 -0.2106,-5.720084 0,-5.865566 -0.0113,-5.75415 0.631867,-6.230416 0.298165,-0.22079 0.445028,-0.228249 5.534765,-0.281071 l 5.228471,-0.05426 v -2.116233 -2.116233 l -6.077388,0.0058 c -5.396853,0.0052 -6.162455,0.02695 -6.837062,0.194525 -1.059447,0.263171 -1.797943,0.624326 -2.387088,1.167381 -0.649065,0.598287 -0.958904,1.138676 -1.26919,2.213593 -0.249053,0.862788 -0.250614,0.907758 -0.250614,7.216898 0,5.820397 0.0165,6.406859 0.198233,7.047602 0.589016,2.076668 1.805414,3.100609 4.142758,3.487298 0.643097,0.106393 5.223386,0.0329 7.759523,-0.124504 z M 21.461314,24.770783 21.433646,14.216748 19.110685,14.187409 16.787724,14.15807 14.01002,15.360163 c -1.527738,0.661151 -2.809243,1.235969 -2.847791,1.277373 -0.03855,0.0414 0.196209,0.685734 0.521681,1.431842 0.325472,0.746107 0.659591,1.514909 0.742487,1.708448 l 0.150721,0.351889 1.701086,-0.59607 c 0.935598,-0.327838 1.719621,-0.596069 1.742275,-0.596069 0.02265,0 0.04119,3.68713 0.04119,8.193622 v 8.193621 h 2.713657 2.713657 z m 18.692858,8.438887 v -2.11515 l -5.000487,-0.02821 -5.000487,-0.02821 2.260236,-1.621297 c 5.586394,-4.007196 6.556102,-4.839416 7.179261,-6.161364 0.420212,-0.891424 0.561477,-1.606936 0.561477,-2.843894 0,-3.259971 -1.003931,-5.020116 -3.318678,-5.818483 -0.984627,-0.339602 -2.979803,-0.442374 -7.913637,-0.407635 l -4.449517,0.03133 v 2.116233 2.116233 l 4.686688,0.05426 4.686686,0.05426 0.333271,0.319405 c 0.420559,0.403061 0.54758,0.861219 0.548342,1.977831 l 6.06e-4,0.886412 -5.399108,3.899701 -5.399109,3.899701 -0.0289,2.892015 -0.0289,2.892015 h 8.141133 8.141131 z M 9.8121497,11.404428 C 10.543488,11.046617 11.315101,10.213456 11.547903,9.5302198 11.642929,9.2513342 11.720639,8.6777925 11.720592,8.2556827 11.720441,6.9026189 10.927735,5.6893238 9.6719903,5.1201465 8.8862505,4.764003 7.6205513,4.7931324 6.8196388,5.1857918 5.6291019,5.7694703 4.9819766,6.7737503 4.9061125,8.1554116 c -0.043217,0.7870789 -0.01666,0.9540426 0.241663,1.5193471 0.6396393,1.3997623 1.8396201,2.1398503 3.3400883,2.0599983 0.5104347,-0.02716 0.9066372,-0.125992 1.3242859,-0.330329 z m 55.3924493,2.01e-4 C 65.938054,11.03296 66.490405,10.464158 66.83822,9.7223542 67.069126,9.229889 67.121152,8.963294 67.115377,8.3021464 67.106406,7.2753704 66.815142,6.5724788 66.112745,5.8825553 65.365602,5.1486789 64.714209,4.8852145 63.649789,4.8863803 62.86,4.8872455 62.717884,4.9222396 62.07618,5.273861 c -2.694668,1.4765422 -2.333588,5.394331 0.585632,6.354219 0.679403,0.223398 1.866904,0.119045 2.542787,-0.223451 z"
       id="path2"
       transform="scale(0.26458334)" /><path
       style="fill:#5600b1;fill-opacity:1;stroke:#5600b1;stroke-width:0.108525;stroke-opacity:1"
       d="M 7.4339481,43.402038 C 6.636904,42.987503 6.2944378,42.410219 6.2944378,41.481203 c 0,-2.092037 2.8546059,-2.772593 3.8208852,-0.910923 0.557388,1.073886 0.05566,2.475505 -1.0334368,2.886994 -0.4443406,0.167884 -1.2722955,0.140132 -1.6479381,-0.05524 z"
       id="path3"
       transform="scale(0.26458334)" /><path
       style="fill:#5600b1;fill-opacity:1;stroke:#5600b1;stroke-width:0.108525;stroke-opacity:1"
       d="M 7.4213497,10.156497 C 6.7335454,9.8441523 6.3662627,9.2846096 6.3143983,8.4700941 6.2606662,7.6262476 6.5373785,7.0209065 7.1674479,6.6039463 8.3676102,5.8097165 9.9272732,6.4247979 10.304034,7.8409161 10.630703,9.0687505 9.6048124,10.359351 8.3021464,10.359351 c -0.2387545,0 -0.635113,-0.09128 -0.8807967,-0.202854 z"
       id="path4"
       transform="scale(0.26458334)" /><path
       style="fill:#5600b1;fill-opacity:1;stroke:#5600b1;stroke-width:0.108525;stroke-opacity:1"
       d="M 62.74559,10.131253 C 62.028679,9.776391 61.696343,9.197036 61.696343,8.3021204 c 0,-0.5842389 0.04969,-0.7938082 0.261526,-1.1029598 0.935892,-1.3658454 2.925855,-1.2087315 3.604164,0.2845602 0.253432,0.5579299 0.252867,1.0823962 -0.0018,1.6323616 -0.524519,1.1329056 -1.711756,1.5611056 -2.814685,1.0151706 z"
       id="path5"
       transform="scale(0.26458334)" /><path
       style="fill:#5600b1;fill-opacity:1;stroke:#5600b1;stroke-width:0.108525;stroke-opacity:1"
       d="m 62.781591,43.392375 c -0.517248,-0.272686 -0.795084,-0.576987 -0.987988,-1.082099 -0.396981,-1.03948 0.02476,-2.09639 1.044405,-2.617334 1.845436,-0.942848 3.728514,1.308338 2.535012,3.030561 -0.52596,0.758961 -1.797834,1.087244 -2.591429,0.668872 z"
       id="path6"
       transform="scale(0.26458334)" /><path
       style="fill:#1e0036;fill-opacity:1;stroke:#5600b1;stroke-width:0.108525;stroke-opacity:1"
       d="M 7.2789014,44.755567 C 6.4083087,44.489144 5.4616527,43.573857 5.153572,42.700663 4.9458305,42.111861 4.9475849,41.157537 5.157712,40.449971 c 0.2514908,-0.846862 0.7550275,-1.428294 1.6189606,-1.869408 0.6450584,-0.32936 0.8463277,-0.37965 1.5145344,-0.37843 1.2811111,0.0023 2.419252,0.687874 3.020383,1.819266 0.331008,0.622992 0.354743,2.302021 0.04146,2.932686 -0.277133,0.557885 -1.025767,1.309627 -1.5917741,1.598383 -0.5389328,0.274943 -1.8871519,0.385249 -2.4823681,0.203099 z m 1.6438924,-1.18764 C 10.609079,43.0996 10.946427,40.705305 9.4590325,39.762027 8.5800141,39.20457 7.4377532,39.363 6.7585393,40.136582 c -0.8171747,0.930711 -0.7054619,2.341504 0.2426751,3.064684 0.5737363,0.43761 1.2212467,0.561163 1.9215794,0.366661 z"
       id="path7"
       transform="scale(0.26458334)" /><path
       style="fill:#1e0036;fill-opacity:1;stroke:#5600b1;stroke-width:0.108525;stroke-opacity:1"
       d="M 7.1987158,11.465528 C 6.4723071,11.2145 5.914409,10.78249 5.5262784,10.170471 5.0684447,9.4485424 4.9594152,9.0176215 5.0154824,8.1516367 5.102987,6.8000884 5.7100741,5.8377967 6.8168439,5.2963047 7.3330103,5.043768 7.5738195,4.9946599 8.301637,4.9935113 9.0343592,4.992355 9.2668652,5.039539 9.7869395,5.2949338 10.455439,5.6232162 10.929031,6.0942977 11.313043,6.812948 c 0.207352,0.3880441 0.244847,0.6247941 0.244847,1.5460126 0,1.0518186 -0.01219,1.1067988 -0.368633,1.6621934 -0.889871,1.386574 -2.4860201,1.964299 -3.9905412,1.444374 z M 9.3520977,10.123369 C 9.5787803,9.9959659 9.8992185,9.6969646 10.064183,9.4589212 c 0.254336,-0.367008 0.299934,-0.5428686 0.299934,-1.1567748 0,-0.6139061 -0.0456,-0.7897668 -0.299934,-1.1567747 C 9.3930322,6.1769012 8.1862002,5.9103335 7.2119453,6.5153633 c -0.6615349,0.410825 -0.967621,0.9760354 -0.967621,1.7867831 0,1.6802625 1.6441978,2.6437976 3.1077734,1.8212226 z"
       id="path8"
       transform="scale(0.26458334)" /><path
       style="fill:#1e0036;fill-opacity:1;stroke:#5600b1;stroke-width:0.0542624;stroke-opacity:1"
       d="M 63.017154,11.63728 C 62.417922,11.530371 61.640263,11.103868 61.243195,10.664362 60.65308,10.011175 60.388952,9.3591159 60.35186,8.4639015 60.32262,7.7582366 60.40352,7.3611742 60.69513,6.7790833 61.039239,6.0921955 61.622321,5.5529116 62.434667,5.1702094 62.772942,5.0108453 62.86666,4.9920572 63.414416,4.9737938 c 1.22303,-0.040779 1.846174,0.1878564 2.629779,0.9648803 0.455292,0.4514691 0.662691,0.7649636 0.841662,1.2722217 0.122101,0.3460724 0.182906,1.1270974 0.126351,1.6229618 -0.115559,1.0132144 -0.860663,2.0174174 -1.870203,2.5205394 -0.49019,0.244296 -1.550173,0.385412 -2.124851,0.282883 z m 1.483676,-1.379274 c 0.163785,-0.07498 0.391232,-0.210339 0.505437,-0.300791 0.430118,-0.3406601 0.814018,-1.1207931 0.814018,-1.6541873 0,-0.6097793 -0.411983,-1.3718241 -0.932582,-1.7249954 -0.428137,-0.2904458 -0.771971,-0.3831166 -1.315599,-0.3545835 -0.611635,0.032103 -1.044251,0.2401506 -1.464094,0.7040923 -0.366309,0.404785 -0.472125,0.6950259 -0.476646,1.3073883 -0.0056,0.7652967 0.211276,1.3065362 0.676413,1.6876812 0.627963,0.5145684 1.507781,0.6491244 2.193053,0.3353954 z"
       id="path9"
       transform="scale(0.26458334)" /><path
       style="fill:#1e0036;fill-opacity:1;stroke:#5600b1;stroke-width:0.153477;stroke-opacity:1"
       d="m 62.718234,44.734526 c -2.047184,-0.613622 -3.00457,-3.157167 -1.856825,-4.933137 1.341348,-2.075541 4.119001,-2.139665 5.575722,-0.12872 1.802714,2.488574 -0.743157,5.953805 -3.718897,5.061857 z m 1.798102,-1.281872 c 0.561481,-0.234601 1.130336,-0.873821 1.268883,-1.425839 0.244576,-0.97447 -0.440656,-2.189314 -1.416547,-2.511387 -0.77644,-0.256249 -1.514904,-0.06639 -2.128539,0.547245 -0.616638,0.616637 -0.803341,1.352563 -0.543153,2.140941 0.407797,1.235635 1.593856,1.761087 2.819356,1.24904 z"
       id="path11"
       transform="scale(0.26458334)" /><g
       aria-label="12G"
       id="text6858"
       style="font-size:7.96888px;line-height:1.25;font-family:Jura;-inkscape-font-specification:Jura;letter-spacing:0px;word-spacing:0px;fill:#661212;stroke:#5600b1;stroke-width:0.199221;stroke-opacity:0"
       transform="matrix(2.9279548,0,0,2.8797567,24.551218,9.6963319)"><text
         xml:space="preserve"
         style="font-size:2.40428px;line-height:1.25;font-family:Jura;-inkscape-font-specification:Jura;letter-spacing:0px;word-spacing:0px;fill:#1e0036;fill-opacity:1;stroke:#5600b1;stroke-width:0.060107;stroke-opacity:0"
         x="-8.2440281"
         y="-0.22446364"
         id="text11"><tspan
           sodipodi:role="line"
           style="font-style:normal;font-variant:normal;font-weight:bold;font-stretch:normal;font-family:Jura;-inkscape-font-specification:'Jura Bold';stroke:#5600b1;stroke-width:0.060107;stroke-opacity:0"
           x="-8.2440281"
           y="-0.22446364"
           id="tspan13"> .45 </tspan></text></g></g></svg>
