<?xml version="1.0" encoding="UTF-8" standalone="no"?>
<!-- Created with Inkscape (http://www.inkscape.org/) -->

<svg
   width="185"
   height="185"
   viewBox="0 0 48.947917 48.947917"
   version="1.1"
   id="svg5"
   inkscape:version="1.3 (0e150ed6c4, 2023-07-21)"
   sodipodi:docname="flint_crate.svg"
   inkscape:export-filename="drawing.png"
   inkscape:export-xdpi="518.91895"
   inkscape:export-ydpi="518.91895"
   xml:space="preserve"
   xmlns:inkscape="http://www.inkscape.org/namespaces/inkscape"
   xmlns:sodipodi="http://sodipodi.sourceforge.net/DTD/sodipodi-0.dtd"
   xmlns="http://www.w3.org/2000/svg"
   xmlns:svg="http://www.w3.org/2000/svg"><sodipodi:namedview
     id="namedview7"
     pagecolor="#505050"
     bordercolor="#000000"
     borderopacity="0.25"
     inkscape:showpageshadow="2"
     inkscape:pageopacity="0"
     inkscape:pagecheckerboard="true"
     inkscape:deskcolor="#d1d1d1"
     inkscape:document-units="px"
     showgrid="false"
     inkscape:zoom="1.4142136"
     inkscape:cx="-184.90842"
     inkscape:cy="59.750521"
     inkscape:window-width="1920"
     inkscape:window-height="1017"
     inkscape:window-x="-8"
     inkscape:window-y="-8"
     inkscape:window-maximized="1"
     inkscape:current-layer="layer1"
     inkscape:pageshadow="0"
     showguides="false"
     units="px" /><defs
     id="defs2" /><g
     inkscape:label="Layer 1"
     inkscape:groupmode="layer"
     id="layer1"><rect
       style="fill:#d96300;fill-opacity:1;stroke:none;stroke-width:1.5658;stroke-linecap:butt;stroke-linejoin:miter;stroke-miterlimit:4;stroke-dasharray:none;stroke-opacity:1"
       id="rect4220"
       width="33.151886"
       height="33.151886"
       x="7.8470125"
       y="7.8470125" /><path
       id="rect938"
       style="fill:#da6a0b;fill-opacity:1;stroke-width:0;stroke-linecap:round"
       d="M 0.98120935,0.98121161 V 47.966706 H 47.966708 V 0.98121161 Z M 8.9084276,8.90843 H 40.039488 V 40.039488 H 8.9084276 Z" /><rect
       style="fill:none;fill-opacity:1;stroke:none;stroke-width:1.96165;stroke-linecap:butt;stroke-linejoin:bevel;stroke-miterlimit:4;stroke-dasharray:none;stroke-opacity:1"
       id="rect2620"
       width="33.151886"
       height="33.151886"
       x="7.8470125"
       y="7.8470125" /><circle
       style="fill:#808080;fill-opacity:1;stroke:#2e2e2e;stroke-width:0.980823;stroke-linecap:round;stroke-linejoin:round;stroke-opacity:1"
       id="path851"
       cx="5.0555"
       cy="5.0555"
       r="1.6222014" /><circle
       style="fill:#808080;fill-opacity:1;stroke:#2e2e2e;stroke-width:0.980823;stroke-linecap:round;stroke-linejoin:round;stroke-opacity:1"
       id="path851-3"
       cx="43.892246"
       cy="5.0555"
       r="1.6222014" /><circle
       style="fill:#808080;fill-opacity:1;stroke:#2e2e2e;stroke-width:0.980823;stroke-linecap:round;stroke-linejoin:round;stroke-opacity:1"
       id="path851-6"
       cx="5.0555"
       cy="43.892246"
       r="1.6222014" /><circle
       style="fill:#808080;fill-opacity:1;stroke:#2e2e2e;stroke-width:0.980823;stroke-linecap:round;stroke-linejoin:round;stroke-opacity:1"
       id="path851-7"
       cx="43.892246"
       cy="43.892246"
       r="1.6222014" /><rect
       style="fill:none;fill-opacity:1;stroke:#8e4507;stroke-width:1.96165;stroke-linecap:round;stroke-linejoin:round;stroke-miterlimit:4;stroke-dasharray:none;stroke-opacity:1"
       id="rect2330"
       width="46.986267"
       height="46.986267"
       x="0.98082507"
       y="0.98082507" /><path
       style="fill:none;stroke:#8e4507;stroke-width:1.96165;stroke-linecap:butt;stroke-linejoin:miter;stroke-miterlimit:4;stroke-dasharray:none;stroke-opacity:1"
       d="m 40.039794,8.9081228 h 7.8466"
       id="path5886" /><path
       style="fill:none;stroke:#8e4507;stroke-width:1.96165;stroke-linecap:butt;stroke-linejoin:miter;stroke-miterlimit:4;stroke-dasharray:none;stroke-opacity:1"
       d="m 40.039794,40.039794 h 7.8466"
       id="path5886-3" /><path
       style="fill:none;stroke:#8e4507;stroke-width:1.96165;stroke-linecap:butt;stroke-linejoin:miter;stroke-miterlimit:4;stroke-dasharray:none;stroke-opacity:1"
       d="M 1.0615177,40.039794 H 8.9081181"
       id="path5886-6" /><path
       style="fill:none;stroke:#8e4507;stroke-width:1.96165;stroke-linecap:butt;stroke-linejoin:miter;stroke-miterlimit:4;stroke-dasharray:none;stroke-opacity:1"
       d="M 1.0615177,8.9081228 H 8.9081181"
       id="path5886-7" /><path
       style="fill:#4d4d4d;stroke:#171717;stroke-width:0;stroke-opacity:0.0912863"
       d="M 155,92.5 V 37.4375 h 11.3125 11.3125 V 92.5 147.5625 H 166.3125 155 Z"
       id="path11"
       transform="scale(0.26458334)" /><path
       style="fill:#4d4d4d;stroke:#4d4d4d;stroke-width:0;stroke-opacity:1"
       d="M 7.4246212,92.454212 V 37.299883 H 18.73833 30.052038 V 92.454212 147.60854 H 18.73833 7.4246212 Z"
       id="path18"
       transform="scale(0.26458334)" /><path
       style="fill:#4d4d4d;stroke:#4d4d4d;stroke-width:1;stroke-dasharray:none;stroke-opacity:1"
       d="M 7.4246212,18.561553 V 7.2478445 H 92.454212 177.4838 V 18.561553 29.875261 H 92.454212 7.4246212 Z m 15.0457498,7.818435 c 0.788669,-0.358225 2.009185,-1.323356 2.712255,-2.144736 4.430139,-5.175621 0.74607,-13.09832 -6.090743,-13.09832 -7.240428,0 -10.704409,8.849815 -5.424069,13.857467 2.176346,2.063955 5.9881,2.663954 8.802557,1.385589 z m 146.704929,0.0072 c 4.91226,-2.237215 6.28311,-8.546234 2.71651,-12.502149 -4.43508,-4.9191922 -12.42818,-2.884511 -13.79754,3.512231 -1.35889,6.347832 5.19949,11.668574 11.08103,8.989918 z"
       id="path19"
       transform="scale(0.26458334)" /><path
       style="fill:#4d4d4d;stroke:#4d4d4d;stroke-width:0.353553;stroke-dasharray:none;stroke-opacity:1"
       d="M 7.4246212,166.34687 V 155.03316 H 92.454212 177.4838 v 11.31371 11.31371 H 92.454212 7.4246212 Z m 15.1788928,6.72971 c 2.964102,-1.51217 4.961818,-5.15787 4.479418,-8.17464 -0.905005,-5.65959 -6.527227,-8.61296 -11.551574,-6.06808 -2.2194,1.12415 -4.009085,3.46443 -4.394671,5.74669 -0.535392,3.16896 1.389028,6.90471 4.367504,8.47835 1.779962,0.94042 5.27355,0.94912 7.099323,0.0177 z M 169.75227,172.8281 c 6.88905,-3.74949 4.65477,-14.15753 -3.19193,-14.86904 -7.49904,-0.67999 -11.64387,8.56679 -6.16787,13.76 2.39133,2.26783 6.36552,2.73873 9.3598,1.10904 z"
       id="path20"
       transform="scale(0.26458334)" /><path
       style="fill:#333333;stroke:#4d4d4d;stroke-width:0.353553;stroke-dasharray:none;stroke-opacity:1"
       d="M 1.8473428,184.37779 C 1.2105192,183.98887 0.53434829,183.26263 0.34474086,182.76392 0.12408656,182.18356 0,149.66274 0,92.413638 0,-4.2290077 -0.10968131,1.5351099 1.7481833,0.54081096 2.2096103,0.29386272 31.441938,0.1767767 92.634941,0.1767767 H 182.8415 l 1.03346,1.0334637 1.03346,1.0334638 V 92.421437 182.59917 l -1.03164,1.15463 -1.03165,1.15462 -89.919964,0.0882 c -89.3774589,0.0877 -89.9269477,0.084 -91.0778232,-0.61888 z M 177.4838,166.52365 V 155.03316 H 92.454212 7.4246212 v 11.49049 11.49048 H 92.454212 177.4838 Z M 30.052038,92.454212 V 37.299883 H 18.73833 7.4246212 V 92.454212 147.60854 H 18.73833 30.052038 Z m 117.646002,0.08839 -0.0895,-55.065941 -11.4021,-0.09328 c -7.19584,-0.05887 -11.40209,-0.221907 -11.40209,-0.441941 0,-0.226646 -11.38263,-0.348657 -32.526915,-0.348657 -21.448907,0 -32.526912,0.120413 -32.526912,0.353553 0,0.22818 -3.928788,0.353554 -11.079253,0.353554 H 37.592017 l -0.234456,16.498304 c -0.299728,21.091429 -0.299696,53.807826 7.5e-5,76.251336 l 0.234533,17.55902 h 55.097682 55.097679 z m 29.78576,-0.09336 V 37.289951 l -11.22532,0.09335 -11.22532,0.09335 -0.0908,54.623999 c -0.0499,30.0432 -0.0152,54.82287 0.0773,55.06594 0.12957,0.34065 2.72306,0.44194 11.31613,0.44194 h 11.14802 z m 0.35356,-73.887691 V 6.8942911 H 92.454212 7.0710678 V 18.561553 30.228815 H 92.454212 177.83736 Z"
       id="path21"
       transform="scale(0.26458334)" /><path
       style="fill:#000000;stroke:#383838;stroke-width:8.7085;stroke-dasharray:none;stroke-opacity:0"
       d="m 21.889375,4.677217 c 0.311814,0.1247256 0.609636,0.2927255 0.935443,0.3741772 0.175648,0.043912 1.842747,0.047828 2.057976,0 1.313343,-0.5253377 -0.24229,0.029749 0.841899,-0.1870888 0.577964,-0.1155927 -0.277499,-0.093544 0.187088,-0.093544"
       id="path25" /><path
       style="fill:#000000;stroke:#383838;stroke-width:8.7085;stroke-dasharray:none;stroke-opacity:0"
       d="m 34.51786,4.3965837 c 0.286533,0.2120641 2.057977,1.2725824 2.057977,1.9644313"
       id="path26" /><path
       style="fill:#000000;stroke:#383838;stroke-width:8.7085;stroke-dasharray:none;stroke-opacity:0"
       d="m 42.936852,13.938106 c 0.330755,1.551852 0.467719,3.267238 0.467719,4.864306"
       id="path27" /><path
       style="fill:#000000;stroke:#383838;stroke-width:8.7085;stroke-dasharray:none;stroke-opacity:0"
       d="m 17.67988,3.5546848 c -1.337915,0.3040717 -3.668393,0.8069483 -4.864306,1.2160764 -2.641368,0.9036259 0.490389,0.219973 -1.216076,0.5612659"
       id="path28" /><path
       style="fill:#000000;stroke:#383838;stroke-width:8.7085;stroke-dasharray:none;stroke-opacity:0"
       d="m 3.8353178,19.457222 c -0.056852,1.656563 0.1870887,3.302201 0.1870887,4.95785"
       id="path29" /><path
       style="fill:#000000;stroke:#383838;stroke-width:8.7085;stroke-dasharray:none;stroke-opacity:0"
       d="m 10.851143,43.498118 c 1.610879,2.236012 4.676862,2.307367 7.10937,2.712783"
       id="path30" /><path
       style="fill:#000000;stroke:#383838;stroke-width:8.7085;stroke-dasharray:none;stroke-opacity:0"
       d="m 25.44406,43.965837 c 7.476164,-0.598093 3.114031,-0.322069 13.096208,-0.654809"
       id="path31" /><path
       style="fill:#000000;stroke:#383838;stroke-width:8.7085;stroke-dasharray:none;stroke-opacity:0"
       d="m 34.892036,43.498118 c -8.695697,1.465566 -5.520878,1.636879 -9.447976,1.309618"
       id="path32" /><path
       style="fill:#000000;stroke:#383838;stroke-width:8.7085;stroke-dasharray:none;stroke-opacity:0"
       d="m 22.63773,43.778751 c -1.744545,0 -2.723446,0.214516 -4.30304,-1.496711 -0.258166,-0.279678 0.438159,-0.622501 0.65481,-0.935443 0.164187,-0.237159 0.183384,-0.370472 0.374178,-0.561266"
       id="path33" /><path
       style="fill:#000000;stroke:#383838;stroke-width:8.7085;stroke-dasharray:none;stroke-opacity:0"
       d="m 27.127857,42.188496 c 2.97425,0.892276 0.611161,0.252018 7.29646,0.841899"
       id="path34" /><path
       style="fill:#000000;stroke:#383838;stroke-width:8.7085;stroke-dasharray:none;stroke-opacity:0"
       d="m 46.117358,30.121276 c -0.863457,3.645712 -0.841899,2.337012 -0.841899,3.835318"
       id="path35" /><path
       style="fill:#000000;stroke:#383838;stroke-width:8.7085;stroke-dasharray:none;stroke-opacity:0"
       d="m 44.527103,25.724693 c -1.718151,2.223489 -1.202547,1.282567 -1.870884,2.619242"
       id="path36" /><path
       style="fill:#000000;stroke:#383838;stroke-width:8.7085;stroke-dasharray:none;stroke-opacity:0"
       d="m 3.2740519,22.170008 c 0.517761,1.993769 1.7183674,3.762102 2.0579752,5.799748"
       id="path37" /><path
       style="fill:#000000;stroke:#383838;stroke-width:8.7085;stroke-dasharray:none;stroke-opacity:0"
       d="M 6.1739263,12.160764 C 4.722633,14.579586 4.7707612,13.590285 4.7707612,14.780005"
       id="path38" /><path
       style="fill:#000000;stroke:#383838;stroke-width:8.7085;stroke-dasharray:none;stroke-opacity:0"
       d="M 6.0803818,31.89862 C 5.4009141,33.102352 5.281623,35.316619 4.3965837,36.201658"
       id="path39" /><path
       style="fill:#000000;stroke:#383838;stroke-width:8.7085;stroke-dasharray:none;stroke-opacity:0"
       d="m 10.102788,3.2740519 c 0.592448,0.155907 1.184895,0.3118144 1.777343,0.4677217"
       id="path40" /><path
       style="fill:#000000;stroke:#383838;stroke-width:8.7085;stroke-dasharray:none;stroke-opacity:0"
       d="m 30.588999,2.1515198 c 1.672039,-1.36876155 3.295882,3.3675961 5.425572,3.3675961"
       id="path41" /><path
       style="fill:#000000;stroke:#383838;stroke-width:8.7085;stroke-dasharray:none;stroke-opacity:0"
       d="m 40.130519,1.7773424 c 0.392407,0.9064431 0.604446,1.8565164 0.841902,2.8063301"
       id="path42" /><path
       style="fill:#000000;stroke:#383838;stroke-width:8.7085;stroke-dasharray:none;stroke-opacity:0"
       d="m 43.965837,37.043557 c -0.06236,0.155908 -0.342995,0.40536 -0.187086,0.467722 0.155905,0.06236 0.131617,-0.309232 0.187086,-0.467722 0.162873,-0.465342 0.37795,-0.918385 0.467723,-1.403165 0.01418,-0.07654 -0.01299,-2.021597 0,-2.15152 0.01934,-0.193469 0.420039,-1.450846 0.187089,-1.683798 -0.02907,-0.02907 -1.118621,0 -1.216078,0"
       id="path43" /><path
       style="fill:#000000;stroke:#383838;stroke-width:8.7085;stroke-dasharray:none;stroke-opacity:0"
       d="m 44.807736,16.18317 c 0.270185,2.036729 -0.561266,4.058479 -0.561266,6.080382"
       id="path44" /><path
       style="fill:#000000;stroke:#383838;stroke-width:8.7085;stroke-dasharray:none;stroke-opacity:0"
       d="m 43.030395,10.289877 c 0.384069,1.152204 -0.035,0.462721 1.964431,0.748355 0.752425,0.107489 -0.122989,0.09354 0.280633,0.09354"
       id="path45" /><path
       style="fill:#000000;stroke:#383838;stroke-width:8.7085;stroke-dasharray:none;stroke-opacity:0"
       d="m 36.66938,44.901282 c 0.315796,1.755934 3.413017,-0.778637 3.928862,-1.122531 1.055296,-0.70353 1.028988,-0.245804 1.028988,-0.748356"
       id="path46" /><path
       style="fill:#000000;stroke:#383838;stroke-width:8.7085;stroke-dasharray:none;stroke-opacity:0"
       d="m 3.2740519,30.027733 c 0.1019289,1.092776 0.093544,2.181214 0.093544,3.274052"
       id="path47" /><path
       style="fill:#000000;stroke:#383838;stroke-width:8.7085;stroke-dasharray:none;stroke-opacity:0"
       d="m 6.1739263,20.579754 c 0.7072064,0.822373 0.6548104,1.539551 0.6548104,2.525697"
       id="path48" /><path
       style="fill:#000000;stroke:#383838;stroke-width:8.7085;stroke-dasharray:none;stroke-opacity:0"
       d="m 8.606079,3.4611403 c 2.72402,0.9728645 0.8476764,0.4292265 5.799749,0.8418992"
       id="path49" /><path
       style="fill:#000000;stroke:#383838;stroke-width:8.7085;stroke-dasharray:none;stroke-opacity:0"
       id="path50"
       d="m 3.7824549,16.269142 c 0.2112758,0.324865 0.4893169,0.591619 0.7667164,0.858448 0.1529414,0.146999 0.3608303,-0.06929 0.207889,-0.216292 v 0 C 4.491008,16.655787 4.2240402,16.401261 4.022455,16.089142 c -0.1272794,-0.169706 -0.3672793,0.0103 -0.2400001,0.18 z" /><path
       style="fill:#000000;stroke:#383838;stroke-width:8.7085;stroke-dasharray:none;stroke-opacity:0"
       id="path51"
       d="m 17.175411,6.7216974 c 0.414074,-0.2547159 0.879745,-0.4079912 1.329165,-0.5869612 0.197078,-0.078488 0.08608,-0.3571978 -0.110998,-0.2787102 v 0 c -0.468807,0.1867212 -0.954179,0.3474402 -1.384577,0.6160564 -0.176504,0.1176697 -0.01009,0.3672848 0.16641,0.249615 z" /><path
       style="fill:#000000;stroke:#383838;stroke-width:8.7085;stroke-dasharray:none;stroke-opacity:0"
       id="path52"
       d="m 24.036922,2.1769218 c 0.711587,0.3505542 1.437202,0.671379 2.164731,0.9870764 0.194603,0.084437 0.314016,-0.1907733 0.119412,-0.2752106 v 0 c -0.722571,-0.3134913 -1.44322,-0.6321245 -2.14998,-0.980194 -0.189736,-0.094868 -0.3239,0.1734598 -0.134163,0.2683282 z" /><path
       style="fill:#000000;stroke:#383838;stroke-width:8.7085;stroke-dasharray:none;stroke-opacity:0"
       id="path53"
       d="m 31.139506,6.3113408 c 0.01939,0.043972 0.03876,0.087945 0.05814,0.1319168 0.08557,0.1941089 0.360079,0.073099 0.27451,-0.1210101 v 0 c -0.01897,-0.043028 -0.03794,-0.086055 -0.05691,-0.1290826 -0.08356,-0.1949801 -0.359307,-0.076804 -0.275744,0.1181759 z" /><path
       style="fill:#000000;stroke:#383838;stroke-width:8.7085;stroke-dasharray:none;stroke-opacity:0"
       id="path54"
       d="m 45.125459,23.041447 c 0,0.406143 0,0.812286 0,1.218428 0,0.212132 0.3,0.212132 0.3,0 v 0 c 0,-0.406142 0,-0.812285 0,-1.218428 0,-0.212132 -0.3,-0.212132 -0.3,0 z" /><path
       style="fill:#000000;stroke:#383838;stroke-width:8.7085;stroke-dasharray:none;stroke-opacity:0"
       id="path55"
       d="m 23.231332,24.755371 c 0.150325,0.267061 0.314401,0.525924 0.477854,0.785023 0.113194,0.179407 0.366914,0.01933 0.25372,-0.160082 v 0 c -0.160508,-0.254364 -0.321652,-0.508481 -0.469327,-0.770634 -0.10302,-0.185437 -0.365267,-0.03974 -0.262247,0.145693 z" /><path
       style="fill:#000000;stroke:#383838;stroke-width:8.7085;stroke-dasharray:none;stroke-opacity:0"
       id="path56"
       d="m 16.224154,16.801578 c -0.219824,0.04443 -0.443106,0.06718 -0.665679,0.09235 -0.210783,0.02388 -0.177005,0.321977 0.03378,0.298092 v 0 c 0.229221,-0.02602 0.459147,-0.04966 0.685567,-0.09528 0.20871,-0.03795 0.155045,-0.333109 -0.05367,-0.295161 z" /><path
       style="fill:#000000;stroke:#383838;stroke-width:8.7085;stroke-dasharray:none;stroke-opacity:0"
       id="path57"
       d="m 35.067799,10.516223 c 0.125542,0.407498 0.262864,0.811175 0.390544,1.218034 0.06352,0.202397 0.349755,0.112559 0.286231,-0.08984 v 0 c -0.125941,-0.40121 -0.260699,-0.799491 -0.385733,-1.200957 -0.05145,-0.205798 -0.34249,-0.133038 -0.291042,0.07276 z" /><path
       style="fill:#000000;stroke:#383838;stroke-width:8.7085;stroke-dasharray:none;stroke-opacity:0"
       id="path58"
       d="m 34.146986,14.200132 c -0.245515,0.231427 -0.53842,0.395557 -0.831247,0.557796 -0.185481,0.102945 -0.03989,0.365251 0.145584,0.262307 v 0 c 0.321469,-0.178719 0.642557,-0.36104 0.908651,-0.619414 0.141906,-0.157676 -0.08108,-0.358366 -0.222988,-0.200689 z" /><path
       style="fill:#000000;stroke:#383838;stroke-width:8.7085;stroke-dasharray:none;stroke-opacity:0"
       id="path59"
       d="m 36.362501,31.72848 c 0.0308,0.301622 0.10047,0.597532 0.160462,0.894217 0.04204,0.207923 0.336092,0.148463 0.294047,-0.05946 v 0 c -0.05606,-0.277235 -0.119838,-0.553765 -0.154509,-0.834757 0,-0.212133 -0.3,-0.212133 -0.3,0 z" /><path
       style="fill:#000000;stroke:#383838;stroke-width:8.7085;stroke-dasharray:none;stroke-opacity:0"
       id="path60"
       d="m 15.451237,35.266835 c -0.351774,0.177239 -0.689169,0.381187 -1.029636,0.578807 -0.183465,0.106493 -0.03286,0.365951 0.150602,0.259459 v 0 c 0.33508,-0.194498 0.667055,-0.395375 1.013198,-0.569939 0.189737,-0.09487 0.05557,-0.363196 -0.134164,-0.268327 z" /><path
       style="fill:#000000;stroke:#383838;stroke-width:8.7085;stroke-dasharray:none;stroke-opacity:0"
       id="path61"
       d="m 37.840519,36.538396 c 0.438761,0.211259 0.866513,0.443883 1.294135,0.676508 0.186349,0.101361 0.329695,-0.162174 0.143346,-0.263536 v 0 c -0.434988,-0.236577 -0.870074,-0.473255 -1.316659,-0.687567 -0.194167,-0.08543 -0.314989,0.189161 -0.120822,0.274595 z" /><path
       style="fill:#000000;stroke:#383838;stroke-width:8.7085;stroke-dasharray:none;stroke-opacity:0"
       id="path62"
       d="m 35.833334,34.498694 c 0.0114,0.287668 -0.0054,0.572143 -0.04424,0.856969 -0.02831,0.210235 0.269004,0.250275 0.297317,0.04004 v 0 c 0.03968,-0.298146 0.05899,-0.59598 0.04692,-0.897009 0,-0.212133 -0.3,-0.212133 -0.3,0 z" /><path
       style="fill:#000000;stroke:#383838;stroke-width:8.7085;stroke-dasharray:none;stroke-opacity:0"
       id="path63"
       d="m 32.72448,33.077982 c 0.05407,0.663038 0.212836,1.31265 0.356089,1.960578 0.04581,0.207129 0.338728,0.142349 0.292923,-0.06478 v 0 c -0.13866,-0.626819 -0.291563,-1.254958 -0.349012,-1.895797 0,-0.212133 -0.3,-0.212133 -0.3,-1e-6 z" /><path
       style="fill:#000000;stroke:#383838;stroke-width:8.7085;stroke-dasharray:none;stroke-opacity:0"
       id="path64"
       d="m 13.938286,33.657734 c -0.322467,0.278294 -0.708637,0.452273 -1.089367,0.632616 -0.191595,0.09106 -0.06282,0.362014 0.128772,0.270957 v 0 c 0.40469,-0.192929 0.814591,-0.379992 1.157075,-0.676865 0.160305,-0.138932 -0.03617,-0.365638 -0.19648,-0.226708 z" /><path
       style="fill:#000000;stroke:#383838;stroke-width:8.7085;stroke-dasharray:none;stroke-opacity:0"
       id="path65"
       d="m 14.081837,11.922392 c 0.410551,0.560774 0.19758,0.275996 0.639746,0.85371 0.128941,0.168447 0.367161,-0.0139 0.23822,-0.182349 v 0 c -0.436936,-0.570735 -0.226601,-0.28956 -0.631846,-0.842899 -0.121296,-0.174032 -0.367415,-0.0025 -0.24612,0.171538 z" /><path
       style="fill:#000000;stroke:#383838;stroke-width:8.7085;stroke-dasharray:none;stroke-opacity:0"
       id="path66"
       d="m 30.241622,16.81875 c 0.498718,0.0468 0.993812,-0.0061 1.489271,-0.06012 0.210867,-0.02311 0.178186,-0.321324 -0.03268,-0.298215 v 0 c -0.484767,0.0534 -0.968616,0.104518 -1.456589,0.05834 -0.212133,0 -0.212133,0.3 0,0.3 z" /><path
       style="fill:#000000;stroke:#383838;stroke-width:8.7085;stroke-dasharray:none;stroke-opacity:0"
       id="path67"
       d="m 38.405626,14.105406 c -0.04552,0.194003 -0.01585,0.0912 -0.09411,0.306892 -0.07115,0.199845 0.211476,0.300462 0.282625,0.100617 v 0 c 0.09243,-0.263836 0.05724,-0.135846 0.11045,-0.382595 0.01762,-0.211399 -0.281347,-0.236313 -0.298966,-0.02491 z" /><path
       style="fill:#000000;stroke:#383838;stroke-width:8.7085;stroke-dasharray:none;stroke-opacity:0"
       id="path68"
       d="m 11.209571,13.818485 c 0.275489,0.301216 0.581547,0.570699 0.888467,0.838733 0.159823,0.139486 0.357086,-0.08654 0.197263,-0.226025 v 0 c -0.298019,-0.259926 -0.595144,-0.521313 -0.862741,-0.813398 -0.141909,-0.157676 -0.364898,0.04301 -0.222989,0.20069 z" /><path
       style="fill:#000000;stroke:#383838;stroke-width:8.7085;stroke-dasharray:none;stroke-opacity:0"
       id="path69"
       d="m 13.997863,13.379616 c 0.212864,0.297571 0.407205,0.606964 0.5977,0.919083 0.110524,0.181065 0.366588,0.02476 0.256064,-0.156304 v 0 c -0.195504,-0.320238 -0.395066,-0.637643 -0.613764,-0.942779 -0.127279,-0.169706 -0.367279,0.01029 -0.24,0.18 z" /><path
       style="fill:#000000;stroke:#383838;stroke-width:8.7085;stroke-dasharray:none;stroke-opacity:0"
       id="path70"
       d="m 16.837227,31.987107 c -0.03331,0.218811 -0.01548,0.104111 -0.0537,0.34407 -0.03336,0.209494 0.262907,0.256672 0.296268,0.04718 v 0 c 0.03754,-0.235781 0.02099,-0.127026 0.05029,-0.32617 0.04602,-0.207079 -0.246838,-0.272159 -0.292856,-0.06508 z" /><path
       style="fill:#000000;stroke:#383838;stroke-width:8.7085;stroke-dasharray:none;stroke-opacity:0"
       id="path71"
       d="m 13.145313,38.163297 c -0.01013,0.178962 -0.03929,0.355571 -0.08153,0.529445 -0.04919,0.206348 0.242627,0.27592 0.291822,0.06957 v 0 c 0.0462,-0.196922 0.0811,-0.396396 0.08971,-0.599017 0,-0.212129 -0.3,-0.212129 -0.3,0 z" /><path
       style="fill:#000000;stroke:#383838;stroke-width:8.7085;stroke-dasharray:none;stroke-opacity:0"
       id="path72"
       d="m 9.0255505,44.724874 c -0.1467189,0.382154 -0.298109,0.762299 -0.4658101,1.135745 -0.086846,0.19354 0.1868615,0.31636 0.2737073,0.12282 v 0 C 9.0010813,45.609585 9.1536295,45.229509 9.299694,44.846715 9.385849,44.652865 9.1117057,44.531024 9.0255505,44.724874 Z" /><path
       style="fill:#000000;stroke:#383838;stroke-width:8.7085;stroke-dasharray:none;stroke-opacity:0"
       id="path73"
       d="m 2.9372854,44.780569 c 0.054489,0.165002 0.027068,0.07747 0.081301,0.262916 0.059694,0.20356 0.3475712,0.11914 0.287877,-0.08442 v 0 c -0.060452,-0.205613 -0.0286,-0.105556 -0.095035,-0.300337 -0.086155,-0.193849 -0.3602985,-0.07201 -0.274143,0.121841 z" /><path
       style="fill:#4d4d4d;fill-opacity:1;stroke:#4d4d4d;stroke-width:1.05;stroke-dasharray:none;stroke-opacity:1"
       d="M 37.666103,135.1875 C 37.451986,119.42398 37.45176,63.493016 37.665756,48.91604 l 0.165757,-11.291041 7.896743,-0.0054 c 4.343208,-0.003 10.709243,-0.169847 14.146742,-0.370873 7.248848,-0.423916 56.868302,-0.50117 62.500002,-0.09731 1.7875,0.128186 8.09762,0.299433 14.0225,0.380549 l 10.7725,0.147483 0.16461,8.78526 c 0.19419,10.363257 0.22511,92.410262 0.0348,92.410262 -0.0718,0 -1.04326,-0.4589 -2.15879,-1.01978 -1.79265,-0.90133 -2.07132,-0.97671 -2.39904,-0.64899 -0.20393,0.20393 -0.31126,0.46596 -0.23851,0.58228 0.0727,0.11632 1.20943,0.77399 2.52594,1.46149 l 2.39367,1.25 0.004,3.4375 0.004,3.4375 H 92.665823 37.831647 Z m 12.698571,11.7042 c 0.250667,-0.40559 0.592257,-2.58804 0.4593,-2.93452 -0.21231,-0.55327 -1.053034,-0.38886 -1.177744,0.23032 -0.346387,1.7198 -0.371982,2.29048 -0.116528,2.59829 0.328568,0.3959 0.631966,0.43438 0.834972,0.10591 z m 6.675646,-11.46696 c 2.014861,-1.16114 2.645335,-1.89826 1.876102,-2.19344 -0.36928,-0.14171 -4.385412,1.97409 -4.714623,2.48378 -0.179181,0.27741 0.208421,0.90992 0.557599,0.90992 0.108997,0 1.135412,-0.54012 2.280922,-1.20026 z m 79.5543,-3.13613 c 0.18514,-1.64938 0.15768,-2.01845 -0.17495,-2.35109 -0.32515,-0.32515 -0.46277,-0.33798 -0.78213,-0.0729 -0.28875,0.23964 -0.38754,0.81308 -0.38754,2.24936 0,2.02036 0.10213,2.32556 0.73781,2.20476 0.28673,-0.0545 0.44417,-0.58121 0.60681,-2.03009 z m -10.48002,0.35321 c 0.0793,-0.12824 -0.15313,-1.78762 -0.51642,-3.6875 -0.36329,-1.89988 -0.7049,-3.70745 -0.75912,-4.01682 -0.10805,-0.61649 -0.94902,-0.78804 -1.16057,-0.23676 -0.1439,0.375 0.31969,3.44567 0.94356,6.24988 0.3442,1.54709 0.51835,1.92438 0.88829,1.92438 0.25308,0 0.525,-0.10493 0.60426,-0.23318 z m -75.374323,-2.77697 c 1.067894,-0.55558 2.203736,-1.28915 2.524093,-1.63015 0.512854,-0.54591 0.538481,-0.66399 0.214424,-0.98805 -0.324056,-0.32406 -0.475598,-0.29496 -1.267995,0.24349 -0.494975,0.33635 -1.588644,0.9615 -2.430377,1.38924 -1.43298,0.72819 -1.873599,1.31911 -1.363756,1.82895 0.243361,0.24336 0.214272,0.25392 2.323611,-0.84348 z m 88.386943,-6.24345 c 0.13456,-0.21772 -0.034,-1.4192 -0.51683,-3.6839 -0.12935,-0.60672 -0.99242,-0.79062 -1.17326,-0.25 -0.11443,0.34207 0.44768,3.54886 0.69111,3.94275 0.19751,0.31957 0.7993,0.31424 0.99898,-0.009 z m -74.486264,-1.34598 c 0.255875,-1.01949 0.03619,-1.77542 -0.515958,-1.77542 -0.3786,0 -0.533347,0.21245 -0.637347,0.875 -0.177178,1.12875 -0.04494,1.5 0.534332,1.5 0.285925,0 0.52713,-0.23365 0.618973,-0.59958 z M 90.650905,96.522633 c 0.203613,-0.530603 -1.906947,-3.932948 -2.383435,-3.84224 -0.704712,0.134152 -0.541697,1.040805 0.473245,2.632105 0.966013,1.514582 1.631565,1.936219 1.91019,1.210135 z M 61.326869,64.713596 c 0.545181,-0.10458 0.684699,-0.255075 0.624947,-0.674118 -0.06573,-0.460975 -0.222435,-0.53156 -1.076871,-0.485062 -1.914204,0.104172 -2.624947,0.318142 -2.624947,0.790245 0,0.843637 0.370594,0.888075 3.076871,0.368935 z M 119.75,63.401308 c 0.39424,-0.109665 0.625,-0.354297 0.625,-0.66258 0,-0.464747 -0.15948,-0.4841 -3.25,-0.394392 -3.18038,0.09232 -3.7207,0.24039 -3.45013,0.945492 0.0973,0.253433 0.7775,0.329093 2.78937,0.31025 1.46342,-0.01371 2.94201,-0.103152 3.28576,-0.19877 z m 8.50286,-7.653212 c 1.83775,-1.221738 2.17003,-1.668387 1.59573,-2.145012 -0.30177,-0.250451 -0.49882,-0.208173 -1.04764,0.224778 -0.37177,0.293287 -1.26658,0.882131 -1.98845,1.308541 -1.22381,0.722898 -1.54889,1.168873 -1.14584,1.571929 0.35075,0.350743 0.94749,0.129177 2.5862,-0.960236 z M 46.6944,55.104073 c 0.04391,-0.228006 -0.767485,-1.151034 -1.952127,-2.220704 -1.894354,-1.710504 -2.054662,-1.803125 -2.445088,-1.4127 -0.390425,0.390426 -0.288461,0.541034 1.555191,2.297146 1.899869,1.809659 2.680198,2.176553 2.842024,1.336258 z m 99.26547,-0.365838 c 0.58063,-1.274341 0.20317,-2.517255 -0.56967,-1.875852 -0.38482,0.31937 -0.74144,1.896551 -0.51258,2.266868 0.27385,0.443095 0.78661,0.257834 1.08225,-0.391016 z M 56.194013,53.856081 c 0.105328,-0.546928 -2.351726,-4.231082 -2.821813,-4.231082 -0.833348,0 -0.646841,0.808487 0.637956,2.765471 1.278589,1.947529 1.99806,2.430374 2.183857,1.465611 z m 0.4987,-5.743251 c 0.09513,-0.493951 -2.615258,-3.987831 -3.093567,-3.987831 -0.826172,0 -0.585472,0.805443 0.784788,2.626092 1.38665,1.842425 2.131592,2.281799 2.308779,1.361739 z M 135.12232,44.629336 C 135.33641,44.282922 133.823,39.496808 133.38421,39.132649 132.94316,38.76661 132.5,38.997265 132.5,39.592856 c 0,0.43846 1.32649,4.549152 1.62257,5.028222 0.2001,0.323766 0.80168,0.328735 0.99975,0.0083 z"
       id="path91"
       transform="scale(0.26458334)" /><g
       id="g91"
       transform="matrix(0.1332828,0,0,0.1332828,9.8722642,9.8195807)"><g
         stroke-width="2"
         fill="none"
         stroke-linecap="butt"
         id="g3"><path
           stroke="#808080"
           vector-effect="non-scaling-stroke"
           d="M 136.02,83.62 Q 139.3,57.1 149.87,32.55 154.63,21.5 159.49,10.41 159.68,10 159.22,10 H 61 q -0.58,0 -0.35,0.53 c 4.34,9.84 9.55,20.78 12.81,29.65 Q 81.2,61.29 84.11,83.7 84.17,84.18 83.69,84.12 63.38,81.48 44.12,74.85 C 33.72,71.28 21.67,65.57 10.63,60.65 q -0.66,-0.3 -0.66,0.42 l -0.1,98.17 q 0,0.57 0.52,0.34 c 11.06,-4.94 23.1,-10.66 33.5,-14.25 q 19.31,-6.65 39.78,-9.35 a 0.4,0.39 89.5 0 1 0.44,0.44 q -2.87,22.35 -10.66,43.49 c -3.23,8.76 -8.56,19.83 -12.85,29.75 q -0.26,0.59 0.39,0.59 h 98.26 q 0.57,0 0.33,-0.52 c -5.34,-11.87 -11.43,-24.72 -15.14,-36.06 q -5.81,-17.78 -8.44,-36.93 -0.12,-0.81 0.69,-0.7 c 26.2,3.35 47.59,11.58 73.12,23.72 q 0.44,0.21 0.44,-0.28 V 60.99 q 0,-0.64 -0.58,-0.38 c -9.93,4.37 -21.07,9.66 -29.92,12.9 q -20.98,7.7 -43.24,10.59 -0.56,0.07 -0.49,-0.48"
           id="path1" /><path
           stroke="#808080"
           vector-effect="non-scaling-stroke"
           d="m 129.05,90.44 c 2.38,-26.72 10.08,-49.47 20.85,-73.8 A 0.45,0.45 0 0 0 149.49,16 h -78.5 q -1.28,0 -0.71,1.15 17.08,34.62 20.79,73.12 0.09,0.98 -0.89,0.88 Q 58.75,87.82 31.25,76.43 23.77,73.33 16.54,70.13 A 0.38,0.38 0 0 0 16,70.48 v 79.26 q 0,0.5 0.46,0.3 7.76,-3.41 15.59,-6.65 28.12,-11.66 58.5,-14.32 0.58,-0.05 0.53,0.53 -2.72,29.73 -13.98,57.39 -3.36,8.26 -6.89,16.55 -0.2,0.46 0.31,0.46 h 79 q 0.66,0 0.39,-0.6 C 139.3,179.48 131.52,157.27 129.14,129.46 q -0.04,-0.47 0.43,-0.42 c 26.7,2.41 49.53,9.98 73.83,20.86 q 0.6,0.27 0.6,-0.39 V 70.5 q 0,-0.54 -0.5,-0.32 c -24.48,10.77 -47.03,18.54 -73.92,20.79 q -0.58,0.05 -0.53,-0.53"
           id="path2" /><path
           stroke="#808080"
           vector-effect="non-scaling-stroke"
           d="m 123,96.68 q 2.28,-38.95 18.28,-74.47 a 0.33,0.32 12.2 0 0 -0.3,-0.46 H 79.25 q -0.63,0 -0.37,0.58 15.97,35.59 18.26,74.61 a 0.19,0.19 0 0 1 -0.21,0.21 q -39,-2.34 -74.6,-18.27 -0.58,-0.26 -0.58,0.38 v 61.49 q 0,0.75 0.68,0.44 35.43,-15.89 74.26,-18.2 0.46,-0.02 0.43,0.44 -2.35,38.93 -18.28,74.49 -0.26,0.58 0.37,0.58 H 141 q 0.58,0 0.34,-0.53 -16.03,-35.5 -18.34,-74.47 -0.03,-0.52 0.5,-0.49 38.97,2.27 74.49,18.3 0.51,0.24 0.51,-0.33 V 79.21 q 0,-0.65 -0.59,-0.38 -35.54,15.99 -74.48,18.28 -0.46,0.02 -0.43,-0.43"
           id="path3" /></g><path
         fill="#ffffff"
         d="m 44.98,0 h 130.19 c -10.59,23.51 -21.84,45.08 -27.15,71.79 q -0.08,0.37 0.29,0.29 c 26.3,-5.09 48.22,-16.5 71.69,-27.07 v 130.08 c -23.5,-10.62 -46.1,-22.11 -71.64,-27.12 a 0.32,0.32 0 0 0 -0.38,0.38 c 5.01,25.58 16.59,48.07 27.09,71.65 H 45.02 C 55.5,196.55 66.87,174.92 72.01,148.45 q 0.08,-0.4 -0.31,-0.32 -19.88,3.75 -33.78,10.02 -18.79,8.47 -37.92,17 V 44.93 c 23.52,10.53 45.51,22.05 71.74,27.12 q 0.39,0.07 0.31,-0.32 C 66.79,45.06 55.51,23.54 44.98,0 Z m 91.04,83.62 Q 139.3,57.1 149.87,32.55 154.63,21.5 159.49,10.41 159.68,10 159.22,10 H 61 q -0.58,0 -0.35,0.53 c 4.34,9.84 9.55,20.78 12.81,29.65 Q 81.2,61.29 84.11,83.7 84.17,84.18 83.69,84.12 63.38,81.48 44.12,74.85 C 33.72,71.28 21.67,65.57 10.63,60.65 q -0.66,-0.3 -0.66,0.42 l -0.1,98.17 q 0,0.57 0.52,0.34 c 11.06,-4.94 23.1,-10.66 33.5,-14.25 q 19.31,-6.65 39.78,-9.35 a 0.4,0.39 89.5 0 1 0.44,0.44 q -2.87,22.35 -10.66,43.49 c -3.23,8.76 -8.56,19.83 -12.85,29.75 q -0.26,0.59 0.39,0.59 h 98.26 q 0.57,0 0.33,-0.52 c -5.34,-11.87 -11.43,-24.72 -15.14,-36.06 q -5.81,-17.78 -8.44,-36.93 -0.12,-0.81 0.69,-0.7 c 26.2,3.35 47.59,11.58 73.12,23.72 q 0.44,0.21 0.44,-0.28 V 60.99 q 0,-0.64 -0.58,-0.38 c -9.93,4.37 -21.07,9.66 -29.92,12.9 q -20.98,7.7 -43.24,10.59 -0.56,0.07 -0.49,-0.48 z"
         id="path4" /><path
         fill="#000000"
         d="m 136.51,84.1 q 22.26,-2.89 43.24,-10.59 c 8.85,-3.24 19.99,-8.53 29.92,-12.9 q 0.58,-0.26 0.58,0.38 v 98.49 q 0,0.49 -0.44,0.28 c -25.53,-12.14 -46.92,-20.37 -73.12,-23.72 q -0.81,-0.11 -0.69,0.7 2.63,19.15 8.44,36.93 c 3.71,11.34 9.8,24.19 15.14,36.06 q 0.24,0.52 -0.33,0.52 H 60.99 q -0.65,0 -0.39,-0.59 c 4.29,-9.92 9.62,-20.99 12.85,-29.75 q 7.79,-21.14 10.66,-43.49 a 0.4,0.39 89.5 0 0 -0.44,-0.44 q -20.47,2.7 -39.78,9.35 c -10.4,3.59 -22.44,9.31 -33.5,14.25 q -0.52,0.23 -0.52,-0.34 l 0.1,-98.17 q 0,-0.72 0.66,-0.42 c 11.04,4.92 23.09,10.63 33.49,14.2 q 19.26,6.63 39.57,9.27 0.48,0.06 0.42,-0.42 Q 81.2,61.29 73.46,40.18 C 70.2,31.31 64.99,20.37 60.65,10.53 Q 60.42,10 61,10 h 98.22 q 0.46,0 0.27,0.41 -4.86,11.09 -9.62,22.14 -10.57,24.55 -13.85,51.07 -0.07,0.55 0.49,0.48 z m -7.46,6.34 c 2.38,-26.72 10.08,-49.47 20.85,-73.8 A 0.45,0.45 0 0 0 149.49,16 h -78.5 q -1.28,0 -0.71,1.15 17.08,34.62 20.79,73.12 0.09,0.98 -0.89,0.88 Q 58.75,87.82 31.25,76.43 23.77,73.33 16.54,70.13 A 0.38,0.38 0 0 0 16,70.48 v 79.26 q 0,0.5 0.46,0.3 7.76,-3.41 15.59,-6.65 28.12,-11.66 58.5,-14.32 0.58,-0.05 0.53,0.53 -2.72,29.73 -13.98,57.39 -3.36,8.26 -6.89,16.55 -0.2,0.46 0.31,0.46 h 79 q 0.66,0 0.39,-0.6 C 139.3,179.48 131.52,157.27 129.14,129.46 q -0.04,-0.47 0.43,-0.42 c 26.7,2.41 49.53,9.98 73.83,20.86 q 0.6,0.27 0.6,-0.39 V 70.5 q 0,-0.54 -0.5,-0.32 c -24.48,10.77 -47.03,18.54 -73.92,20.79 q -0.58,0.05 -0.53,-0.53 z"
         id="path5" /><path
         fill="#ffffff"
         d="m 129.58,90.97 c 26.89,-2.25 49.44,-10.02 73.92,-20.79 q 0.5,-0.22 0.5,0.32 v 79.01 q 0,0.66 -0.6,0.39 c -24.3,-10.88 -47.13,-18.45 -73.83,-20.86 q -0.47,-0.05 -0.43,0.42 c 2.38,27.81 10.16,50.02 20.77,73.94 q 0.27,0.6 -0.39,0.6 h -79 q -0.51,0 -0.31,-0.46 3.53,-8.29 6.89,-16.55 11.26,-27.66 13.98,-57.39 0.05,-0.58 -0.53,-0.53 -30.38,2.66 -58.5,14.32 -7.83,3.24 -15.59,6.65 -0.46,0.2 -0.46,-0.3 V 70.48 a 0.38,0.38 0 0 1 0.54,-0.35 q 7.23,3.2 14.71,6.3 27.5,11.39 58.93,14.72 0.98,0.1 0.89,-0.88 Q 87.36,51.77 70.28,17.15 69.71,16 70.99,16 h 78.5 a 0.45,0.45 0 0 1 0.41,0.64 c -10.77,24.33 -18.47,47.08 -20.85,73.8 q -0.05,0.58 0.53,0.53 z M 123,96.68 q 2.28,-38.95 18.28,-74.47 a 0.33,0.32 12.2 0 0 -0.3,-0.46 H 79.25 q -0.63,0 -0.37,0.58 15.97,35.59 18.26,74.61 a 0.19,0.19 0 0 1 -0.21,0.21 q -39,-2.34 -74.6,-18.27 -0.58,-0.26 -0.58,0.38 v 61.49 q 0,0.75 0.68,0.44 35.43,-15.89 74.26,-18.2 0.46,-0.02 0.43,0.44 -2.35,38.93 -18.28,74.49 -0.26,0.58 0.37,0.58 H 141 q 0.58,0 0.34,-0.53 -16.03,-35.5 -18.34,-74.47 -0.03,-0.52 0.5,-0.49 38.97,2.27 74.49,18.3 0.51,0.24 0.51,-0.33 V 79.21 q 0,-0.65 -0.59,-0.38 -35.54,15.99 -74.48,18.28 -0.46,0.02 -0.43,-0.43 z"
         id="path6" /><path
         fill="#000000"
         d="m 123.43,97.11 q 38.94,-2.29 74.48,-18.28 0.59,-0.27 0.59,0.38 v 61.77 q 0,0.57 -0.51,0.33 -35.52,-16.03 -74.49,-18.3 -0.53,-0.03 -0.5,0.49 2.31,38.97 18.34,74.47 0.24,0.53 -0.34,0.53 H 79.21 q -0.63,0 -0.37,-0.58 15.93,-35.56 18.28,-74.49 0.03,-0.46 -0.43,-0.44 -38.83,2.31 -74.26,18.2 -0.68,0.31 -0.68,-0.44 V 79.26 q 0,-0.64 0.58,-0.38 35.6,15.93 74.6,18.27 a 0.19,0.19 0 0 0 0.21,-0.21 Q 94.85,57.92 78.88,22.33 78.62,21.75 79.25,21.75 h 61.73 a 0.33,0.32 12.2 0 1 0.3,0.46 q -16,35.52 -18.28,74.47 -0.03,0.45 0.43,0.43 z"
         id="path7" /></g><path
       style="fill:#4d4d4d;fill-opacity:1;stroke:#4d4d4d;stroke-width:0.786;stroke-dasharray:none;stroke-opacity:1"
       d="m 60.442809,147.1224 c 0.179393,-0.41321 1.220021,-2.70026 2.312504,-5.08233 4.28077,-9.33383 6.073385,-13.63815 7.795911,-18.71905 1.594997,-4.70473 3.328952,-11.38736 3.006425,-11.58669 -0.192451,-0.11894 -4.739945,0.86931 -7.612252,1.65427 -5.278082,1.44244 -6.178448,1.80946 -23.60738,9.62339 l -4.949747,2.21913 -0.04511,-16.34426 c -0.02481,-8.989346 -0.02481,-23.699601 0,-32.689461 l 0.04511,-16.345199 2.916815,1.335106 c 14.355779,6.571033 19.086693,8.49683 25.544232,10.398201 3.285333,0.967342 7.625717,1.988202 7.783285,1.830634 C 73.752043,73.2967 72.788884,69.131451 72.010925,66.403088 70.16421,59.926504 68.039246,54.611305 62.071916,41.542522 l -1.93723,-4.24264 32.540597,-0.04467 c 17.897327,-0.02457 32.572227,-0.01303 32.610887,0.02563 0.0387,0.03866 -1.31809,3.121417 -3.01501,6.850568 -3.51703,7.729016 -4.58614,10.224662 -6.087,14.208972 -1.79239,4.758208 -3.14583,9.250788 -4.09386,13.589052 l -0.34033,1.55736 0.82614,-0.122672 c 1.80582,-0.268142 6.68516,-1.597369 10.37208,-2.825555 5.69829,-1.898214 10.05128,-3.715147 21.30159,-8.891266 l 3.8007,-1.748652 0.0451,16.321974 c 0.0248,8.977086 0.0248,23.669653 0,32.650147 l -0.0451,16.32818 -3.62392,-1.66805 c -14.29141,-6.5782 -21.13064,-9.22593 -28.63628,-11.08623 -3.81463,-0.94547 -4.10985,-0.976 -3.98849,-0.41244 1.89151,8.78366 4.17754,15.05614 10.86159,29.80243 1.46921,3.24135 2.67129,5.92615 2.67129,5.96621 0,0.0401 -14.67405,0.0728 -32.609013,0.0728 H 60.116638 Z m 57.290471,-4.24776 c 0,-0.12436 -0.99788,-2.45118 -2.2175,-5.17072 -4.57125,-10.19307 -6.38682,-15.41492 -8.11326,-23.33487 -0.5122,-2.34971 -1.51328,-7.92605 -1.51328,-8.42949 0,-0.65356 10.33401,1.43778 16.34634,3.30808 5.07525,1.5788 12.48708,4.53291 18.36498,7.31969 1.25003,0.59266 2.38362,1.07756 2.51907,1.07756 0.20934,0 0.24627,-3.75007 0.24627,-25.013904 0,-22.778675 -0.0252,-25.013902 -0.28196,-25.013902 -0.15507,0 -2.68366,1.067786 -5.61909,2.372856 -9.2784,4.125118 -13.35109,5.591284 -20.35029,7.326109 -3.43772,0.85207 -10.99381,2.245522 -11.18683,2.063005 -0.0921,-0.0871 0.68917,-4.930634 1.211,-7.507577 0.67801,-3.348239 1.56914,-6.711806 2.67269,-10.088024 1.25839,-3.849931 2.07688,-5.915575 5.20068,-13.12502 1.50701,-3.478031 2.69131,-6.402504 2.63177,-6.49883 -0.13168,-0.213077 -49.383377,-0.241516 -49.71857,-0.02871 -0.165119,0.10483 0.235807,1.158819 1.562395,4.107352 5.651918,12.562222 7.863955,19.351635 9.527256,29.242054 0.695591,4.136164 0.700682,3.982996 -0.128353,3.861225 -6.956689,-1.021815 -13.060689,-2.484586 -19.312853,-4.62816 -3.024918,-1.037103 -6.427646,-2.442927 -12.421801,-5.132019 -2.408154,-1.080344 -4.496329,-1.964261 -4.640388,-1.964261 -0.230151,0 -0.261927,3.034632 -0.261927,25.013902 0,13.757644 0.03832,25.013904 0.08515,25.013904 0.04683,0 2.055457,-0.88345 4.463611,-1.96322 5.716502,-2.56316 8.73555,-3.8454 11.119031,-4.72246 5.766932,-2.12206 13.11863,-3.99364 19.466575,-4.95577 l 2.165515,-0.32822 v 0.3783 c 0,0.60676 -0.843632,5.5768 -1.330301,7.83712 -1.731634,8.04251 -3.540975,13.27951 -8.194357,23.7179 -1.275659,2.86155 -2.31938,5.26792 -2.31938,5.3475 0,0.0796 11.256255,0.14469 25.013901,0.14469 20.195706,0 25.013906,-0.0436 25.013906,-0.22609 z"
       id="path92"
       transform="scale(0.26458334)" /><rect
       style="fill:#333333;fill-opacity:1;stroke:#4d4d4d;stroke-width:0.245455;stroke-dasharray:none;stroke-opacity:0"
       id="rect92"
       width="0.94472331"
       height="22.693781"
       x="39.073505"
       y="14.331029"
       rx="0.50779653"
       ry="0.47419843" /></g></svg>
