<?xml version="1.0" encoding="UTF-8" standalone="no"?>
<!-- Created with Inkscape (http://www.inkscape.org/) -->

<svg
   width="185"
   height="185"
   viewBox="0 0 48.947917 48.947917"
   version="1.1"
   id="svg5"
   inkscape:version="1.3 (0e150ed6c4, 2023-07-21)"
   sodipodi:docname="aegis_crate.svg"
   inkscape:export-filename="aegis_crate.png"
   inkscape:export-xdpi="518.91895"
   inkscape:export-ydpi="518.91895"
   xml:space="preserve"
   xmlns:inkscape="http://www.inkscape.org/namespaces/inkscape"
   xmlns:sodipodi="http://sodipodi.sourceforge.net/DTD/sodipodi-0.dtd"
   xmlns="http://www.w3.org/2000/svg"
   xmlns:svg="http://www.w3.org/2000/svg"><sodipodi:namedview
     id="namedview7"
     pagecolor="#505050"
     bordercolor="#000000"
     borderopacity="0.25"
     inkscape:showpageshadow="2"
     inkscape:pageopacity="0"
     inkscape:pagecheckerboard="true"
     inkscape:deskcolor="#d1d1d1"
     inkscape:document-units="px"
     showgrid="false"
     inkscape:zoom="1.4142136"
     inkscape:cx="-10.960155"
     inkscape:cy="-35.001786"
     inkscape:window-width="1920"
     inkscape:window-height="1017"
     inkscape:window-x="-8"
     inkscape:window-y="-8"
     inkscape:window-maximized="1"
     inkscape:current-layer="layer1"
     inkscape:pageshadow="0"
     showguides="false"
     units="px" /><defs
     id="defs2"><inkscape:path-effect
       effect="powerclip"
       id="path-effect4114"
       is_visible="true"
       lpeversion="1"
       inverse="true"
       flatten="false"
       hide_clip="false"
       message="Use fill-rule evenodd on &lt;b&gt;fill and stroke&lt;/b&gt; dialog if no flatten result after convert clip to paths." /><clipPath
       clipPathUnits="userSpaceOnUse"
       id="clipPath4110"><rect
         style="display:block;fill:none;fill-opacity:1;stroke:#3a2d13;stroke-width:1.02985;stroke-linecap:butt;stroke-linejoin:miter;stroke-miterlimit:4;stroke-dasharray:none;stroke-opacity:1"
         id="rect4112"
         width="15.870146"
         height="15.870145"
         x="4.5149274"
         y="4.5149274" /></clipPath><filter
       style="color-interpolation-filters:sRGB"
       inkscape:label="Drop Shadow"
       id="filter2260"
       x="-0.05795718"
       y="-0.42500001"
       width="1.1329606"
       height="1.975"><feFlood
         flood-opacity="0.498039"
         flood-color="rgb(0,0,0)"
         result="flood"
         id="feFlood2250" /><feComposite
         in="flood"
         in2="SourceGraphic"
         operator="in"
         result="composite1"
         id="feComposite2252" /><feGaussianBlur
         in="composite1"
         stdDeviation="0.5"
         result="blur"
         id="feGaussianBlur2254" /><feOffset
         dx="0.5"
         dy="0.5"
         result="offset"
         id="feOffset2256" /><feComposite
         in="SourceGraphic"
         in2="offset"
         operator="over"
         result="composite2"
         id="feComposite2258" /></filter><inkscape:path-effect
       effect="bspline"
       id="path-effect437"
       is_visible="true"
       lpeversion="1"
       weight="33.333333"
       steps="2"
       helper_size="0"
       apply_no_weight="true"
       apply_with_weight="true"
       only_selected="false" /><inkscape:path-effect
       effect="bspline"
       id="path-effect445"
       is_visible="true"
       lpeversion="1"
       weight="33.333333"
       steps="2"
       helper_size="0"
       apply_no_weight="true"
       apply_with_weight="true"
       only_selected="false" /><inkscape:path-effect
       effect="bspline"
       id="path-effect433"
       is_visible="true"
       lpeversion="1"
       weight="33.333333"
       steps="2"
       helper_size="0"
       apply_no_weight="true"
       apply_with_weight="true"
       only_selected="false" /><inkscape:path-effect
       effect="bspline"
       id="path-effect362"
       is_visible="true"
       lpeversion="1"
       weight="33.333333"
       steps="2"
       helper_size="0"
       apply_no_weight="true"
       apply_with_weight="true"
       only_selected="false" /></defs><g
     inkscape:label="Layer 1"
     inkscape:groupmode="layer"
     id="layer1"><circle
       style="fill:#6e460b;fill-opacity:0;stroke:#31220c;stroke-width:0;stroke-dasharray:none;stroke-opacity:1;paint-order:fill markers stroke"
       id="path22979"
       cx="23.757933"
       cy="114.93194"
       r="4.4693141" /><rect
       style="fill:#d96300;fill-opacity:1;stroke:none;stroke-width:1.5658;stroke-linecap:butt;stroke-linejoin:miter;stroke-miterlimit:4;stroke-dasharray:none;stroke-opacity:1"
       id="rect4220"
       width="33.151886"
       height="33.151886"
       x="7.8470125"
       y="7.8470125" /><path
       id="rect938"
       style="fill:#2687d9;stroke-width:0;stroke-linecap:round;fill-opacity:1"
       d="M 0.98120935,0.98121161 V 47.966706 H 47.966708 V 0.98121161 Z M 8.9084276,8.90843 H 40.039488 V 40.039488 H 8.9084276 Z" /><rect
       style="fill:none;fill-opacity:1;stroke:none;stroke-width:1.96165;stroke-linecap:butt;stroke-linejoin:bevel;stroke-miterlimit:4;stroke-dasharray:none;stroke-opacity:1"
       id="rect2620"
       width="33.151886"
       height="33.151886"
       x="7.8470125"
       y="7.8470125" /><circle
       style="fill:#808080;fill-opacity:1;stroke:#2e2e2e;stroke-width:0.980823;stroke-linecap:round;stroke-linejoin:round;stroke-opacity:1"
       id="path851"
       cx="5.0555"
       cy="5.0555"
       r="1.6222014" /><circle
       style="fill:#808080;fill-opacity:1;stroke:#2e2e2e;stroke-width:0.980823;stroke-linecap:round;stroke-linejoin:round;stroke-opacity:1"
       id="path851-3"
       cx="43.892246"
       cy="5.0555"
       r="1.6222014" /><circle
       style="fill:#808080;fill-opacity:1;stroke:#2e2e2e;stroke-width:0.980823;stroke-linecap:round;stroke-linejoin:round;stroke-opacity:1"
       id="path851-6"
       cx="5.0555"
       cy="43.892246"
       r="1.6222014" /><circle
       style="fill:#808080;fill-opacity:1;stroke:#2e2e2e;stroke-width:0.980823;stroke-linecap:round;stroke-linejoin:round;stroke-opacity:1"
       id="path851-7"
       cx="43.892246"
       cy="43.892246"
       r="1.6222014" /><rect
       style="fill:#002f55;fill-opacity:1;stroke:#1b5e98;stroke-width:1.96165;stroke-linecap:butt;stroke-linejoin:miter;stroke-miterlimit:4;stroke-dasharray:none;stroke-opacity:1"
       id="rect3681-5"
       width="31.131674"
       height="31.131672"
       x="8.9081182"
       y="8.908123" /><rect
       style="fill:none;fill-opacity:1;stroke:#1b5e98;stroke-width:1.96165;stroke-linecap:round;stroke-linejoin:round;stroke-miterlimit:4;stroke-dasharray:none;stroke-opacity:1"
       id="rect2330"
       width="46.986267"
       height="46.986267"
       x="0.98082507"
       y="0.98082507" /><path
       style="fill:none;stroke:#1b5e98;stroke-width:1.96165;stroke-linecap:butt;stroke-linejoin:miter;stroke-miterlimit:4;stroke-dasharray:none;stroke-opacity:1"
       d="m 40.039794,8.9081228 h 7.8466"
       id="path5886" /><path
       style="fill:none;stroke:#1b5e98;stroke-width:1.96165;stroke-linecap:butt;stroke-linejoin:miter;stroke-miterlimit:4;stroke-dasharray:none;stroke-opacity:1"
       d="m 40.039794,40.039794 h 7.8466"
       id="path5886-3" /><path
       style="fill:none;stroke:#1b5e98;stroke-width:1.96165;stroke-linecap:butt;stroke-linejoin:miter;stroke-miterlimit:4;stroke-dasharray:none;stroke-opacity:1"
       d="M 1.0615177,40.039794 H 8.9081181"
       id="path5886-6" /><path
       style="fill:none;stroke:#1b5e98;stroke-width:1.96165;stroke-linecap:butt;stroke-linejoin:miter;stroke-miterlimit:4;stroke-dasharray:none;stroke-opacity:1"
       d="M 1.0615177,8.9081228 H 8.9081181"
       id="path5886-7" /><path
       style="fill:#002f55;fill-opacity:1;stroke:#4d4d4d;stroke-width:0.277893;stroke-opacity:0"
       d="M 7.4246212,92.449244 V 37.28995 l 11.2253198,0.09336 11.22532,0.09335 0.0895,55.065941 0.0895,55.065939 H 18.739438 7.4246212 Z"
       id="path1"
       transform="scale(0.26458334)" /><path
       style="fill:#002f55;fill-opacity:1;stroke:#4d4d4d;stroke-width:0.277893;stroke-opacity:0"
       d="M 7.4246212,18.73833 V 7.6013979 H 92.454212 177.4838 V 18.73833 29.875261 H 92.454212 7.4246212 Z M 22.45064,26.375136 c 1.881879,-0.873157 3.558819,-2.693443 4.227604,-4.588982 1.013549,-2.872705 0.504492,-5.500961 -1.5246,-7.871499 -4.458396,-5.2086325 -12.737484,-2.82665 -14.02475,4.035072 -0.582597,3.105507 1.567977,7.060114 4.584501,8.430261 1.870671,0.849684 4.900202,0.847502 6.737245,-0.0049 z m 147.60882,-0.47735 c 6.94574,-4.170784 3.90168,-14.760854 -4.24292,-14.760854 -7.21356,0 -10.68481,8.8684 -5.42407,13.857467 1.47026,1.394337 3.20217,2.022962 5.61649,2.038597 1.79689,0.01164 2.44147,-0.169016 4.0505,-1.13521 z"
       id="path2"
       transform="scale(0.26458334)" /><path
       style="fill:#002f55;fill-opacity:1;stroke:#4d4d4d;stroke-width:0.277893;stroke-opacity:0"
       d="M 155.20994,92.454212 V 37.299883 h 11.13693 11.13693 v 55.154329 55.154328 h -11.13693 -11.13693 z"
       id="path3"
       transform="scale(0.26458334)" /><path
       style="fill:#002f55;fill-opacity:1;stroke:#4d4d4d;stroke-width:0.277893;stroke-opacity:0"
       d="M 7.4246212,166.34687 V 155.03316 H 92.454212 177.4838 v 11.31371 11.31371 H 92.454212 7.4246212 Z m 15.1393148,6.8056 c 3.860598,-1.79505 5.623487,-6.37862 3.949717,-10.2694 -1.311738,-3.04922 -4.122043,-5.02345 -7.145249,-5.01951 -4.387387,0.006 -7.687372,2.87628 -8.280399,7.20288 -0.516796,3.77044 2.396364,7.73976 6.412888,8.73786 1.34717,0.33477 3.551533,0.051 5.063043,-0.65183 z M 167.549,173.74603 c 6.01314,-1.28958 8.43067,-8.60223 4.34281,-13.1363 -4.01364,-4.45175 -10.61491,-3.3766 -13.51754,2.20161 -0.69442,1.33451 -0.60485,4.89779 0.15997,6.36396 1.2548,2.40545 3.25006,4.02483 5.69131,4.61915 1.50338,0.36599 1.38295,0.36775 3.32345,-0.0484 z"
       id="path4"
       transform="scale(0.26458334)" /><path
       style="fill:#001433;fill-opacity:1;stroke:#4d4d4d;stroke-width:0.277893;stroke-opacity:0"
       d="M 2.2325888,184.56772 C -0.19158553,183.51338 0,191.41842 0,92.448526 0,27.234272 0.10713202,2.7492318 0.39493328,2.1864656 0.61214658,1.761727 1.1292184,1.139328 1.5439818,0.80335667 2.2540303,0.22819524 7.5703824,0.19204041 92.522886,0.18463824 l 90.224784,-0.007862 0.99199,0.85326146 0.99199,0.8532616 0.0904,90.2456817 c 0.082,81.836099 0.0383,90.325309 -0.46944,91.100149 -1.29247,1.97257 4.46648,1.85722 -91.975451,1.84223 -75.05408,-0.0117 -89.1950839,-0.0907 -90.1445902,-0.50364 z M 177.4838,166.34687 V 155.03316 H 92.454212 7.4246212 v 11.31371 11.31371 H 92.454212 177.4838 Z M 29.987789,92.814875 C 29.901311,62.678359 29.708139,37.898685 29.558518,37.748934 29.408897,37.599183 24.367562,37.421512 18.355551,37.354111 L 7.4246212,37.231566 v 55.188485 55.188489 h 11.3601998 11.3602 z M 147.78532,92.454212 V 37.299883 H 92.630988 37.476659 v 55.154329 55.154328 h 55.154329 55.154332 z m 29.69848,-0.005 V 37.289951 l -11.22532,0.09335 -11.22532,0.09335 -0.0895,55.065941 -0.0895,55.065938 h 11.31482 11.31481 z m 0,-73.887691 V 7.2478445 H 92.454212 7.4246212 V 18.561553 29.875261 H 92.454212 177.4838 Z"
       id="path5"
       transform="scale(0.26458334)" /><g
       id="g5"
       transform="matrix(0.08164199,0,0,0.08164199,9.7896225,9.7895834)"><g
         stroke-width="2"
         fill="none"
         stroke-linecap="butt"
         id="g58"><path
           stroke="#808cb4"
           vector-effect="non-scaling-stroke"
           d="m 360,177.03 -82.54,-0.02 a 0.71,0.71 0 0 0 -0.71,0.71 v 4.31 a 0.95,0.95 0 0 0 0.95,0.95 l 82.3,-0.06"
           id="path1-7" /><path
           stroke="#808cb4"
           vector-effect="non-scaling-stroke"
           d="m 0,182.97 83.47,0.02 q 0.45,0 0.47,-0.45 l 0.21,-4.89 a 0.61,0.6 -88.6 0 0 -0.6,-0.64 L 0,177.05"
           id="path2-8" /><path
           stroke="#808cb4"
           vector-effect="non-scaling-stroke"
           d="m 132.06,106.59 q -2.14,2.47 -5.01,3.85"
           id="path3-6" /><path
           stroke="#000d3a"
           vector-effect="non-scaling-stroke"
           d="m 127.05,110.44 q -6.37,2.84 -10.59,9.04 c -1.5,2.21 -4.38,3.99 -6.08,6.22 -12.5,16.26 -19.07,35.48 -18.58,56.01 q 0.23,9.85 1.38,15.85 3.06,16 14.03,32.48 0.8,1.19 2.05,0.96"
           id="path4-2" /><path
           stroke="#808cb4"
           vector-effect="non-scaling-stroke"
           d="m 109.26,231 q 11.16,14.73 27,24.94"
           id="path5-0" /><path
           stroke="#000d3a"
           vector-effect="non-scaling-stroke"
           d="m 136.26,255.94 q 12.56,9.14 28.75,11.51 0.76,0.11 0.43,-1.14"
           id="path6" /><path
           stroke="#808cb4"
           vector-effect="non-scaling-stroke"
           d="m 165.44,266.31 q 17.98,2.82 35.46,-1.16"
           id="path7" /><path
           stroke="#03114d"
           vector-effect="non-scaling-stroke"
           d="m 200.9,265.15 q 0.99,1.39 3.38,0.68 13.57,-4.04 26.01,-12.31 0.48,-0.32 0.72,-0.73 0.59,-1.04 -0.25,-1.12"
           id="path8" /><path
           stroke="#808cb4"
           vector-effect="non-scaling-stroke"
           d="m 230.76,251.67 q 16.45,-11.66 26.48,-29.49"
           id="path9" /><path
           stroke="#000d3a"
           vector-effect="non-scaling-stroke"
           d="m 257.24,222.18 q 0.45,0.07 1.09,-0.23 a 1.6,1.57 -87.9 0 0 0.72,-0.68 c 11.72,-21.7 13.57,-47.91 4.94,-71.02 q -0.33,-0.88 -1.44,-0.98"
           id="path10" /><path
           stroke="#808cb4"
           vector-effect="non-scaling-stroke"
           d="M 262.55,149.27 Q 244.91,106.1 199.44,94.36"
           id="path11" /><path
           stroke="#000d3a"
           vector-effect="non-scaling-stroke"
           d="m 199.44,94.36 q -0.15,-0.91 -1.2,-1.14 -13.36,-2.87 -25.78,-1.58 c -2.97,0.31 -6.1,0.23 -8.89,0.83 q -17.49,3.78 -31.51,14.12"
           id="path12" /><path
           stroke="#808085"
           vector-effect="non-scaling-stroke"
           d="m 199.44,94.36 q -35.57,-7.05 -67.38,12.23"
           id="path13" /><path
           stroke="#808085"
           vector-effect="non-scaling-stroke"
           d="m 262.55,149.27 q 13.31,37.86 -5.31,72.91"
           id="path14" /><path
           stroke="#828498"
           vector-effect="non-scaling-stroke"
           d="m 230.76,251.67 q -13.58,9.61 -29.86,13.48"
           id="path15" /><path
           stroke="#808085"
           vector-effect="non-scaling-stroke"
           d="m 165.44,266.31 q -14.99,-2.88 -29.18,-10.37"
           id="path16" /><path
           stroke="#808085"
           vector-effect="non-scaling-stroke"
           d="M 109.26,231 C 81.52,191.35 90,140.78 127.05,110.44"
           id="path17" /><path
           stroke="#000d3a"
           vector-effect="non-scaling-stroke"
           d="m 153.35,277.33 c -9.87,6.19 -0.5,26.6 4.82,22.45"
           id="path18" /><path
           stroke="#808cb4"
           vector-effect="non-scaling-stroke"
           d="m 158.17,299.78 c 19.14,3.63 14.4,-36.54 -4.82,-22.45"
           id="path19" /><path
           stroke="#808085"
           vector-effect="non-scaling-stroke"
           d="m 158.17,299.78 c -9.48,-3.23 -9.02,-15.31 -4.82,-22.45"
           id="path20" /><path
           stroke="#808cb4"
           vector-effect="non-scaling-stroke"
           d="m 180,289.8 a 0.3,0.3 0 0 1 0.3,-0.3 h 7.4 a 0.3,0.3 0 0 0 0.3,-0.3 v -4.4 a 0.3,0.3 0 0 0 -0.3,-0.3 h -7.4 a 0.3,0.3 0 0 1 -0.3,-0.3 v -3.9 a 0.3,0.3 0 0 1 0.3,-0.3 h 8.65 a 0.3,0.3 0 0 0 0.3,-0.3 v -4.4 a 0.3,0.3 0 0 0 -0.3,-0.3 h -13.64 a 0.3,0.3 0 0 0 -0.3,0.3 l -0.03,23.92 a 0.3,0.3 0 0 0 0.3,0.3 l 4.42,-0.03 a 0.3,0.3 0 0 0 0.3,-0.3 v -9.39"
           id="path21" /><path
           stroke="#808cb4"
           vector-effect="non-scaling-stroke"
           d="m 198.75,287.23 a 0.39,0.38 -58 0 1 0.73,-0.17 l 5.83,12.03 a 0.73,0.7 -12.2 0 0 0.65,0.4 l 3.74,0.02 q 0.39,0.01 0.42,-0.38 c 0.72,-7.93 -0.24,-15.31 0.33,-23.63 q 0.04,-0.5 -0.46,-0.5 h -3.75 q -0.52,0 -0.51,0.51 l 0.07,12.1 a 0.36,0.36 0 0 1 -0.69,0.16 l -6.1,-12.28 q -0.24,-0.48 -0.77,-0.48 l -3.61,-0.02 q -0.63,0 -0.63,0.63 V 299 q 0,0.5 0.5,0.5 h 3.75 q 0.5,0 0.5,-0.5 v -11.77"
           id="path22" /><path
           stroke="#808cb4"
           vector-effect="non-scaling-stroke"
           d="m 129.65,118.32 c -32.58,27.21 -38.55,74.81 -13.31,109.4 q 0.32,0.44 0.81,0.21 l 30.64,-14.15 q 0.39,-0.18 0.55,-0.57 6.17,-14.79 13.42,-29.11 c 1.12,-2.23 2.28,-2.18 4.55,-2.26 q 9.46,-0.32 19.91,0.38 a 2.24,2.24 0 0 1 2.09,2.15 l 0.75,20.3 q 0.02,0.69 -0.66,0.83 c -7.81,1.55 -9.35,-4.26 -10.6,-10.32 a 0.67,0.66 81.4 0 0 -0.72,-0.54 l -5.14,0.44 a 0.68,0.67 85.3 0 0 -0.61,0.73 q 1.33,16.85 -10.72,28.05 a 0.66,0.66 0 0 0 0.38,1.14 c 1.97,0.2 7.87,-2.98 10.25,-3.91 a 1.36,1.36 0 0 1 1.77,0.77 q 1.3,3.33 1.25,6.95 a 2.28,2.28 0 0 0 1.7,2.23 l 10.54,2.78 a 1,1 0 0 1 0.29,1.81 l -0.28,0.18"
           id="path23" /><path
           stroke="#828498"
           vector-effect="non-scaling-stroke"
           d="m 186.51,235.81 c -6.63,2.61 -17.31,2.3 -24.2,2.57 a 8.26,8.25 27.5 0 0 -4.11,1.29 l -15.77,10.05 a 0.37,0.36 -49.6 0 0 0.05,0.64 l 7.71,3.43"
           id="path24" /><path
           stroke="#808cb4"
           vector-effect="non-scaling-stroke"
           d="m 150.19,253.79 q 5.91,2.76 12.31,3.88"
           id="path25" /><path
           stroke="#808085"
           vector-effect="non-scaling-stroke"
           d="m 162.5,257.67 c 28.78,7.28 58.87,-3.33 78.15,-25.35"
           id="path26" /><path
           stroke="#808cb4"
           vector-effect="non-scaling-stroke"
           d="m 240.65,232.32 q 5,-5.28 9,-12.25"
           id="path27" /><path
           stroke="#808085"
           vector-effect="non-scaling-stroke"
           d="m 249.65,220.07 c 18.31,-33.51 12.8,-74.07 -16.11,-99.6"
           id="path28" /><path
           stroke="#808cb4"
           vector-effect="non-scaling-stroke"
           d="m 233.54,120.47 q -1.28,-1.7 -2.89,-2.16"
           id="path29" /><path
           stroke="#828498"
           vector-effect="non-scaling-stroke"
           d="M 230.65,118.31 Q 208.47,99.72 180,100 q -27.76,0.27 -50.35,18.32"
           id="path30" /><path
           stroke="#03114d"
           vector-effect="non-scaling-stroke"
           d="m 230.65,118.31 q -19.36,-12.93 -40.99,-16.4 -5.17,-0.83 -11.24,-0.18 -0.51,0.06 -0.57,0.58 -0.58,5.06 0.73,10.72 0.2,0.87 -0.62,0.78"
           id="path31" /><path
           stroke="#828498"
           vector-effect="non-scaling-stroke"
           d="m 177.96,113.81 c -2.32,-2.47 -2.01,-7.92 -1.96,-11.05 a 0.32,0.32 0 0 0 -0.55,-0.23 c -7.61,7.57 -5.56,13.81 -2.08,23.33 q 2.66,7.3 3.17,14.78 0.14,2.14 1.25,0.3 3.26,-5.37 4.48,-11.46 0.16,-0.83 0.52,-0.07 c 1.88,4.05 0.27,10.97 -0.6,15.15 a 0.43,0.42 73.2 0 0 0.72,0.39 c 6.57,-6.75 10.39,-14.84 4.07,-24"
           id="path32" /><path
           stroke="#03114d"
           vector-effect="non-scaling-stroke"
           d="m 186.98,120.95 q 3.85,1.41 5.58,8.08"
           id="path33" /><path
           stroke="#828498"
           vector-effect="non-scaling-stroke"
           d="m 192.56,129.03 c -0.48,2.64 -0.21,5.6 -1.22,7.88 -1.5,3.39 -6.15,11.45 -10.66,11.53 a 1.25,1.24 -23.8 0 1 -0.88,-0.34 q -6.4,-5.82 -9,-13.85 c -1.24,-3.83 -0.82,-8.87 -1.2,-13.25 a 0.58,0.58 0 0 0 -1.11,-0.19 c -1.26,2.81 -3.09,5.88 -3.86,8.6 -2.5,8.78 1.17,13.01 6.45,19.25 q 0.5,0.6 -0.28,0.57 l -7.21,-0.25"
           id="path34" /><path
           stroke="#03114d"
           vector-effect="non-scaling-stroke"
           d="m 163.59,148.98 3.43,-1.23 q 0.59,-0.21 0.3,-0.76 c -1.19,-2.27 -2.96,-4.26 -3.63,-6.58 q -2.42,-8.3 1.45,-16.13 c 0.48,-0.97 1.38,-1.77 1.82,-2.93 q 0.17,-0.45 0.53,-0.76 1.65,-1.41 1.4,-3.79 -0.8,-7.61 3.84,-13.2 a 0.79,0.79 0 0 0 -0.61,-1.29 c -13.82,0.11 -29.22,7.52 -40.09,15.59 -0.71,0.52 -1.59,0.65 -2.38,0.42"
           id="path35" /><path
           stroke="#000d3a"
           vector-effect="non-scaling-stroke"
           d="m 233.54,120.47 q 1.75,3.41 4.75,6.17 2.64,2.42 3.89,4.22 c 2.52,3.62 5.44,7.4 7.36,11.15 12.29,23.98 13.03,52.15 -0.04,76.02 -0.44,0.79 -0.29,1.33 0.15,2.04"
           id="path36" /><path
           stroke="#000d3a"
           vector-effect="non-scaling-stroke"
           d="m 240.65,232.32 q -4.48,3.06 -8.47,6.71 c -10.4,9.52 -23.07,15.28 -36.77,18.32 -4.64,1.04 -9.65,1.06 -14.6,1.42 -2.58,0.2 -4.9,-0.45 -7.55,-0.56 q -1.92,-0.08 -5.31,-0.64 -2.87,-0.48 -5.45,0.1"
           id="path37" /><path
           stroke="#03114d"
           vector-effect="non-scaling-stroke"
           d="m 150.19,253.79 q -1.15,-2.14 -3.05,-2.97 -2.57,-1.12 -0.18,-2.6 5.12,-3.17 9.95,-6.39 c 4.66,-3.12 13.33,-2.69 18.63,-2.19"
           id="path38" /><path
           stroke="#808cb4"
           vector-effect="non-scaling-stroke"
           d="m 175.54,239.64 c 1.01,2.86 -2.16,4.24 -3.65,6.3 q -0.34,0.47 0.07,0.88 l 8.71,8.84"
           id="path39" /><path
           stroke="#000d3a"
           vector-effect="non-scaling-stroke"
           d="m 180.67,255.66 q 5.01,-3.36 8.67,-8.55 a 1.54,1.53 -42.5 0 0 0.08,-1.64 q -2.01,-3.55 -4.11,-3.16"
           id="path40" /><path
           stroke="#808cb4"
           vector-effect="non-scaling-stroke"
           d="m 185.31,242.31 q -0.84,-0.43 -0.17,-3.97"
           id="path41" /><path
           stroke="#03114d"
           vector-effect="non-scaling-stroke"
           d="m 185.14,238.34 q 1.41,-0.94 1.37,-2.53"
           id="path42" /><path
           stroke="#808cb4"
           vector-effect="non-scaling-stroke"
           d="m 163.59,148.98 0.74,2.1"
           id="path43" /><path
           stroke="#03114d"
           vector-effect="non-scaling-stroke"
           d="m 164.33,151.08 q -1.34,1.35 -0.54,2.88 1.95,3.73 3.65,7.68 0.2,0.48 -0.26,0.72 -1.69,0.89 -1.22,2.49"
           id="path44" /><path
           stroke="#808cb4"
           vector-effect="non-scaling-stroke"
           d="m 165.96,164.85 0.07,6.67 q 0.01,0.48 0.48,0.48 h 4.69 a 0.68,0.68 0 0 1 0.68,0.7 l -0.18,5.98 a 1.41,1.41 0 0 0 1.55,1.45 q 7.74,-0.76 15.24,1.26 0.51,0.13 0.51,-0.4 v -8.49 q 0,-0.5 0.5,-0.5 h 4.32 q 0.65,0 0.64,-0.65 l -0.15,-6.52"
           id="path45" /><path
           stroke="#03114d"
           vector-effect="non-scaling-stroke"
           d="m 194.31,164.83 c -2.04,-4.44 1.9,-8.05 3.25,-12.36 a 0.57,0.57 0 0 0 -0.33,-0.7 q -0.27,-0.1 -0.56,-0.07"
           id="path46" /><path
           stroke="#808cb4"
           vector-effect="non-scaling-stroke"
           d="m 196.67,151.7 0.79,-1.82 a 0.45,0.45 0 0 0 -0.41,-0.63 H 192 a 0.4,0.4 0 0 1 -0.25,-0.71 q 10.41,-8.69 0.81,-19.51"
           id="path47" /><path
           stroke="#808cb4"
           vector-effect="non-scaling-stroke"
           d="m 186.98,120.95 -9.02,-7.14"
           id="path48" /><path
           stroke="#828498"
           vector-effect="non-scaling-stroke"
           d="m 196.67,151.7 -5.3,10.59 a 1.27,1.27 0 0 1 -1.14,0.71 h -19.47 a 0.84,0.83 76.9 0 1 -0.75,-0.47 l -5.68,-11.45"
           id="path49" /><path
           stroke="#828498"
           vector-effect="non-scaling-stroke"
           d="m 194.31,164.83 -28.35,0.02"
           id="path50" /><path
           stroke="#828498"
           vector-effect="non-scaling-stroke"
           d="m 185.14,238.34 -9.6,1.3"
           id="path51" /><path
           stroke="#808085"
           vector-effect="non-scaling-stroke"
           d="m 185.31,242.31 3.63,3.55 a 0.63,0.63 0 0 1 0.02,0.88 l -8.29,8.92"
           id="path52" /><path
           stroke="#808085"
           vector-effect="non-scaling-stroke"
           d="m 151.92,231.64 2.87,1.81 a 0.35,0.34 0.5 0 0 0.48,-0.47 q -2.83,-4.74 -3.45,-10.26 a 0.36,0.36 0 0 0 -0.57,-0.25 q -0.12,0.09 -0.21,0.26 -0.12,0.24 -0.06,0.64 c 0.91,6.15 -5.86,8.89 -10.43,11.08 a 0.42,0.42 0 0 0 0.19,0.8 q 0.15,0 0.28,0.01 0.24,0.03 0.45,-0.09 4.44,-2.58 9.45,-3.7 0.54,-0.12 1,0.17"
           id="path53" /><path
           stroke="#808cb4"
           vector-effect="non-scaling-stroke"
           d="m 190.15,184.73 0.02,10.58 a 0.26,0.26 0 0 0 0.26,0.26 l 10.21,-0.02 a 3.16,3.01 89.9 0 0 3,-3.16 v -4.78 a 3.16,3.01 89.9 0 0 -3.02,-3.16 l -10.21,0.02 a 0.26,0.26 0 0 0 -0.26,0.26"
           id="path54" /><path
           stroke="#808cb4"
           vector-effect="non-scaling-stroke"
           d="m 186.03,208.88 16.52,1.09 a 1.28,1.28 0 0 0 1.36,-1.27 l 0.11,-10.46 A 1.23,1.22 -89.8 0 0 202.8,197 h -12.07 a 0.5,0.5 0 0 0 -0.5,0.52 l 0.34,7.7 a 1.73,1.73 0 0 1 -2.06,1.78 q -1.92,-0.36 -2.82,1.25 a 0.42,0.42 0 0 0 0.34,0.63"
           id="path55" /><path
           stroke="#808cb4"
           vector-effect="non-scaling-stroke"
           d="m 202.29,212.9 a 1.38,1.38 0 0 0 -1.3,-1.49 l -18.6,-1 a 1.38,1.38 0 0 0 -1.42,1.08 l -1.52,6.83 a 1.38,1.38 0 0 0 1.14,1.67 l 19.43,2.89 a 1.38,1.38 0 0 0 1.58,-1.25 l 0.69,-8.73"
           id="path56" /><path
           stroke="#808cb4"
           vector-effect="non-scaling-stroke"
           d="m 196.29,232.32 1.2,-6.54 a 1.25,1.25 0 0 0 -1.01,-1.45 l -13.7,-2.52 a 4.54,2.19 10.4 0 0 -4.86,1.34 l -0.86,4.68 a 4.54,2.19 10.4 0 0 4.07,2.97 l 13.7,2.52 a 1.25,1.25 0 0 0 1.46,-1"
           id="path57" /><path
           stroke="#808cb4"
           vector-effect="non-scaling-stroke"
           d="m 160.5035,294.73 a 7.59,4.81 90.2 0 0 4.8365,-7.5732 7.59,4.81 90.2 0 0 -4.7835,-7.6068 7.59,4.81 90.2 0 0 -4.8365,7.5732 7.59,4.81 90.2 0 0 4.7835,7.6068"
           id="path58" /></g><path
         fill="#001969"
         d="m 0,0 h 360 v 177.03 l -82.54,-0.02 a 0.71,0.71 0 0 0 -0.71,0.71 v 4.31 a 0.95,0.95 0 0 0 0.95,0.95 L 360,182.92 V 360 H 0 V 182.97 l 83.47,0.02 q 0.45,0 0.47,-0.45 l 0.21,-4.89 a 0.61,0.6 -88.6 0 0 -0.6,-0.64 L 0,177.05 Z m 132.06,106.59 q -2.14,2.47 -5.01,3.85 -6.37,2.84 -10.59,9.04 c -1.5,2.21 -4.38,3.99 -6.08,6.22 -12.5,16.26 -19.07,35.48 -18.58,56.01 q 0.23,9.85 1.38,15.85 3.06,16 14.03,32.48 0.8,1.19 2.05,0.96 11.16,14.73 27,24.94 12.56,9.14 28.75,11.51 0.76,0.11 0.43,-1.14 17.98,2.82 35.46,-1.16 0.99,1.39 3.38,0.68 13.57,-4.04 26.01,-12.31 0.48,-0.32 0.72,-0.73 0.59,-1.04 -0.25,-1.12 16.45,-11.66 26.48,-29.49 0.45,0.07 1.09,-0.23 a 1.6,1.57 -87.9 0 0 0.72,-0.68 c 11.72,-21.7 13.57,-47.91 4.94,-71.02 q -0.33,-0.88 -1.44,-0.98 -17.64,-43.17 -63.11,-54.91 -0.15,-0.91 -1.2,-1.14 -13.36,-2.87 -25.78,-1.58 c -2.97,0.31 -6.1,0.23 -8.89,0.83 q -17.49,3.78 -31.51,14.12 z m 21.29,170.74 c -9.87,6.19 -0.5,26.6 4.82,22.45 19.14,3.63 14.4,-36.54 -4.82,-22.45 z M 180,289.8 a 0.3,0.3 0 0 1 0.3,-0.3 h 7.4 a 0.3,0.3 0 0 0 0.3,-0.3 v -4.4 a 0.3,0.3 0 0 0 -0.3,-0.3 h -7.4 a 0.3,0.3 0 0 1 -0.3,-0.3 v -3.9 a 0.3,0.3 0 0 1 0.3,-0.3 h 8.65 a 0.3,0.3 0 0 0 0.3,-0.3 v -4.4 a 0.3,0.3 0 0 0 -0.3,-0.3 h -13.64 a 0.3,0.3 0 0 0 -0.3,0.3 l -0.03,23.92 a 0.3,0.3 0 0 0 0.3,0.3 l 4.42,-0.03 a 0.3,0.3 0 0 0 0.3,-0.3 z m 18.75,-2.57 a 0.39,0.38 -58 0 1 0.73,-0.17 l 5.83,12.03 a 0.73,0.7 -12.2 0 0 0.65,0.4 l 3.74,0.02 q 0.39,0.01 0.42,-0.38 c 0.72,-7.93 -0.24,-15.31 0.33,-23.63 q 0.04,-0.5 -0.46,-0.5 h -3.75 q -0.52,0 -0.51,0.51 l 0.07,12.1 a 0.36,0.36 0 0 1 -0.69,0.16 l -6.1,-12.28 q -0.24,-0.48 -0.77,-0.48 l -3.61,-0.02 q -0.63,0 -0.63,0.63 V 299 q 0,0.5 0.5,0.5 h 3.75 q 0.5,0 0.5,-0.5 z"
         id="path59" /><path
         fill="#00010a"
         d="m 199.44,94.36 q -35.57,-7.05 -67.38,12.23 14.02,-10.34 31.51,-14.12 c 2.79,-0.6 5.92,-0.52 8.89,-0.83 q 12.42,-1.29 25.78,1.58 1.05,0.23 1.2,1.14 z"
         id="path60" /><path
         fill="#ffffff"
         d="m 199.44,94.36 q 45.47,11.74 63.11,54.91 13.31,37.86 -5.31,72.91 -10.03,17.83 -26.48,29.49 -13.58,9.61 -29.86,13.48 -17.48,3.98 -35.46,1.16 -14.99,-2.88 -29.18,-10.37 -15.84,-10.21 -27,-24.94 C 81.52,191.35 90,140.78 127.05,110.44 q 2.87,-1.38 5.01,-3.85 31.81,-19.28 67.38,-12.23 z m -69.79,23.96 c -32.58,27.21 -38.55,74.81 -13.31,109.4 q 0.32,0.44 0.81,0.21 l 30.64,-14.15 q 0.39,-0.18 0.55,-0.57 6.17,-14.79 13.42,-29.11 c 1.12,-2.23 2.28,-2.18 4.55,-2.26 q 9.46,-0.32 19.91,0.38 a 2.24,2.24 0 0 1 2.09,2.15 l 0.75,20.3 q 0.02,0.69 -0.66,0.83 c -7.81,1.55 -9.35,-4.26 -10.6,-10.32 a 0.67,0.66 81.4 0 0 -0.72,-0.54 l -5.14,0.44 a 0.68,0.67 85.3 0 0 -0.61,0.73 q 1.33,16.85 -10.72,28.05 a 0.66,0.66 0 0 0 0.38,1.14 c 1.97,0.2 7.87,-2.98 10.25,-3.91 a 1.36,1.36 0 0 1 1.77,0.77 q 1.3,3.33 1.25,6.95 a 2.28,2.28 0 0 0 1.7,2.23 l 10.54,2.78 a 1,1 0 0 1 0.29,1.81 l -0.28,0.18 c -6.63,2.61 -17.31,2.3 -24.2,2.57 a 8.26,8.25 27.5 0 0 -4.11,1.29 l -15.77,10.05 a 0.37,0.36 -49.6 0 0 0.05,0.64 l 7.71,3.43 q 5.91,2.76 12.31,3.88 c 28.78,7.28 58.87,-3.33 78.15,-25.35 q 5,-5.28 9,-12.25 c 18.31,-33.51 12.8,-74.07 -16.11,-99.6 q -1.28,-1.7 -2.89,-2.16 Q 208.47,99.72 180,100 q -27.76,0.27 -50.35,18.32 z m 22.27,113.32 2.87,1.81 a 0.35,0.34 0.5 0 0 0.48,-0.47 q -2.83,-4.74 -3.45,-10.26 a 0.36,0.36 0 0 0 -0.57,-0.25 q -0.12,0.09 -0.21,0.26 -0.12,0.24 -0.06,0.64 c 0.91,6.15 -5.86,8.89 -10.43,11.08 a 0.42,0.42 0 0 0 0.19,0.8 q 0.15,0 0.28,0.01 0.24,0.03 0.45,-0.09 4.44,-2.58 9.45,-3.7 0.54,-0.12 1,0.17 z"
         id="path61" /><path
         fill="#050831"
         d="m 230.65,118.31 q -19.36,-12.93 -40.99,-16.4 -5.17,-0.83 -11.24,-0.18 -0.51,0.06 -0.57,0.58 -0.58,5.06 0.73,10.72 0.2,0.87 -0.62,0.78 c -2.32,-2.47 -2.01,-7.92 -1.96,-11.05 a 0.32,0.32 0 0 0 -0.55,-0.23 c -7.61,7.57 -5.56,13.81 -2.08,23.33 q 2.66,7.3 3.17,14.78 0.14,2.14 1.25,0.3 3.26,-5.37 4.48,-11.46 0.16,-0.83 0.52,-0.07 c 1.88,4.05 0.27,10.97 -0.6,15.15 a 0.43,0.42 73.2 0 0 0.72,0.39 c 6.57,-6.75 10.39,-14.84 4.07,-24 q 3.85,1.41 5.58,8.08 c -0.48,2.64 -0.21,5.6 -1.22,7.88 -1.5,3.39 -6.15,11.45 -10.66,11.53 a 1.25,1.24 -23.8 0 1 -0.88,-0.34 q -6.4,-5.82 -9,-13.85 c -1.24,-3.83 -0.82,-8.87 -1.2,-13.25 a 0.58,0.58 0 0 0 -1.11,-0.19 c -1.26,2.81 -3.09,5.88 -3.86,8.6 -2.5,8.78 1.17,13.01 6.45,19.25 q 0.5,0.6 -0.28,0.57 l -7.21,-0.25 3.43,-1.23 q 0.59,-0.21 0.3,-0.76 c -1.19,-2.27 -2.96,-4.26 -3.63,-6.58 q -2.42,-8.3 1.45,-16.13 c 0.48,-0.97 1.38,-1.77 1.82,-2.93 q 0.17,-0.45 0.53,-0.76 1.65,-1.41 1.4,-3.79 -0.8,-7.61 3.84,-13.2 a 0.79,0.79 0 0 0 -0.61,-1.29 c -13.82,0.11 -29.22,7.52 -40.09,15.59 -0.71,0.52 -1.59,0.65 -2.38,0.42 Q 152.24,100.27 180,100 q 28.47,-0.28 50.65,18.31 z"
         id="path62" /><path
         fill="#001969"
         d="m 230.65,118.31 q 1.61,0.46 2.89,2.16 1.75,3.41 4.75,6.17 2.64,2.42 3.89,4.22 c 2.52,3.62 5.44,7.4 7.36,11.15 12.29,23.98 13.03,52.15 -0.04,76.02 -0.44,0.79 -0.29,1.33 0.15,2.04 q -4,6.97 -9,12.25 -4.48,3.06 -8.47,6.71 c -10.4,9.52 -23.07,15.28 -36.77,18.32 -4.64,1.04 -9.65,1.06 -14.6,1.42 -2.58,0.2 -4.9,-0.45 -7.55,-0.56 q -1.92,-0.08 -5.31,-0.64 -2.87,-0.48 -5.45,0.1 -6.4,-1.12 -12.31,-3.88 -1.15,-2.14 -3.05,-2.97 -2.57,-1.12 -0.18,-2.6 5.12,-3.17 9.95,-6.39 c 4.66,-3.12 13.33,-2.69 18.63,-2.19 1.01,2.86 -2.16,4.24 -3.65,6.3 q -0.34,0.47 0.07,0.88 l 8.71,8.84 q 5.01,-3.36 8.67,-8.55 a 1.54,1.53 -42.5 0 0 0.08,-1.64 q -2.01,-3.55 -4.11,-3.16 -0.84,-0.43 -0.17,-3.97 1.41,-0.94 1.37,-2.53 l 0.28,-0.18 a 1,1 0 0 0 -0.29,-1.81 l -10.54,-2.78 a 2.28,2.28 0 0 1 -1.7,-2.23 q 0.05,-3.62 -1.25,-6.95 a 1.36,1.36 0 0 0 -1.77,-0.77 c -2.38,0.93 -8.28,4.11 -10.25,3.91 a 0.66,0.66 0 0 1 -0.38,-1.14 q 12.05,-11.2 10.72,-28.05 a 0.68,0.67 85.3 0 1 0.61,-0.73 l 5.14,-0.44 a 0.67,0.66 81.4 0 1 0.72,0.54 c 1.25,6.06 2.79,11.87 10.6,10.32 q 0.68,-0.14 0.66,-0.83 l -0.75,-20.3 a 2.24,2.24 0 0 0 -2.09,-2.15 q -10.45,-0.7 -19.91,-0.38 c -2.27,0.08 -3.43,0.03 -4.55,2.26 q -7.25,14.32 -13.42,29.11 -0.16,0.39 -0.55,0.57 l -30.64,14.15 q -0.49,0.23 -0.81,-0.21 c -25.24,-34.59 -19.27,-82.19 13.31,-109.4 0.79,0.23 1.67,0.1 2.38,-0.42 10.87,-8.07 26.27,-15.48 40.09,-15.59 a 0.79,0.79 0 0 1 0.61,1.29 q -4.64,5.59 -3.84,13.2 0.25,2.38 -1.4,3.79 -0.36,0.31 -0.53,0.76 c -0.44,1.16 -1.34,1.96 -1.82,2.93 q -3.87,7.83 -1.45,16.13 c 0.67,2.32 2.44,4.31 3.63,6.58 q 0.29,0.55 -0.3,0.76 l -3.43,1.23 0.74,2.1 q -1.34,1.35 -0.54,2.88 1.95,3.73 3.65,7.68 0.2,0.48 -0.26,0.72 -1.69,0.89 -1.22,2.49 l 0.07,6.67 q 0.01,0.48 0.48,0.48 h 4.69 a 0.68,0.68 0 0 1 0.68,0.7 l -0.18,5.98 a 1.41,1.41 0 0 0 1.55,1.45 q 7.74,-0.76 15.24,1.26 0.51,0.13 0.51,-0.4 v -8.49 q 0,-0.5 0.5,-0.5 h 4.32 q 0.65,0 0.64,-0.65 l -0.15,-6.52 c -2.04,-4.44 1.9,-8.05 3.25,-12.36 a 0.57,0.57 0 0 0 -0.33,-0.7 q -0.27,-0.1 -0.56,-0.07 l 0.79,-1.82 a 0.45,0.45 0 0 0 -0.41,-0.63 H 192 a 0.4,0.4 0 0 1 -0.25,-0.71 q 10.41,-8.69 0.81,-19.51 -1.73,-6.67 -5.58,-8.08 l -9.02,-7.14 q 0.82,0.09 0.62,-0.78 -1.31,-5.66 -0.73,-10.72 0.06,-0.52 0.57,-0.58 6.07,-0.65 11.24,0.18 21.63,3.47 40.99,16.4 z m -40.5,66.42 0.02,10.58 a 0.26,0.26 0 0 0 0.26,0.26 l 10.21,-0.02 a 3.16,3.01 89.9 0 0 3,-3.16 v -4.78 a 3.16,3.01 89.9 0 0 -3.02,-3.16 l -10.21,0.02 a 0.26,0.26 0 0 0 -0.26,0.26 z m -4.12,24.15 16.52,1.09 a 1.28,1.28 0 0 0 1.36,-1.27 l 0.11,-10.46 A 1.23,1.22 -89.8 0 0 202.8,197 h -12.07 a 0.5,0.5 0 0 0 -0.5,0.52 l 0.34,7.7 a 1.73,1.73 0 0 1 -2.06,1.78 q -1.92,-0.36 -2.82,1.25 a 0.42,0.42 0 0 0 0.34,0.63 z m 16.26,4.02 a 1.38,1.38 0 0 0 -1.3,-1.49 l -18.6,-1 a 1.38,1.38 0 0 0 -1.42,1.08 l -1.52,6.83 a 1.38,1.38 0 0 0 1.14,1.67 l 19.43,2.89 a 1.38,1.38 0 0 0 1.58,-1.25 z m -6,19.42 1.2,-6.54 a 1.25,1.25 0 0 0 -1.01,-1.45 l -13.7,-2.52 a 4.54,2.19 10.4 0 0 -4.86,1.34 l -0.86,4.68 a 4.54,2.19 10.4 0 0 4.07,2.97 l 13.7,2.52 a 1.25,1.25 0 0 0 1.46,-1 z"
         id="path63" /><path
         fill="#ffffff"
         d="m 177.96,113.81 9.02,7.14 c 6.32,9.16 2.5,17.25 -4.07,24 a 0.43,0.42 73.2 0 1 -0.72,-0.39 c 0.87,-4.18 2.48,-11.1 0.6,-15.15 q -0.36,-0.76 -0.52,0.07 -1.22,6.09 -4.48,11.46 -1.11,1.84 -1.25,-0.3 -0.51,-7.48 -3.17,-14.78 c -3.48,-9.52 -5.53,-15.76 2.08,-23.33 a 0.32,0.32 0 0 1 0.55,0.23 c -0.05,3.13 -0.36,8.58 1.96,11.05 z"
         id="path64" /><path
         fill="#00010a"
         d="M 127.05,110.44 C 90,140.78 81.52,191.35 109.26,231 q -1.25,0.23 -2.05,-0.96 -10.97,-16.48 -14.03,-32.48 -1.15,-6 -1.38,-15.85 c -0.49,-20.53 6.08,-39.75 18.58,-56.01 1.7,-2.23 4.58,-4.01 6.08,-6.22 q 4.22,-6.2 10.59,-9.04 z"
         id="path65" /><path
         fill="#ffffff"
         d="m 192.56,129.03 q 9.6,10.82 -0.81,19.51 a 0.4,0.4 0 0 0 0.25,0.71 h 5.05 a 0.45,0.45 0 0 1 0.41,0.63 l -0.79,1.82 -5.3,10.59 a 1.27,1.27 0 0 1 -1.14,0.71 h -19.47 a 0.84,0.83 76.9 0 1 -0.75,-0.47 l -5.68,-11.45 -0.74,-2.1 7.21,0.25 q 0.78,0.03 0.28,-0.57 c -5.28,-6.24 -8.95,-10.47 -6.45,-19.25 0.77,-2.72 2.6,-5.79 3.86,-8.6 a 0.58,0.58 0 0 1 1.11,0.19 c 0.38,4.38 -0.04,9.42 1.2,13.25 q 2.6,8.03 9,13.85 a 1.25,1.24 -23.8 0 0 0.88,0.34 c 4.51,-0.08 9.16,-8.14 10.66,-11.53 1.01,-2.28 0.74,-5.24 1.22,-7.88 z"
         id="path66" /><path
         fill="#00010a"
         d="m 233.54,120.47 c 28.91,25.53 34.42,66.09 16.11,99.6 -0.44,-0.71 -0.59,-1.25 -0.15,-2.04 13.07,-23.87 12.33,-52.04 0.04,-76.02 -1.92,-3.75 -4.84,-7.53 -7.36,-11.15 q -1.25,-1.8 -3.89,-4.22 -3,-2.76 -4.75,-6.17 z"
         id="path67" /><path
         fill="#00010a"
         d="m 262.55,149.27 q 1.11,0.1 1.44,0.98 c 8.63,23.11 6.78,49.32 -4.94,71.02 a 1.6,1.57 -87.9 0 1 -0.72,0.68 q -0.64,0.3 -1.09,0.23 18.62,-35.05 5.31,-72.91 z"
         id="path68" /><path
         fill="#050831"
         d="m 164.33,151.08 5.68,11.45 a 0.84,0.83 76.9 0 0 0.75,0.47 h 19.47 a 1.27,1.27 0 0 0 1.14,-0.71 l 5.3,-10.59 q 0.29,-0.03 0.56,0.07 a 0.57,0.57 0 0 1 0.33,0.7 c -1.35,4.31 -5.29,7.92 -3.25,12.36 l -28.35,0.02 q -0.47,-1.6 1.22,-2.49 0.46,-0.24 0.26,-0.72 -1.7,-3.95 -3.65,-7.68 -0.8,-1.53 0.54,-2.88 z"
         id="path69" /><path
         fill="#ffffff"
         d="m 194.31,164.83 0.15,6.52 q 0.01,0.65 -0.64,0.65 h -4.32 q -0.5,0 -0.5,0.5 v 8.49 q 0,0.53 -0.51,0.4 -7.5,-2.02 -15.24,-1.26 a 1.41,1.41 0 0 1 -1.55,-1.45 l 0.18,-5.98 A 0.68,0.68 0 0 0 171.2,172 h -4.69 q -0.47,0 -0.48,-0.48 l -0.07,-6.67 z"
         id="path70" /><path
         fill="#ffffff"
         d="m 0,182.97 v -5.92 l 83.55,-0.04 a 0.61,0.6 -88.6 0 1 0.6,0.64 l -0.21,4.89 q -0.02,0.45 -0.47,0.45 z"
         id="path71" /><path
         fill="#ffffff"
         d="m 360,177.03 v 5.89 l -82.3,0.06 a 0.95,0.95 0 0 1 -0.95,-0.95 v -4.31 a 0.71,0.71 0 0 1 0.71,-0.71 z"
         id="path72" /><path
         fill="#ffffff"
         d="m 190.15,184.73 a 0.26,0.26 0 0 1 0.26,-0.26 l 10.21,-0.02 a 3.16,3.01 89.9 0 1 3.02,3.16 v 4.78 a 3.16,3.01 89.9 0 1 -3,3.16 l -10.21,0.02 a 0.26,0.26 0 0 1 -0.26,-0.26 z"
         id="path73" /><path
         fill="#ffffff"
         d="m 186.03,208.88 a 0.42,0.42 0 0 1 -0.34,-0.63 q 0.9,-1.61 2.82,-1.25 a 1.73,1.73 0 0 0 2.06,-1.78 l -0.34,-7.7 a 0.5,0.5 0 0 1 0.5,-0.52 h 12.07 a 1.23,1.22 -89.8 0 1 1.22,1.24 l -0.11,10.46 a 1.28,1.28 0 0 1 -1.36,1.27 z"
         id="path74" /><path
         fill="#ffffff"
         d="m 202.29,212.9 -0.69,8.73 a 1.38,1.38 0 0 1 -1.58,1.25 l -19.43,-2.89 a 1.38,1.38 0 0 1 -1.14,-1.67 l 1.52,-6.83 a 1.38,1.38 0 0 1 1.42,-1.08 l 18.6,1 a 1.38,1.38 0 0 1 1.3,1.49 z"
         id="path75" /><path
         fill="#ffffff"
         d="m 196.29,232.32 a 1.25,1.25 0 0 1 -1.46,1 l -13.7,-2.52 a 4.54,2.19 10.4 0 1 -4.07,-2.97 l 0.86,-4.68 a 4.54,2.19 10.4 0 1 4.86,-1.34 l 13.7,2.52 a 1.25,1.25 0 0 1 1.01,1.45 z"
         id="path76" /><path
         fill="#00010a"
         d="m 150.92,231.47 q -5.01,1.12 -9.45,3.7 -0.21,0.12 -0.45,0.09 -0.13,-0.01 -0.28,-0.01 a 0.42,0.42 0 0 1 -0.19,-0.8 c 4.57,-2.19 11.34,-4.93 10.43,-11.08 q -0.06,-0.4 0.06,-0.64 0.09,-0.17 0.21,-0.26 a 0.36,0.36 0 0 1 0.57,0.25 q 0.62,5.52 3.45,10.26 a 0.35,0.34 0.5 0 1 -0.48,0.47 l -2.87,-1.81 q -0.46,-0.29 -1,-0.17 z"
         id="path77" /><path
         fill="#00010a"
         d="m 240.65,232.32 c -19.28,22.02 -49.37,32.63 -78.15,25.35 q 2.58,-0.58 5.45,-0.1 3.39,0.56 5.31,0.64 c 2.65,0.11 4.97,0.76 7.55,0.56 4.95,-0.36 9.96,-0.38 14.6,-1.42 13.7,-3.04 26.37,-8.8 36.77,-18.32 q 3.99,-3.65 8.47,-6.71 z"
         id="path78" /><path
         fill="#050831"
         d="m 186.51,235.81 q 0.04,1.59 -1.37,2.53 l -9.6,1.3 c -5.3,-0.5 -13.97,-0.93 -18.63,2.19 q -4.83,3.22 -9.95,6.39 -2.39,1.48 0.18,2.6 1.9,0.83 3.05,2.97 l -7.71,-3.43 a 0.37,0.36 -49.6 0 1 -0.05,-0.64 l 15.77,-10.05 a 8.26,8.25 27.5 0 1 4.11,-1.29 c 6.89,-0.27 17.57,0.04 24.2,-2.57 z"
         id="path79" /><path
         fill="#ffffff"
         d="m 185.14,238.34 q -0.67,3.54 0.17,3.97 l 3.63,3.55 a 0.63,0.63 0 0 1 0.02,0.88 l -8.29,8.92 -8.71,-8.84 q -0.41,-0.41 -0.07,-0.88 c 1.49,-2.06 4.66,-3.44 3.65,-6.3 z"
         id="path80" /><path
         fill="#00010a"
         d="m 180.67,255.66 8.29,-8.92 a 0.63,0.63 0 0 0 -0.02,-0.88 l -3.63,-3.55 q 2.1,-0.39 4.11,3.16 a 1.54,1.53 -42.5 0 1 -0.08,1.64 q -3.66,5.19 -8.67,8.55 z"
         id="path81" /><path
         fill="#050831"
         d="m 230.76,251.67 q 0.84,0.08 0.25,1.12 -0.24,0.41 -0.72,0.73 -12.44,8.27 -26.01,12.31 -2.39,0.71 -3.38,-0.68 16.28,-3.87 29.86,-13.48 z"
         id="path82" /><path
         fill="#00010a"
         d="m 136.26,255.94 q 14.19,7.49 29.18,10.37 0.33,1.25 -0.43,1.14 -16.19,-2.37 -28.75,-11.51 z"
         id="path83" /><path
         fill="#ffffff"
         d="m 158.17,299.78 c -9.48,-3.23 -9.02,-15.31 -4.82,-22.45 19.22,-14.09 23.96,26.08 4.82,22.45 z m 2.3335,-5.05 a 7.59,4.81 90.2 0 0 4.8365,-7.5732 7.59,4.81 90.2 0 0 -4.7835,-7.6068 7.59,4.81 90.2 0 0 -4.8365,7.5732 7.59,4.81 90.2 0 0 4.7835,7.6068 z"
         id="path84" /><path
         fill="#ffffff"
         d="m 180,289.8 v 9.39 a 0.3,0.3 0 0 1 -0.3,0.3 l -4.42,0.03 a 0.3,0.3 0 0 1 -0.3,-0.3 l 0.03,-23.92 a 0.3,0.3 0 0 1 0.3,-0.3 h 13.64 a 0.3,0.3 0 0 1 0.3,0.3 v 4.4 a 0.3,0.3 0 0 1 -0.3,0.3 h -8.65 a 0.3,0.3 0 0 0 -0.3,0.3 v 3.9 a 0.3,0.3 0 0 0 0.3,0.3 h 7.4 a 0.3,0.3 0 0 1 0.3,0.3 v 4.4 a 0.3,0.3 0 0 1 -0.3,0.3 h -7.4 a 0.3,0.3 0 0 0 -0.3,0.3 z"
         id="path85" /><path
         fill="#ffffff"
         d="M 198.75,287.23 V 299 q 0,0.5 -0.5,0.5 h -3.75 q -0.5,0 -0.5,-0.5 v -23.38 q 0,-0.63 0.63,-0.63 l 3.61,0.02 q 0.53,0 0.77,0.48 l 6.1,12.28 a 0.36,0.36 0 0 0 0.69,-0.16 l -0.07,-12.1 Q 205.72,275 206.24,275 h 3.75 q 0.5,0 0.46,0.5 c -0.57,8.32 0.39,15.7 -0.33,23.63 q -0.03,0.39 -0.42,0.38 l -3.74,-0.02 a 0.73,0.7 -12.2 0 1 -0.65,-0.4 l -5.83,-12.03 a 0.39,0.38 -58 0 0 -0.73,0.17 z"
         id="path86" /><path
         fill="#00010a"
         d="m 153.35,277.33 c -4.2,7.14 -4.66,19.22 4.82,22.45 -5.32,4.15 -14.69,-16.26 -4.82,-22.45 z"
         id="path87" /><ellipse
         fill="#001969"
         cx="0"
         cy="0"
         transform="rotate(90.2,-62.804719,223.55531)"
         rx="7.5900002"
         ry="4.8099999"
         id="ellipse87" /></g><path
       style="fill:#001969;fill-opacity:1;stroke:#4d4d4d;stroke-width:0.1965;stroke-opacity:0"
       d="M 7.25,92.341397 V 37.057794 l 10.0625,0.189642 c 5.534375,0.104302 10.56875,0.260049 11.1875,0.346102 l 1.125,0.156462 0.153586,9.125 c 0.08447,5.01875 0.236268,29.740625 0.337325,54.9375 l 0.18374,45.8125 H 18.774825 7.25 Z"
       id="path88"
       transform="scale(0.26458334)" /><path
       style="fill:#001969;fill-opacity:1;stroke:#001969;stroke-width:0.1965;stroke-opacity:1"
       d="M 7.25,18.5 V 7.125 L 92.4375,7.1869549 177.625,7.2489099 92.5,7.375 7.375,7.5010901 92.4375,7.5630451 177.5,7.625 V 18.75 29.875 H 92.375 7.25 Z m 161.99737,7.836846 c 1.84466,-0.921785 3.24049,-2.270711 4.04975,-3.913643 0.85839,-1.742687 0.82112,-4.653371 -0.0843,-6.585193 -1.33077,-2.839323 -3.65224,-4.419468 -6.8175,-4.640453 -3.48072,-0.243008 -6.17731,1.28262 -7.68685,4.348932 -0.7215,1.46558 -0.83324,1.945569 -0.83182,3.573254 10e-4,1.498068 0.13293,2.159745 0.64754,3.255257 1.40553,2.992098 3.20849,4.276015 6.34428,4.517843 1.1036,0.08511 2.18544,0.172161 2.40411,0.19345 0.21866,0.02129 1.10732,-0.315962 1.9748,-0.749447 z M 22.742441,26.206944 c 1.475969,-0.735506 3.113469,-2.458081 3.838598,-4.038027 0.785858,-1.712266 0.757572,-4.748798 -0.05861,-6.291518 -0.94222,-1.780956 -3.189189,-3.85153 -4.737851,-4.365913 -1.848257,-0.613893 -4.499177,-0.454571 -6.129048,0.368358 -3.584939,1.810052 -5.533533,6.111486 -4.272833,9.432087 0.832545,2.192868 2.937828,4.601371 4.624772,5.290868 0.339641,0.13882 1.720347,0.242886 3.068237,0.231258 2.065823,-0.01782 2.641685,-0.116309 3.666733,-0.627113 z"
       id="path89"
       transform="scale(0.26458334)" /><path
       style="fill:#001969;fill-opacity:1;stroke:#001969;stroke-width:0.0531401;stroke-opacity:1"
       d="M 40.81255,24.473957 V 9.889378 l 1.572159,-1.622e-4 c 0.864686,-8.91e-5 2.248531,-0.019711 3.075211,-0.043605 l 1.503053,-0.043443 V 24.430352 39.058536 H 43.887762 40.81255 Z"
       id="path90" /><path
       style="fill:#001969;fill-opacity:1;stroke:#001969;stroke-width:0.1965;stroke-opacity:1"
       d="M 7.4166667,177.70833 C 7.325,177.61667 7.25,172.44167 7.25,166.20833 V 154.875 H 92.375 177.5 v 11.5 11.5 H 92.541668 c -46.727086,0 -85.0333347,-0.075 -85.1250013,-0.16667 z m 14.0871773,-4.10001 c 1.382625,-0.34769 3.14328,-1.59827 4.093742,-2.90777 1.689407,-2.32757 2.045677,-5.42424 0.917484,-7.97471 -0.606284,-1.3706 -2.301933,-3.20428 -3.75069,-4.056 -1.019806,-0.59954 -1.388629,-0.66982 -3.51438,-0.66965 -2.827904,2.2e-4 -4.122098,0.48341 -5.805054,2.16732 -1.714139,1.71511 -2.306457,3.1762 -2.31379,5.70749 -0.0055,1.88271 0.07633,2.27385 0.717265,3.4305 0.724507,1.30745 2.15312,2.81992 3.488735,3.69351 1.574413,1.02978 3.670866,1.23693 6.166688,0.60931 z m 146.791556,0.0209 c 1.4174,-0.41313 3.24361,-1.78575 4.14428,-3.11495 2.41834,-3.56896 1.91964,-7.63978 -1.29596,-10.57865 -1.78733,-1.63352 -3.30706,-2.16476 -5.73848,-2.00594 -2.10166,0.13728 -3.30717,0.68625 -5.11018,2.32707 -1.82984,1.66525 -2.4165,3.00903 -2.39821,5.49326 0.0179,2.42596 0.62752,3.98755 2.17761,5.57767 2.47473,2.53864 4.99078,3.24304 8.22094,2.30154 z"
       id="path91"
       transform="scale(0.26458334)" /></g></svg>
