<?xml version="1.0" encoding="UTF-8" standalone="no"?>
<!-- Created with Inkscape (http://www.inkscape.org/) -->

<svg
   width="318mm"
   height="318mm"
   viewBox="0 0 318 318"
   version="1.1"
   id="svg5"
   xml:space="preserve"
   sodipodi:docname="big_rock.svg"
   inkscape:version="1.3 (0e150ed6c4, 2023-07-21)"
   xmlns:inkscape="http://www.inkscape.org/namespaces/inkscape"
   xmlns:sodipodi="http://sodipodi.sourceforge.net/DTD/sodipodi-0.dtd"
   xmlns="http://www.w3.org/2000/svg"
   xmlns:svg="http://www.w3.org/2000/svg"><sodipodi:namedview
     id="namedview1"
     pagecolor="#ffffff"
     bordercolor="#000000"
     borderopacity="0.25"
     inkscape:showpageshadow="2"
     inkscape:pageopacity="0.0"
     inkscape:pagecheckerboard="0"
     inkscape:deskcolor="#d1d1d1"
     inkscape:document-units="mm"
     inkscape:zoom="0.36283887"
     inkscape:cx="-235.64179"
     inkscape:cy="593.92755"
     inkscape:window-width="1920"
     inkscape:window-height="1017"
     inkscape:window-x="-8"
     inkscape:window-y="-8"
     inkscape:window-maximized="1"
     inkscape:current-layer="svg5" /><defs
     id="defs2"><clipPath
       clipPathUnits="userSpaceOnUse"
       id="clipPath22"><path
         id="path23"
         style="fill:#ff0000;fill-opacity:1;fill-rule:nonzero;stroke:none;stroke-width:0.132293"
         d="m 101.04151,172.81842 v 10.12302 c 0.0524,-0.0479 0.11556,-0.0719 0.18087,-0.0718 0.17645,7e-5 0.36788,0.17499 0.39921,0.52453 0.0511,0.57016 0.10575,1.14006 0.162,1.70973 0.0637,0.64483 -0.53223,0.75317 -0.67852,0.21653 -0.0204,0.0278 -0.0397,0.0583 -0.0636,0.0773 v 13.87917 h 26.45842 v -26.45841 z" /></clipPath><clipPath
       clipPathUnits="userSpaceOnUse"
       id="clipPath42"><path
         id="path42"
         style="fill:#ff0000;fill-opacity:1;fill-rule:nonzero;stroke:none;stroke-width:0.264583"
         d="M 74.941679,-29.45815 V 93.816498 H 180.83806 V 65.65129 c -2.71857,-3.941284 -5.4312,-7.886975 -8.16591,-11.816331 C 157.93555,33.066466 142.31343,12.948492 126.72301,-7.1804403 120.94675,-14.721373 115.03804,-22.155611 108.96957,-29.45815 Z m 54.711391,0 c 3.2879,4.121416 6.5468,8.266199 9.75289,12.45402 14.01691,18.0974355 28.0212,36.214618 41.4321,54.768234 V -29.45815 Z" /></clipPath><clipPath
       clipPathUnits="userSpaceOnUse"
       id="clipPath43"><path
         id="path43"
         style="fill:#ff0000;fill-opacity:1;fill-rule:nonzero;stroke:none;stroke-width:0.264583"
         d="M 94.637119,-6.5334515 V 60.009775 H 160.52767 V 37.115049 C 149.63947,22.405687 138.42942,7.9343094 127.22324,-6.5334515 Z m 52.867571,0 c 4.35952,5.63929472 8.703,11.2910329 13.02298,16.9607225 V -6.5334515 Z" /></clipPath><clipPath
       clipPathUnits="userSpaceOnUse"
       id="clipPath44"><path
         id="path44"
         style="fill:#ff0000;fill-opacity:1;fill-rule:nonzero;stroke:none;stroke-width:0.264583"
         d="m 114.27003,21.286039 v 60.748748 h 60.36686 V 56.678195 c -0.6584,-0.945295 -1.30673,-1.89778 -1.96474,-2.843236 -7.80599,-11.001084 -15.8671,-21.814589 -24.03368,-32.54892 z m 54.44319,0 c 1.97607,2.636938 3.96757,5.262512 5.92367,7.914245 v -7.914245 z" /></clipPath><clipPath
       clipPathUnits="userSpaceOnUse"
       id="clipPath45"><path
         id="path45"
         style="fill:#ff0000;fill-opacity:1;fill-rule:nonzero;stroke:none;stroke-width:0.264583"
         d="m 126.04347,-33.971053 c 4.53607,5.588929 8.98498,11.248978 13.36249,16.966923 11.24165,14.5142599 22.48509,29.034066 33.42018,43.781823 h 4.60902 v -60.748746 z m -8.97516,14.462683 V 26.777693 H 152.7824 C 144.18759,15.388666 135.45932,4.0990935 126.72301,-7.1804403 c -3.17469,-4.1445707 -6.40034,-8.2479617 -9.6547,-12.3279297 z" /></clipPath><clipPath
       clipPathUnits="userSpaceOnUse"
       id="clipPath46"><path
         id="path46"
         style="fill:#ff0000;fill-opacity:1;fill-rule:nonzero;stroke:none;stroke-width:0.264583"
         d="m 135.02948,-22.643579 c 1.46237,1.877021 2.92979,3.749764 4.37648,5.639449 8.57677,11.0735888 17.1479,22.1552878 25.59275,33.331299 h 2.50269 v -38.970748 z m -6.11694,18.293457 v 20.677291 h 15.92875 C 139.55306,9.4180557 134.24,2.5279333 128.91254,-4.350122 Z" /></clipPath><clipPath
       clipPathUnits="userSpaceOnUse"
       id="clipPath47"><path
         id="path47"
         style="fill:#ff0000;fill-opacity:1;fill-rule:nonzero;stroke:none;stroke-width:0.264583"
         d="M 65.941713,-33.446537 V 27.302209 H 126.30857 V -7.7142578 C 119.60968,-16.446309 112.75074,-25.049574 105.64213,-33.446537 Z" /></clipPath></defs><g
     id="layer1"
     transform="matrix(12.004413,0,0,12.004413,-1209.7651,-2071.7094)"><g
       id="g3377"
       transform="translate(-0.26481154,-0.23943041)"><g
         id="g2724"
         transform="matrix(0.82201903,0,0,0.82067983,4.7366927,33.248982)"
         style="stroke-width:1.21752"><path
           style="fill:#808080;fill-opacity:1;stroke:none;stroke-width:2.57706;stroke-linecap:round;stroke-linejoin:round;stroke-dasharray:none;stroke-opacity:1;paint-order:normal"
           d="m 124.38731,197.74764 -6.26442,-13.73199 5.33734,-8.13863 12.64663,-3.29887 9.12394,2.35964 3.14618,11.16896 -3.77542,10.38242 -7.55085,3.30349 z"
           id="path1666" /><path
           id="path2153"
           style="opacity:1;fill:#666666;fill-opacity:1;stroke:none;stroke-width:2.57706;stroke-linecap:round;stroke-linejoin:round;stroke-dasharray:none;stroke-opacity:1;paint-order:normal"
           d="m 127.0521,192.26079 -6.15095,-0.35664 3.48616,5.84349 12.6634,2.04502 z" /><path
           id="path2570"
           style="opacity:1;fill:#999999;fill-opacity:1;stroke:none;stroke-width:2.57706;stroke-linecap:round;stroke-linejoin:round;stroke-dasharray:none;stroke-opacity:1;paint-order:normal"
           d="m 145.2308,174.93779 -9.12394,-2.35964 -1.4157,6.92173 5.5163,4.93315 8.16952,1.67372 z" /><path
           style="fill:none;fill-opacity:1;stroke:#333333;stroke-width:1.9328;stroke-linecap:round;stroke-linejoin:round;stroke-dasharray:none;stroke-opacity:1;paint-order:normal"
           d="m 124.38731,197.74764 -6.26442,-13.73199 5.33734,-8.13863 12.64663,-3.29887 9.12394,2.35964 3.14618,11.16896 -3.77542,10.38242 -7.55085,3.30349 z"
           id="path2572" /></g><path
         id="rect2804"
         style="fill-opacity:0;stroke-width:2.11667;stroke-linecap:round"
         d="m 101.04151,172.81842 h 26.45834 v 26.45833 h -26.45834 z"
         clip-path="url(#clipPath22)" /></g></g><path
     style="fill:#505934;fill-opacity:1;stroke:none;stroke-width:15.6058;stroke-linecap:round;stroke-linejoin:round;stroke-miterlimit:10"
     d="m 185.01565,16.266647 c 4.90394,-2.039246 9.61788,3.294371 9.52581,7.961678 -0.56128,4.373569 -1.81052,8.670976 -2.87249,12.944768 -6.40603,8.068348 -14.48896,15.463822 -17.7059,25.570745 -1.2177,3.932491 -0.64408,8.217264 -1.79442,12.113448 -4.53559,3.70608 -3.67347,8.816903 -3.23507,13.916012 -0.47286,4.653972 -7.05677,3.690803 -10.33695,5.525509 -5.26566,1.292377 -9.61096,4.620943 -13.35044,8.412373 -4.80619,3.84793 -8.81574,9.32897 -14.95767,11.03983 -5.4169,1.98199 -8.71252,-3.35716 -8.90109,-8.12266 -0.30461,-5.653814 -0.90264,-11.339033 -0.60424,-16.998783 0.79829,-6.527214 5.20459,-11.749189 7.50534,-17.713818 0.59459,-4.94207 -5.28998,-7.127989 -6.50249,-11.388977 -0.5508,-6.848242 -0.95169,-13.764258 -0.67733,-20.634023 1.07365,-5.607819 6.65537,-8.698344 11.77133,-9.947904 11.05419,-3.185198 22.49041,-4.836781 33.50162,-8.209975 5.85141,-1.804148 11.68517,-3.761917 17.82509,-4.297189 l 0.80886,-0.171041 z"
     id="path4547" /><path
     style="fill:#596b22;fill-opacity:1;stroke:none;stroke-width:15.6058;stroke-linecap:round;stroke-linejoin:round;stroke-miterlimit:10"
     d="m 143.92126,31.28947 c 10.87481,-2.918844 21.75482,-5.831293 32.66834,-8.595517 3.49976,-0.400167 8.57691,-1.293993 11.13869,1.242857 0.59518,6.539543 -3.54517,12.082073 -6.50588,17.535442 -3.90891,6.392383 -8.65632,12.322725 -11.29465,19.41907 -2.34542,5.957176 -3.74822,12.249989 -5.44249,18.415426 -0.72827,3.497279 -0.92494,7.914724 -5.24925,8.749324 -5.47433,2.388333 -11.03037,4.862883 -15.36698,9.096557 -4.80571,3.950111 -9.41314,8.560201 -15.38256,10.682121 -3.20944,-0.48408 -1.72427,-5.83913 -2.38241,-8.423852 -0.26999,-5.184598 -0.80424,-10.689987 1.95493,-15.374303 1.97523,-4.5076 4.44046,-8.836945 5.85766,-13.565315 0.0947,-3.934636 -3.38991,-6.814363 -5.33118,-9.959481 -2.83743,-3.301613 -1.45189,-8.001789 -1.78213,-11.964488 0.13079,-4.355435 -0.30771,-9.989856 3.95619,-12.642551 4.03421,-2.37625 8.72643,-3.273311 13.16172,-4.61529 z"
     id="path4758" /><path
     style="fill:#505934;fill-opacity:1;stroke:none;stroke-width:15.6058;stroke-linecap:round;stroke-linejoin:round;stroke-miterlimit:10"
     d="m 93.445722,52.23915 c 3.909028,0.58886 7.818038,1.318581 11.593098,2.505997 2.54065,0.667103 4.01335,3.329401 4.02928,5.823452 -0.27814,2.331028 -2.56571,3.680143 -4.49386,4.604008 -3.81185,1.640455 -8.063478,1.881446 -11.90519,3.419525 -1.184312,1.105471 -0.46938,3.009725 -0.659753,4.449079 -0.108031,1.943204 0.243572,4.054602 -0.649597,5.851901 -1.287244,1.449133 -3.298303,1.897383 -4.97994,2.743164 -2.576378,1.002797 -5.164689,2.246511 -7.952413,2.464172 -1.59845,-0.04863 -3.685552,-0.936464 -3.567865,-2.835982 0.05642,-3.20693 2.489562,-5.83494 2.38898,-9.077494 0.144062,-5.173296 -0.241952,-10.360841 0.133978,-15.526875 0.165066,-1.754443 2.305614,-1.91973 3.57104,-2.612307 3.492819,-1.410867 7.290873,-2.554027 11.091295,-1.933921 0.47046,0.01754 0.937257,0.03541 1.400959,0.125269 z"
     id="path4052" /><path
     style="fill:#596b22;fill-opacity:1;stroke:none;stroke-width:15.6058;stroke-linecap:round;stroke-linejoin:round;stroke-miterlimit:10"
     d="m 87.509253,58.162102 c 2.668951,-0.489932 5.406796,-0.723281 8.104673,-0.324983 2.084388,0.297414 4.289003,0.499774 6.126244,1.612933 1.24037,0.633346 0.42166,2.030701 -0.65979,2.21832 -1.592149,0.570638 -3.285459,0.790303 -4.887403,1.337778 -1.863857,0.469138 -3.709115,1.055093 -5.377216,2.030721 -1.333491,0.673463 -2.811847,1.532461 -3.192628,3.097551 -0.761678,2.477358 -0.39843,5.338227 -1.994198,7.521942 -0.997099,1.29366 -2.616593,2.144969 -4.253656,2.180304 -1.391192,-5.22e-4 -0.446871,-1.650921 -0.473939,-2.478805 0.572857,-4.15963 0.913589,-8.353611 1.640255,-12.490852 0.424541,-1.807997 1.469004,-3.687216 3.253459,-4.4296 0.561334,-0.143763 1.147769,-0.150977 1.714217,-0.275311 z"
     id="path4194" /><path
     style="fill:#677c28;fill-opacity:1;stroke:none;stroke-width:15.6058;stroke-linecap:round;stroke-linejoin:round;stroke-miterlimit:10"
     d="m 92.594129,57.511392 c 2.391555,0.418066 4.822144,0.617352 7.191642,1.154756 0.997489,0.261215 2.122209,0.608188 2.696989,1.53193 0.26242,0.806261 -0.64375,1.301432 -1.30531,1.441374 -1.945959,0.606417 -3.968466,0.916621 -5.923949,1.490453 -1.929463,0.531382 -3.922912,1.104341 -5.541002,2.328699 -0.490806,0.403413 -0.921393,0.875692 -1.42643,1.262401 -0.826342,0.162834 -1.116671,-0.877115 -1.555042,-1.377087 -0.64784,-1.215539 -0.409896,-2.664574 -0.153727,-3.954442 0.260379,-1.113987 0.614256,-2.272336 1.387915,-3.141747 0.772439,-0.662622 1.853749,-0.742198 2.825442,-0.790635 0.602959,-0.01554 1.209423,-0.08976 1.803434,0.05432 z"
     id="path4336" /><path
     style="fill:#505934;fill-opacity:1;stroke:none;stroke-width:15.6058;stroke-linecap:round;stroke-linejoin:round;stroke-miterlimit:10"
     d="m 283.55358,158.26413 c 9.48875,0.44381 19.99711,2.85904 26.03831,10.80738 1.83072,3.76623 0.0239,8.08341 -0.67274,11.94686 -4.55236,16.40921 -10.72468,32.32167 -16.77354,48.22407 -3.15772,7.50488 -5.72383,15.34149 -9.83488,22.39346 -2.87528,3.69582 -8.48609,3.37147 -12.42018,1.7231 -5.98599,-2.56601 -12.17672,-5.14832 -17.22966,-9.33669 -2.87392,-3.53216 -2.92101,-8.86306 -6.9881,-11.64698 -3.12542,-3.12891 -7.32914,-5.48703 -9.34624,-9.54939 0.29879,-4.96088 7.7053,-3.68674 11.31225,-4.92014 4.80621,0.26554 8.04597,-2.67584 8.89874,-7.2338 1.996,-3.34327 2.13708,-7.58045 -0.20635,-10.8032 -2.90176,-4.51446 -8.87143,-4.75273 -13.14549,-7.39454 -3.63505,-1.89974 -8.21005,-4.65194 -8.27492,-9.22349 2.13466,-3.57886 7.57459,-3.82383 9.50796,-7.73179 1.03251,-5.8179 7.48374,-4.40097 11.68415,-5.44513 7.62349,-1.56468 14.42901,-5.45746 20.77341,-9.81196 2.02715,-1.12261 4.27528,-2.43318 6.67728,-1.99776 z"
     id="path3135" /><path
     style="fill:#596b22;fill-opacity:1;stroke:none;stroke-width:15.6058;stroke-linecap:round;stroke-linejoin:round;stroke-miterlimit:10"
     d="m 286.49934,167.11648 c 4.96307,-0.40245 11.3604,0.40288 13.62778,5.53489 1.56784,5.09699 -0.18792,10.46524 -1.34179,15.47123 -5.01632,17.22308 -11.46745,34.00828 -18.52259,50.49104 -1.3072,2.85187 -2.85672,7.96451 -7.00195,6.09372 -6.84725,-2.44873 -12.9176,-6.6604 -18.79487,-10.8674 -3.64738,-2.88381 -7.37445,-5.85157 -10.0854,-9.66559 -1.04243,-3.64706 4.8982,-2.6031 7.21425,-3.35499 3.45843,-0.0743 6.87805,-1.83034 8.14085,-5.18958 2.67161,-5.74905 4.36452,-13.12408 0.59046,-18.78202 -3.22825,-3.60707 -8.16623,-4.85071 -12.12971,-7.45101 -1.88247,-1.67797 -7.37605,-3.10005 -5.65815,-6.25472 5.02029,-4.36141 11.66369,-6.18171 18.12606,-7.07506 6.93451,-1.05182 13.01428,-4.69923 19.04459,-8.0365 2.08659,-1.24474 4.50567,-0.60188 6.79045,-0.91401 z"
     id="path3139" /><path
     style="fill:#677c28;fill-opacity:1;stroke:none;stroke-width:15.6058;stroke-linecap:round;stroke-linejoin:round;stroke-miterlimit:10"
     d="m 255.9676,176.54204 c 1.03154,-0.09 3.09147,-0.27034 4.83438,-0.56457 1.74291,-0.29424 3.1696,-0.70203 4.3046,-0.94271 1.13502,-0.24069 1.97792,-0.31452 2.90346,-0.25342 0.92553,0.0612 1.93312,0.25606 2.6347,0.73864 0.70153,0.48258 1.09888,1.2497 1.15303,1.8802 0.054,0.63047 -0.23266,1.12733 -0.63528,1.91746 -0.40263,0.79012 -0.9211,1.87335 -1.36208,2.47723 -0.44093,0.60383 -0.80753,0.73036 -1.86584,1.03527 -1.05832,0.30491 -2.80858,0.78832 -4.14768,1.11785 -1.33913,0.32952 -2.26709,0.50515 -2.84439,0.64967 -0.5773,0.14454 -0.80369,0.25894 -0.75485,0.82303 0.0492,0.56409 0.37298,1.57346 0.7013,2.62969 0.3282,1.05627 0.66061,2.15944 0.68882,3.02841 0.0277,0.86899 -0.24621,1.50622 -0.72134,1.99503 -0.47503,0.48883 -1.15267,0.83107 -1.69949,1.04415 -0.54681,0.21308 -0.96395,0.29675 -1.63117,0.21452 -0.66722,-0.0828 -1.58534,-0.33216 -2.88126,-0.85519 -1.29589,-0.52304 -2.96957,-1.32011 -4.78084,-2.34075 -1.81128,-1.02062 -3.75989,-2.26536 -5.1417,-3.22924 -1.38179,-0.96383 -2.19638,-1.6474 -2.82436,-2.08834 -0.62794,-0.44093 -1.06983,-0.63816 -0.7846,-1.13622 0.28522,-0.49795 1.3005,-1.2944 2.31157,-2.13757 1.01114,-0.84319 2.01828,-1.73329 3.12761,-2.53806 1.10932,-0.80477 2.32011,-1.52396 3.5073,-1.98142 1.18725,-0.4575 2.34959,-0.65352 3.04787,-0.76144 0.69831,-0.10803 0.93239,-0.12798 1.15915,-0.2186 0.22677,-0.09 0.44861,-0.25162 0.55905,-0.33181 0.11041,-0.0804 0.11041,-0.0816 1.14211,-0.1719 z"
     id="path4040" /><path
     style="fill:#505934;fill-opacity:1;stroke:none;stroke-width:15.6058;stroke-linecap:round;stroke-linejoin:round;stroke-miterlimit:10"
     d="m 122.06349,251.61996 c 2.86598,-1.20875 6.32997,-1.15553 9.07831,0.33306 2.37949,1.54137 2.75072,4.69989 2.75746,7.29799 0.003,2.23918 -0.64215,4.41657 -1.67579,6.38612 -0.56817,1.49279 1.71556,2.39925 0.86508,3.91402 -0.99818,2.77428 -4.25143,3.75223 -6.94263,3.68535 -1.40416,0.0889 -3.14304,-0.73578 -4.12206,0.71275 -2.03038,2.18303 -4.65963,4.1431 -7.77251,4.15077 -2.8807,0.12774 -5.62469,-1.1604 -7.79511,-2.9756 -1.36386,-1.15817 -3.15152,-1.56522 -4.72075,-2.21935 -1.818238,0.44418 -3.069073,-1.22296 -3.654218,-2.70473 -0.787624,-1.79766 -1.746527,-4.0145 -0.690394,-5.89617 1.082649,-1.46679 3.151242,-1.27332 4.737932,-1.71463 2.93499,-0.72589 5.84277,-1.56177 8.77632,-2.29443 3.27707,-0.95391 6.16695,-3.05732 8.11031,-5.85924 0.88001,-1.0403 1.7325,-2.30726 3.04805,-2.81589 z"
     id="path2080" /><path
     style="fill:#596b22;fill-opacity:1;stroke:none;stroke-width:15.6058;stroke-linecap:round;stroke-linejoin:round;stroke-miterlimit:10"
     d="m 102.91111,265.89764 c 4.09803,-0.80244 8.32657,-1.42705 12.101,-3.30844 2.43154,-1.2305 4.2827,-3.28228 5.98223,-5.3606 1.66074,-1.88372 4.21257,-3.59216 6.82594,-2.82613 1.83445,0.4991 3.17906,2.26965 3.11069,4.17894 0.10996,1.66482 -0.62663,3.22799 -1.67891,4.47668 -1.15391,1.46615 -0.93442,3.48574 -0.16459,5.06984 1.05245,1.7073 -1.69684,0.94939 -2.60283,1.12832 -1.62826,0.12197 -3.40035,-0.39416 -4.92064,0.37984 -1.50193,1.0285 -2.68246,2.49118 -4.33592,3.31685 -1.57102,0.91126 -3.54181,1.79863 -5.32052,0.9001 -2.68535,-1.20606 -4.77798,-3.7476 -7.82025,-4.12072 -1.23034,-0.0295 -3.04081,-0.29585 -3.25205,-1.78597 -0.0637,-1.18759 0.89704,-2.09026 2.07586,-2.04873 z"
     id="path2291" /><path
     style="fill:#505934;fill-opacity:1;stroke:none;stroke-width:15.6058;stroke-linecap:round;stroke-linejoin:round;stroke-miterlimit:10"
     d="m 72.959867,122.54885 c 8.473724,-0.77479 16.915815,-1.86086 25.36745,-2.81686 3.007883,1.722 0.649719,7.10733 0.539127,10.23676 -0.489848,4.23646 -3.286659,7.67633 -6.733356,9.98268 -3.341297,1.54435 -4.756143,4.15265 -4.579473,7.68029 -3.059994,4.34073 -7.893981,7.11941 -11.185099,11.27866 -0.621614,3.79525 4.250493,5.12588 6.585231,7.25078 6.21168,3.94889 13.058106,6.79437 19.406933,10.48267 3.68826,2.69116 -0.13079,7.05965 -2.757217,8.88852 -4.126108,3.21131 -8.664458,6.63449 -14.114068,6.80702 -7.736559,0.67788 -15.50169,1.03893 -23.251215,1.5364 -4.410866,1.23323 -5.728094,-2.83349 -6.223358,-6.35094 -1.084662,-4.5636 -1.07152,-9.68127 -3.940948,-13.59208 -4.034351,-3.35375 -9.789867,-2.63191 -14.410602,-4.65812 -2.652421,-3.56934 -4.691404,-7.60881 -6.86521,-11.49235 -1.912831,-4.04854 3.334672,-6.24284 5.746201,-8.45783 2.673102,-2.45896 6.456058,-1.68629 9.729391,-2.4401 4.373917,0.21752 8.157961,-2.47731 9.916822,-6.39469 3.197914,-6.21171 7.24046,-12.0484 12.196047,-16.97252 1.331799,-0.95 3.042282,-0.7177 4.573344,-0.96829 z"
     id="path308" /><path
     style="fill:#596b22;fill-opacity:1;stroke:none;stroke-width:15.6058;stroke-linecap:round;stroke-linejoin:round;stroke-miterlimit:10"
     d="m 72.692838,130.89045 c 5.868553,-2.42856 12.318144,-2.67852 18.57127,-3.09679 2.944972,-0.20738 -1.088544,3.12076 -1.399679,4.36576 -5.23886,7.85406 -10.843485,15.45359 -16.455519,23.04027 -2.035115,2.40535 -1.783584,6.02608 0.228028,8.3568 4.030995,4.77968 9.383951,8.18599 14.263946,12.0226 2.133679,1.75939 4.675244,3.15705 6.481775,5.23439 -2.288557,2.09024 -5.460379,3.17223 -8.428141,4.04588 -6.053687,1.52481 -12.369272,1.08656 -18.554853,1.12142 -3.222255,0.61466 -5.244105,-1.81101 -6.285665,-4.54361 -2.443792,-4.4703 -4.069769,-9.72495 -8.441808,-12.76737 -4.10854,-3.20967 -9.183046,-4.97613 -12.955995,-8.65913 -2.353223,-1.2014 -2.297545,-3.93402 0.455387,-4.54589 4.46841,-2.35171 8.697445,-5.22423 13.56426,-6.73524 4.524554,-1.13563 6.766009,-5.49364 9.738693,-8.63892 2.546312,-2.8481 4.986444,-5.8217 7.743648,-8.46224 0.435826,-0.35168 0.958829,-0.54387 1.474653,-0.73793 z"
     id="path1871" /><path
     style="fill:#677c28;fill-opacity:1;stroke:none;stroke-width:15.6058;stroke-linecap:round;stroke-linejoin:round;stroke-miterlimit:10"
     d="m 44.428858,153.00544 c 3.411791,-1.88123 6.943149,-3.65554 10.746545,-4.58612 0.73051,-0.24819 2.341691,-0.2114 1.879314,0.96875 -0.762922,1.71529 -2.26281,2.95982 -3.709454,4.09374 -1.933054,1.47048 -4.14029,2.55737 -5.994544,4.13148 -0.510627,0.9185 1.090021,1.41357 1.278523,2.25696 0.555517,0.94747 -0.481072,1.57452 -1.065111,2.09965 0.09584,0.77603 0.997522,1.18781 1.303997,1.90189 0.81962,1.11088 -0.848627,2.20843 -1.800038,1.49291 -1.460178,-0.78747 -2.779994,-1.81024 -4.203682,-2.66198 -1.702554,-1.10489 -3.355615,-2.35031 -4.651039,-3.92427 -0.562871,-0.64864 -0.654771,-1.70614 0.03386,-2.30287 1.413469,-1.40868 3.439417,-1.83575 5.085608,-2.8808 0.371625,-0.18434 0.73104,-0.39309 1.096005,-0.58937 z"
     id="path1929" /><path
     style="fill:#677c28;fill-opacity:1;stroke:none;stroke-width:15.6058;stroke-linecap:round;stroke-linejoin:round;stroke-miterlimit:10"
     d="m 138.53893,69.654002 c 2.00681,-0.118474 4.38399,0.715022 4.84108,2.908563 0.49891,2.922668 0.039,5.90989 -0.10119,8.849543 0.10516,1.494072 -0.95833,3.504008 -0.068,4.63024 2.47336,-0.66049 5.20117,-1.933646 7.73059,-0.731233 1.66232,0.819378 3.32938,1.918797 4.28772,3.544138 0.16543,1.662884 -2.61323,1.694648 -3.70401,2.694629 -3.11144,1.493332 -5.79424,3.696572 -8.22789,6.117244 -4.078,3.826164 -8.45599,7.542734 -13.66728,9.712894 -1.47422,0.87033 -3.37645,0.22905 -2.84455,-1.71594 -0.2587,-1.61647 -0.92624,-3.17062 -0.82985,-4.85874 -0.11307,-3.694985 -0.71501,-7.401948 -0.32232,-11.093747 0.60539,-2.514543 1.93487,-4.784738 2.90081,-7.172813 1.79029,-3.888694 3.43886,-7.850327 5.40921,-11.651417 0.78177,-2.045338 2.967,-1.925501 4.59538,-1.233138 z"
     id="path4762" /><path
     style="fill:#505934;fill-opacity:1;stroke-width:3.11611;stroke-linecap:round;stroke-linejoin:round;stroke-miterlimit:10"
     d="m 198.81672,179.78416 c 2.71167,0.0276 5.71437,-0.23174 7.77639,-2.20399 2.4341,-2.28376 3.30822,-5.64507 4.20954,-8.74279 0.56403,-1.85011 0.59541,-3.92725 -0.37216,-5.654 -1.01204,-1.88183 -2.47498,-3.90075 -4.7218,-4.29501 -3.37733,-0.37095 -6.65905,0.78409 -9.91483,1.49597 -1.5976,0.42904 -3.26842,0.22863 -4.88024,0.51379 -1.48653,0.42989 -1.78953,2.16209 -2.24772,3.42188 -0.95354,3.31255 -1.86816,6.63757 -2.75214,9.96909 -0.24615,1.15126 -0.66846,2.71651 0.47808,3.52504 1.89375,1.11029 4.13592,1.39552 6.27717,1.69346 2.04023,0.2692 4.09442,0.30054 6.1477,0.27653 z"
     id="path550" /><path
     style="fill:#677c28;fill-opacity:1;stroke-width:3.11611;stroke-linecap:round;stroke-linejoin:round;stroke-miterlimit:10"
     d="m 200.17041,163.08918 c 2.31741,0.35647 4.77098,0.69641 6.7297,2.08657 0.84906,0.56895 1.34522,1.56697 1.30315,2.58544 -0.0727,1.40002 -0.0215,2.92601 -0.84148,4.13487 -1.28599,1.75684 -3.49096,2.53995 -5.58929,2.73091 -2.41561,0.19333 -4.79357,0.72236 -7.21609,0.83575 -0.98412,-5.6e-4 -2.1194,0.0729 -2.92786,-0.5893 -0.72504,-0.77844 -0.46404,-1.9303 -0.3162,-2.87447 0.63296,-3.62976 2.89663,-7.05526 6.24617,-8.69618 0.7033,-0.19344 1.46137,-0.37226 2.19221,-0.27292 0.1399,0.0197 0.28042,0.0402 0.41967,0.0594 z"
     id="path601" /><path
     style="fill:#596b22;fill-opacity:1;stroke-width:3.11611;stroke-linecap:round;stroke-linejoin:round;stroke-miterlimit:10"
     d="m 194.98137,165.66785 c 0.73231,0.77561 1.41566,1.5978 2.15967,2.36118 0.63071,0.57976 1.53967,0.25533 2.30143,0.33624 1.00443,0.024 1.85166,0.75655 2.21236,1.66345 0.39183,0.84506 0.45612,1.83428 1.06874,2.57486 0.17198,0.43247 1.20931,0.93529 0.57346,1.34752 -1.14907,0.4045 -2.38106,0.49033 -3.56619,0.75201 -1.53453,0.26704 -3.03981,0.7223 -4.59551,0.85471 -1.2058,0.0564 -2.43934,-0.0909 -3.59091,-0.41103 -0.62596,-0.15096 -0.81736,-0.98518 -0.74762,-1.56596 0.15096,-2.04076 1.17128,-3.86903 2.03693,-5.67929 0.39213,-0.78209 0.73751,-1.6161 1.39603,-2.22012 0.2641,-0.37538 0.48372,-0.44567 0.75161,-0.0138 z"
     id="path605" /><path
     style="fill:#677c28;fill-opacity:1;stroke:none;stroke-width:15.6058;stroke-linecap:round;stroke-linejoin:round;stroke-miterlimit:10"
     d="m 127.14807,254.05649 c 1.14133,0.41409 2.35818,0.94542 2.99617,2.04283 0.79474,1.30278 0.99581,2.93596 0.55443,4.39589 -0.25396,0.88428 -0.64675,1.73835 -1.18619,2.48402 -0.40971,0.14767 -0.55227,-0.64647 -0.81238,-0.91642 -0.51476,-0.83137 -0.97925,-1.69357 -1.50381,-2.5184 -0.29736,-0.527 -1.06037,-0.28938 -1.37699,0.0889 -0.45491,0.60439 -1.28151,0.54974 -1.95734,0.52268 -1.22068,-0.0891 -2.57238,-0.29057 -3.44093,-1.24392 -0.43853,-0.3914 -0.0782,-0.95256 0.17947,-1.32946 0.76014,-1.16563 1.84627,-2.108 3.1155,-2.68142 0.94095,-0.42796 1.90634,-0.85915 2.93805,-1.00245 0.17214,0.0217 0.33061,0.10403 0.49405,0.15763 z"
     id="path2847" /><path
     style="fill:#677c28;fill-opacity:1;stroke:none;stroke-width:15.6058;stroke-linecap:round;stroke-linejoin:round;stroke-miterlimit:10"
     d="m 252.60451,220.87288 c 0.57623,-0.16859 1.72603,-0.50504 2.7908,-0.73948 1.06477,-0.23445 2.04383,-0.36734 2.87586,-0.29759 0.83203,0.0695 1.5161,0.34008 2.0578,0.88341 0.54177,0.5432 0.94318,1.35735 0.98832,2.15397 0.0456,0.79661 -0.26397,1.57864 -0.70921,2.4191 -0.44526,0.84041 -1.02698,1.74057 -1.49426,2.32344 -0.46734,0.58282 -0.82135,0.84966 -1.30349,0.98675 -0.48211,0.1371 -1.09471,0.14388 -1.52018,0.13412 -0.42542,-0.01 -0.66299,-0.0361 -0.74918,0.34946 -0.0865,0.38593 -0.0159,1.18159 0.0708,1.9055 0.0877,0.72386 0.19131,1.37484 0.0996,1.94754 -0.0913,0.57274 -0.37852,1.06959 -0.61248,1.34899 -0.2341,0.27947 -0.41608,0.34224 -0.86565,0.0528 -0.44956,-0.28897 -1.16646,-0.93383 -2.59608,-2.17687 -1.42961,-1.24301 -3.57195,-3.08403 -4.85958,-4.3156 -1.2876,-1.23157 -1.71945,-1.85415 -2.08147,-2.48289 -0.36206,-0.62878 -0.65341,-1.26365 -0.81582,-1.76862 -0.16242,-0.50492 -0.1945,-0.87981 0.18254,-1.17391 0.37694,-0.29412 1.16047,-0.50419 1.94409,-0.71427 0.78364,-0.21007 1.5671,-0.42015 2.43159,-0.51884 0.86443,-0.0984 1.80907,-0.0865 2.42167,-0.0925 0.61259,-0.006 0.8935,-0.0301 1.03238,-0.0421 0.1389,-0.012 0.13592,-0.0139 0.71212,-0.18255 z"
     id="path4044" /><path
     style="fill:#80a004;fill-opacity:0.701961;stroke:#312114;stroke-width:0.773731;stroke-opacity:0"
     d="m 283.67985,157.95001 c -8.13916,0.86847 -14.09741,7.68075 -21.86316,9.83421 -5.35224,2.86198 -13.40641,0.81598 -17.19215,6.33556 -1.88434,4.53601 -8.48023,5.20372 -9.70335,9.96029 1.08926,6.58294 8.77676,8.91323 14.04121,11.41466 5.142,1.38203 9.79841,6.3395 8.1159,11.99374 -0.48019,4.60753 -3.2574,9.36591 -8.28436,9.81972 -3.91631,1.3955 -10.01657,0.34352 -12.4039,4.43235 0.31826,5.0613 6.17403,7.50536 9.0173,11.14656 4.49669,4.27744 5.08459,11.72465 11.27048,14.39261 6.83607,3.2191 14.16991,8.5502 22.10727,6.84872 5.52304,-2.2336 6.21941,-9.3061 9.02924,-13.87076 9.29742,-21.43718 18.17947,-43.31863 22.66806,-66.31318 0.62384,-7.27168 -7.43147,-11.15456 -13.07273,-13.51198 -4.38451,-1.5261 -9.07781,-2.4832 -13.72981,-2.4825 z"
     id="path1" /><path
     style="fill:#80a004;fill-opacity:0.701961;stroke:#312114;stroke-width:0.547112;stroke-opacity:0"
     d="m 186.53484,15.838439 c -5.22751,0.544773 -10.47538,1.175141 -15.34163,3.152133 -13.16691,4.198739 -26.9056,6.204854 -40.1527,10.085379 -5.32926,1.64734 -10.71088,6.013916 -10.27543,12.135814 0.0138,6.480187 -0.0932,13.123433 1.14872,19.479064 1.60431,3.470274 6.67418,5.916973 5.56514,10.245502 -2.71789,7.343613 -7.77729,14.256041 -7.00024,22.481762 0.50137,6.15587 -0.40269,12.977427 2.73983,18.553677 3.08348,4.31496 9.00075,1.87856 12.40937,-0.70954 8.33988,-5.99382 14.94418,-15.266469 25.57063,-17.379992 2.75451,-1.174318 7.94814,-1.47957 8.04676,-5.404174 -0.56109,-4.497248 -0.63616,-9.662128 2.80715,-13.065472 2.00207,-5.793505 1.36915,-12.338953 4.54679,-17.815289 3.75738,-7.86635 10.67917,-13.570036 15.21972,-20.888516 1.56918,-4.96041 3.56523,-10.419886 2.29316,-15.652495 -1.144,-3.200892 -3.9899,-5.732114 -7.57727,-5.217853 z"
     id="path3" /><path
     style="fill:#80a004;fill-opacity:0.701961;stroke:#312114;stroke-width:0.547112;stroke-opacity:0"
     d="m 89.640682,51.898587 c -4.247361,0.190037 -8.922761,1.229796 -12.173214,4.060587 -1.554789,7.618177 0.660773,15.751336 -2.458476,23.121924 -0.814629,2.021671 -0.320461,5.174017 2.448861,5.07031 4.610413,0.230487 9.027752,-2.148397 13.015248,-4.221946 3.544938,-2.484082 0.305878,-7.747177 2.630838,-10.817189 4.940048,-2.634733 12.270371,-1.793074 15.542431,-7.081452 1.23843,-2.173763 0.10131,-4.577476 -0.84845,-6.4745 -0.95603,-1.530877 -3.78138,-0.789193 -5.30762,-1.653085 -4.209655,-1.03017 -8.483839,-2.084549 -12.849618,-2.004649 z"
     id="path5" /><path
     style="fill:#80a004;fill-opacity:0.701961;stroke:#312114;stroke-width:0.547112;stroke-opacity:0"
     d="m 96.759533,119.71467 c -9.267129,0.77395 -18.529602,1.90873 -27.750908,2.98667 -6.459706,5.54537 -10.344767,13.24774 -14.982497,20.20676 -4.662305,5.91771 -13.571747,1.99467 -18.819752,7.0526 -2.462177,1.79538 -6.456271,4.51841 -4.553201,8.08484 2.157569,4.09674 4.196725,8.53197 7.473617,11.83661 4.867923,1.84388 11.744839,1.06636 14.670474,6.20629 2.655797,5.48765 1.758261,12.31531 5.22854,17.43382 3.55917,1.51057 7.757083,0.15486 11.525772,0.3204 9.054596,-0.99168 19.410052,0.34519 27.029501,-5.69533 2.94376,-2.43574 7.725061,-4.82506 7.563381,-9.22288 -1.35682,-3.57644 -5.897464,-4.33883 -8.734779,-6.42323 -6.106045,-3.56517 -13.029675,-6.22228 -18.124939,-11.21575 -1.20936,-2.79227 2.520891,-4.7645 3.937701,-6.67645 2.988224,-2.98812 6.936772,-5.83676 7.248148,-10.38762 2.946496,-4.67163 9.394804,-6.88637 10.336333,-12.87848 0.433606,-3.60189 2.742806,-8.1423 0.120766,-11.35361 -0.655636,-0.35738 -1.450373,-0.27293 -2.168145,-0.27461 z"
     id="path6" /><path
     style="fill:#80a004;fill-opacity:0.701961;stroke:#312114;stroke-width:0.547112;stroke-opacity:0"
     d="m 203.23561,158.51571 c -4.26398,0.44825 -8.44234,1.62669 -12.68293,2.07625 -2.77722,2.01214 -2.6266,6.17798 -3.86656,9.12946 -0.24441,2.5483 -2.34947,5.58069 -0.87683,7.98698 4.76311,2.98456 10.88032,2.38298 16.26478,2.07624 5.92686,-0.2114 8.30404,-6.9137 9.16945,-11.82914 1.12529,-4.85756 -2.71282,-10.35651 -8.00791,-9.43979 z"
     id="path7" /><path
     style="fill:#80a004;fill-opacity:0.701961;stroke:#312114;stroke-width:0.547112;stroke-opacity:0"
     d="m 120.75439,259.54953 c -3.09284,-0.31405 -4.47228,3.05573 -7.36141,3.56904 -2.90925,1.59022 -6.78518,1.19032 -9.33294,3.2912 -0.99278,1.78993 -0.012,3.85057 2.0538,4.06167 3.35601,1.61998 7.1955,5.31353 11.01061,2.55176 2.7606,-1.84227 5.35054,-4.57801 9.01878,-3.82444 3.95828,1.12599 2.71217,-1.72011 2.41925,-4.21019 1.38331,-2.43393 -0.82823,-5.76355 -3.68979,-5.31295 -1.37122,-0.0731 -2.74487,-0.13213 -4.1183,-0.12615 z"
     id="path8" /><path
     style="fill:#80a004;fill-opacity:0.701961;stroke:#312114;stroke-width:1.5881;stroke-opacity:0"
     d="m 125.99185,253.78672 c -1.94474,0.53841 -3.87953,1.4641 -5.14787,3.08752 -0.37875,0.5273 -1.0667,1.17722 -0.79112,1.8881 0.37346,0.74325 1.18805,1.08345 1.98922,1.05152 1.2791,0.014 2.57937,0.20084 3.8489,0.0239 0.29261,-0.17238 0.76105,-0.47803 1.06652,-0.19032 0.66353,1.02487 1.35154,2.03841 1.89277,3.13309 0.4153,0.5402 1.13188,0.0763 1.32948,-0.42316 1.06344,-1.83179 1.36049,-4.20162 0.30864,-6.10711 -0.73379,-1.47442 -2.3855,-2.15981 -3.8613,-2.61079 -0.21176,0.0492 -0.42352,0.0981 -0.63527,0.14727 z"
     id="path9" /><path
     style="fill:#80a004;fill-opacity:0.701961;stroke:#312114;stroke-width:0.0967167;stroke-opacity:0"
     d="m 104.39764,265.35266 c -1.16625,0.31024 -2.66376,0.1656 -3.444,1.2726 -0.65198,0.90088 -0.35738,2.28625 0.65547,2.78608 0.81618,0.43029 1.80102,0.65089 2.71543,0.50287 0.41992,-0.15803 0.20174,-0.6066 -0.0528,-0.79584 -0.52676,-0.9107 -0.45557,-2.28857 0.43487,-2.94399 0.25215,-0.2838 0.16644,-0.8837 -0.30906,-0.82172 z"
     id="path10" /><path
     style="fill:#80a004;fill-opacity:0.701961;stroke:#312114;stroke-width:0.0967167;stroke-opacity:0"
     d="m 104.39953,265.35266 c -1.1669,0.30976 -2.66513,0.1654 -3.44589,1.2726 -0.65198,0.90088 -0.35738,2.28625 0.65547,2.78608 0.82803,0.44189 1.82651,0.63848 2.7534,0.51379 0.5099,-0.37059 -0.23265,-0.83109 -0.26842,-1.26053 -0.24771,-0.84735 -0.1605,-1.92153 0.6041,-2.4723 0.25708,-0.28416 0.18727,-0.89767 -0.29867,-0.83966 z"
     id="path11" /><path
     style="fill:#80a004;fill-opacity:0.701961;stroke:#312114;stroke-width:0.0967167;stroke-opacity:0"
     d="m 120.24138,259.29124 c -1.19174,-0.012 -2.18606,0.72732 -3.00365,1.51547 -3.09403,2.52221 -7.11295,3.35682 -10.91126,4.20964 -0.67295,0.21903 -1.52263,0.39316 -1.87291,1.07017 -0.74962,0.55402 -0.74586,1.65797 -0.64131,2.50084 0.0931,0.46614 0.43222,0.83051 0.5465,1.28129 0.53235,0.42154 1.28739,0.4293 1.86186,0.80239 2.10408,1.08626 3.95947,2.68289 6.273,3.34166 0.99633,0.25654 2.09106,0.30871 3.08576,0.0289 2.23238,-0.94833 4.04666,-2.608 5.95751,-4.05378 1.06939,-0.60018 2.35779,-0.58348 3.54942,-0.66172 1.17716,0.0811 2.39152,0.32912 3.5581,0.0825 0.792,-0.55383 0.56536,-1.6811 0.26992,-2.45192 -0.22976,-1.05746 -0.2758,-2.18708 0.15367,-3.20202 0.0498,-0.43883 0.45474,-1.11059 -0.03,-1.41354 -0.33937,-0.0257 -0.37412,-0.58649 -0.61399,-0.83057 -0.27658,-0.46529 -0.61319,-0.91561 -0.76951,-1.43225 -0.57988,-0.22053 -1.1908,-0.67182 -1.86141,-0.46188 -1.34108,0.46284 -2.72727,0.23079 -4.08004,-0.0664 -0.45791,-0.11598 -0.96768,-0.28962 -1.47171,-0.25877 z m 7.00004,0.71915 c 0.0252,-0.0275 0.1506,-0.0391 0,0 z"
     id="path12" /><path
     style="fill:#80a004;fill-opacity:0.701961;stroke:#312114;stroke-width:0.0967167;stroke-opacity:0"
     d="m 126.14826,250.5473 c -1.82291,0.0769 -3.76276,0.39998 -5.25745,1.51445 -1.74607,1.53725 -2.91734,3.62229 -4.72115,5.10854 -1.72616,1.54993 -3.8863,2.50475 -6.13468,3.06651 -3.13915,0.82772 -6.27019,1.76403 -9.43854,2.40327 -1.360202,0.20588 -3.069262,0.55359 -3.616868,2.00571 -0.710192,1.98452 0.168792,4.04907 0.981901,5.85041 0.568356,1.35413 1.737733,2.75372 3.342567,2.68614 1.70878,0.26945 3.34455,1.0453 4.80522,1.9842 2.44239,1.98082 5.54499,3.50838 8.76878,3.11328 2.59989,-0.19151 4.89087,-1.74898 6.68715,-3.5468 0.46343,-0.43499 0.89615,-0.93109 1.41977,-1.28792 1.83692,-0.0881 3.69592,0.11518 5.51868,-0.16162 2.00619,-0.44112 4.06827,-1.58885 4.79184,-3.6247 0.44783,-0.81525 0.021,-1.71701 -0.45929,-2.4037 -0.41818,-0.55964 -0.54297,-1.2956 -0.18416,-1.91784 0.91332,-1.9077 1.50933,-3.98881 1.4447,-6.11958 0.0438,-2.34455 -0.2635,-4.95283 -1.95454,-6.72615 -1.56805,-1.49295 -3.89951,-1.94498 -5.99396,-1.94414 z m 0.49435,3.41113 c 1.69327,0.37052 3.45619,1.42674 3.96669,3.18693 0.51206,1.79361 0.20552,3.84104 -0.84853,5.38061 -0.21164,0.28702 -0.68738,0.20221 -0.77033,0.62393 -0.62461,1.58773 -0.49627,3.40174 -0.0378,4.9979 0.0786,0.32501 0.20839,0.72284 -0.19875,0.88763 -0.89982,0.43228 -1.95518,0.11419 -2.91358,0.12236 -1.75712,-0.0731 -3.75574,-0.0981 -5.13862,1.17778 -1.66965,1.26971 -3.29269,2.65651 -5.23592,3.47255 -0.98088,0.13033 -2.02657,0.1949 -3.01464,-0.002 -2.33504,-0.8907 -4.32883,-2.43829 -6.55576,-3.53828 -0.76908,-0.31104 -1.54018,-0.65014 -2.39126,-0.60695 -1.01925,-0.042 -2.39781,-0.41967 -2.58963,-1.60015 -0.1983,-0.89257 0.39873,-1.8184 1.29767,-1.99823 1.34681,-0.48581 2.8239,-0.24956 4.1641,-0.76744 3.80008,-0.98113 7.87613,-1.74093 11.00215,-4.30013 1.02558,-0.93713 2.50668,-1.54602 2.98175,-2.97097 0.96142,-1.76579 2.70939,-2.94851 4.56381,-3.62612 0.55347,-0.20083 1.12321,-0.42262 1.71841,-0.4392 z"
     id="path13" /></svg>
