<?xml version="1.0" encoding="UTF-8" standalone="no"?>
<!-- Created with Inkscape (http://www.inkscape.org/) -->

<svg
   width="600mm"
   height="600mm"
   viewBox="0 0 600 600"
   version="1.1"
   id="svg5"
   xml:space="preserve"
   sodipodi:docname="big_rockb.svg"
   inkscape:version="1.3 (0e150ed6c4, 2023-07-21)"
   xmlns:inkscape="http://www.inkscape.org/namespaces/inkscape"
   xmlns:sodipodi="http://sodipodi.sourceforge.net/DTD/sodipodi-0.dtd"
   xmlns="http://www.w3.org/2000/svg"
   xmlns:svg="http://www.w3.org/2000/svg"><sodipodi:namedview
     id="namedview1"
     pagecolor="#ffffff"
     bordercolor="#000000"
     borderopacity="0.25"
     inkscape:showpageshadow="2"
     inkscape:pageopacity="0.0"
     inkscape:pagecheckerboard="0"
     inkscape:deskcolor="#d1d1d1"
     inkscape:document-units="mm"
     inkscape:zoom="0.25656583"
     inkscape:cx="-29.232264"
     inkscape:cy="1366.1211"
     inkscape:window-width="1920"
     inkscape:window-height="1017"
     inkscape:window-x="-8"
     inkscape:window-y="-8"
     inkscape:window-maximized="1"
     inkscape:current-layer="svg5" /><defs
     id="defs2"><clipPath
       clipPathUnits="userSpaceOnUse"
       id="clipPath22"><path
         id="path23"
         style="fill:#ff0000;fill-opacity:1;fill-rule:nonzero;stroke:none;stroke-width:0.132293"
         d="m 101.04151,172.81842 v 10.12302 c 0.0524,-0.0479 0.11556,-0.0719 0.18087,-0.0718 0.17645,7e-5 0.36788,0.17499 0.39921,0.52453 0.0511,0.57016 0.10575,1.14006 0.162,1.70973 0.0637,0.64483 -0.53223,0.75317 -0.67852,0.21653 -0.0204,0.0278 -0.0397,0.0583 -0.0636,0.0773 v 13.87917 h 26.45842 v -26.45841 z" /></clipPath><clipPath
       clipPathUnits="userSpaceOnUse"
       id="clipPath42"><path
         id="path42"
         style="fill:#ff0000;fill-opacity:1;fill-rule:nonzero;stroke:none;stroke-width:0.264583"
         d="M 74.941679,-29.45815 V 93.816498 H 180.83806 V 65.65129 c -2.71857,-3.941284 -5.4312,-7.886975 -8.16591,-11.816331 C 157.93555,33.066466 142.31343,12.948492 126.72301,-7.1804403 120.94675,-14.721373 115.03804,-22.155611 108.96957,-29.45815 Z m 54.711391,0 c 3.2879,4.121416 6.5468,8.266199 9.75289,12.45402 14.01691,18.0974355 28.0212,36.214618 41.4321,54.768234 V -29.45815 Z" /></clipPath><clipPath
       clipPathUnits="userSpaceOnUse"
       id="clipPath43"><path
         id="path43"
         style="fill:#ff0000;fill-opacity:1;fill-rule:nonzero;stroke:none;stroke-width:0.264583"
         d="M 94.637119,-6.5334515 V 60.009775 H 160.52767 V 37.115049 C 149.63947,22.405687 138.42942,7.9343094 127.22324,-6.5334515 Z m 52.867571,0 c 4.35952,5.63929472 8.703,11.2910329 13.02298,16.9607225 V -6.5334515 Z" /></clipPath><clipPath
       clipPathUnits="userSpaceOnUse"
       id="clipPath44"><path
         id="path44"
         style="fill:#ff0000;fill-opacity:1;fill-rule:nonzero;stroke:none;stroke-width:0.264583"
         d="m 114.27003,21.286039 v 60.748748 h 60.36686 V 56.678195 c -0.6584,-0.945295 -1.30673,-1.89778 -1.96474,-2.843236 -7.80599,-11.001084 -15.8671,-21.814589 -24.03368,-32.54892 z m 54.44319,0 c 1.97607,2.636938 3.96757,5.262512 5.92367,7.914245 v -7.914245 z" /></clipPath><clipPath
       clipPathUnits="userSpaceOnUse"
       id="clipPath45"><path
         id="path45"
         style="fill:#ff0000;fill-opacity:1;fill-rule:nonzero;stroke:none;stroke-width:0.264583"
         d="m 126.04347,-33.971053 c 4.53607,5.588929 8.98498,11.248978 13.36249,16.966923 11.24165,14.5142599 22.48509,29.034066 33.42018,43.781823 h 4.60902 v -60.748746 z m -8.97516,14.462683 V 26.777693 H 152.7824 C 144.18759,15.388666 135.45932,4.0990935 126.72301,-7.1804403 c -3.17469,-4.1445707 -6.40034,-8.2479617 -9.6547,-12.3279297 z" /></clipPath><clipPath
       clipPathUnits="userSpaceOnUse"
       id="clipPath46"><path
         id="path46"
         style="fill:#ff0000;fill-opacity:1;fill-rule:nonzero;stroke:none;stroke-width:0.264583"
         d="m 135.02948,-22.643579 c 1.46237,1.877021 2.92979,3.749764 4.37648,5.639449 8.57677,11.0735888 17.1479,22.1552878 25.59275,33.331299 h 2.50269 v -38.970748 z m -6.11694,18.293457 v 20.677291 h 15.92875 C 139.55306,9.4180557 134.24,2.5279333 128.91254,-4.350122 Z" /></clipPath><clipPath
       clipPathUnits="userSpaceOnUse"
       id="clipPath47"><path
         id="path47"
         style="fill:#ff0000;fill-opacity:1;fill-rule:nonzero;stroke:none;stroke-width:0.264583"
         d="M 65.941713,-33.446537 V 27.302209 H 126.30857 V -7.7142578 C 119.60968,-16.446309 112.75074,-25.049574 105.64213,-33.446537 Z" /></clipPath></defs><ellipse
     style="fill:#808080;fill-opacity:1;stroke:#312114;stroke-width:0.27888;stroke-opacity:0"
     id="path2"
     cx="300.00073"
     cy="-300.00879"
     rx="299.84857"
     ry="299.84048"
     transform="rotate(90)" /><g
     id="layer1"
     transform="matrix(22.560059,0,0,22.560059,-2273.5282,-3893.3921)"
     style="stroke:#312114;stroke-opacity:0"><g
       id="g3377"
       transform="translate(-0.26481154,-0.23943041)"
       style="stroke:#312114;stroke-opacity:0"><g
         id="g2724"
         transform="matrix(0.82201903,0,0,0.82067983,4.7366927,33.248982)"
         style="stroke-width:1.21752;stroke:#312114;stroke-opacity:0"><path
           style="fill:#808080;fill-opacity:1;stroke:#312114;stroke-width:2.57706;stroke-linecap:round;stroke-linejoin:round;stroke-dasharray:none;stroke-opacity:0;paint-order:normal"
           d="m 124.38731,197.74764 -6.26442,-13.73199 5.33734,-8.13863 12.64663,-3.29887 9.12394,2.35964 3.14618,11.16896 -3.77542,10.38242 -7.55085,3.30349 z"
           id="path1666" /><path
           id="path2153"
           style="opacity:1;fill:#666666;fill-opacity:1;stroke:#312114;stroke-width:2.57706;stroke-linecap:round;stroke-linejoin:round;stroke-dasharray:none;stroke-opacity:0;paint-order:normal"
           d="m 127.0521,192.26079 -6.15095,-0.35664 3.48616,5.84349 12.6634,2.04502 z" /><path
           id="path2570"
           style="opacity:1;fill:#999999;fill-opacity:1;stroke:#312114;stroke-width:2.57706;stroke-linecap:round;stroke-linejoin:round;stroke-dasharray:none;stroke-opacity:0;paint-order:normal"
           d="m 145.2308,174.93779 -9.12394,-2.35964 -1.4157,6.92173 5.5163,4.93315 8.16952,1.67372 z" /><path
           style="fill:none;fill-opacity:1;stroke:#312114;stroke-width:1.9328;stroke-linecap:round;stroke-linejoin:round;stroke-dasharray:none;stroke-opacity:0;paint-order:normal"
           d="m 124.38731,197.74764 -6.26442,-13.73199 5.33734,-8.13863 12.64663,-3.29887 9.12394,2.35964 3.14618,11.16896 -3.77542,10.38242 -7.55085,3.30349 z"
           id="path2572" /></g><path
         id="rect2804"
         style="fill-opacity:0;stroke-width:2.11667;stroke-linecap:round;stroke:#312114;stroke-opacity:0"
         d="m 101.04151,172.81842 h 26.45834 v 26.45833 h -26.45834 z"
         clip-path="url(#clipPath22)" /></g></g><path
     style="fill:#505934;fill-opacity:1;stroke:none;stroke-width:29.3282;stroke-linecap:round;stroke-linejoin:round;stroke-miterlimit:10"
     d="m 347.70237,30.570056 c 9.21604,-3.832382 18.07502,6.191156 17.90199,14.962491 -1.05482,8.219309 -3.40254,16.295484 -5.3983,24.327282 -12.03895,15.162954 -27.22931,29.06137 -33.27495,48.055451 -2.28845,7.39039 -1.21043,15.44281 -3.37227,22.76497 -8.52381,6.96489 -6.90361,16.56973 -6.07972,26.15256 -0.88865,8.74627 -13.26189,6.93617 -19.42638,10.38416 -9.89581,2.42878 -18.062,8.6842 -25.08964,15.80949 -9.03236,7.23147 -16.56755,17.53205 -28.11018,20.7473 -10.18005,3.72478 -16.37355,-6.30915 -16.72794,-15.26503 -0.57249,-10.62528 -1.69632,-21.30959 -1.13554,-31.94604 1.50022,-12.26669 9.78105,-22.08041 14.10489,-33.28982 1.11742,-9.2877 -9.94155,-13.39573 -12.22022,-21.40346 -1.03513,-12.870002 -1.78853,-25.867362 -1.27291,-38.777809 2.01769,-10.538851 12.50752,-16.346916 22.12201,-18.695235 20.7743,-5.985985 42.26654,-9.089828 62.96005,-15.429117 10.99664,-3.39056 21.9601,-7.069823 33.49896,-8.075767 l 1.52007,-0.32144 z"
     id="path4547" /><path
     style="fill:#596b22;fill-opacity:1;stroke:none;stroke-width:29.3282;stroke-linecap:round;stroke-linejoin:round;stroke-miterlimit:10"
     d="m 270.47312,58.802653 c 20.43718,-5.485423 40.88412,-10.958829 61.39407,-16.153673 6.57715,-0.752038 16.11869,-2.431819 20.93308,2.335717 1.11855,12.289856 -6.66247,22.706008 -12.22658,32.954594 -7.34607,12.013297 -16.26795,23.158279 -21.22618,36.494529 -4.40778,11.1954 -7.0441,23.02157 -10.22817,34.60837 -1.36863,6.57248 -1.73823,14.87425 -9.86499,16.44272 -10.28798,4.48843 -20.72951,9.13888 -28.87936,17.09529 -9.03144,7.4235 -17.69024,16.08731 -28.90867,20.07505 -6.03154,-0.90975 -3.24044,-10.97356 -4.4773,-15.83106 -0.50735,-9.74349 -1.5114,-20.08984 3.67394,-28.89313 3.71208,-8.4712 8.34501,-16.6074 11.00838,-25.49349 0.17804,-7.39442 -6.3707,-12.80632 -10.01896,-18.71699 -5.33242,-6.20477 -2.72854,-15.037873 -3.34918,-22.485025 0.24579,-8.185229 -0.57826,-18.774076 7.43493,-23.759324 7.58154,-4.465718 16.39969,-6.151578 24.73499,-8.673578 z"
     id="path4758" /><path
     style="fill:#505934;fill-opacity:1;stroke:none;stroke-width:29.3282;stroke-linecap:round;stroke-linejoin:round;stroke-miterlimit:10"
     d="m 175.61375,98.173673 c 7.34629,1.106656 14.69255,2.478037 21.78707,4.709557 4.77467,1.25369 7.54235,6.25699 7.57228,10.94409 -0.52274,4.38074 -4.82178,6.91615 -8.44538,8.65238 -7.16365,3.08293 -15.1538,3.53582 -22.37359,6.42636 -2.22568,2.07752 -0.88211,5.65621 -1.23987,8.36121 -0.203,3.65189 0.45775,7.61987 -1.2208,10.99756 -2.41914,2.72338 -6.19855,3.56578 -9.35887,5.15527 -4.84182,1.88457 -9.70607,4.2219 -14.94508,4.63095 -3.00399,-0.0914 -6.92631,-1.75991 -6.70514,-5.3297 0.10601,-6.02683 4.67867,-10.96568 4.48965,-17.05946 0.27074,-9.72224 -0.45472,-19.47127 0.25178,-29.17987 0.31021,-3.29715 4.33297,-3.60777 6.71111,-4.90934 6.5641,-2.651467 13.70184,-4.79982 20.84402,-3.634449 0.88414,0.03332 1.7614,0.06663 2.63284,0.235426 z"
     id="path4052" /><path
     style="fill:#596b22;fill-opacity:1;stroke:none;stroke-width:29.3282;stroke-linecap:round;stroke-linejoin:round;stroke-miterlimit:10"
     d="m 164.45726,109.30476 c 5.0158,-0.92073 10.16107,-1.35927 15.23123,-0.61078 3.91721,0.55896 8.06037,0.93924 11.51313,3.03122 2.33104,1.19025 0.79243,3.81632 -1.23995,4.16891 -2.99215,1.07241 -6.17441,1.48523 -9.18496,2.51411 -3.50278,0.88166 -6.9706,1.98285 -10.10548,3.81636 -2.50605,1.26565 -5.28435,2.87997 -5.99995,5.82127 -1.43143,4.65574 -0.74878,10.0322 -3.74773,14.13609 -1.87386,2.43119 -4.91739,4.03107 -7.99395,4.09747 -2.61449,-9.7e-4 -0.83981,-3.10259 -0.89068,-4.65845 1.07658,-7.81725 1.71693,-15.69905 3.08256,-23.47423 0.79784,-3.39779 2.76071,-6.92943 6.11426,-8.32461 1.05493,-0.27014 2.15702,-0.28377 3.22155,-0.51742 z"
     id="path4194" /><path
     style="fill:#677c28;fill-opacity:1;stroke:none;stroke-width:29.3282;stroke-linecap:round;stroke-linejoin:round;stroke-miterlimit:10"
     d="m 174.01334,108.08187 c 4.49448,0.78568 9.06232,1.1602 13.51535,2.17015 1.8746,0.49092 3.9883,1.14298 5.0685,2.87898 0.49314,1.51522 -1.20981,2.4458 -2.45309,2.7088 -3.65707,1.13964 -7.458,1.72261 -11.13296,2.80102 -3.62608,0.99864 -7.37239,2.0754 -10.41328,4.37636 -0.92239,0.75814 -1.73159,1.6457 -2.68072,2.37244 -1.55295,0.30606 -2.09857,-1.64836 -2.92241,-2.58797 -1.21749,-2.28439 -0.77032,-5.00757 -0.28888,-7.43164 0.48936,-2.09353 1.15438,-4.27044 2.60833,-5.90433 1.45165,-1.24528 3.48377,-1.39482 5.30989,-1.48585 1.13315,-0.0289 2.27289,-0.16873 3.38922,0.1021 z"
     id="path4336" /><path
     style="fill:#505934;fill-opacity:1;stroke:none;stroke-width:29.3282;stroke-linecap:round;stroke-linejoin:round;stroke-miterlimit:10"
     d="m 532.88608,297.42788 c 17.83232,0.83405 37.58081,5.37304 48.93415,20.31046 3.44047,7.07792 0.0451,15.19126 -1.26429,22.45189 -8.55534,30.83806 -20.15504,60.74257 -31.52275,90.62815 -5.93434,14.10404 -10.75687,28.83149 -18.48283,42.08436 -5.40353,6.9456 -15.94803,6.33605 -23.3414,3.23824 -11.24957,-4.82234 -22.88389,-9.67532 -32.37995,-17.54658 -5.401,-6.63802 -5.4895,-16.65645 -13.13284,-21.88832 -5.87364,-5.8802 -13.77374,-10.31184 -17.56452,-17.9463 0.56156,-9.32305 14.48069,-6.92854 21.25926,-9.24649 9.03239,0.49906 15.12092,-5.02873 16.72354,-13.59459 3.75111,-6.28306 4.01624,-14.24603 -0.38779,-20.3026 -5.45332,-8.48407 -16.67218,-8.93187 -24.70449,-13.89664 -6.8314,-3.57022 -15.42926,-8.74246 -15.55115,-17.33384 4.01168,-6.72581 14.23502,-7.18617 17.86842,-14.53046 1.9404,-10.93367 14.0643,-8.2708 21.95819,-10.23311 14.32693,-2.94052 27.11665,-10.25628 39.03976,-18.43976 3.80963,-2.10972 8.03458,-4.5727 12.54871,-3.75441 z"
     id="path3135" /><path
     style="fill:#596b22;fill-opacity:1;stroke:none;stroke-width:29.3282;stroke-linecap:round;stroke-linejoin:round;stroke-miterlimit:10"
     d="m 538.42208,314.06424 c 9.32715,-0.75635 21.34975,0.75712 25.61087,10.40178 2.94646,9.57886 -0.35315,19.66747 -2.52165,29.07531 -9.42724,32.36756 -21.55094,63.91222 -34.80977,94.88851 -2.45661,5.35953 -5.36866,14.9678 -13.15885,11.45201 -12.86813,-4.60193 -24.2762,-12.51699 -35.32146,-20.42328 -6.85457,-5.41957 -13.85891,-10.99694 -18.95363,-18.16468 -1.95906,-6.85397 9.20525,-4.89202 13.55785,-6.30507 6.49947,-0.13976 12.92602,-3.43977 15.2992,-9.75284 5.0208,-10.80428 8.20232,-24.66428 1.10966,-35.29729 -6.06689,-6.77885 -15.34689,-9.11604 -22.79552,-14.00281 -3.53774,-3.15343 -13.86191,-5.82595 -10.63343,-11.75458 9.43467,-8.19646 21.91972,-11.61737 34.06454,-13.29625 13.03213,-1.9767 24.45792,-8.83135 35.79077,-15.10312 3.92136,-2.33924 8.46756,-1.13111 12.76138,-1.71769 z"
     id="path3139" /><path
     style="fill:#677c28;fill-opacity:1;stroke:none;stroke-width:29.3282;stroke-linecap:round;stroke-linejoin:round;stroke-miterlimit:10"
     d="m 481.04335,331.77781 c 1.9386,-0.16927 5.80986,-0.50803 9.08533,-1.06101 3.27547,-0.55297 5.95668,-1.31932 8.08969,-1.77165 2.13305,-0.45234 3.71714,-0.59108 5.45649,-0.47624 1.73936,0.11504 3.63297,0.48121 4.95143,1.38812 1.31841,0.90692 2.06517,2.34858 2.16691,3.53348 0.10148,1.18485 -0.43723,2.11862 -1.19386,3.6035 -0.75669,1.48491 -1.73105,3.52062 -2.55979,4.65551 -0.82864,1.13478 -1.5176,1.37257 -3.50651,1.94559 -1.9889,0.57301 -5.27821,1.48152 -7.79479,2.1008 -2.51663,0.61929 -4.26056,0.94934 -5.3455,1.22093 -1.08494,0.27165 -1.51039,0.48663 -1.41859,1.54673 0.0925,1.06009 0.70094,2.95703 1.31796,4.942 0.61677,1.98508 1.24147,4.0583 1.2945,5.69133 0.0518,1.63312 -0.4627,2.83067 -1.35562,3.74931 -0.89275,0.91866 -2.16623,1.56184 -3.19387,1.96228 -1.02764,0.40045 -1.81158,0.5577 -3.06549,0.40312 -1.2539,-0.15571 -2.97933,-0.62426 -5.41478,-1.60718 -2.4354,-0.98296 -5.58076,-2.4809 -8.9847,-4.39901 -3.40397,-1.91806 -7.06603,-4.25731 -9.66288,-6.06875 -2.5968,-1.81134 -4.12768,-3.09597 -5.30786,-3.92465 -1.1801,-0.82864 -2.01053,-1.1993 -1.47449,-2.1353 0.53599,-0.93583 2.44403,-2.43259 4.34415,-4.01717 1.90024,-1.58463 3.79297,-3.2574 5.87775,-4.76982 2.08478,-1.51242 4.36023,-2.864 6.59133,-3.7237 2.23121,-0.85979 4.41562,-1.22817 5.7279,-1.431 1.31235,-0.20298 1.75227,-0.24052 2.17843,-0.41081 0.42612,-0.16907 0.84306,-0.47283 1.05063,-0.62358 0.20743,-0.15113 0.20743,-0.15332 2.14637,-0.32309 z"
     id="path4040" /><path
     style="fill:#505934;fill-opacity:1;stroke:none;stroke-width:29.3282;stroke-linecap:round;stroke-linejoin:round;stroke-miterlimit:10"
     d="m 229.39551,472.87277 c 5.3861,-2.27162 11.896,-2.17159 17.06099,0.62596 4.47181,2.89673 5.16949,8.83258 5.18215,13.71521 0.006,4.20812 -1.20682,8.30013 -3.14933,12.00153 -1.06779,2.80544 3.22405,4.50894 1.62574,7.35567 -1.87589,5.21375 -7.98976,7.05161 -13.04738,6.92592 -2.63885,0.16708 -5.90676,-1.38274 -7.74665,1.3395 -3.81572,4.1026 -8.7569,7.78617 -14.60698,7.8006 -5.41374,0.24009 -10.57055,-2.18078 -14.64946,-5.59208 -2.56312,-2.17658 -5.92269,-2.94156 -8.87176,-4.17087 -3.41705,0.83475 -5.76776,-2.29833 -6.86743,-5.08304 -1.48019,-3.37836 -3.28227,-7.5445 -1.29746,-11.08075 2.03464,-2.75656 5.92217,-2.39298 8.90406,-3.22233 5.51577,-1.36417 10.9804,-2.93504 16.49345,-4.31194 6.15865,-1.7927 11.58964,-5.74569 15.24181,-11.01137 1.65383,-1.95503 3.25591,-4.33607 5.72825,-5.29193 z"
     id="path2080" /><path
     style="fill:#596b22;fill-opacity:1;stroke:none;stroke-width:29.3282;stroke-linecap:round;stroke-linejoin:round;stroke-miterlimit:10"
     d="m 193.40219,499.70501 c 7.70148,-1.50803 15.64822,-2.68187 22.74156,-6.2176 4.56963,-2.31247 8.04856,-6.16842 11.24251,-10.07423 3.12103,-3.54012 7.91673,-6.75079 12.82807,-5.31121 3.44751,0.93798 5.97444,4.26541 5.84597,7.85358 0.20663,3.12868 -1.17765,6.06639 -3.15521,8.41307 -2.16856,2.75534 -1.75605,6.5508 -0.30931,9.52783 1.9779,3.20854 -3.1889,1.78418 -4.89154,2.12047 -3.06,0.2292 -6.39032,-0.74076 -9.24742,0.71382 -2.82261,1.93288 -5.04117,4.6817 -8.14857,6.23339 -2.95242,1.71255 -6.65617,3.3802 -9.99891,1.69158 -5.04661,-2.26655 -8.97934,-7.04292 -14.6967,-7.74412 -2.3122,-0.0556 -5.71465,-0.55597 -6.11164,-3.35639 -0.1197,-2.23186 1.68584,-3.92826 3.9012,-3.85021 z"
     id="path2291" /><path
     style="fill:#505934;fill-opacity:1;stroke:none;stroke-width:29.3282;stroke-linecap:round;stroke-linejoin:round;stroke-miterlimit:10"
     d="m 137.1144,230.30766 c 15.92478,-1.45608 31.79013,-3.49714 47.6734,-5.29374 5.65276,3.23615 1.22102,13.35687 1.01319,19.23807 -0.92058,7.96164 -6.17667,14.42622 -12.65409,18.76057 -6.27934,2.90232 -8.93829,7.80413 -8.60627,14.43368 -5.75069,8.1576 -14.83526,13.37961 -21.02031,21.19614 -1.16821,7.13247 7.98801,9.63315 12.37572,13.62651 11.6737,7.42121 24.54028,12.76874 36.47172,19.70022 6.9314,5.05754 -0.24579,13.2673 -5.18168,16.7043 -7.75425,6.03508 -16.28324,12.4683 -26.52477,12.79255 -14.53942,1.27394 -29.13254,1.95245 -43.69632,2.88736 -8.28941,2.31761 -10.76489,-5.32502 -11.69565,-11.93539 -2.03841,-8.57645 -2.01372,-18.19415 -7.40627,-25.5438 -7.581817,-6.30276 -18.398234,-4.94619 -27.082047,-8.75405 -4.984731,-6.70793 -8.816619,-14.29934 -12.901885,-21.59776 -3.594809,-7.60846 6.266897,-11.73225 10.798915,-15.89489 5.023599,-4.62117 12.13296,-3.16909 18.28458,-4.58572 8.21996,0.40881 15.331367,-4.65566 18.636827,-12.01764 6.00988,-11.67375 13.60709,-22.64272 22.92019,-31.89668 2.50287,-1.78534 5.7174,-1.34879 8.59475,-1.81973 z"
     id="path308" /><path
     style="fill:#596b22;fill-opacity:1;stroke:none;stroke-width:29.3282;stroke-linecap:round;stroke-linejoin:round;stroke-miterlimit:10"
     d="m 136.61257,245.98414 c 11.02885,-4.56403 23.14966,-5.03378 34.90124,-5.81983 5.53453,-0.38972 -2.04572,5.86489 -2.63044,8.20463 -9.84545,14.76024 -20.37831,29.04215 -30.92508,43.29988 -3.82462,4.52043 -3.35191,11.32491 0.42851,15.70506 7.5755,8.98253 17.63539,15.38406 26.80643,22.59425 4.00985,3.30643 8.78625,5.93307 12.18129,9.83705 -4.30092,3.92822 -10.26177,5.9616 -15.83912,7.60348 -11.37678,2.86559 -23.24574,2.04199 -34.87039,2.10749 -6.05563,1.15516 -9.85532,-3.40345 -11.81274,-8.53887 -4.59265,-8.40107 -7.64837,-18.27623 -15.864806,-23.9939 -7.721238,-6.03196 -17.257827,-9.35169 -24.348379,-16.27321 -4.422446,-2.2578 -4.317811,-7.39325 0.855814,-8.54315 8.397543,-4.4196 16.345227,-9.81797 25.491501,-12.65763 8.50306,-2.13421 12.71545,-10.32426 18.30206,-16.23525 4.78532,-5.35245 9.37109,-10.94079 14.55274,-15.90319 0.81906,-0.66091 1.80194,-1.02211 2.77134,-1.38681 z"
     id="path1871" /><path
     style="fill:#677c28;fill-opacity:1;stroke:none;stroke-width:29.3282;stroke-linecap:round;stroke-linejoin:round;stroke-miterlimit:10"
     d="m 83.495681,287.54515 c 6.411828,-3.53541 13.048353,-6.86991 20.196139,-8.61875 1.37285,-0.46642 4.40076,-0.39727 3.53181,1.82057 -1.43377,3.22357 -4.25253,5.56244 -6.97123,7.69344 -3.632815,2.76347 -7.780899,4.80609 -11.265626,7.76433 -0.959625,1.72617 2.048496,2.65653 2.402747,4.24154 1.043995,1.7806 -0.904085,2.95902 -2.001677,3.94591 0.180115,1.4584 1.874658,2.23226 2.450618,3.57425 1.540322,2.08769 -1.594833,4.15032 -3.382837,2.80564 -2.744131,-1.4799 -5.224481,-3.40201 -7.900037,-5.00269 -3.199631,-2.07643 -6.306255,-4.41697 -8.740761,-7.37494 -1.057811,-1.21899 -1.230519,-3.20636 0.0636,-4.32781 2.656348,-2.64735 6.463745,-3.44994 9.55745,-5.41394 0.698434,-0.34639 1.373858,-0.7387 2.059743,-1.10761 z"
     id="path1929" /><path
     style="fill:#677c28;fill-opacity:1;stroke:none;stroke-width:29.3282;stroke-linecap:round;stroke-linejoin:round;stroke-miterlimit:10"
     d="m 260.35802,130.90164 c 3.77144,-0.22262 8.23891,1.34376 9.09793,5.46611 0.9376,5.49261 0.0734,11.10654 -0.1902,16.63107 0.19778,2.80783 -1.80099,6.58513 -0.1278,8.70167 4.64821,-1.24126 9.77461,-3.63393 14.52818,-1.37422 3.12403,1.53988 6.25696,3.60603 8.058,6.66056 0.31086,3.12508 -4.91108,3.18477 -6.96102,5.06405 -5.84736,2.80644 -10.88919,6.94701 -15.46279,11.49622 -7.66383,7.19056 -15.89145,14.17515 -25.6851,18.25357 -2.77053,1.63563 -6.34542,0.43043 -5.34579,-3.22479 -0.48618,-3.03786 -1.7407,-5.95859 -1.55955,-9.13109 -0.2125,-6.94404 -1.34373,-13.91058 -0.60576,-20.84864 1.13773,-4.72561 3.63626,-8.99202 5.45154,-13.47997 3.36453,-7.30807 6.4627,-14.75322 10.16561,-21.89666 1.46919,-3.84384 5.57591,-3.61862 8.63616,-2.31746 z"
     id="path4762" /><path
     style="fill:#505934;fill-opacity:1;stroke-width:5.85616;stroke-linecap:round;stroke-linejoin:round;stroke-miterlimit:10"
     d="m 373.63892,337.87078 c 5.09608,0.0518 10.73909,-0.43555 14.61427,-4.14201 4.57444,-4.29188 6.21719,-10.60885 7.91104,-16.43043 1.05999,-3.47694 1.11899,-7.38054 -0.69939,-10.62565 -1.90194,-3.53655 -4.65127,-7.33073 -8.87373,-8.07168 -6.34708,-0.6971 -12.51446,1.47355 -18.6331,2.81142 -3.00238,0.80629 -6.14237,0.42967 -9.1715,0.96557 -2.79364,0.80789 -3.36309,4.06324 -4.22415,6.43078 -1.792,6.22532 -3.51087,12.47408 -5.17214,18.73505 -0.46265,2.16357 -1.25624,5.10517 0.89846,6.62466 3.55894,2.08658 7.77269,2.62262 11.79677,3.18254 3.83424,0.50594 7.69471,0.56481 11.55347,0.51964 z"
     id="path550" /><path
     style="fill:#677c28;fill-opacity:1;stroke-width:5.85616;stroke-linecap:round;stroke-linejoin:round;stroke-miterlimit:10"
     d="m 376.18294,306.49567 c 4.35513,0.66992 8.96615,1.30878 12.6472,3.9213 1.59566,1.06925 2.52808,2.94485 2.44903,4.85887 -0.13658,2.63109 -0.0407,5.49889 -1.58139,7.77071 -2.4168,3.30167 -6.56062,4.77337 -10.50404,5.13225 -4.53968,0.36336 -9.00863,1.35752 -13.56129,1.57063 -1.84948,-0.001 -3.98303,0.13697 -5.50237,-1.10749 -1.36259,-1.46293 -0.87206,-3.62762 -0.59427,-5.40202 1.18952,-6.82147 5.44366,-13.25906 11.73851,-16.34285 1.32171,-0.3635 2.74636,-0.69963 4.11986,-0.51291 0.26289,0.0371 0.52696,0.0756 0.78868,0.11165 z"
     id="path601" /><path
     style="fill:#596b22;fill-opacity:1;stroke-width:5.85616;stroke-linecap:round;stroke-linejoin:round;stroke-miterlimit:10"
     d="m 366.43108,311.34179 c 1.37625,1.45761 2.66048,3.00277 4.0587,4.43739 1.18532,1.08956 2.89354,0.47989 4.32513,0.63188 1.88762,0.0451 3.47985,1.42178 4.15773,3.12613 0.73633,1.58814 0.85719,3.44721 2.00848,4.83899 0.32322,0.81273 2.27267,1.75769 1.0777,2.5324 -2.15945,0.76018 -4.47475,0.92149 -6.70199,1.41327 -2.88385,0.50186 -5.71276,1.35742 -8.63639,1.60626 -2.26608,0.10607 -4.58431,-0.17086 -6.74844,-0.77246 -1.17639,-0.28369 -1.53609,-1.85145 -1.40502,-2.94293 0.28369,-3.83521 2.20118,-7.27112 3.82802,-10.67315 0.73693,-1.46981 1.38601,-3.03718 2.62357,-4.17232 0.49633,-0.70546 0.90907,-0.83755 1.41251,-0.0259 z"
     id="path605" /><path
     style="fill:#677c28;fill-opacity:1;stroke:none;stroke-width:29.3282;stroke-linecap:round;stroke-linejoin:round;stroke-miterlimit:10"
     d="m 238.95103,477.45179 c 2.14493,0.7782 4.43176,1.77673 5.63074,3.83912 1.49358,2.44833 1.87146,5.51758 1.04196,8.26126 -0.47731,1.66183 -1.21545,3.26689 -2.22921,4.66826 -0.77001,0.27747 -1.03789,-1.21493 -1.52674,-1.72226 -0.96738,-1.5624 -1.84032,-3.18274 -2.82613,-4.73286 -0.55881,-0.99041 -1.99277,-0.54385 -2.58779,0.16708 -0.85492,1.13583 -2.40835,1.03314 -3.67846,0.98228 -2.29403,-0.16748 -4.8343,-0.54607 -6.46659,-2.33773 -0.82413,-0.73552 -0.14694,-1.79015 0.33731,-2.49847 1.42854,-2.19057 3.46972,-3.9616 5.855,-5.03922 1.76833,-0.80427 3.5826,-1.61461 5.5215,-1.88393 0.32355,0.0407 0.62129,0.19559 0.92849,0.29621 z"
     id="path2847" /><path
     style="fill:#677c28;fill-opacity:1;stroke:none;stroke-width:29.3282;stroke-linecap:round;stroke-linejoin:round;stroke-miterlimit:10"
     d="m 474.72306,415.08937 c 1.08291,-0.31685 3.24375,-0.94913 5.2448,-1.38971 2.00102,-0.44066 3.84097,-0.69037 5.40463,-0.55924 1.56364,0.13059 2.84923,0.63911 3.86723,1.66017 1.01817,1.02086 1.77255,2.5509 1.85738,4.04801 0.0857,1.49708 -0.4961,2.96675 -1.33282,4.54624 -0.83678,1.57939 -1.93003,3.27108 -2.8082,4.36647 -0.87828,1.0953 -1.54356,1.59677 -2.44965,1.8544 -0.90604,0.25766 -2.05731,0.27038 -2.85689,0.25201 -0.79953,-0.0179 -1.24599,-0.0682 -1.40796,0.65676 -0.16249,0.72531 -0.0297,2.22058 0.13298,3.58105 0.16489,1.36034 0.35952,2.58374 0.18722,3.66003 -0.17147,1.07636 -0.71131,2.01009 -1.15103,2.53517 -0.43993,0.52519 -0.78195,0.6432 -1.62682,0.0993 -0.84487,-0.54304 -2.19215,-1.75494 -4.87886,-4.09103 -2.6867,-2.336 -6.71281,-5.79585 -9.13267,-8.11035 -2.41983,-2.3145 -3.2314,-3.48454 -3.91175,-4.66613 -0.68043,-1.18168 -1.22795,-2.37481 -1.53319,-3.3238 -0.30523,-0.9489 -0.3655,-1.65343 0.34308,-2.20614 0.70842,-0.55275 2.18088,-0.94753 3.65354,-1.34235 1.47271,-0.39474 2.94509,-0.78958 4.56974,-0.97504 1.62452,-0.18502 3.39981,-0.16249 4.55106,-0.17366 1.15127,-0.012 1.67918,-0.0562 1.94018,-0.079 0.26104,-0.0221 0.25542,-0.0259 1.3383,-0.34309 z"
     id="path4044" /><path
     style="fill:#80a004;fill-opacity:0.701961;stroke:#312114;stroke-width:1.45408;stroke-opacity:0"
     d="m 533.12335,296.83756 c -15.29603,1.63212 -26.49344,14.43453 -41.08771,18.48156 -10.05856,5.37856 -25.19486,1.53347 -32.30945,11.90651 -3.54127,8.52456 -15.93702,9.77943 -18.23566,18.7185 2.04706,12.37142 16.4943,16.75077 26.38784,21.45171 9.66344,2.59728 18.41429,11.91392 15.25233,22.54002 -0.90243,8.65899 -6.12166,17.60149 -15.5689,18.45433 -7.35998,2.62258 -18.82427,0.64558 -23.31082,8.32978 0.59812,9.51178 11.60293,14.10493 16.94634,20.94789 8.45068,8.03864 9.55553,22.03429 21.18076,27.04823 12.84711,6.04969 26.6297,16.06851 41.5465,12.8709 10.37951,-4.19764 11.68823,-17.48908 16.96877,-26.06752 17.47277,-40.28719 34.16493,-81.4093 42.6004,-124.62329 1.17238,-13.66575 -13.96607,-20.96291 -24.56777,-25.39323 -8.23986,-2.86803 -17.06004,-4.66671 -25.80263,-4.66539 z"
     id="path1" /><path
     style="fill:#80a004;fill-opacity:0.701961;stroke:#312114;stroke-width:1.02819;stroke-opacity:0"
     d="m 350.55742,29.765318 c -9.82415,1.023799 -19.68653,2.208459 -28.83173,5.923848 -24.74477,7.890746 -50.56408,11.660868 -75.45954,18.95359 -10.01535,3.09587 -20.1291,11.302037 -19.31074,22.807004 0.0259,12.178302 -0.17525,24.66304 2.15879,36.60727 3.015,6.52174 12.54289,11.11985 10.45866,19.25451 -5.10778,13.80096 -14.61597,26.79158 -13.15567,42.25029 0.94225,11.56881 -0.75678,24.38866 5.149,34.86818 5.79483,8.10917 16.91524,3.53041 23.32109,-1.33344 15.67327,-11.26427 28.08483,-28.6905 48.05525,-32.66246 5.17661,-2.20692 14.93706,-2.78058 15.1224,-10.15614 -1.05448,-8.45175 -1.19555,-18.15817 5.27552,-24.55412 3.76252,-10.88781 2.57305,-23.18877 8.54484,-33.48052 7.06128,-14.783344 20.06951,-25.502362 28.60263,-39.256079 2.94897,-9.322166 6.70019,-19.582237 4.30957,-29.415951 -2.14996,-6.015478 -7.49829,-10.77244 -14.24007,-9.805982 z"
     id="path3" /><path
     style="fill:#80a004;fill-opacity:0.701961;stroke:#312114;stroke-width:1.02819;stroke-opacity:0"
     d="m 168.46289,97.533652 c -7.98213,0.357138 -16.76867,2.311175 -22.87729,7.631118 -2.92194,14.31694 1.2418,29.6017 -4.62025,43.45335 -1.53094,3.79935 -0.60226,9.7236 4.60218,9.5287 8.66441,0.43317 16.96598,-4.03751 24.45973,-7.93436 6.66206,-4.66837 0.57487,-14.55937 4.94417,-20.32889 9.2839,-4.95149 23.05987,-3.36975 29.20909,-13.30827 2.3274,-4.08519 0.19041,-8.60251 -1.5945,-12.16762 -1.79666,-2.87699 -7.10639,-1.48314 -9.97466,-3.10666 -7.91127,-1.936019 -15.9438,-3.917523 -24.14847,-3.767368 z"
     id="path5" /><path
     style="fill:#80a004;fill-opacity:0.701961;stroke:#312114;stroke-width:1.02819;stroke-opacity:0"
     d="m 181.84145,224.98134 c -17.41585,1.4545 -34.82294,3.58711 -52.15267,5.6129 -12.13981,10.4215 -19.44107,24.89667 -28.15681,37.97484 -8.761944,11.12123 -25.505575,3.74862 -35.368224,13.25404 -4.627205,3.3741 -12.133361,8.49151 -8.556894,15.19395 4.054747,7.69908 7.886962,16.03426 14.045271,22.24471 9.148355,3.46523 22.072235,2.00403 27.57042,11.66358 4.991077,10.313 3.304327,23.14431 9.826067,32.7636 6.6888,2.83884 14.57799,0.29103 21.66054,0.60212 17.01643,-1.86368 36.47759,0.64876 50.79692,-10.7033 5.53225,-4.57753 14.51781,-9.06781 14.21397,-17.33271 -2.54989,-6.72124 -11.08319,-8.15401 -16.4154,-12.07125 -11.47517,-6.70007 -24.48684,-11.69363 -34.06245,-21.0779 -2.27276,-5.24757 4.73755,-8.954 7.40018,-12.54716 5.61582,-5.61561 13.03638,-10.9691 13.62154,-19.5216 5.5374,-8.77945 17.65579,-12.94166 19.42522,-24.20271 0.81488,-6.76907 5.1546,-15.30193 0.22699,-21.33699 -1.23214,-0.67163 -2.72571,-0.51291 -4.07462,-0.51608 z"
     id="path6" /><path
     style="fill:#80a004;fill-opacity:0.701961;stroke:#312114;stroke-width:1.02819;stroke-opacity:0"
     d="m 381.9434,297.90068 c -8.01335,0.84242 -15.86581,3.05706 -23.83522,3.90193 -5.21925,3.78144 -4.9362,11.61035 -7.26645,17.15712 -0.45932,4.78904 -4.41542,10.48787 -1.64788,15.01005 8.95142,5.60891 20.44755,4.47835 30.56664,3.9019 11.13843,-0.39727 15.60592,-12.99302 17.23228,-22.23067 2.11479,-9.12889 -5.09823,-19.46313 -15.04937,-17.74033 z"
     id="path7" /><path
     style="fill:#80a004;fill-opacity:0.701961;stroke:#312114;stroke-width:1.02819;stroke-opacity:0"
     d="m 226.93531,487.77494 c -5.81241,-0.59021 -8.40483,5.74267 -13.8344,6.70735 -5.46739,2.98851 -12.75149,2.23698 -17.53953,6.18518 -1.86574,3.36383 -0.0222,7.23643 3.85975,7.63317 6.307,3.04443 13.52259,9.98578 20.69237,4.79554 5.18803,-3.4622 10.05535,-8.6035 16.94911,-7.18732 7.43888,2.11608 5.09704,-3.23263 4.54655,-7.91227 2.59966,-4.57412 -1.55652,-10.83152 -6.93428,-9.98469 -2.57694,-0.13757 -5.15846,-0.24832 -7.73957,-0.23706 z"
     id="path8" /><path
     style="fill:#80a004;fill-opacity:0.701961;stroke:#312114;stroke-width:2.98454;stroke-opacity:0"
     d="m 236.77812,476.9448 c -3.65475,1.01183 -7.29083,2.75149 -9.67446,5.80241 -0.71175,0.99097 -2.00465,2.21238 -1.48676,3.54835 0.70184,1.3968 2.23274,2.03613 3.73838,1.97612 2.40382,0.0259 4.84744,0.37744 7.2333,0.0451 0.54991,-0.32396 1.43023,-0.89834 2.00431,-0.35764 1.24699,1.92604 2.53998,3.83081 3.55711,5.88804 0.78049,1.01522 2.12717,0.14335 2.4985,-0.79525 1.99856,-3.4425 2.55681,-7.89616 0.58007,-11.47717 -1.37902,-2.77089 -4.48309,-4.05895 -7.25657,-4.90649 -0.39793,0.0925 -0.79594,0.18422 -1.19388,0.27675 z"
     id="path9" /><path
     style="fill:#80a004;fill-opacity:0.701961;stroke:#312114;stroke-width:0.181761;stroke-opacity:0"
     d="m 196.19585,498.68082 c -2.19176,0.58301 -5.00606,0.31125 -6.47237,2.39162 -1.22527,1.69303 -0.67164,4.29659 1.23184,5.23592 1.53386,0.80865 3.38467,1.22325 5.10314,0.94504 0.78917,-0.29701 0.37913,-1.13999 -0.0993,-1.49561 -0.98995,-1.71151 -0.85617,-4.30095 0.81724,-5.53269 0.47389,-0.53333 0.3128,-1.66075 -0.58079,-1.54428 z"
     id="path10" /><path
     style="fill:#80a004;fill-opacity:0.701961;stroke:#312114;stroke-width:0.181761;stroke-opacity:0"
     d="m 196.1994,498.68082 c -2.19298,0.58214 -5.00862,0.31087 -6.47592,2.39162 -1.22527,1.69303 -0.67164,4.29659 1.23184,5.23592 1.55612,0.83044 3.43258,1.1999 5.17451,0.96558 0.95824,-0.69644 -0.43725,-1.56189 -0.50447,-2.36894 -0.46552,-1.59242 -0.30161,-3.61113 1.13529,-4.64623 0.48314,-0.534 0.35196,-1.68701 -0.56132,-1.57799 z"
     id="path11" /><path
     style="fill:#80a004;fill-opacity:0.701961;stroke:#312114;stroke-width:0.181761;stroke-opacity:0"
     d="m 225.97121,487.28952 c -2.23967,-0.0221 -4.10831,1.36688 -5.64482,2.84803 -5.81466,4.74004 -13.36746,6.30854 -20.50568,7.91123 -1.26467,0.41163 -2.86149,0.73887 -3.51978,2.0112 -1.40876,1.04119 -1.40171,3.11585 -1.20523,4.69986 0.17501,0.87603 0.81229,1.56081 1.02706,2.40795 1.00044,0.79221 2.41941,0.80679 3.49902,1.50795 3.95422,2.04142 7.44108,5.04199 11.78893,6.28003 1.87241,0.48211 3.92976,0.58014 5.79912,0.054 4.19532,-1.78221 7.60493,-4.90125 11.19601,-7.61833 2.00972,-1.12793 4.43104,-1.09654 6.67048,-1.24356 2.21224,0.15232 4.49443,0.61848 6.68679,0.15511 1.48842,-1.04082 1.06247,-3.15929 0.50729,-4.60793 -0.43184,-1.98729 -0.51831,-4.11019 0.2888,-6.01759 0.0937,-0.82467 0.8546,-2.08714 -0.0562,-2.65647 -0.6378,-0.048 -0.70309,-1.1022 -1.15388,-1.56093 -0.51979,-0.87441 -1.15237,-1.7207 -1.44614,-2.69164 -1.08977,-0.41444 -2.23789,-1.26256 -3.49819,-0.86801 -2.5203,0.86981 -5.12537,0.43378 -7.66766,-0.12461 -0.86056,-0.21796 -1.81858,-0.5443 -2.76581,-0.48632 z m 13.15527,1.35152 c 0.0475,-0.0518 0.28303,-0.0734 0,0 z"
     id="path12" /><path
     style="fill:#80a004;fill-opacity:0.701961;stroke:#312114;stroke-width:0.181761;stroke-opacity:0"
     d="m 237.07208,470.85691 c -3.42581,0.14455 -7.0714,0.75168 -9.88039,2.84614 -3.28141,2.88896 -5.48261,6.80741 -8.87254,9.60055 -3.24399,2.91279 -7.30356,4.7072 -11.52897,5.76293 -5.89946,1.55554 -11.78367,3.31516 -17.73799,4.5165 -2.55624,0.3869 -5.7681,1.04037 -6.79723,3.76936 -1.33467,3.72952 0.31723,7.60948 1.8453,10.99476 1.06812,2.54482 3.26575,5.17509 6.28174,5.04809 3.21133,0.50639 6.28546,1.96444 9.03051,3.72893 4.59001,3.72258 10.42079,6.59336 16.47929,5.85085 4.886,-0.35989 9.19148,-3.28691 12.56725,-6.66556 0.87093,-0.81749 1.68414,-1.74981 2.66819,-2.42043 3.45216,-0.16548 6.94578,0.21648 10.37134,-0.30375 3.77026,-0.829 7.64555,-2.98595 9.00536,-6.81195 0.84162,-1.5321 0.0393,-3.22679 -0.86315,-4.5173 -0.78588,-1.05176 -1.0204,-2.43484 -0.34609,-3.60422 1.71641,-3.58517 2.8365,-7.49623 2.71504,-11.50063 0.0823,-4.40613 -0.49521,-9.3079 -3.6732,-12.64053 -2.94686,-2.80572 -7.3284,-3.65523 -11.26454,-3.65366 z m 0.92903,6.41058 c 3.1822,0.69636 6.49527,2.68131 7.45466,5.98924 0.96233,3.37077 0.38625,7.21854 -1.59464,10.11185 -0.39779,0.53941 -1.29181,0.38001 -1.4477,1.17258 -1.17384,2.98385 -0.93265,6.39294 -0.0712,9.39263 0.14773,0.61076 0.39163,1.35844 -0.37351,1.66811 -1.69104,0.81241 -3.6744,0.21463 -5.47553,0.22996 -3.30219,-0.13757 -7.05821,-0.18422 -9.65708,2.21342 -3.13778,2.38619 -6.188,4.9924 -9.83994,6.52601 -1.84338,0.2449 -3.80856,0.36623 -5.66544,-0.004 -4.38828,-1.6739 -8.13525,-4.5823 -12.32032,-6.64951 -1.44536,-0.58457 -2.8945,-1.22183 -4.49394,-1.14067 -1.91549,-0.079 -4.50623,-0.78868 -4.86673,-3.00719 -0.37268,-1.6774 0.74934,-3.41732 2.43872,-3.75528 2.53109,-0.913 5.307,-0.46901 7.82565,-1.44228 7.14155,-1.84384 14.80173,-3.27176 20.6765,-8.08128 1.92738,-1.76115 4.71085,-2.90547 5.60365,-5.58339 1.8068,-3.31847 5.09178,-5.54118 8.57681,-6.81461 1.04016,-0.37744 2.11088,-0.79423 3.22945,-0.82539 z"
     id="path13" /><g
     inkscape:groupmode="layer"
     id="layer2"
     inkscape:label="Layer 1" /></svg>
