<?xml version="1.0" encoding="UTF-8" standalone="no"?>
<svg
   width="1242.15"
   height="1417.5"
   viewBox="0 0 1242.15 1417.5"
   fill="none"
   version="1.1"
   id="svg48"
   sodipodi:docname="big_tree.svg"
   inkscape:version="1.3 (0e150ed6c4, 2023-07-21)"
   xmlns:inkscape="http://www.inkscape.org/namespaces/inkscape"
   xmlns:sodipodi="http://sodipodi.sourceforge.net/DTD/sodipodi-0.dtd"
   xmlns="http://www.w3.org/2000/svg"
   xmlns:svg="http://www.w3.org/2000/svg">
  <defs
     id="defs52" />
  <sodipodi:namedview
     id="namedview50"
     pagecolor="#505050"
     bordercolor="#ffffff"
     borderopacity="1"
     inkscape:pageshadow="0"
     inkscape:pageopacity="0"
     inkscape:pagecheckerboard="1"
     showgrid="false"
     width="520.942px"
     inkscape:zoom="0.72102649"
     inkscape:cx="279.46269"
     inkscape:cy="533.26751"
     inkscape:window-width="1920"
     inkscape:window-height="1017"
     inkscape:window-x="-8"
     inkscape:window-y="-8"
     inkscape:window-maximized="1"
     inkscape:current-layer="svg48"
     height="604.001px"
     inkscape:showpageshadow="2"
     inkscape:deskcolor="#505050" />
  <g
     id="g1"
     transform="matrix(1.0107068,0,0,1.0156548,-28.544757,-1351.1992)">
    <path
       d="m 944.92515,1940.9663 c 0,0 -122.4046,-16.1059 -167.5012,-16.1059 l -115.9623,-51.5389 -61.2023,-360.7717 -267.35755,-141.7318 170.72215,167.5012 9.6637,132.0683 41.8752,318.8964 -112.7411,57.9812 -164.27995,-41.8753 -170.72235,106.2988 144.95295,-25.7694 125.62575,54.76 212.5976,-19.3271 154.6165,19.3271 90.1929,86.9717 99.8565,180.3859 -54.76,115.9624 122.40475,-109.52 -25.76945,-177.1647 -170.7223,-199.713 115.9623,-32.2117 138.51065,45.0964 c -34.359,-31.1358 -115.96245,-109.5199 -115.96245,-109.5199 z"
       fill="#5b3e24"
       id="path2"
       style="opacity:0.9;fill:#5b3e24;fill-opacity:0.6639;stroke-width:6.44235" />
    <path
       d="m 590.93085,2127.5626 -105.1908,70.8143 -116.7096,189.9464 -232.8459,30.7492 195.84755,-123.3323 66.14355,-194.3401 154.2621,-108.2186 -141.1133,-238.4701 -186.06145,-68.4436 -83.83442,-205.6205 158.94572,137.8007 210.78085,46.1221 150.313,218.0864 c 52.6855,-105.0619 97.0089,-167.1726 97.0089,-167.1726 l 173.5634,-80.5293 122.40485,-151.3954 -83.75065,244.8094 -151.3953,106.2988 -60.8223,155.4218 123.3066,110.2351 203.62805,57.9812 103.0763,209.3764 -178.5259,-128.847 -172.57915,-25.7694 -95.0376,-66.8974 8.0659,157.0903 -53.5166,198.1926 45.4507,209.3764 -145.3072,-212.5977 25.7694,-154.6164 z"
       fill="#6d4a2c"
       stroke="#1b1917"
       stroke-width="11.0123"
       stroke-miterlimit="16"
       stroke-linejoin="round"
       id="path4"
       style="fill:#6d4a2c;fill-opacity:0.726141;stroke:#312114;stroke-width:31.5909;stroke-miterlimit:16;stroke-dasharray:none;stroke-opacity:0.518672" />
    <path
       opacity="0.95"
       d="m 28.242373,1703.2829 c 0,205.9546 165.910067,372.9107 370.565277,372.9107 204.657,0 370.5652,-166.9561 370.5652,-372.9107 0,-205.9544 -165.9082,-372.9105 -370.5652,-372.9105 -204.65521,0 -370.565277,166.9561 -370.565277,372.9105 z"
       fill="#3a4f3f"
       id="path6"
       style="fill:#81a205;fill-opacity:0.514523;stroke-width:4.69068" />
    <path
       opacity="0.85"
       d="m 146.03696,1692.8841 c 0,132.123 106.05674,239.2258 236.88019,239.2258 130.8255,0 236.8804,-107.1028 236.8804,-239.2258 0,-132.1181 -106.0549,-239.2256 -236.8804,-239.2256 -130.82345,0 -236.88019,107.1075 -236.88019,239.2256 z"
       fill="#485e52"
       id="path12"
       style="opacity:0.8;fill:#81a205;fill-opacity:0.514523;stroke-width:4.69068" />
    <path
       opacity="0.95"
       d="m 516.46145,1708.6941 c 0,205.9545 165.9101,372.9106 370.5654,372.9106 204.65715,0 370.56525,-166.9561 370.56525,-372.9106 0,-205.9545 -165.9081,-372.9105 -370.56525,-372.9105 -204.6553,0 -370.5654,166.956 -370.5654,372.9105 z"
       fill="#3a4f3f"
       id="path6-7"
       style="fill:#81a205;fill-opacity:0.514523;stroke-width:4.69068" />
    <path
       opacity="0.85"
       d="m 661.87315,1714.0765 c 0,132.1229 106.0567,239.2257 236.8803,239.2257 130.82555,0 236.88045,-107.1028 236.88045,-239.2257 0,-132.1182 -106.0549,-239.2256 -236.88045,-239.2256 -130.8236,0 -236.8803,107.1074 -236.8803,239.2256 z"
       fill="#485e52"
       id="path12-8"
       style="opacity:0.8;fill:#81a205;fill-opacity:0.514523;stroke-width:4.69068" />
    <path
       opacity="0.95"
       d="m 203.19136,1990.319 c 0,248.3252 200.04239,449.6289 446.80089,449.6289 246.7607,0 446.80075,-201.3037 446.80075,-449.6289 0,-248.3252 -200.04015,-449.6286 -446.80075,-449.6286 -246.7585,0 -446.80089,201.3034 -446.80089,449.6286 z"
       fill="#3a4f3f"
       id="path6-1-9-2-1"
       style="fill:#81a205;fill-opacity:0.195021;stroke-width:5.65568" />
    <path
       opacity="0.85"
       d="m 378.51825,1996.8086 c 0,159.3044 127.8755,288.4411 285.6132,288.4411 157.7399,0 285.6133,-129.1367 285.6133,-288.4411 0,-159.2986 -127.8734,-288.441 -285.6133,-288.441 -157.7377,0 -285.6132,129.1424 -285.6132,288.441 z"
       fill="#485e52"
       id="path12-9-5-4-8"
       style="opacity:0.8;fill:#81a205;fill-opacity:0.195021;stroke-width:5.65568" />
    <path
       opacity="0.95"
       d="m 468.80005,2233.406 c 0,205.9545 165.91,372.9106 370.5653,372.9106 204.65715,0 370.56525,-166.9561 370.56525,-372.9106 0,-205.9545 -165.9081,-372.9106 -370.56525,-372.9106 -204.6553,0 -370.5653,166.9561 -370.5653,372.9106 z"
       fill="#3a4f3f"
       id="path6-7-5"
       style="fill:#81a205;fill-opacity:0.514523;stroke-width:4.69068" />
    <path
       opacity="0.85"
       d="m 614.21165,2238.7884 c 0,132.1229 106.0568,239.2256 236.8804,239.2256 130.8255,0 236.88035,-107.1027 236.88035,-239.2256 0,-132.1182 -106.05485,-239.2256 -236.88035,-239.2256 -130.8236,0 -236.8804,107.1074 -236.8804,239.2256 z"
       fill="#485e52"
       id="path12-8-4"
       style="opacity:0.8;fill:#81a205;fill-opacity:0.514523;stroke-width:4.69068" />
    <path
       opacity="0.95"
       d="m 38.980823,2172.1717 c 0,205.9545 165.910067,372.9106 370.565327,372.9106 204.657,0 370.5652,-166.9561 370.5652,-372.9106 0,-205.9545 -165.9082,-372.9106 -370.5652,-372.9106 -204.65526,0 -370.565327,166.9561 -370.565327,372.9106 z"
       fill="#3a4f3f"
       id="path6-7-58"
       style="fill:#81a205;fill-opacity:0.514523;stroke-width:4.69068" />
    <path
       opacity="0.85"
       d="m 184.3925,2177.5541 c 0,132.1229 106.0567,239.2256 236.88025,239.2256 130.8255,0 236.8804,-107.1027 236.8804,-239.2256 0,-132.1182 -106.0549,-239.2257 -236.8804,-239.2257 -130.82355,0 -236.88025,107.1075 -236.88025,239.2257 z"
       fill="#485e52"
       id="path12-8-9"
       style="opacity:0.8;fill:#81a205;fill-opacity:0.514523;stroke-width:4.69068" />
  </g>
</svg>
