<?xml version="1.0" encoding="UTF-8" standalone="no"?>
<svg
   width="520.94202"
   height="550"
   viewBox="0 0 520.94201 550"
   fill="none"
   version="1.1"
   id="svg48"
   sodipodi:docname="oak_tree_2.svg"
   inkscape:version="1.3 (0e150ed6c4, 2023-07-21)"
   xmlns:inkscape="http://www.inkscape.org/namespaces/inkscape"
   xmlns:sodipodi="http://sodipodi.sourceforge.net/DTD/sodipodi-0.dtd"
   xmlns="http://www.w3.org/2000/svg"
   xmlns:svg="http://www.w3.org/2000/svg">
  <defs
     id="defs52" />
  <sodipodi:namedview
     id="namedview50"
     pagecolor="#505050"
     bordercolor="#ffffff"
     borderopacity="1"
     inkscape:pageshadow="0"
     inkscape:pageopacity="0"
     inkscape:pagecheckerboard="1"
     showgrid="false"
     width="520.942px"
     inkscape:zoom="0.50984271"
     inkscape:cx="-91.204599"
     inkscape:cy="558.01523"
     inkscape:window-width="1920"
     inkscape:window-height="1017"
     inkscape:window-x="-8"
     inkscape:window-y="-8"
     inkscape:window-maximized="1"
     inkscape:current-layer="svg48"
     height="604.001px"
     inkscape:showpageshadow="2"
     inkscape:deskcolor="#505050" />
  <path
     d="m 351.49006,260.43046 c 0,0 -34.60264,-4.55297 -47.351,-4.55297 l -32.78145,-14.56954 -17.30133,-101.98676 -75.57946,-40.066226 48.26158,47.350996 2.7318,37.33444 11.83774,90.149 -31.87085,16.39073 -46.44041,-11.83774 -48.26158,30.04967 40.97682,-7.28477 35.51324,15.48013 60.09934,-5.46358 43.70861,5.46358 25.49668,24.58609 28.22848,50.99338 -15.48012,32.78146 34.60264,-30.96027 -7.28477,-50.08278 -48.26159,-56.45696 32.78146,-9.10595 39.15563,12.74834 c -9.71296,-8.80182 -32.78146,-30.96027 -32.78146,-30.96027 z"
     fill="#5b3e24"
     id="path2"
     style="opacity:0.9;stroke-width:1.82119" />
  <path
     d="m 251.4192,313.17948 -29.73643,20.01854 -32.99271,53.69603 -65.82334,8.69254 55.36423,-34.86489 18.69818,-54.93809 43.60845,-30.59238 -39.89139,-67.41325 -52.59785,-19.34835 -23.69918,-58.12698 44.93246,38.95494 59.58576,13.03827 42.49206,61.651 c 14.8937,-29.70001 27.4235,-47.25812 27.4235,-47.25812 l 49.06473,-22.7649 34.60266,-42.79801 -23.6755,69.20529 -42.79801,30.04967 -17.19388,43.93627 34.85762,31.16241 57.56369,16.39073 29.13871,59.18875 -50.4676,-36.42384 -48.78646,-7.28477 -26.86623,-18.91126 2.28014,44.40794 -15.12864,56.02716 12.8485,59.18873 -41.07697,-60.09933 7.28476,-43.70861 z"
     fill="#6d4a2c"
     stroke="#1b1917"
     stroke-width="11.0123"
     stroke-miterlimit="16"
     stroke-linejoin="round"
     id="path4"
     style="stroke:#312114;stroke-width:8.93044;stroke-miterlimit:16;stroke-dasharray:none;stroke-opacity:1" />
  <path
     opacity="0.95"
     d="M 214.90066,405.21523 C 214.90066,485.17831 279.31622,550 358.77483,550 438.23416,550 502.649,485.17831 502.649,405.21523 c 0,-79.96308 -64.41484,-144.78477 -143.87417,-144.78477 -79.45861,0 -143.87417,64.82169 -143.87417,144.78477 z"
     fill="#3a4f3f"
     id="path6"
     style="fill:#769303;fill-opacity:0.72941178;stroke-width:1.82119" />
  <path
     opacity="0.95"
     d="m -7.5e-6,144.78477 c 0,79.96308 64.4155635,144.78477 143.8741775,144.78477 79.45861,0 143.87417,-64.82169 143.87417,-144.78477 C 287.74834,64.822418 223.33278,0 143.87417,0 64.415556,0 -7.5e-6,64.822418 -7.5e-6,144.78477 Z"
     fill="#3a4f3f"
     id="path8"
     style="fill:#769303;fill-opacity:0.72941178;stroke-width:1.82119" />
  <path
     opacity="0.95"
     d="m 63.741715,384.27152 c 0,64.37187 51.776495,116.5563 115.645705,116.5563 63.8692,0 115.64569,-52.18443 115.64569,-116.5563 0,-64.37185 -51.77649,-116.55629 -115.64569,-116.55629 -63.86921,0 -115.645705,52.18444 -115.645705,116.55629 z"
     fill="#3a4f3f"
     id="path10"
     style="fill:#769303;fill-opacity:0.72941178;stroke-width:1.82119" />
  <path
     opacity="0.85"
     d="m 271.35761,444.37086 c 0,51.29752 41.17716,92.8808 91.9702,92.8808 50.79378,0 91.9702,-41.58328 91.9702,-92.8808 0,-51.29569 -41.17642,-92.88079 -91.9702,-92.88079 -50.79304,0 -91.9702,41.5851 -91.9702,92.88079 z"
     fill="#485e52"
     id="path12"
     style="opacity:0.8;fill:#81a205;fill-opacity:0.54771787;stroke-width:1.82119" />
  <path
     opacity="0.95"
     d="m 242.21854,183.9404 c 0,58.33824 46.88477,105.62914 104.71855,105.62914 57.83431,0 104.71853,-47.2909 104.71853,-105.62914 0,-58.33733 -46.88422,-105.629141 -104.71853,-105.629141 -57.83378,0 -104.71855,47.291811 -104.71855,105.629141 z"
     fill="#3a4f3f"
     id="path14"
     style="fill:#769303;fill-opacity:0.72941178;stroke-width:1.82119" />
  <path
     opacity="0.85"
     d="m 47.350987,359.68544 c 0,46.77003 37.50745,84.68542 83.774833,84.68542 46.26739,0 83.77484,-37.91539 83.77484,-84.68542 C 214.90066,312.9154 177.39321,275 131.12582,275 84.858437,275 47.350987,312.9154 47.350987,359.68544 Z"
     fill="#485e52"
     id="path16"
     style="opacity:0.8;fill:#81a205;fill-opacity:0.54771787;stroke-width:1.82119" />
  <path
     opacity="0.85"
     d="m 300.49668,173.92384 c 0,32.68858 26.09222,59.18874 58.27815,59.18874 32.18611,0 58.27815,-26.50016 58.27815,-59.18874 0,-32.68894 -26.09204,-59.18874 -58.27815,-59.18874 -32.18593,0 -58.27815,26.4998 -58.27815,59.18874 z"
     fill="#485e52"
     id="path18"
     style="opacity:0.8;fill:#81a205;fill-opacity:0.54771787;stroke-width:1.82119" />
  <path
     opacity="0.85"
     fill-rule="evenodd"
     clip-rule="evenodd"
     d="m 199.88675,142.13165 c 6.71292,2.31056 13.90662,3.56372 21.38808,3.56372 36.71159,0 66.47351,-30.16878 66.47351,-67.383929 0,-37.215331 -29.76192,-67.384289 -66.47351,-67.384289 -28.72566,0 -53.1952,18.470712 -62.48328,44.335282 -14.48029,-9.607335 -31.80894,-15.196208 -50.43063,-15.196208 -50.793046,0 -91.970199,41.584188 -91.970199,92.880974 0,51.29734 41.177153,92.88062 91.970199,92.88062 47.72434,0 86.9601,-36.71159 91.52583,-83.69617 z"
     fill="#485e52"
     id="path20"
     style="opacity:0.8;fill:#81a205;fill-opacity:0.54771787;stroke-width:1.82119" />
  <path
     d="M -406.16235,97.109083 -469.033,212.64152 c 0,0 -22.69183,19.07205 -36.74179,31.84288 -28.36437,25.77982 -69.40122,69.40184 -69.40122,69.40184 l 3.26601,68.17608 16.35158,-56.31893 82.85227,-44.5172 31.4343,73.89215 -73.22282,50.69936 -10.87574,75.855 30.38102,-56.34972 c 0,0 38.73543,-21.02669 56.57557,-32.64568 18.97145,-12.35608 29.80202,-24.49453 29.80202,-24.49453 l 20.41073,28.57627 -13.06238,75.52444 43.83761,-82.89128 -70.37505,-108.98113 83.68997,-54.70512 14.69671,-61.23713 -32.11801,41.16312 -67.90096,26.19661 41.23211,-109.3507 52.33369,-29.771217 z"
     fill="#5b3e24"
     id="path2-6"
     style="opacity:0.9;stroke-width:2.05319" />
  <path
     d="m -469.01041,212.23293 5.71607,-40.0082 -20.00421,-68.17629 42.45787,-61.644887 -12.65585,72.667427 31.84288,57.15375 -7.34836,59.60177 86.54801,17.55475 55.92882,-29.39343 66.5438,24.08594 -66.5438,8.16553 -55.92882,40.00841 -83.68997,-11.02357 c 13.59826,34.90213 20.81932,88.99746 20.81932,88.99746 l -26.94398,55.11371 -11.83868,50.21274 -15.51388,-61.64489 15.51388,-54.29654 c 0,0 -11.41982,-50.42628 -28.16973,-78.38248 l -45.31404,16.33105 c -25.75478,1.54605 -61.57899,-8.76916 -61.57899,-8.76916 l -47.22331,20.53187 37.98396,-45.00791 h 51.6313 l 31.02633,-20.23622 -24.08635,-31.84083 -15.43155,-40.0082 -46.19672,-33.94021 66.72859,19.50528 c 0,0 30.79761,48.25072 55.72741,54.44313 z"
     fill="#6d4a2c"
     stroke="#1b1917"
     stroke-width="12.3191"
     stroke-miterlimit="16"
     stroke-linejoin="round"
     id="path4-3"
     style="fill:#88582e;fill-opacity:1;stroke:#312114;stroke-width:9;stroke-miterlimit:16;stroke-dasharray:none;stroke-opacity:1" />
  <path
     opacity="0.95"
     d="m -578.84998,397.98479 c 66.51259,0 120.43196,-53.73602 120.43196,-120.02317 0,-66.28715 -53.91937,-120.02399 -120.43196,-120.02399 -66.51239,0 -120.43155,53.73684 -120.43155,120.02399 0,66.28715 53.91916,120.02317 120.43155,120.02317 z"
     fill="#3a4f3f"
     id="path6-6"
     style="fill:#769303;fill-opacity:0.763485;stroke-width:2.05319" />
  <path
     opacity="0.95"
     d="m -443.26139,225.76754 c 70.14919,0 127.01632,-56.67515 127.01632,-126.586587 0,-69.91144 -56.86713,-126.58627 -127.01632,-126.58627 -70.14899,0 -127.01612,56.67483 -127.01612,126.58627 0,69.911437 56.86713,126.586587 127.01612,126.586587 z"
     fill="#3a4f3f"
     id="path8-2"
     style="fill:#769303;fill-opacity:0.763485;stroke-width:2.05319" />
  <path
     opacity="0.95"
     d="m -431.88263,554.74974 c 66.513,0 120.43176,-53.73601 120.43176,-120.02317 0,-66.28715 -53.91876,-120.02317 -120.43176,-120.02317 -66.51259,0 -120.43155,53.73602 -120.43155,120.02317 0,66.28716 53.91896,120.02317 120.43155,120.02317 z"
     fill="#3a4f3f"
     id="path10-4"
     style="fill:#769303;fill-opacity:0.763485;stroke-width:2.05319" />
  <path
     opacity="0.95"
     d="m -294.71329,365.32474 c 66.513,0 120.43175,-53.73602 120.43175,-120.02317 0,-66.28715 -53.91875,-120.02399 -120.43175,-120.02399 -66.513,0 -120.43176,53.73684 -120.43176,120.02399 0,66.28715 53.91876,120.02317 120.43176,120.02317 z"
     fill="#3a4f3f"
     id="path12-3"
     style="fill:#769303;fill-opacity:0.763485;stroke-width:2.05319" />
  <path
     opacity="0.85"
     d="m -552.72235,236.31887 c 45.76965,0 82.87218,-36.92041 82.87218,-82.46462 0,-45.54421 -37.10253,-82.465037 -82.87218,-82.465037 -45.76965,0 -82.87321,36.920827 -82.87321,82.465037 0,45.54421 37.10356,82.46462 82.87321,82.46462 z"
     fill="#485e52"
     id="path14-8"
     style="opacity:0.8;fill:#769303;fill-opacity:0.763485;stroke-width:2.05319" />
  <path
     opacity="0.85"
     d="m -291.68131,325.86998 c 45.76965,0 82.87218,-36.92041 82.87218,-82.46462 0,-45.54421 -37.10253,-82.46504 -82.87218,-82.46504 -45.76965,0 -82.87321,36.92083 -82.87321,82.46504 0,45.54421 37.10356,82.46462 82.87321,82.46462 z"
     fill="#485e52"
     id="path14-3"
     style="opacity:0.8;fill:#85a604;fill-opacity:0.585062;stroke-width:2.05319" />
  <path
     opacity="0.85"
     d="m -437.5987,540.05098 c 45.76965,0 82.8728,-36.92042 82.8728,-82.46422 0,-45.5438 -37.10315,-82.46627 -82.8728,-82.46627 -45.76965,0 -82.87342,36.92247 -82.87342,82.46627 0,45.5438 37.10377,82.46422 82.87342,82.46422 z"
     fill="#485e52"
     id="path16-3"
     style="opacity:0.8;fill:#85a604;fill-opacity:0.585062;stroke-width:2.05319" />
  <path
     opacity="0.85"
     d="m -422.89993,110.44843 c 30.88815,0 55.92882,-24.857937 55.92882,-55.521257 0,-30.66353 -25.04067,-55.5212699 -55.92882,-55.5212699 -30.89021,0 -55.93088,24.8577399 -55.93088,55.5212699 0,30.66332 25.04067,55.521257 55.93088,55.521257 z"
     fill="#485e52"
     id="path20-5"
     style="opacity:0.8;fill:#85a604;fill-opacity:0.585062;stroke-width:2.05319" />
  <path
     opacity="0.85"
     d="m -616.40832,405.33109 c 45.76965,0 82.87321,-36.92041 82.87321,-82.46421 0,-45.54586 -37.10356,-82.46627 -82.87321,-82.46627 -45.76945,0 -82.87321,36.92041 -82.87321,82.46627 0,45.5438 37.10376,82.46421 82.87321,82.46421 z"
     fill="#485e52"
     id="path22"
     style="opacity:0.8;fill:#85a604;fill-opacity:0.585062;stroke-width:2.05319" />
</svg>
