<?xml version="1.0" encoding="UTF-8" standalone="no"?>
<!-- Created with Inkscape (http://www.inkscape.org/) -->

<svg
   width="84"
   height="84"
   viewBox="0 0 22.224999 22.225001"
   version="1.1"
   id="svg5"
   inkscape:version="1.3 (0e150ed6c4, 2023-07-21)"
   sodipodi:docname="aegis_logo.svg"
   xml:space="preserve"
   xmlns:inkscape="http://www.inkscape.org/namespaces/inkscape"
   xmlns:sodipodi="http://sodipodi.sourceforge.net/DTD/sodipodi-0.dtd"
   xmlns="http://www.w3.org/2000/svg"
   xmlns:svg="http://www.w3.org/2000/svg"><sodipodi:namedview
     id="namedview7"
     pagecolor="#505050"
     bordercolor="#ffffff"
     borderopacity="1"
     inkscape:pageshadow="0"
     inkscape:pageopacity="0"
     inkscape:pagecheckerboard="1"
     inkscape:document-units="px"
     showgrid="false"
     units="px"
     inkscape:zoom="4.3893396"
     inkscape:cx="-33.831969"
     inkscape:cy="26.085929"
     inkscape:window-width="1920"
     inkscape:window-height="1017"
     inkscape:window-x="-8"
     inkscape:window-y="-8"
     inkscape:window-maximized="1"
     inkscape:current-layer="layer1"
     inkscape:showpageshadow="2"
     inkscape:deskcolor="#d1d1d1" /><defs
     id="defs2"><inkscape:path-effect
       effect="bspline"
       id="path-effect437"
       is_visible="true"
       lpeversion="1"
       weight="33.333333"
       steps="2"
       helper_size="0"
       apply_no_weight="true"
       apply_with_weight="true"
       only_selected="false" /><inkscape:path-effect
       effect="bspline"
       id="path-effect445"
       is_visible="true"
       lpeversion="1"
       weight="33.333333"
       steps="2"
       helper_size="0"
       apply_no_weight="true"
       apply_with_weight="true"
       only_selected="false" /><inkscape:path-effect
       effect="bspline"
       id="path-effect433"
       is_visible="true"
       lpeversion="1"
       weight="33.333333"
       steps="2"
       helper_size="0"
       apply_no_weight="true"
       apply_with_weight="true"
       only_selected="false" /><inkscape:path-effect
       effect="bspline"
       id="path-effect362"
       is_visible="true"
       lpeversion="1"
       weight="33.333333"
       steps="2"
       helper_size="0"
       apply_no_weight="true"
       apply_with_weight="true"
       only_selected="false" /></defs><g
     inkscape:label="Layer 1"
     inkscape:groupmode="layer"
     id="layer1"><g
       id="g1"
       transform="matrix(0.08856853,0,0,0.08856853,-14.333816,-9.853249)"><path
         fill="#ffffff"
         d="M 393.25,216.5 A 105.25,105.25 0 0 1 288,321.75 105.25,105.25 0 0 1 182.75,216.5 105.25,105.25 0 0 1 288,111.25 105.25,105.25 0 0 1 393.25,216.5 Z m -97.35,66.49 q -4.47,2.4 -9.65,2.67 -11.09,0.57 -21.76,1.17 a 4.9,4.83 -62.5 0 0 -2.35,0.76 l -20.3,13 q -0.26,0.16 0.01,0.3 c 67.82,35.63 148.4,-15.63 141.87,-92.67 -3.02,-35.64 -25.89,-66.73 -58.79,-80.49 -54.8,-22.94 -117.98,9.73 -130.76,67.92 -6.05,27.51 0.11,54.87 16.43,78.03 q 0.56,0.8 1.44,0.39 l 36.72,-16.85 a 1.38,1.34 -2 0 0 0.71,-0.74 q 7.59,-18.78 17.01,-36.69 0.23,-0.43 0.71,-0.49 13.96,-1.7 27.95,0.1 a 2.57,2.57 0 0 1 2.24,2.47 l 0.74,24.53 a 0.73,0.72 84.6 0 1 -0.61,0.74 c -9.46,1.47 -11.24,-4.4 -12.48,-12.1 q -0.08,-0.46 -0.54,-0.56 -3.39,-0.7 -6.66,0.33 a 0.82,0.81 82.5 0 0 -0.57,0.75 c -0.32,12.3 -1.97,22.09 -10.83,31.13 q -1.49,1.52 -2.43,2.84 a 0.88,0.88 0 0 0 1.05,1.32 l 11.43,-4.69 a 1.92,1.92 0 0 1 2.48,0.99 q 1.8,3.98 1.51,8.35 a 1.2,1.18 -64.4 0 0 0.31,0.9 c 2.7,2.97 11.11,3.84 15.01,5.17 a 0.78,0.78 0 0 1 0.11,1.42 z m -38.87,-2.22 a 0.48,0.48 0 0 0 0.66,-0.66 q -3.38,-5.47 -4.19,-12.17 -0.06,-0.5 -0.58,-0.46 -0.56,0.04 -0.47,0.6 c 1.24,7.84 -6.88,11.23 -12.22,13.84 q -0.23,0.11 -0.23,0.36 v 0.44 a 0.46,0.46 0 0 0 0.7,0.39 q 5.61,-3.4 12.07,-4.65 a 0.9,0.89 54.4 0 1 0.64,0.11 z"
         id="path1" /><path
         fill="#ffffff"
         d="m 289.98,155.49 c -0.29,5.45 -3.31,10.09 -5.42,14.79 a 0.58,0.58 0 0 1 -1.11,-0.2 q -0.81,-11.64 -5.59,-22.23 -6.1,-13.52 3.74,-24.22 a 0.5,0.5 0 0 1 0.86,0.28 c 0.82,7.1 -1.43,11.25 5.87,15.6 15.34,9.14 13.66,22.52 3,34.55 a 0.69,0.68 70.4 0 1 -1.19,-0.57 c 0.9,-5.49 3,-12.9 0.45,-18.12 a 0.32,0.32 0 0 0 -0.61,0.12 z"
         id="path2" /><path
         fill="#ffffff"
         d="m 301.98,179.5 6.13,0.01 a 0.47,0.47 0 0 1 0.42,0.68 l -7.79,15.58 a 0.87,0.87 0 0 1 -0.78,0.48 h -23.68 a 0.87,0.86 -13.5 0 1 -0.77,-0.47 l -7.71,-15.43 a 0.62,0.61 -12.9 0 1 0.56,-0.89 l 8.09,0.13 a 0.5,0.5 0 0 0 0.37,-0.85 c -11.34,-11.51 -10.54,-19.64 -3.13,-33.15 a 0.53,0.53 0 0 1 0.99,0.19 q 0.6,4.87 0.71,9.88 c 0.18,8.52 5.6,16.71 11.62,22.41 q 0.35,0.33 0.83,0.38 c 4.04,0.44 7.19,-4.16 9.55,-7.26 3.63,-4.79 5.28,-9.15 5,-14.92 a 0.58,0.57 -64.3 0 1 1.04,-0.37 c 6.94,9.74 5.88,14.52 -1.79,22.84 a 0.46,0.45 21.3 0 0 0.34,0.76 z"
         id="path3" /><path
         fill="#ffffff"
         d="M 298.01,207.41 298,217.52 q 0,0.6 -0.59,0.47 -9.49,-2.15 -19.21,-1.36 -0.7,0.06 -0.7,-0.64 v -8.62 q 0,-0.62 -0.63,-0.62 h -5.5 q -0.62,0 -0.62,-0.63 v -7.37 q 0,-0.5 0.5,-0.5 H 304 q 0.75,0 0.75,0.75 v 7.09 a 0.65,0.65 0 0 1 -0.65,0.65 l -5.44,0.01 a 0.66,0.66 0 0 0 -0.65,0.66 z"
         id="path4" /><rect
         fill="#ffffff"
         x="-7.9699998"
         y="-6.6100001"
         transform="rotate(0.5,-26033.628,35365.843)"
         width="15.94"
         height="13.22"
         rx="0.27000001"
         id="rect6" /><path
         fill="#ffffff"
         d="m 300.24,247.84 -0.52,-9.41 a 1.34,1.33 89 0 1 1.36,-1.41 l 14.22,0.31 a 0.53,0.53 0 0 1 0.51,0.43 q 1.23,6.66 0.11,13.32 a 1.39,1.38 -84.8 0 1 -1.37,1.15 q -8.85,-0.04 -18.06,-0.76 -1.19,-0.09 -1.78,-0.75 a 0.71,0.7 62.9 0 1 0.37,-1.16 l 4.59,-0.98 a 0.72,0.72 0 0 0 0.57,-0.74 z"
         id="path7" /><path
         fill="#ffffff"
         d="m 313.26,266.57 a 1.21,1.21 0 0 1 -1.32,1.09 l -19.26,-1.79 a 6.09,3.4 5.3 0 1 -5.75,-3.94 l 0.57,-6.12 a 6.09,3.4 5.3 0 1 6.38,-2.82 l 19.26,1.79 a 1.21,1.21 0 0 1 1.09,1.31 z"
         id="path8" /><path
         fill="#ffffff"
         d="m 307.12,278.91 a 2.01,2.01 0 0 1 -2.34,1.62 l -16.03,-2.95 a 5.39,2.76 10.4 0 1 -4.81,-3.68 l 0.99,-5.37 a 5.39,2.76 10.4 0 1 5.8,-1.75 l 16.03,2.95 a 2.01,2.01 0 0 1 1.61,2.34 z"
         id="path9" /><path
         fill="#ffffff"
         d="M 287.53,306.67 277.4,296.52 a 0.39,0.39 0 0 1 0.01,-0.56 l 5.02,-5.01 a 0.39,0.39 0 0 0 0.11,-0.31 l -0.24,-2.35 a 0.39,0.39 0 0 1 0.34,-0.43 l 10.17,-1.22 a 0.39,0.39 0 0 1 0.44,0.39 v 3.94 a 0.39,0.39 0 0 0 0.11,0.27 l 4.83,4.83 a 0.39,0.39 0 0 1 0,0.56 l -10.11,10.05 a 0.39,0.39 0 0 1 -0.55,-0.01 z"
         id="path10" /><path
         fill="#ffffff"
         d="m 263.93,360.94 a 15.52,12.09 90 0 1 -12.09,-15.52 15.52,12.09 90 0 1 12.09,-15.52 15.52,12.09 90 0 1 12.09,15.52 15.52,12.09 90 0 1 -12.09,15.52 z m 0.01,-6.35 a 9.19,5.82 90 0 0 5.82,-9.19 9.19,5.82 90 0 0 -5.82,-9.19 9.19,5.82 90 0 0 -5.82,9.19 9.19,5.82 90 0 0 5.82,9.19 z"
         id="path11" /><path
         fill="#ffffff"
         d="m 287.25,337.18 v 4.6 a 0.47,0.47 0 0 0 0.47,0.47 h 8.81 a 0.47,0.47 0 0 1 0.47,0.47 v 5.06 a 0.47,0.47 0 0 1 -0.47,0.47 h -8.81 a 0.47,0.47 0 0 0 -0.47,0.47 v 11.04 a 0.47,0.47 0 0 1 -0.46,0.47 l -5.06,0.06 a 0.47,0.47 0 0 1 -0.48,-0.47 v -28.85 a 0.47,0.47 0 0 1 0.47,-0.47 h 16.31 a 0.47,0.47 0 0 1 0.47,0.47 v 5.33 a 0.47,0.47 0 0 1 -0.47,0.47 l -10.31,-0.06 a 0.47,0.47 0 0 0 -0.47,0.47 z"
         id="path12" /><path
         fill="#ffffff"
         d="m 309.96,345.13 v 14.81 a 0.31,0.31 0 0 1 -0.31,0.31 h -5.09 a 0.31,0.31 0 0 1 -0.31,-0.31 v -29.12 a 0.31,0.31 0 0 1 0.31,-0.31 h 5.06 a 0.31,0.31 0 0 1 0.28,0.17 l 7.81,15.7 a 0.31,0.31 0 0 0 0.58,-0.14 l -0.06,-15.42 a 0.31,0.31 0 0 1 0.31,-0.31 l 5.15,-0.02 a 0.31,0.31 0 0 1 0.31,0.31 v 29.14 a 0.31,0.31 0 0 1 -0.31,0.31 h -5.39 a 0.31,0.31 0 0 1 -0.28,-0.17 L 310.55,345 a 0.31,0.31 0 0 0 -0.59,0.13 z"
         id="path13" /></g><path
       style="fill:#00004a;stroke:#333333;stroke-width:0.327042;fill-opacity:1"
       d="m 38.502376,67.084356 c -3.5822,-0.427835 -7.442363,-1.56295 -10.739378,-3.15801 l -0.999871,-0.483727 3.376938,-2.161053 c 1.857316,-1.18858 3.490071,-2.222054 3.628343,-2.296609 0.155188,-0.08367 1.861242,-0.224468 4.457675,-0.367871 4.268598,-0.235758 4.945562,-0.326901 6.092363,-0.820242 1.169686,-0.503185 0.979486,-0.757706 -0.888607,-1.189117 -1.758161,-0.406025 -2.800929,-0.762536 -3.264452,-1.116082 -0.360875,-0.275253 -0.379781,-0.328093 -0.44156,-1.234114 -0.101171,-1.483716 -0.519331,-2.483237 -1.03976,-2.485322 -0.131256,-5.25e-4 -1.121947,0.364146 -2.201536,0.810379 -1.778436,0.735095 -2.308825,0.868301 -2.308825,0.579858 0,-0.0543 0.427601,-0.585933 0.950225,-1.181403 1.157116,-1.318402 1.535184,-1.85918 2.122145,-3.03546 0.809808,-1.622866 1.197008,-3.321848 1.361739,-5.975119 0.0497,-0.800444 0.11652,-1.481517 0.148497,-1.513494 0.16198,-0.16198 1.473474,-0.305926 1.917767,-0.210489 l 0.482777,0.103703 0.247064,1.082168 c 0.290506,1.272449 0.481368,1.744533 0.911586,2.254764 0.540375,0.640873 1.122305,0.873601 2.190051,0.875854 0.513744,0.0011 0.986989,-0.05094 1.051652,-0.1156 0.153447,-0.153446 -0.07443,-8.294669 -0.244728,-8.743468 -0.06629,-0.174687 -0.203198,-0.361696 -0.304246,-0.415578 -0.276641,-0.147513 -2.026262,-0.331717 -3.942831,-0.415109 -1.741614,-0.07578 -5.312209,0.104875 -5.809463,0.293932 -0.416374,0.158305 -2.604399,4.584682 -4.89886,9.9104 l -1.153298,2.67694 -6.303874,2.898657 -6.303874,2.898658 -0.330719,-0.392586 C 15.234432,52.935489 13.014213,48.753015 12.136896,46.382053 10.658609,42.386963 10.05,38.627516 10.171994,34.244637 10.237231,31.900854 10.402441,30.462372 10.840079,28.42762 13.507187,16.027172 23.290863,6.3825595 35.847262,3.7758856 38.352375,3.255831 39.094528,3.1894362 42.375396,3.1918634 c 2.43021,0.0018 3.413541,0.047258 4.385625,0.2027484 4.246883,0.679315 8.093327,2.0208278 11.508235,4.0136926 11.725753,6.8428906 17.897281,20.0747726 15.606366,33.4603616 -0.542625,3.170498 -1.354007,5.641845 -2.850837,8.683208 -1.561962,3.173704 -3.301453,5.588606 -5.916985,8.214438 -5.337023,5.358041 -12.254859,8.624599 -19.868186,9.381632 -1.609146,0.160006 -5.144498,0.126638 -6.737238,-0.06359 z m 5.494891,-3.320492 c 0.924873,-0.92333 1.681587,-1.732059 1.681587,-1.797175 0,-0.06511 -0.356695,-0.472352 -0.792655,-0.904972 l -0.792654,-0.786579 -0.03321,-0.748183 -0.03321,-0.74818 -0.683474,0.006 c -0.375911,0.0033 -1.208895,0.07315 -1.851076,0.155206 l -1.167602,0.149188 v 0.525748 c 0,0.503338 -0.03755,0.563517 -0.880794,1.41174 l -0.880794,0.88599 1.762236,1.764992 c 0.969231,0.970746 1.813498,1.764992 1.876148,1.764992 0.06265,0 0.870626,-0.755452 1.795498,-1.678783 z m 4.454509,-7.261678 c 0.176551,-0.176553 0.297757,-0.653908 0.543412,-2.140169 0.209684,-1.268633 0.309726,-1.209268 -3.103105,-1.841398 -3.003361,-0.556286 -3.790545,-0.619488 -4.31808,-0.346689 -0.355557,0.183865 -0.367598,0.214101 -0.611615,1.535745 -0.287961,1.559655 -0.02892,1.728411 3.748211,2.441806 2.902111,0.548129 3.488759,0.603122 3.741177,0.350705 z m 2.281042,-4.585683 c 0.03319,-0.172814 0.121624,-1.048273 0.19653,-1.945466 0.117095,-1.402531 0.112953,-1.654496 -0.02954,-1.796985 -0.119952,-0.119951 -0.997593,-0.244316 -3.17747,-0.450257 -4.321208,-0.408242 -4.923593,-0.381022 -5.482733,0.247735 -0.247702,0.278542 -0.502829,2.548461 -0.323992,2.882621 0.165731,0.30967 0.666041,0.642539 1.200209,0.79853 0.658965,0.192434 7.139057,0.782964 7.366566,0.671314 0.104548,-0.05131 0.21724,-0.234679 0.250426,-0.407492 z m 0.747545,-4.861037 c 0.256432,-0.308981 0.395605,-2.270666 0.253456,-3.572524 -0.0722,-0.661222 -0.160964,-1.231915 -0.197258,-1.268208 -0.03629,-0.03629 -1.190462,-0.08472 -2.564818,-0.107621 -1.920473,-0.032 -2.539736,-0.0077 -2.675568,0.105047 -0.148831,0.123519 -0.171051,0.425854 -0.140727,1.914799 l 0.03601,1.768119 -0.455649,0.101956 c -1.200092,0.268533 -1.309992,0.314088 -1.309992,0.542995 0,0.344617 0.375473,0.445079 2.050422,0.548618 2.680788,0.165716 4.850997,0.151326 5.004123,-0.03318 z m 0.008,-7.742418 c 0,-2.19349 -0.0017,-2.208457 -0.256303,-2.276691 -0.140966,-0.03778 -1.338868,-0.06939 -2.662003,-0.07024 l -2.405699,-0.0016 -0.05609,2.192813 c -0.03085,1.206047 -0.03454,2.231258 -0.0082,2.278247 0.02633,0.04699 1.249473,0.08543 2.718093,0.08543 h 2.670217 z M 45.60971,35.64525 c 0.03803,-0.0991 0.06914,-0.944901 0.06914,-1.879554 v -1.699368 h 0.901982 c 0.49609,0 0.983066,-0.03111 1.082167,-0.06914 0.150893,-0.0579 0.180186,-0.298642 0.180186,-1.480861 V 29.10461 h -5.695618 -5.695618 v 1.411717 c 0,1.182219 0.02929,1.422958 0.180186,1.480861 0.0991,0.03803 0.586076,0.06914 1.082167,0.06914 h 0.901982 l 0.0017,1.452382 c 9.59e-4,0.798811 0.04765,1.524904 0.103757,1.613541 0.08052,0.127206 0.398603,0.155598 1.509776,0.134756 1.479701,-0.02775 3.329192,0.130988 4.479034,0.384433 0.375911,0.08286 0.716436,0.155903 0.756721,0.162323 0.04029,0.0064 0.104362,-0.06941 0.14239,-0.168513 z m 2.193384,-9.901058 c 0.761095,-1.503643 1.360381,-2.772342 1.331747,-2.819331 -0.02863,-0.04699 -0.561643,-0.08543 -1.184463,-0.08543 -0.62282,0 -1.132401,-0.04083 -1.132401,-0.09072 0,-0.0499 0.283172,-0.421536 0.629269,-0.825865 0.876096,-1.023496 1.456635,-2.219185 1.513867,-3.117986 0.05732,-0.900121 -0.303604,-1.983221 -1.0404,-3.122193 -0.617623,-0.954745 -0.872987,-1.051491 -0.878885,-0.332969 -0.007,0.85198 -0.299094,2.170737 -0.649704,2.933243 -0.81356,1.769329 -2.622179,3.822022 -3.611665,4.099061 -0.662013,0.185352 -0.797121,0.100118 -1.945561,-1.227376 C 39.762086,19.91454 39.010249,18.63853 38.535644,17.252337 38.180517,16.215115 38.13191,15.91703 38.029227,14.146804 37.899668,11.91324 37.817359,11.391235 37.594733,11.391235 c -0.216534,0 -1.180939,1.942174 -1.593269,3.208616 -0.907421,2.787088 -0.40709,4.790203 1.835126,7.34706 0.366181,0.417568 0.665786,0.789207 0.665786,0.825865 0,0.03666 -0.692018,0.06665 -1.537817,0.06665 -1.294946,0 -1.537817,0.02714 -1.537817,0.171858 0,0.173082 2.430796,5.114907 2.647692,5.382774 0.09069,0.112003 1.026069,0.137189 4.230641,0.113912 l 4.114209,-0.02988 z m -4.113605,-5.042676 c 1.107917,-1.361898 1.943473,-2.899569 2.271199,-4.17968 C 46.652861,13.81818 45.475479,11.449351 42.452233,9.4630204 41.392441,8.766717 40.850443,8.1592727 40.675886,7.4721812 40.618651,7.2468928 40.53674,6.4088229 40.493862,5.6098036 40.449064,4.7750166 40.363453,4.1246264 40.292603,4.0808387 40.013807,3.9085332 38.824577,5.6069939 38.358961,6.8424696 38.141545,7.4193702 38.105112,7.7348293 38.109895,8.999076 c 0.0061,1.625781 -0.09599,1.232491 1.17181,4.512066 0.602384,1.558263 0.988792,3.095199 1.234945,4.911998 0.257722,1.90218 0.355429,1.911597 1.204552,0.116096 0.716276,-1.514592 1.052533,-2.450819 1.172606,-3.264845 l 0.08252,-0.559424 0.17935,0.3316 c 0.296489,0.548179 0.30927,2.574115 0.02661,4.217275 -0.130528,0.758782 -0.237325,1.489245 -0.237325,1.623251 0,0.381353 0.355392,0.29277 0.744532,-0.185577 z"
       id="path5"
       transform="scale(0.26458333)" /><path
       style="fill:#00004a;fill-opacity:1;stroke:#333333;stroke-width:0.462508"
       d="m 38.86475,66.935349 c -2.956032,-0.310505 -6.60651,-1.284339 -9.666028,-2.578595 -1.085387,-0.459148 -1.97047,-0.882301 -1.966852,-0.940341 0.006,-0.09571 5.662215,-3.717654 6.491144,-4.156571 0.19188,-0.1016 2.197455,-0.306013 4.456832,-0.454251 4.305771,-0.2825 5.126287,-0.398907 6.219089,-0.882306 1.397371,-0.618123 1.118874,-0.943454 -1.386197,-1.619312 -1.018935,-0.274904 -2.10351,-0.628785 -2.410167,-0.786401 -0.537715,-0.276379 -0.564351,-0.334131 -0.748479,-1.622813 -0.193883,-1.356954 -0.569668,-2.133097 -1.081544,-2.233811 -0.142549,-0.02805 -1.129255,0.280048 -2.192679,0.68466 -1.063423,0.404609 -1.978395,0.735654 -2.033271,0.735654 -0.05487,0 0.37474,-0.568908 0.954696,-1.264241 2.250304,-2.697971 3.016845,-4.906907 3.362717,-9.690314 0.03819,-0.528104 0.08161,-0.568963 0.685154,-0.644731 1.236826,-0.155268 1.494901,-0.04342 1.618851,0.701624 0.193498,1.163068 0.697189,2.277091 1.289102,2.851136 0.558407,0.541551 0.606094,0.555544 1.893272,0.555544 h 1.320438 l -0.01936,-4.05176 c -0.02109,-4.415575 -0.09065,-5.129499 -0.522261,-5.360489 -0.609774,-0.326341 -3.822905,-0.537219 -6.704099,-0.439989 -2.479448,0.08367 -2.954579,0.141089 -3.302477,0.399092 -0.529372,0.392587 -2.253476,3.800583 -4.363571,8.625368 l -1.681162,3.844016 -1.127674,0.523113 c -0.620221,0.28771 -3.302476,1.519952 -5.960567,2.738316 -2.658091,1.218364 -4.959606,2.282225 -5.114479,2.364136 -0.235,0.124291 -0.41748,-0.05853 -1.10297,-1.105056 -1.24746,-1.904469 -3.225071,-6.025041 -3.887763,-8.100584 -1.305476,-4.088738 -1.757218,-7.915924 -1.439175,-12.192782 0.567446,-7.630686 3.532616,-14.266677 8.794078,-19.680976 4.735934,-4.873503 10.439633,-7.9573884 17.176802,-9.2871802 1.966599,-0.3881699 2.515644,-0.4279514 5.952201,-0.4312715 3.49179,-0.00337 3.948391,0.030007 5.880019,0.4298663 12.966974,2.6842471 22.576147,12.2618354 25.296947,25.2137994 0.569035,2.708798 0.72756,7.667047 0.334789,10.471266 -0.522294,3.728961 -1.454605,6.738917 -3.118646,10.068525 -1.659707,3.320936 -3.569459,5.888613 -6.336854,8.519947 -4.872953,4.633372 -10.520408,7.440624 -17.223363,8.561432 -1.808537,0.302409 -6.453602,0.434063 -8.336494,0.23628 z m 5.152209,-3.017607 c 0.95393,-0.950972 1.734417,-1.842044 1.734417,-1.980163 0,-0.138118 -0.32622,-0.571285 -0.724933,-0.962593 -0.542014,-0.531945 -0.72549,-0.835114 -0.727133,-1.201491 -0.0012,-0.269511 -0.04827,-0.662151 -0.104579,-0.87253 -0.09971,-0.372534 -0.134316,-0.379754 -1.326846,-0.276814 -2.805729,0.242191 -2.754882,0.226007 -2.754882,0.876775 0,0.487741 -0.145577,0.726909 -0.926305,1.521825 l -0.926304,0.943137 1.933157,1.835099 c 1.063236,1.009306 1.968219,1.837506 2.011074,1.840447 0.04286,0.0029 0.858405,-0.772721 1.812334,-1.723692 z m 4.702317,-7.654826 c 0.117051,-0.28796 0.304047,-1.01954 0.415548,-1.625735 0.188277,-1.0236 0.180742,-1.124159 -0.105698,-1.410598 C 48.851762,53.049217 48.14115,52.785865 47.35686,52.60684 l -1.363839,-0.311314 2.350034,0.09388 c 2.085317,0.0833 2.361473,0.06406 2.451595,-0.17079 0.05586,-0.145567 0.185712,-1.068357 0.288564,-2.050644 0.163589,-1.56236 0.155837,-1.817145 -0.06191,-2.034894 -0.280875,-0.280875 -2.705295,-0.605557 -5.865531,-0.785521 -2.964248,-0.168803 -3.251599,0.02303 -3.391414,2.264094 -0.08155,1.307069 -0.08005,1.313353 0.411997,1.72738 l 0.49384,0.415539 -0.631455,0.100974 c -0.821152,0.131308 -1.10139,0.571692 -1.228244,1.930144 -0.119203,1.276523 0.0614,1.565512 1.214337,1.943148 1.057105,0.346247 4.787491,1.028839 5.708196,1.044496 0.726337,0.01235 0.786386,-0.01873 0.986248,-0.510412 z m 2.923373,-9.210917 c 0.403484,-0.551795 0.397662,-4.263653 -0.0077,-4.919568 -0.06434,-0.1041 -1.100391,-0.16682 -2.755671,-0.16682 h -2.65257 l -0.170148,0.443015 c -0.09358,0.243658 -0.146158,1.089353 -0.116835,1.879323 0.03216,0.866491 -0.0106,1.454222 -0.107783,1.481464 -0.0886,0.02484 -0.469194,0.124348 -0.845757,0.22114 -0.728316,0.187205 -0.911093,0.580575 -0.448241,0.964708 0.298106,0.247407 3.389349,0.479315 5.39618,0.404827 1.147667,-0.0426 1.570112,-0.118775 1.708542,-0.308089 z m 0.06929,-7.513424 c 0,-1.157665 -0.07504,-2.245065 -0.166764,-2.416446 -0.154815,-0.289275 -0.362602,-0.311603 -2.899735,-0.311603 h -2.732971 v 2.309048 c 0,1.269978 0.04833,2.357379 0.107398,2.416446 0.05907,0.05907 1.363948,0.107398 2.899735,0.107398 h 2.792337 z m -5.943415,-4.017666 c 0.06151,-0.221041 0.119055,-1.036212 0.127887,-1.811488 l 0.01606,-1.409594 h 0.633898 c 0.348645,0 0.819852,-0.0707 1.047127,-0.157109 0.403654,-0.153468 0.413228,-0.192662 0.413228,-1.691512 v -1.534403 h -5.880019 -5.880018 l 0.0025,1.409593 c 0.0014,0.775277 0.06809,1.513292 0.148296,1.640033 0.0907,0.143321 0.516085,0.257221 1.125208,0.301281 l 0.97938,0.07084 v 1.434492 c 0,1.391604 0.01235,1.43919 0.413228,1.591602 0.227275,0.08641 1.260305,0.164934 2.295624,0.174498 1.035316,0.0096 2.353602,0.108613 2.929521,0.220109 1.356374,0.262591 1.494352,0.242392 1.628116,-0.238344 z m -0.527708,-6.871597 1.342054,-0.104463 1.390692,-2.786776 c 0.764879,-1.532726 1.333013,-2.844535 1.262517,-2.915128 -0.0705,-0.07059 -0.564209,-0.1646 -1.09714,-0.208901 l -0.968966,-0.08055 0.520713,-0.644385 c 0.286393,-0.354412 0.737931,-1.103261 1.00342,-1.66411 0.414841,-0.876359 0.470946,-1.149406 0.399063,-1.942141 -0.122243,-1.348126 -1.39129,-3.702569 -1.903636,-3.531787 -0.136168,0.04539 -0.294291,0.554576 -0.41534,1.337482 -0.266689,1.724835 -1.092272,3.351797 -2.409255,4.747868 -1.14361,1.212286 -1.782966,1.581094 -2.279902,1.315141 -0.482745,-0.258358 -2.034628,-2.238521 -2.667634,-3.403833 -0.786503,-1.447892 -1.041081,-2.471217 -1.240241,-4.985422 -0.239982,-3.029555 -0.469167,-3.242521 -1.430932,-1.329665 -1.89965,3.778215 -1.728171,6.370012 0.607009,9.174548 l 0.838349,1.006853 -1.254369,0.0025 c -0.689903,0.0014 -1.357234,0.06757 -1.482953,0.147149 -0.296758,0.187832 -0.05791,0.806972 1.402722,3.63615 0.957557,1.854745 1.136481,2.105891 1.564499,2.196016 0.661771,0.139344 5.174673,0.161504 6.81933,0.03349 z m -1.381993,-7.925429 c 0.713987,-0.790298 1.58111,-2.267399 2.05236,-3.496097 0.262228,-0.683708 0.369317,-1.309245 0.374947,-2.190189 0.0068,-1.06534 -0.06077,-1.372599 -0.496663,-2.258016 -0.602489,-1.22383 -1.479632,-2.173707 -3.14358,-3.4042563 C 41.967941,8.8739579 41.289459,8.2748098 41.138151,8.0438846 40.9553,7.7648208 40.810303,7.0296985 40.705771,5.8517629 40.586948,4.5127911 40.488223,4.0563764 40.301961,3.984901 39.958738,3.8531936 39.082137,4.9080074 38.460603,6.200608 37.993808,7.1713999 37.956434,7.3750452 37.957707,8.94085 c 0.0013,1.60269 0.03703,1.783193 0.680408,3.437473 0.884848,2.275165 1.386239,4.042525 1.642927,5.791175 0.215212,1.466095 0.452203,2.020502 0.777704,1.819332 0.26045,-0.160966 1.105031,-1.859615 1.648422,-3.315353 l 0.451001,-1.208223 0.0044,1.369319 c 0.0024,0.753126 -0.09068,2.001276 -0.206838,2.773668 -0.199916,1.329358 -0.145554,1.737031 0.231624,1.737031 0.06057,0 0.362755,-0.279624 0.671519,-0.621389 z"
       id="path54"
       transform="scale(0.26458333)" /><path
       style="fill:#00004a;fill-opacity:1;stroke:#333333;stroke-width:0.462508"
       d="M 16.185919,53.269437 C 15.466918,52.290063 13.411175,48.260617 12.648378,46.335531 9.9423316,39.506225 9.9796963,30.614039 12.743769,23.634114 15.753553,16.03371 21.979471,9.5912895 29.51877,6.2757711 32.378771,5.018043 37.053231,3.7857653 38.964231,3.7857653 h 0.824451 L 39.20117,4.5509732 c -0.323132,0.4208643 -0.775738,1.1639214 -1.00579,1.651238 -0.378565,0.8019121 -0.418275,1.0714116 -0.418275,2.8386825 0,1.7980543 -0.02551,1.9638633 -0.322193,2.0942533 -0.430448,0.189178 -1.755293,2.870775 -2.009033,4.066446 -0.110897,0.52257 -0.174327,1.520607 -0.140956,2.217858 0.06904,1.442568 0.622737,2.819415 1.643547,4.086918 l 0.583841,0.724934 -0.844181,0.132136 c -1.543621,0.241615 -1.569116,0.252273 -1.569116,0.655963 0,0.3913 1.872472,4.327977 2.433054,5.115243 l 0.315856,0.44358 -0.93144,0.04847 -0.93144,0.04847 0.04121,1.610964 c 0.03613,1.412378 0.08301,1.645718 0.380313,1.892883 0.186511,0.155055 0.542629,0.281919 0.791376,0.281919 0.838546,0 0.961606,0.130493 0.965751,1.024088 0.0021,0.455685 0.06697,1.10037 0.144131,1.432632 l 0.140287,0.604111 -0.989887,0.007 c -1.577056,0.01118 -2.379716,0.223763 -2.805391,0.743012 -0.494907,0.603701 -2.723379,5.164312 -4.395905,8.996304 -0.734767,1.683458 -1.3503,3.081832 -1.367851,3.1075 -0.01755,0.02567 -2.763221,1.306488 -6.10149,2.846267 l -6.06958,2.799598 z"
       id="path55"
       transform="scale(0.26458333)" /></g></svg>
