<?xml version="1.0" encoding="UTF-8" standalone="no"?>
<!-- Created with Inkscape (http://www.inkscape.org/) -->

<svg
   width="84"
   height="84"
   viewBox="0 0 22.224999 22.225001"
   version="1.1"
   id="svg924"
   inkscape:version="1.3 (0e150ed6c4, 2023-07-21)"
   sodipodi:docname="flint_logo.svg"
   xml:space="preserve"
   xmlns:inkscape="http://www.inkscape.org/namespaces/inkscape"
   xmlns:sodipodi="http://sodipodi.sourceforge.net/DTD/sodipodi-0.dtd"
   xmlns="http://www.w3.org/2000/svg"
   xmlns:svg="http://www.w3.org/2000/svg"><sodipodi:namedview
     id="namedview926"
     pagecolor="#505050"
     bordercolor="#ffffff"
     borderopacity="1"
     inkscape:pageshadow="0"
     inkscape:pageopacity="0"
     inkscape:pagecheckerboard="1"
     inkscape:document-units="px"
     showgrid="false"
     units="px"
     inkscape:zoom="2.1946698"
     inkscape:cx="-80.877771"
     inkscape:cy="-15.264255"
     inkscape:window-width="1920"
     inkscape:window-height="1017"
     inkscape:window-x="-8"
     inkscape:window-y="-8"
     inkscape:window-maximized="1"
     inkscape:current-layer="layer1"
     inkscape:showpageshadow="2"
     inkscape:deskcolor="#d1d1d1" /><defs
     id="defs921" /><g
     inkscape:label="Layer 1"
     inkscape:groupmode="layer"
     id="layer1"><g
       id="g1"
       transform="scale(0.10101738)"><g
         stroke-width="2"
         fill="none"
         stroke-linecap="butt"
         id="g3"><path
           stroke="#808080"
           vector-effect="non-scaling-stroke"
           d="M 136.02,83.62 Q 139.3,57.1 149.87,32.55 154.63,21.5 159.49,10.41 159.68,10 159.22,10 H 61 q -0.58,0 -0.35,0.53 c 4.34,9.84 9.55,20.78 12.81,29.65 Q 81.2,61.29 84.11,83.7 84.17,84.18 83.69,84.12 63.38,81.48 44.12,74.85 C 33.72,71.28 21.67,65.57 10.63,60.65 q -0.66,-0.3 -0.66,0.42 l -0.1,98.17 q 0,0.57 0.52,0.34 c 11.06,-4.94 23.1,-10.66 33.5,-14.25 q 19.31,-6.65 39.78,-9.35 a 0.4,0.39 89.5 0 1 0.44,0.44 q -2.87,22.35 -10.66,43.49 c -3.23,8.76 -8.56,19.83 -12.85,29.75 q -0.26,0.59 0.39,0.59 h 98.26 q 0.57,0 0.33,-0.52 c -5.34,-11.87 -11.43,-24.72 -15.14,-36.06 q -5.81,-17.78 -8.44,-36.93 -0.12,-0.81 0.69,-0.7 c 26.2,3.35 47.59,11.58 73.12,23.72 q 0.44,0.21 0.44,-0.28 V 60.99 q 0,-0.64 -0.58,-0.38 c -9.93,4.37 -21.07,9.66 -29.92,12.9 q -20.98,7.7 -43.24,10.59 -0.56,0.07 -0.49,-0.48"
           id="path1" /><path
           stroke="#808080"
           vector-effect="non-scaling-stroke"
           d="m 129.05,90.44 c 2.38,-26.72 10.08,-49.47 20.85,-73.8 A 0.45,0.45 0 0 0 149.49,16 h -78.5 q -1.28,0 -0.71,1.15 17.08,34.62 20.79,73.12 0.09,0.98 -0.89,0.88 Q 58.75,87.82 31.25,76.43 23.77,73.33 16.54,70.13 A 0.38,0.38 0 0 0 16,70.48 v 79.26 q 0,0.5 0.46,0.3 7.76,-3.41 15.59,-6.65 28.12,-11.66 58.5,-14.32 0.58,-0.05 0.53,0.53 -2.72,29.73 -13.98,57.39 -3.36,8.26 -6.89,16.55 -0.2,0.46 0.31,0.46 h 79 q 0.66,0 0.39,-0.6 C 139.3,179.48 131.52,157.27 129.14,129.46 q -0.04,-0.47 0.43,-0.42 c 26.7,2.41 49.53,9.98 73.83,20.86 q 0.6,0.27 0.6,-0.39 V 70.5 q 0,-0.54 -0.5,-0.32 c -24.48,10.77 -47.03,18.54 -73.92,20.79 q -0.58,0.05 -0.53,-0.53"
           id="path2" /><path
           stroke="#808080"
           vector-effect="non-scaling-stroke"
           d="m 123,96.68 q 2.28,-38.95 18.28,-74.47 a 0.33,0.32 12.2 0 0 -0.3,-0.46 H 79.25 q -0.63,0 -0.37,0.58 15.97,35.59 18.26,74.61 a 0.19,0.19 0 0 1 -0.21,0.21 q -39,-2.34 -74.6,-18.27 -0.58,-0.26 -0.58,0.38 v 61.49 q 0,0.75 0.68,0.44 35.43,-15.89 74.26,-18.2 0.46,-0.02 0.43,0.44 -2.35,38.93 -18.28,74.49 -0.26,0.58 0.37,0.58 H 141 q 0.58,0 0.34,-0.53 -16.03,-35.5 -18.34,-74.47 -0.03,-0.52 0.5,-0.49 38.97,2.27 74.49,18.3 0.51,0.24 0.51,-0.33 V 79.21 q 0,-0.65 -0.59,-0.38 -35.54,15.99 -74.48,18.28 -0.46,0.02 -0.43,-0.43"
           id="path3" /></g><path
         fill="#ffffff"
         d="m 44.98,0 h 130.19 c -10.59,23.51 -21.84,45.08 -27.15,71.79 q -0.08,0.37 0.29,0.29 c 26.3,-5.09 48.22,-16.5 71.69,-27.07 v 130.08 c -23.5,-10.62 -46.1,-22.11 -71.64,-27.12 a 0.32,0.32 0 0 0 -0.38,0.38 c 5.01,25.58 16.59,48.07 27.09,71.65 H 45.02 C 55.5,196.55 66.87,174.92 72.01,148.45 q 0.08,-0.4 -0.31,-0.32 -19.88,3.75 -33.78,10.02 -18.79,8.47 -37.92,17 V 44.93 c 23.52,10.53 45.51,22.05 71.74,27.12 q 0.39,0.07 0.31,-0.32 C 66.79,45.06 55.51,23.54 44.98,0 Z m 91.04,83.62 Q 139.3,57.1 149.87,32.55 154.63,21.5 159.49,10.41 159.68,10 159.22,10 H 61 q -0.58,0 -0.35,0.53 c 4.34,9.84 9.55,20.78 12.81,29.65 Q 81.2,61.29 84.11,83.7 84.17,84.18 83.69,84.12 63.38,81.48 44.12,74.85 C 33.72,71.28 21.67,65.57 10.63,60.65 q -0.66,-0.3 -0.66,0.42 l -0.1,98.17 q 0,0.57 0.52,0.34 c 11.06,-4.94 23.1,-10.66 33.5,-14.25 q 19.31,-6.65 39.78,-9.35 a 0.4,0.39 89.5 0 1 0.44,0.44 q -2.87,22.35 -10.66,43.49 c -3.23,8.76 -8.56,19.83 -12.85,29.75 q -0.26,0.59 0.39,0.59 h 98.26 q 0.57,0 0.33,-0.52 c -5.34,-11.87 -11.43,-24.72 -15.14,-36.06 q -5.81,-17.78 -8.44,-36.93 -0.12,-0.81 0.69,-0.7 c 26.2,3.35 47.59,11.58 73.12,23.72 q 0.44,0.21 0.44,-0.28 V 60.99 q 0,-0.64 -0.58,-0.38 c -9.93,4.37 -21.07,9.66 -29.92,12.9 q -20.98,7.7 -43.24,10.59 -0.56,0.07 -0.49,-0.48 z"
         id="path4" /><path
         fill="#000000"
         d="m 136.51,84.1 q 22.26,-2.89 43.24,-10.59 c 8.85,-3.24 19.99,-8.53 29.92,-12.9 q 0.58,-0.26 0.58,0.38 v 98.49 q 0,0.49 -0.44,0.28 c -25.53,-12.14 -46.92,-20.37 -73.12,-23.72 q -0.81,-0.11 -0.69,0.7 2.63,19.15 8.44,36.93 c 3.71,11.34 9.8,24.19 15.14,36.06 q 0.24,0.52 -0.33,0.52 H 60.99 q -0.65,0 -0.39,-0.59 c 4.29,-9.92 9.62,-20.99 12.85,-29.75 q 7.79,-21.14 10.66,-43.49 a 0.4,0.39 89.5 0 0 -0.44,-0.44 q -20.47,2.7 -39.78,9.35 c -10.4,3.59 -22.44,9.31 -33.5,14.25 q -0.52,0.23 -0.52,-0.34 l 0.1,-98.17 q 0,-0.72 0.66,-0.42 c 11.04,4.92 23.09,10.63 33.49,14.2 q 19.26,6.63 39.57,9.27 0.48,0.06 0.42,-0.42 Q 81.2,61.29 73.46,40.18 C 70.2,31.31 64.99,20.37 60.65,10.53 Q 60.42,10 61,10 h 98.22 q 0.46,0 0.27,0.41 -4.86,11.09 -9.62,22.14 -10.57,24.55 -13.85,51.07 -0.07,0.55 0.49,0.48 z m -7.46,6.34 c 2.38,-26.72 10.08,-49.47 20.85,-73.8 A 0.45,0.45 0 0 0 149.49,16 h -78.5 q -1.28,0 -0.71,1.15 17.08,34.62 20.79,73.12 0.09,0.98 -0.89,0.88 Q 58.75,87.82 31.25,76.43 23.77,73.33 16.54,70.13 A 0.38,0.38 0 0 0 16,70.48 v 79.26 q 0,0.5 0.46,0.3 7.76,-3.41 15.59,-6.65 28.12,-11.66 58.5,-14.32 0.58,-0.05 0.53,0.53 -2.72,29.73 -13.98,57.39 -3.36,8.26 -6.89,16.55 -0.2,0.46 0.31,0.46 h 79 q 0.66,0 0.39,-0.6 C 139.3,179.48 131.52,157.27 129.14,129.46 q -0.04,-0.47 0.43,-0.42 c 26.7,2.41 49.53,9.98 73.83,20.86 q 0.6,0.27 0.6,-0.39 V 70.5 q 0,-0.54 -0.5,-0.32 c -24.48,10.77 -47.03,18.54 -73.92,20.79 q -0.58,0.05 -0.53,-0.53 z"
         id="path5" /><path
         fill="#ffffff"
         d="m 129.58,90.97 c 26.89,-2.25 49.44,-10.02 73.92,-20.79 q 0.5,-0.22 0.5,0.32 v 79.01 q 0,0.66 -0.6,0.39 c -24.3,-10.88 -47.13,-18.45 -73.83,-20.86 q -0.47,-0.05 -0.43,0.42 c 2.38,27.81 10.16,50.02 20.77,73.94 q 0.27,0.6 -0.39,0.6 h -79 q -0.51,0 -0.31,-0.46 3.53,-8.29 6.89,-16.55 11.26,-27.66 13.98,-57.39 0.05,-0.58 -0.53,-0.53 -30.38,2.66 -58.5,14.32 -7.83,3.24 -15.59,6.65 -0.46,0.2 -0.46,-0.3 V 70.48 a 0.38,0.38 0 0 1 0.54,-0.35 q 7.23,3.2 14.71,6.3 27.5,11.39 58.93,14.72 0.98,0.1 0.89,-0.88 Q 87.36,51.77 70.28,17.15 69.71,16 70.99,16 h 78.5 a 0.45,0.45 0 0 1 0.41,0.64 c -10.77,24.33 -18.47,47.08 -20.85,73.8 q -0.05,0.58 0.53,0.53 z M 123,96.68 q 2.28,-38.95 18.28,-74.47 a 0.33,0.32 12.2 0 0 -0.3,-0.46 H 79.25 q -0.63,0 -0.37,0.58 15.97,35.59 18.26,74.61 a 0.19,0.19 0 0 1 -0.21,0.21 q -39,-2.34 -74.6,-18.27 -0.58,-0.26 -0.58,0.38 v 61.49 q 0,0.75 0.68,0.44 35.43,-15.89 74.26,-18.2 0.46,-0.02 0.43,0.44 -2.35,38.93 -18.28,74.49 -0.26,0.58 0.37,0.58 H 141 q 0.58,0 0.34,-0.53 -16.03,-35.5 -18.34,-74.47 -0.03,-0.52 0.5,-0.49 38.97,2.27 74.49,18.3 0.51,0.24 0.51,-0.33 V 79.21 q 0,-0.65 -0.59,-0.38 -35.54,15.99 -74.48,18.28 -0.46,0.02 -0.43,-0.43 z"
         id="path6" /><path
         fill="#000000"
         d="m 123.43,97.11 q 38.94,-2.29 74.48,-18.28 0.59,-0.27 0.59,0.38 v 61.77 q 0,0.57 -0.51,0.33 -35.52,-16.03 -74.49,-18.3 -0.53,-0.03 -0.5,0.49 2.31,38.97 18.34,74.47 0.24,0.53 -0.34,0.53 H 79.21 q -0.63,0 -0.37,-0.58 15.93,-35.56 18.28,-74.49 0.03,-0.46 -0.43,-0.44 -38.83,2.31 -74.26,18.2 -0.68,0.31 -0.68,-0.44 V 79.26 q 0,-0.64 0.58,-0.38 35.6,15.93 74.6,18.27 a 0.19,0.19 0 0 0 0.21,-0.21 Q 94.85,57.92 78.88,22.33 78.62,21.75 79.25,21.75 h 61.73 a 0.33,0.32 12.2 0 1 0.3,0.46 q -16,35.52 -18.28,74.47 -0.03,0.45 0.43,0.43 z"
         id="path7" /></g></g></svg>
