<?xml version="1.0" encoding="UTF-8" standalone="no"?>
<svg
   width="101"
   height="17"
   viewBox="0 0 101 17"
   fill="none"
   version="1.1"
   id="svg6"
   sodipodi:docname="model_94_killfeed.svg"
   xml:space="preserve"
   inkscape:version="1.3 (0e150ed6c4, 2023-07-21)"
   xmlns:inkscape="http://www.inkscape.org/namespaces/inkscape"
   xmlns:sodipodi="http://sodipodi.sourceforge.net/DTD/sodipodi-0.dtd"
   xmlns="http://www.w3.org/2000/svg"
   xmlns:svg="http://www.w3.org/2000/svg"><defs
     id="defs6" /><sodipodi:namedview
     id="namedview6"
     pagecolor="#ffffff"
     bordercolor="#000000"
     borderopacity="0.25"
     inkscape:showpageshadow="2"
     inkscape:pageopacity="0.0"
     inkscape:pagecheckerboard="0"
     inkscape:deskcolor="#d1d1d1"
     inkscape:zoom="4.9112417"
     inkscape:cx="24.739161"
     inkscape:cy="15.780124"
     inkscape:window-width="1920"
     inkscape:window-height="1017"
     inkscape:window-x="-8"
     inkscape:window-y="-8"
     inkscape:window-maximized="1"
     inkscape:current-layer="svg6" /><path
     d="m 85.730858,3.4982314 11.5024,-3.15702166 -2.9169,1.53453166 2.9169,0.28667 -3.5745,1.33582 3.6255,1.4839399 -3.2714,0.62028 2.4451,1.72002 -10.7271,-2.51031 0.4505,-0.33393 -0.4505,-0.31238 0.7416,-0.42848 z"
     fill="#d9d9d9"
     id="path1" /><path
     fill="#fdfefd"
     d="m 84.993399,5.8284866 -0.167367,0.2960209 q -1.418491,0.1783989 -2.887868,-0.108632 -0.399019,-0.080092 -0.67722,0.2222159 l -0.593508,0.6295981 a 0.36674907,0.36674907 0 0 1 -0.534302,-0.0034 C 79.697615,6.3881787 79.41195,6.1347189 78.728719,6.1237227 73.251291,6.0291897 67.344858,5.6231118 61.906703,5.9874392 q -1.195605,0.082283 -1.157722,-1.2445443 a 0.6734847,0.66681651 1.0878991 0 1 0.681095,-0.6490133 l 17.406809,0.1452435 a 0.23575522,0.23575522 0 0 0 0.0059,-0.4714704 L 60.813821,3.5846756 A 0.6001349,0.6001349 0 0 0 60.20718,4.2374909 l 0.178257,2.1231744 q 0.02649,0.3596649 -0.326432,0.4282423 -1.399835,0.2808736 -3.697105,0.1844803 -9.123703,-0.3792391 -21.672409,0.529775 -0.35057,0.023901 -0.386244,0.3714448 -0.377356,3.6475163 -4.000114,3.2535263 -0.347567,-0.03568 -0.652724,0.151803 c -1.035196,0.624963 -5.100979,2.883792 -6.128168,1.421964 q -1.002205,-1.424721 0.589281,-2.12579 1.762379,-0.7729648 3.813484,-1.5282022 0.151943,-0.051981 0.195389,-0.1423117 0.04356,-0.090348 0.0034,-0.1819725 -0.04535,-0.1097978 -0.16079,-0.067929 Q 15.363278,13.136325 2.5613151,16.958671 1.2909409,17.335731 1.4239747,16.01675 1.8976405,11.535093 0.41295046,7.2789173 A 0.69348917,0.70015736 77.687899 0 1 1.0125808,6.3540196 L 16.86145,4.9058247 a 0.90020229,0.90020229 0 0 1 0.646843,0.197255 c 1.196145,0.9598518 2.068837,1.3537695 3.612339,0.8323945 Q 24.466859,4.7865304 28.24517,3.7133867 A 0.98022026,0.98022026 0 0 0 28.781826,2.2089801 L 28.597858,1.9517545 Q 28.43055,1.7192659 28.72007,1.7221034 l 10.561927,-0.010191 q 0.337442,-6.67e-4 0.604529,-0.2020411 1.362387,-1.06809722 2.932815,-0.011477 0.279632,0.1964191 0.592359,0.036205 1.410274,-0.71927922 2.720415,-0.5299634 c 5.121416,0.7511878 7.982853,0.5001518 12.020096,0.7301713 6.865788,0.3893647 13.891202,0.2255242 20.775239,0.2575082 q 0.361402,-0.00246 0.669891,-0.1957184 0.907225,-0.5747634 1.74198,0.2113659 a 0.37341724,0.36674907 44.887899 0 0 0.519408,0.0026 l 0.781568,-0.7454075 a 0.30006744,0.30006744 0 0 1 0.307417,-0.055985 l 2.089648,0.8292998 q 0.307418,0.1202003 0.386597,0.4407581 0.2542,0.9864079 -0.553846,1.54832 -0.27869,0.1947883 -0.196979,0.5244355 z M 83.106293,4.4242764 a 0.27527897,0.27527897 0 0 0 0.119975,-0.5373221 q -0.891907,-0.2515683 -1.999206,-0.027433 -0.615613,0.1268225 0.0059,0.2332125 z M 31.25371,9.4746602 Q 30.59073,9.1840142 30.570944,8.460399 30.557992,8.0088619 30.112701,8.0786814 l -0.562853,0.087715 A 0.27339478,0.28006297 84.487899 0 0 29.314544,8.447011 c 0.04239,2.620866 3.687663,2.690535 3.772594,-0.317985 Q 33.101858,7.6699241 32.639492,7.7150065 L 31.457258,7.827831 a 0.35341277,0.34674459 74.187899 0 0 -0.276453,0.5024595 l 0.40061,0.8087535 q 0.293877,0.6181752 -0.32767,0.3356172 z M 28.496772,11.158092 A 0.69348917,0.69348917 0 0 0 28.9048,10.26626 L 28.88185,10.20371 A 0.69348917,0.69348917 0 0 0 27.990011,9.7956772 l -3.51219,1.3069758 a 0.69348917,0.69348917 0 0 0 -0.408026,0.891833 l 0.02295,0.06255 a 0.69348917,0.69348917 0 0 0 0.89183,0.408032 z"
     id="path1-1"
     style="fill:#d9d9d9;fill-opacity:1;stroke-width:0.666819" /></svg>
