<?xml version="1.0" encoding="UTF-8" standalone="no"?>
<svg
   width="37"
   height="17"
   viewBox="0 0 37 17"
   fill="none"
   version="1.1"
   id="svg6"
   sodipodi:docname="peacemaker_killfeed.svg"
   xml:space="preserve"
   inkscape:version="1.3 (0e150ed6c4, 2023-07-21)"
   xmlns:inkscape="http://www.inkscape.org/namespaces/inkscape"
   xmlns:sodipodi="http://sodipodi.sourceforge.net/DTD/sodipodi-0.dtd"
   xmlns="http://www.w3.org/2000/svg"
   xmlns:svg="http://www.w3.org/2000/svg"><defs
     id="defs6" /><sodipodi:namedview
     id="namedview6"
     pagecolor="#ffffff"
     bordercolor="#000000"
     borderopacity="0.25"
     inkscape:showpageshadow="2"
     inkscape:pageopacity="0.0"
     inkscape:pagecheckerboard="0"
     inkscape:deskcolor="#d1d1d1"
     inkscape:zoom="6.7031812"
     inkscape:cx="-16.037162"
     inkscape:cy="1.2680546"
     inkscape:window-width="1920"
     inkscape:window-height="1017"
     inkscape:window-x="-8"
     inkscape:window-y="-8"
     inkscape:window-maximized="1"
     inkscape:current-layer="svg6" /><path
     d="m 34.983055,0.95447445 -9.993311,2.24973605 0.392727,0.1532171 -0.392727,0.477347 0.540588,0.2698079 -0.540588,0.3634424 9.993311,3.3093219 L 31.997624,4.9679217 35.83156,3.516894 32.217621,3.0229117 Z"
     fill="#d9d9d9"
     id="path1"
     style="stroke-width:0.797093" /><path
     fill="#ffffff"
     d="M 9.271205,2.4452172 8.9015843,1.8238062 q -0.07985,-0.1343836 0.070834,-0.095009 0.688099,0.1808718 1.3715147,0.3445129 c 0.65293,0.1556005 1.3008,-0.021373 1.999909,0.1047 q 0.09478,0.017127 0.15782,0.092073 l 0.213229,0.2598779 a 0.12589078,0.1336379 74.395049 0 0 0.08582,0.045016 l 1.275638,0.1038977 a 0.13170112,0.12782757 11.295049 0 0 0.133376,-0.086758 q 0.009,-0.032244 0.0267,-0.051647 0.09213,-0.1127728 0.128337,-0.1213096 0.736571,-0.1605877 1.23121,0.346513 0.08053,0.083259 0.194861,0.08179 l 5.786477,-0.031545 q 0.111744,-5.526e-4 0.133767,-0.1101567 L 21.757427,2.472636 A 0.16268963,0.16268963 0 0 1 21.86062,2.3501083 q 0.793265,-0.3116211 1.254575,0.3876197 0.05181,0.076042 0.143659,0.076744 l 0.515607,0.0068 a 0.11233332,0.1142701 89.995049 0 1 0.112286,0.1111964 l 0.006,1.6493814 a 0.12201722,0.12201722 0 0 1 -0.119708,0.121132 l -1.060994,0.013005 a 0.09102872,0.09102872 0 0 0 -0.0899,0.094532 l 0.01836,0.5618763 q 0.0042,0.162786 -0.159516,0.1643952 l -6.846005,0.032387 q -0.09701,0.00112 -0.142954,0.084355 -0.2147,0.3890394 -0.651826,0.2801446 A 0.25371835,0.25565513 12.895049 0 0 14.53056,6.1297276 L 14.221499,7.62527 q -0.01813,0.08788 -0.107875,0.1053044 -1.396441,0.258965 -2.779539,0.5349843 c -0.805847,0.1619985 -0.240062,1.3953682 -0.692694,1.9694633 -0.474669,0.597933 -1.7449821,0.627344 -2.414666,0.457359 Q 8.143098,10.669841 8.0897246,10.601611 L 7.4306542,9.7591315 Q 7.3719454,9.6840946 7.2843928,9.7239845 6.7317989,9.9847768 6.1345389,9.7977093 6.0578253,9.7741561 5.9830813,9.8050227 C 4.523075,10.387602 5.2603978,13.233182 5.7524812,14.251475 a 0.11039654,0.11039654 0 0 1 -0.097235,0.159657 l -5.53030777,0.061 A 0.07747124,0.07747124 0 0 1 0.05178751,14.368793 Q 0.91806952,11.992973 1.8556903,9.6295185 C 2.3023437,8.5080204 3.2794754,7.2310097 4.601356,7.0116867 Q 4.7066669,6.993085 4.6777373,6.8914387 L 4.6328273,6.7286183 A 0.09102872,0.09102872 0 0 1 4.7405235,6.614655 Q 5.0668569,6.6859557 5.3016726,6.4758439 5.382529,6.404882 5.4754323,6.457567 l 0.078924,0.046008 q 0.09117,0.051829 0.1791857,-0.00715 L 6.5898578,5.921019 A 0.11039654,0.11233332 59.095049 0 0 6.6267423,5.775585 Q 6.3000299,5.1767852 6.4666941,4.5141001 A 0.22079307,0.22272984 25.295049 0 0 6.3857307,4.2827093 Q 5.8182455,3.8567995 5.4747804,3.2435181 A 0.15300572,0.13557469 3.3950485 0 0 5.4252627,3.19428 L 5.0711283,2.9918609 A 0.12395399,0.12395399 0 0 1 5.0497411,2.7930407 c 0.5170328,-0.474916 1.0509051,0.044379 1.4182778,0.3860082 a 0.59459185,0.59459185 0 0 0 0.8006379,0.00703 Q 7.6055334,2.882922 8.0276852,2.72529 A 0.19367813,0.19561492 85.095049 0 0 8.1486704,2.5833388 L 8.2884357,1.9186037 A 0.09683906,0.09683906 0 0 1 8.4743552,1.9018112 Q 8.6805531,2.4113369 9.1860017,2.5569548 A 0.07553447,0.07553447 0 0 0 9.2712165,2.445188 Z M 9.1431917,10.175544 q -0.051249,0.03571 -0.1101182,0.03775 C 8.6086578,10.217592 8.3989883,9.2412282 8.4242035,8.9487596 A 0.10845974,0.10845974 0 0 0 8.2185419,8.8897136 C 7.3530145,10.541299 9.3016385,10.722419 10.241443,10.120182 q 0.06839,-0.04472 0.103266,-0.118195 0.323387,-0.6676098 -0.106431,-1.2661405 A 0.25759191,0.25952869 77.695049 0 0 10.078545,8.6342793 Q 9.5324309,8.5336715 8.9973144,8.7170049 8.9070066,8.7491717 8.8768029,8.8398857 8.6601958,9.5174515 9.1565843,10.025382 q 0.080535,0.08326 -0.013394,0.15015 z"
     id="path1-9"
     style="fill:#d9d9d9;fill-opacity:1;stroke-width:0.193679" /></svg>
