<?xml version="1.0" encoding="UTF-8" standalone="no"?>
<svg
   width="42"
   height="17"
   viewBox="0 0 42 17"
   fill="none"
   version="1.1"
   id="svg7"
   sodipodi:docname="saf_200_killfeed.svg"
   xml:space="preserve"
   inkscape:version="1.3 (0e150ed6c4, 2023-07-21)"
   xmlns:inkscape="http://www.inkscape.org/namespaces/inkscape"
   xmlns:sodipodi="http://sodipodi.sourceforge.net/DTD/sodipodi-0.dtd"
   xmlns="http://www.w3.org/2000/svg"
   xmlns:svg="http://www.w3.org/2000/svg"><defs
     id="defs7" /><sodipodi:namedview
     id="namedview7"
     pagecolor="#ffffff"
     bordercolor="#000000"
     borderopacity="0.25"
     inkscape:showpageshadow="2"
     inkscape:pageopacity="0.0"
     inkscape:pagecheckerboard="0"
     inkscape:deskcolor="#d1d1d1"
     inkscape:zoom="11.810367"
     inkscape:cx="-6.7313743"
     inkscape:cy="8.7634873"
     inkscape:window-width="1920"
     inkscape:window-height="1017"
     inkscape:window-x="-8"
     inkscape:window-y="-8"
     inkscape:window-maximized="1"
     inkscape:current-layer="svg7" /><path
     d="M35.9131 3.77014L40.7609 1.94141L38.8527 3.4272L41.3768 4.44329L39.5935 4.92244L40.7609 6.46404L35.9131 4.7512L36.1777 4.55206L35.9131 4.15461L36.1777 3.97591L35.9131 3.77014Z"
     fill="#D9D9D9"
     id="path1" /><path
     fill="#ffffff"
     d="m 35.368565,4.7156405 -0.136938,0.232682 -3.931765,-0.041071 q -0.09903,-0.00163 -0.154515,0.075685 L 30.669125,5.6391651 A 0.16084367,0.16084367 0 0 1 30.382539,5.5938182 L 30.153335,4.8790299 A 0.10627171,0.10627171 0 0 0 29.94421,4.9059349 L 29.891,5.777791 Q 29.8838,5.903467 29.75933,5.9335847 29.554852,5.9865537 29.494755,5.8111985 A 0.19243797,0.19531017 80.378329 0 0 29.312891,5.6841662 l -2.984765,-0.013634 q -0.128583,-0.00236 -0.229372,0.078302 c -0.09832,0.08212 -0.224739,0.1610115 -0.359732,0.1582176 q -1.952271,-0.012528 -3.903816,0.00202 -0.153199,-1.25e-4 -0.24246,-0.1259915 C 20.917994,4.8060881 19.345695,5.9770118 19.950464,7.3560869 q 0.06782,0.1565667 -0.08175,0.2351665 l -0.24322,0.1301474 A 0.22116005,0.22116005 0 0 0 19.513742,7.962239 l 1.596492,7.904975 q 0.03286,0.15933 -0.131247,0.149377 l -2.384905,-0.143832 a 0.43370349,0.43370349 0 0 1 -0.398064,-0.354248 l -1.32188,-7.0634815 a 0.33030397,0.33030397 0 0 0 -0.32643,-0.2721098 l -2.45556,0.00455 q -0.247278,0.00104 -0.267869,0.2456081 l -0.05549,0.6605517 q -0.01038,0.1138681 -0.105885,0.1743124 -0.552588,0.361322 -0.826652,0.9798831 -0.05798,0.132498 -0.03166,0.274646 c 0.113758,0.576851 -0.334081,0.743204 -0.81842,0.671447 Q 10.987931,11.049666 10.16259,10.730559 9.8477778,10.608591 10.029578,10.322338 L 12.010207,7.2287909 A 0.62901366,0.62901366 0 0 0 11.441457,6.264179 Q 10.320407,6.33426 9.1513848,6.6727328 5.3499905,7.7748607 1.6255763,9.1255926 1.5028013,9.1699668 1.4357846,9.2838429 L 1.20415,9.6774213 Q 1.1094569,9.8383137 0.99443325,9.6939142 L 0.81172424,9.4664669 A 0.19818238,0.2039268 65.678329 0 0 0.61703658,9.3952146 Q -0.17724474,9.5443043 -0.32324126,8.5918726 -0.72647454,5.9416665 -0.44772511,3.8994587 -0.37625311,3.381627 0.27251383,3.3835178 5.5573038,3.4077078 10.844994,3.4835924 q 0.542895,0.00624 1.132214,-0.4967717 0.09977,-0.084585 0.14698,-0.2101092 L 12.684172,1.2532894 A 0.6778412,0.6778412 0 0 1 13.41051,0.81759002 Q 16.313343,1.2195862 19.171232,1.375169 c 0.821037,0.043288 1.28128,0.4108089 1.078086,1.2543791 a 0.16371588,0.15509925 23.978329 0 0 0.06944,0.1708397 q 0.786422,0.4928233 1.328449,-0.1846499 0.118433,-0.1502557 0.311528,-0.149927 l 7.536472,0.026293 a 0.29870968,0.29870968 0 0 0 0.242787,-0.12373 q 0.253178,-0.3508998 0.364095,-0.8055243 0.142412,-0.57606845 0.564826,-0.370785 a 0.25849877,0.25849877 0 0 1 0.14776,0.2302653 l 0.05706,2.0832036 q 0.0034,0.1585963 0.160433,0.1577557 l 4.231048,-0.04275 q 0.145787,-0.00419 0.13962,0.1421621 z M 30.194229,3.2088771 A 0.1665881,0.31594294 0.87832884 0 0 30.365644,2.895539 0.1665881,0.31594294 0.87832884 0 0 30.203915,2.5771016 0.1665881,0.31594294 0.87832884 0 0 30.032498,2.8904396 0.1665881,0.31594294 0.87832884 0 0 30.194229,3.2088771 Z M 19.450305,2.3011984 A 0.22977667,0.22977667 0 0 0 19.220056,2.0718998 l -4.107248,0.00873 a 0.22977667,0.22977667 0 0 0 -0.229313,0.2302739 l 6e-6,0.011552 a 0.22977667,0.22977667 0 0 0 0.23025,0.2292986 l 4.107246,-0.00873 A 0.22977667,0.22977667 0 0 0 19.450311,2.3127521 Z M 16.322387,7.2258962 A 0.37051489,0.37051489 0 0 0 15.946608,6.8607346 l -0.442291,0.00634 a 0.37051489,0.37051489 0 0 0 -0.365132,0.3758062 l 0.0026,0.1837982 a 0.37051489,0.37051489 0 0 0 0.375781,0.3651633 l 0.442288,-0.00634 a 0.37051489,0.37051489 0 0 0 0.365151,-0.3757937 z m -1.701391,0.00634 q -0.0072,-0.1009265 -0.09346,-0.1583154 -0.103555,-0.06754 -0.156269,0.044675 -0.152834,0.3333048 0.18613,0.5727905 a 0.12063277,0.12350497 26.478329 0 0 0.187138,-0.063164 q 0.02536,-0.088399 -0.01325,-0.1644207 -0.110181,-0.2148318 -0.110331,-0.2315784 z"
     id="path1-7"
     style="fill:#d9d9d9;fill-opacity:1;stroke-width:0.28722" /></svg>
