<?xml version="1.0" encoding="UTF-8" standalone="no"?>
<svg
   width="87"
   height="24"
   viewBox="0 0 87 24"
   fill="none"
   version="1.1"
   id="svg8"
   sodipodi:docname="sr25_killfeed.svg"
   xml:space="preserve"
   inkscape:version="1.3 (0e150ed6c4, 2023-07-21)"
   xmlns:inkscape="http://www.inkscape.org/namespaces/inkscape"
   xmlns:sodipodi="http://sodipodi.sourceforge.net/DTD/sodipodi-0.dtd"
   xmlns="http://www.w3.org/2000/svg"
   xmlns:svg="http://www.w3.org/2000/svg"><defs
     id="defs8" /><sodipodi:namedview
     id="namedview8"
     pagecolor="#ffffff"
     bordercolor="#000000"
     borderopacity="0.25"
     inkscape:showpageshadow="2"
     inkscape:pageopacity="0.0"
     inkscape:pagecheckerboard="0"
     inkscape:deskcolor="#d1d1d1"
     inkscape:zoom="8.5548781"
     inkscape:cx="15.488239"
     inkscape:cy="20.163934"
     inkscape:window-width="1920"
     inkscape:window-height="1017"
     inkscape:window-x="-8"
     inkscape:window-y="-8"
     inkscape:window-maximized="1"
     inkscape:current-layer="svg8" /><path
     fill="#ffffff"
     d="M -0.00787774,10.781202 0.67466355,9.6460939 Q 7.898318,8.7334118 15.230177,8.274042 c 0.917446,-0.060577 1.446059,0.2647461 2.060011,0.857904 a 0.58867251,0.5822739 56.418496 0 0 0.624271,0.1289868 L 22.676581,7.3758393 A 2.0155635,2.0155635 0 0 0 23.821386,4.801443 Q 23.317891,3.4534118 23.645215,1.9777841 23.716856,1.647549 24.061429,1.6456832 c 0.870208,-0.00685 1.597806,-0.062122 2.592992,0.058445 2.29211,0.2732365 4.977853,-0.2695821 7.346195,-0.5328792 q 0.341309,-0.033694 0.516607,0.2583708 0.479873,0.8037222 1.405273,0.4567447 0.319447,-0.1215007 0.23307,-0.4496926 L 36.024385,0.90981411 Q 35.91507,0.47076869 36.355013,0.57104824 37.815266,0.91152545 39.24996,0.43774213 39.82735,0.24735412 39.635856,0.82657429 L 39.350821,1.6855292 q -0.06272,0.1788094 0.125981,0.2250786 0.08996,0.024229 0.17992,0.048457 0.174436,0.045161 0.288695,-0.095195 1.404008,-1.66444123 2.934442,-0.1244893 a 0.60146974,0.60786836 61.218496 0 0 0.567178,0.1618526 q 4.923838,-1.16068476 9.969254,-0.93419947 0.377473,0.0179185 0.3826,0.39431617 l 0.06324,3.8682326 q 0.0084,0.4455334 -0.434959,0.4253574 l -2.22645,-0.084425 Q 50.782644,5.5580473 50.856873,5.968526 l 0.135302,0.8055868 q 0.05781,0.3632793 0.43421,0.3581518 L 77.191357,6.923144 q 0.344565,-0.00185 0.345998,-0.35192 l -0.0038,-0.6145218 q -0.002,-0.4938099 0.486641,-0.5361408 l 0.621152,-0.05208 a 0.46070022,0.46070022 0 0 1 0.495566,0.4547788 q 0.01293,1.4188902 1.385998,1.1096514 a 0.37111963,0.36472101 85.818496 0 1 0.446251,0.3877917 l -0.08881,1.0665438 q -0.02778,0.3566134 -0.382164,0.30031 -0.977586,-0.1622454 -1.038942,0.883474 -0.02125,0.3829569 -0.399799,0.3793025 -3.216295,-0.015144 -6.352625,0.085012 -0.393959,0.0095 -0.569363,-0.1706485 -0.132647,-0.139491 -0.164295,-0.3227794 a 0.40951132,0.40951132 0 0 1 0.303316,-0.4671824 l 0.518074,-0.1289934 a 0.12797229,0.12797229 0 0 0 -0.0349,-0.2524306 l -21.475362,0.152864 q -0.232641,0.00196 -0.398509,0.1784884 -0.3636,0.3936024 -0.779565,0.4645332 -4.814921,0.8678107 -9.636043,1.3361637 A 0.87661015,0.87021154 7.3184961 0 0 39.7344,11.390893 q -1.564525,4.278185 -3.174962,8.371971 c -1.093443,2.799402 -3.203662,2.807262 -5.777618,3.499429 a 0.33272794,0.33272794 0 0 1 -0.393531,-0.438221 l 4.052863,-10.688744 q 0.141926,-0.385035 -0.258699,-0.289948 -4.247743,1.029649 -8.538784,1.43596 c -0.988804,0.09233 -1.672105,-0.273742 -1.772106,-1.274624 Q 23.828089,11.569928 23.404381,11.7034 l -2.212934,0.700193 a 0.37751824,0.37751824 0 0 0 -0.246258,0.471626 q 0.410273,1.291978 0.135777,2.605247 a 0.87021154,0.86381293 28.218496 0 1 -1.457704,0.437549 q -0.94942,-0.929267 -1.310342,-2.19157 -0.0853,-0.305144 -0.390447,-0.219843 L 2.272262,17.84156 A 0.60146974,0.60786836 75.818496 0 1 1.5231928,17.398611 Z M 43.827861,5.3033929 q 1.378247,0.029853 2.755242,0.2232008 0.38292,0.058521 0.141712,-0.1611759 Q 46.643676,5.3016968 46.4835,5.2576459 44.843363,4.8314039 43.291969,4.5555825 a 0.25594457,0.24954596 75.318496 0 0 -0.238517,0.409085 q 0.264147,0.330556 0.774409,0.3387254 z M 39.168876,4.9060892 34.828013,4.625409 a 0.07038476,0.07038476 0 0 0 -0.07688,0.065766 l 0.0055,0.00326 a 0.6270642,0.70384757 3.7184961 0 0 0.576498,0.742362 l 3.232603,0.2115858 a 0.6270642,0.70384757 3.7184961 0 0 0.668924,-0.6654551 v 0 a 0.07038476,0.07038476 0 0 0 -0.06579,-0.076874 z M 24.972013,5.321591 c 1.920157,0.2213055 3.695841,0.049621 5.721262,0.3566188 q 0.16458,0.024294 0.25031,-0.1182749 0.04946,-0.082249 0.09892,-0.1645083 A 0.26234318,0.26234318 0 0 0 30.880464,5.0068091 q -2.952295,-0.7150034 -5.932218,-0.08029 a 0.20475565,0.19835704 41.918496 0 0 0.02376,0.3950701 z m 2.863156,6.724027 a 0.48629468,0.48629468 0 0 0 -0.238344,-0.91981 l -1.450753,0.05348 a 0.36472101,0.36472101 0 0 0 -0.2464,0.620867 q 0.805771,0.820493 1.935497,0.245463 z"
     id="path1-7"
     style="fill:#d9d9d9;fill-opacity:1;stroke-width:0.639861" /><path
     d="m 81.287242,7.2706402 4.8478,-1.82873 -1.9082,1.48579 2.5241,1.01609 -1.7833,0.47915 1.1674,1.5416 -4.8478,-1.71284 0.2646,-0.19914 -0.2646,-0.39745 0.2646,-0.1787 z"
     fill="#d9d9d9"
     id="path1" /></svg>
